<svg width="880" height="880" viewBox="0 0 880 880" fill="none" xmlns="http://www.w3.org/2000/svg">
<path d="M401.277 215.824L363.656 233.952L379.145 195.76L347.245 179.26L390.453 159.328L353.58 124.744L402.464 133.016L385.745 80.216L426.84 117.352L441.316 63.892L455.793 117.352L487.12 96.1L480.169 133.016L534.816 123.952L492.18 159.328L523.112 177.192L488.088 188.016L518.977 233.952L480.08 215.12" stroke="black" stroke-width="3" stroke-linecap="round" stroke-linejoin="round"/>
<path d="M464.109 243.544L460.853 251.904L440.305 225.988L413.949 264.048L414.125 251.904" stroke="black" stroke-width="3" stroke-linecap="round" stroke-linejoin="round"/>
<path d="M427.675 204.34C415.223 199.94 408.711 202.448 407.479 203.02C405.587 207.772 403.519 212.568 401.275 217.32C391.46 238.182 379.673 258.057 366.075 276.676C366.075 276.676 323.703 245.172 308.875 237.076C295.675 229.904 274.115 230.784 274.115 230.784C273.834 228.753 273.057 226.824 271.852 225.166C270.647 223.508 269.051 222.173 267.207 221.28L266.239 221.016C251.525 218.169 236.384 218.379 221.755 221.632L221.139 221.94C218.311 224.177 216.363 227.34 215.639 230.872C215.639 230.872 179.647 236.196 169.131 244.864C159.803 252.52 121.743 302.064 115.187 315.616C109.995 326.396 104.319 335.9 105.067 347.956C106.651 372.112 135.339 394.156 166.095 406.036V406.52C164.951 431.512 163.367 450.52 162.487 467.152H167.239L331.623 466.888H335.187C334.659 439.828 322.603 353.368 314.683 301.272C316.047 301.932 359.343 326.176 377.823 327.672C387.151 328.376 402.287 288.072 413.551 253.18C421.911 227.22 428.115 204.516 428.115 204.516H427.763L427.675 204.34ZM282.123 340.74H261.795L259.067 359.44H259.903C260.367 359.499 260.814 359.65 261.219 359.885C261.624 360.119 261.978 360.432 262.261 360.805C262.544 361.177 262.749 361.603 262.866 362.056C262.982 362.509 263.007 362.981 262.939 363.444L262.059 379.548L261.663 386.5C262.321 386.458 262.98 386.549 263.603 386.767C264.225 386.985 264.797 387.326 265.285 387.769C265.774 388.212 266.168 388.748 266.445 389.347C266.722 389.945 266.877 390.593 266.899 391.252C266.659 392.726 266.081 394.124 265.211 395.338C264.341 396.552 263.202 397.548 261.883 398.248C262.465 398.161 263.058 398.192 263.628 398.339C264.197 398.486 264.732 398.745 265.199 399.102C265.667 399.459 266.058 399.906 266.35 400.417C266.642 400.928 266.829 401.492 266.899 402.076C266.641 403.42 266.063 404.682 265.212 405.755C264.362 406.827 263.265 407.679 262.015 408.236C262.559 408.058 263.138 408.009 263.705 408.094C264.272 408.178 264.811 408.393 265.28 408.722C265.75 409.05 266.136 409.484 266.41 409.987C266.683 410.491 266.835 411.051 266.855 411.624C266.855 413.692 263.863 416.376 258.495 418.224L259.727 418.708L259.199 428.52C259.226 429.376 258.927 430.21 258.364 430.855C257.801 431.5 257.014 431.907 256.163 431.996H234.999C234.147 431.907 233.361 431.5 232.797 430.855C232.234 430.21 231.936 429.376 231.963 428.52L231.479 419.72V419.236C226.346 418.203 221.311 416.731 216.431 414.836H215.155C219.555 411.668 218.191 392.176 218.191 392.176C217.707 390.02 222.899 384.564 229.015 384.124H229.411L229.147 378.668L228.839 371.628C226.688 371.495 224.62 370.746 222.884 369.47C221.147 368.194 219.815 366.444 219.046 364.431C218.278 362.418 218.105 360.225 218.549 358.117C218.993 356.008 220.035 354.071 221.551 352.539C223.066 351.007 224.991 349.943 227.095 349.476C229.199 349.009 231.392 349.157 233.414 349.903C235.436 350.65 237.2 351.963 238.495 353.685C239.791 355.407 240.563 357.466 240.719 359.616H252.995L256.647 335.064H282.563L282.123 340.74Z" fill="#332E6F"/>
<path d="M375.931 789.892C356.791 787.648 332.239 775.944 326.299 775.504H325.023C322.251 776.252 290.307 775.504 290.307 775.504C290.307 775.504 290.307 774.844 290.307 774.404V808.372L391.903 807.932C393.883 796.096 385.171 790.948 375.931 789.892Z" fill="#332E6F"/>
<path d="M182.947 789.012C174.807 789.408 174.147 778.584 158.131 770.488L157.383 770.092L127.639 758.256H127.111L113.207 786.724L156.415 807.096L209.699 807.58V806.216C208.379 798.824 197.027 788.352 182.947 789.012Z" fill="#332E6F"/>
<path d="M290.266 816.775H392.126V808.415H290.266V816.775Z" stroke="black" stroke-width="3" stroke-linecap="round" stroke-linejoin="round"/>
<path d="M165.877 406.519C164.733 431.511 163.149 450.519 162.269 467.151L335.013 466.843C334.441 434.899 317.721 320.235 310.725 276.939" stroke="black" stroke-width="3" stroke-linecap="round" stroke-linejoin="round"/>
<path d="M158.178 770.444C169.75 760.984 258.014 607.072 277.198 502.836" stroke="black" stroke-width="3" stroke-miterlimit="10" stroke-linecap="round"/>
<path d="M167.24 467.416C161.96 568 127.64 757.816 127.64 757.816" stroke="black" stroke-width="3" stroke-miterlimit="10" stroke-linecap="round"/>
<path d="M255.24 578.208C263.512 623.088 287.8 760.764 290.132 775.46C290.132 775.46 324.628 776.164 325.024 775.46C330.832 762.788 334.836 628.368 331.272 468.472" stroke="black" stroke-width="3" stroke-miterlimit="10" stroke-linecap="round"/>
<path d="M197.027 491.66C192.627 515.376 169.087 522.46 147.483 518.808" stroke="black" stroke-width="3" stroke-miterlimit="10" stroke-linecap="round"/>
<path d="M326.302 775.416C332.242 775.856 356.794 787.56 375.934 789.804C385.174 790.86 393.886 796.008 391.774 807.8L290.178 808.24" stroke="black" stroke-width="3" stroke-linecap="round" stroke-linejoin="round"/>
<path d="M290.131 774.36V807.58" stroke="black" stroke-width="3" stroke-miterlimit="10"/>
<path d="M108.325 795.48L154.305 816.16L209.569 815.72V807.36L156.241 806.876L113.033 786.504L108.325 795.48Z" stroke="black" stroke-width="3" stroke-linecap="round" stroke-linejoin="round"/>
<path d="M209.523 806.216C208.379 798.692 197.027 788.22 183.123 788.88C174.851 789.276 174.323 778.1 157.559 769.96L127.111 757.904L113.207 786.372" stroke="black" stroke-width="3" stroke-linecap="round" stroke-linejoin="round"/>
<path d="M224.835 126.328C226.199 116.34 228.003 101.556 234.955 93.8119C257.219 68.9079 283.091 119.64 287.227 135.964C291.143 151.188 269.627 185.508 263.467 187.972C254.139 191.668 240.895 182.912 236.715 174.244" stroke="black" stroke-width="3" stroke-miterlimit="10" stroke-linecap="round"/>
<path d="M221.669 221.324C221.669 195.232 220.261 171.604 222.461 145.6" stroke="black" stroke-width="3" stroke-miterlimit="10"/>
<path d="M260.916 187.531C262.192 198.751 263.644 211.819 268 221.279" stroke="black" stroke-width="3" stroke-miterlimit="10"/>
<path d="M228.402 130.904C216.126 112.776 207.018 136.624 211.77 142.872C214.806 146.876 221.318 146.128 224.97 144.236" stroke="black" stroke-width="3" stroke-miterlimit="10" stroke-linecap="round"/>
<path d="M272.179 105.163C273.675 105.163 308.963 98.1233 303.991 88.4433C298.359 77.3553 230.291 112.335 226.111 114.183" stroke="black" stroke-width="3" stroke-miterlimit="10"/>
<path d="M252.294 133.015C250.488 132.465 248.579 132.35 246.721 132.679C244.862 133.008 243.108 133.771 241.602 134.907" stroke="black" stroke-width="3" stroke-miterlimit="10" stroke-linecap="round"/>
<path d="M222.68 134.468C220.795 136.312 218.276 137.367 215.64 137.416" stroke="black" stroke-width="3" stroke-miterlimit="10" stroke-linecap="round"/>
<path d="M248.903 144.632C249.923 144.632 250.751 143.804 250.751 142.784C250.751 141.763 249.923 140.936 248.903 140.936C247.882 140.936 247.055 141.763 247.055 142.784C247.055 143.804 247.882 144.632 248.903 144.632Z" fill="black"/>
<path d="M273.103 144.015C274.124 144.015 274.951 143.188 274.951 142.167C274.951 141.147 274.124 140.319 273.103 140.319C272.082 140.319 271.255 141.147 271.255 142.167C271.255 143.188 272.082 144.015 273.103 144.015Z" fill="black"/>
<path d="M276.185 133.5C273.281 132.18 266.681 132.576 265.493 135.436C263.645 139.836 266.461 149.604 267.649 155.104C268.441 158.844 269.805 166.148 263.249 164.168" stroke="black" stroke-width="3" stroke-miterlimit="10" stroke-linecap="round"/>
<path d="M407.523 203.063C396.717 229.148 382.88 253.87 366.295 276.719C366.295 276.719 323.923 245.215 309.095 237.119C295.895 229.947 274.335 230.827 274.335 230.827C274.005 228.617 273.082 226.537 271.664 224.809C270.246 223.081 268.386 221.77 266.283 221.015C251.499 216.967 224.483 219.871 221.139 221.939C218.311 224.176 216.363 227.339 215.639 230.871C215.639 230.871 179.647 236.195 169.131 244.863C159.803 252.519 121.787 302.063 115.187 315.615C109.995 326.395 104.319 335.899 105.067 347.955C107.487 385.311 174.807 417.651 214.363 415.055C219.819 414.703 218.499 391.999 218.499 391.999C204.155 388.523 145.547 361.199 153.819 347.339C169.399 326.315 187.091 306.942 206.619 289.523" stroke="black" stroke-width="3" stroke-linejoin="round"/>
<path d="M427.85 184.54C427.41 175.74 427.366 169.404 427.542 161.572C427.542 158.888 428.95 147.888 423.758 148.988C418.566 150.088 419.974 174.2 420.062 177.94" stroke="black" stroke-width="3" stroke-linecap="round" stroke-linejoin="round"/>
<path d="M421.469 151.055C420.985 147.799 419.665 146.083 416.717 146.127C410.205 146.127 411.789 168.127 411.657 178.159" stroke="black" stroke-width="3" stroke-linecap="round" stroke-linejoin="round"/>
<path d="M427.851 204.384C433.043 205 435.991 184.584 436.255 178.292C436.255 176.224 436.607 172.396 434.011 171.12C432.251 170.284 430.755 171.912 430.139 173.144C429.329 175.035 428.81 177.037 428.599 179.084C428.247 181.724 427.763 184.892 427.455 187.532" stroke="black" stroke-width="3" stroke-linecap="round" stroke-linejoin="round"/>
<path d="M412.67 150.836C412.186 148.108 409.37 148.548 407.566 150.176C402.374 154.84 403.782 187.664 407.302 202.976C407.302 202.976 413.814 199.236 427.674 204.164" stroke="black" stroke-width="3" stroke-linecap="round" stroke-linejoin="round"/>
<path d="M314.597 301.228C315.961 301.888 359.257 326.088 377.737 327.628C394.061 328.948 428.029 204.427 428.029 204.427" stroke="black" stroke-width="3" stroke-miterlimit="10"/>
<path d="M253.657 359.616H231.305C230.839 359.669 230.388 359.817 229.98 360.049C229.572 360.282 229.216 360.595 228.932 360.969C228.648 361.343 228.443 361.771 228.329 362.227C228.215 362.682 228.195 363.156 228.269 363.62L229.633 389.448" stroke="black" stroke-width="3" stroke-miterlimit="10"/>
<path d="M261.62 387.688L262.94 363.62C263.008 363.157 262.983 362.685 262.866 362.232C262.75 361.779 262.545 361.353 262.262 360.981C261.979 360.608 261.625 360.295 261.22 360.061C260.815 359.826 260.368 359.675 259.904 359.616H258.188" stroke="black" stroke-width="3" stroke-miterlimit="10"/>
<path d="M231.479 419.764L231.963 428.564C231.936 429.419 232.234 430.254 232.797 430.898C233.36 431.543 234.147 431.951 234.999 432.04H256.339C257.194 431.961 257.987 431.557 258.552 430.909C259.118 430.262 259.412 429.422 259.375 428.564L259.903 419.016" stroke="black" stroke-width="3" stroke-miterlimit="10"/>
<path d="M229.588 388.919C232.096 396.003 245.076 394.815 250.708 393.847C252.776 393.495 262.676 389.447 261.664 386.719" stroke="black" stroke-width="3" stroke-miterlimit="10"/>
<path d="M261.796 386.675C262.454 386.634 263.114 386.725 263.736 386.943C264.358 387.161 264.931 387.501 265.419 387.944C265.907 388.387 266.301 388.924 266.579 389.522C266.856 390.121 267.01 390.768 267.032 391.427C266.68 398.115 254.448 404.143 241.116 402.075" stroke="black" stroke-width="3" stroke-miterlimit="10" stroke-linecap="round"/>
<path d="M262.015 398.423C262.597 398.337 263.19 398.368 263.76 398.515C264.329 398.661 264.864 398.921 265.331 399.278C265.799 399.635 266.19 400.082 266.482 400.592C266.774 401.103 266.961 401.667 267.031 402.251C266.679 408.103 254.887 413.515 241.555 411.711" stroke="black" stroke-width="3" stroke-miterlimit="10" stroke-linecap="round"/>
<path d="M262.193 408.5C262.737 408.322 263.316 408.273 263.883 408.358C264.449 408.442 264.989 408.657 265.458 408.986C265.928 409.314 266.314 409.747 266.587 410.251C266.861 410.755 267.013 411.315 267.033 411.888C267.033 417.3 247.013 426.76 216.521 414.836" stroke="black" stroke-width="3" stroke-miterlimit="10" stroke-linecap="round"/>
<path d="M218.148 392.176C217.312 390.108 222.548 384.388 228.928 383.904" stroke="black" stroke-width="3" stroke-miterlimit="10" stroke-linecap="round"/>
<path d="M229.325 378.403C239.577 374.311 241.205 386.367 254.801 385.135C256.349 384.876 257.812 384.249 259.068 383.307C260.324 382.366 261.335 381.137 262.017 379.723" stroke="black" stroke-width="3" stroke-miterlimit="10" stroke-linecap="round"/>
<path d="M255.373 384.695L261.797 340.915L282.125 340.827L282.565 335.063H256.649L249.345 384.167" stroke="black" stroke-width="3" stroke-linecap="round" stroke-linejoin="round"/>
<path d="M229.498 371.671C227.279 371.671 225.11 371.013 223.265 369.78C221.42 368.547 219.982 366.795 219.132 364.745C218.283 362.695 218.061 360.439 218.494 358.262C218.927 356.086 219.995 354.087 221.565 352.517C223.134 350.948 225.133 349.88 227.309 349.447C229.486 349.014 231.742 349.236 233.792 350.085C235.842 350.934 237.595 352.373 238.827 354.218C240.06 356.063 240.718 358.232 240.718 360.451" stroke="black" stroke-width="3" stroke-linejoin="round"/>
<path d="M162.839 408.368C179.307 414.063 196.764 416.338 214.143 415.056C219.599 414.704 218.279 392 218.279 392C203.935 388.524 145.327 361.2 153.599 347.34C169.179 326.316 186.871 306.943 206.399 289.524" stroke="white" stroke-width="3" stroke-linejoin="round"/>
<path d="M257.661 180.272C248.861 179.964 245.209 166.544 247.409 168.348C250.594 170.041 254.13 170.967 257.736 171.051C261.342 171.135 264.917 170.375 268.177 168.832C270.597 167.512 264.789 180.58 257.661 180.272Z" stroke="black" stroke-width="3" stroke-miterlimit="10"/>
<path d="M645.987 787.572L646.823 787.308L645.987 787.572Z" fill="black"/>
<path d="M622.492 793.115L623.504 792.676L622.492 793.115Z" fill="black"/>
<path d="M711.812 777.452L713.44 776.968L711.812 777.452Z" fill="black"/>
<path d="M456.57 698.692L455.03 699.088L456.57 698.692Z" fill="black"/>
<path d="M618.226 795.844L619.062 795.14L618.226 795.844Z" fill="black"/>
<path d="M500.878 689.32L504.09 689.672L500.878 689.32Z" fill="black"/>
<path d="M493.397 687.78L494.453 688.044L493.397 687.78Z" fill="black"/>
<path d="M619.06 795.14L619.94 794.524L619.06 795.14Z" fill="black"/>
<path d="M496.606 688.572L498.718 689.012L496.606 688.572Z" fill="black"/>
<path d="M709.611 778.068L710.975 777.716L709.611 778.068Z" fill="black"/>
<path d="M619.94 794.524C620.335 794.249 620.747 793.999 621.172 793.776C620.747 793.999 620.335 794.249 619.94 794.524Z" fill="black"/>
<path d="M494.454 688.043L496.61 688.527L494.454 688.043Z" fill="black"/>
<path d="M675.03 777.848V777.408V777.848C676.834 778.376 678.638 778.816 680.398 779.212C678.638 778.86 676.834 778.376 675.03 777.848Z" fill="black"/>
<path d="M491.283 687.164L493.395 687.78L491.283 687.164Z" fill="black"/>
<path d="M624.207 792.412L625.307 792.016L624.207 792.412Z" fill="black"/>
<path d="M519.973 688.572L518.697 688.792L519.973 688.572Z" fill="black"/>
<path d="M642.645 788.54L643.481 788.32L642.645 788.54Z" fill="black"/>
<path d="M527.54 686.856L529.124 686.372L527.54 686.856Z" fill="black"/>
<path d="M685.807 780.18L687.963 780.4L685.807 780.18Z" fill="black"/>
<path d="M709.171 778.2C702.641 780.066 695.846 780.84 689.063 780.488C695.846 780.84 702.641 780.066 709.171 778.2Z" fill="black"/>
<path d="M531.895 727.16H430.035V727.204H531.895V727.16Z" fill="white"/>
<path d="M713.44 776.968L714.276 776.66L713.44 776.968Z" fill="black"/>
<path d="M510.643 689.848C508.532 689.959 506.417 689.959 504.307 689.848C506.417 689.959 508.532 689.959 510.643 689.848Z" fill="black"/>
<path d="M515.746 689.408L513.106 689.672L515.746 689.408Z" fill="black"/>
<path d="M643.393 788.32L644.273 788.056L643.393 788.32Z" fill="black"/>
<path d="M639.871 789.243L637.407 789.815L639.871 789.243Z" fill="black"/>
<path d="M680.397 779.212C681.847 779.565 683.316 779.829 684.797 780.004C683.316 779.829 681.847 779.565 680.397 779.212Z" fill="black"/>
<path d="M615.278 502.496C615.718 514.948 616.51 527.356 617.742 539.676C625.97 624.596 651.578 706.876 674.942 777.276V777.716" stroke="black" stroke-width="3" stroke-miterlimit="10" stroke-linecap="round"/>
<path d="M717.092 466.02C717.312 483.62 717.488 502.144 717.576 521.064C718.06 635.068 715.904 763.064 716.08 776.264V777.232" stroke="black" stroke-width="3" stroke-miterlimit="10"/>
<path d="M715.991 776.132L714.275 776.66L713.439 776.968L711.811 777.452L710.975 777.716L709.611 778.068H709.171C702.64 779.934 695.846 780.707 689.063 780.356H687.963L685.807 780.136H684.707C683.226 779.96 681.757 779.696 680.307 779.344C678.547 778.992 676.743 778.508 674.939 777.98H674.411" stroke="black" stroke-width="3" stroke-miterlimit="10"/>
<path d="M490.935 687.075H490.583" stroke="black" stroke-width="3" stroke-miterlimit="10"/>
<path d="M532.073 685.404H531.633L529.125 686.24L527.541 686.724L523.889 687.692H523.449H522.877L519.973 688.308L518.697 688.528H517.993H517.289L515.925 688.748L513.285 689.012H511.349H510.645C508.535 689.123 506.42 689.123 504.309 689.012L501.097 688.66H499.997H498.941L496.829 688.22L494.673 687.736L493.617 687.472L491.505 686.856H491.197" stroke="black" stroke-width="3" stroke-miterlimit="10"/>
<path d="M616.819 539.763C586.591 539.191 551.875 549.575 532.207 566.163C521.955 574.963 526.223 656.451 531.635 685.359C531.614 685.755 531.614 686.152 531.635 686.547" stroke="black" stroke-width="3" stroke-miterlimit="10" stroke-linecap="round"/>
<path d="M549.188 464.875H548.88C522.48 475.875 467.964 503.199 462.376 518.819C450.496 552.303 468.976 630.667 491.416 686.987C491.492 687.247 491.595 687.498 491.724 687.735" stroke="black" stroke-width="3" stroke-miterlimit="10"/>
<path d="M682.906 493.168C686.338 511.428 701.078 519.832 717.578 521.064C722.546 521.4 727.536 521.164 732.45 520.36" stroke="black" stroke-width="3" stroke-miterlimit="10" stroke-linecap="round"/>
<path d="M675.203 777.364H674.455H673.927H673.267L672.431 777.628C672.141 777.675 671.859 777.764 671.595 777.892H671.111L670.055 778.244L667.415 779.256L666.711 779.52L664.995 780.18C659.935 782.16 653.687 784.58 646.911 786.78L646.075 787.044L644.359 787.528L643.479 787.792L642.643 788.012L639.959 788.716L637.495 789.288L633.843 789.992H632.963L630.323 790.344C628.655 790.546 627.007 790.884 625.395 791.356L624.295 791.752L623.591 792.016L622.579 792.456L621.259 793.116C620.833 793.339 620.421 793.589 620.027 793.864L619.147 794.48L618.311 795.184C616.55 796.839 615.269 798.94 614.603 801.263C613.937 803.586 613.91 806.046 614.527 808.384H650.695L716.079 808.692" stroke="black" stroke-width="3" stroke-linecap="round" stroke-linejoin="round"/>
<path d="M716.037 809.176H716.081V817.536H614.221V809.176H650.609H716.037Z" stroke="black" stroke-width="3" stroke-linecap="round" stroke-linejoin="round"/>
<path d="M716.035 775.868V776.132V809.088" stroke="black" stroke-width="3" stroke-miterlimit="10"/>
<path d="M491.022 687.075H490.67H490.01H489.35L488.514 687.339L487.194 687.735L484.07 688.835L483.014 689.231L476.502 691.783L475.094 692.311L472.762 693.235L471.31 693.763C466.527 695.565 461.65 697.107 456.702 698.383L455.162 698.779L451.554 699.571L450.058 699.835L448.65 700.055H447.066H446.186C436.946 701.111 428.234 706.259 430.346 718.007H466.558L531.942 718.315" stroke="black" stroke-width="3" stroke-linecap="round" stroke-linejoin="round"/>
<path d="M531.895 727.16V727.203H430.035V727.16V718.844H466.423H531.851H531.895V727.16Z" stroke="black" stroke-width="3" stroke-linecap="round" stroke-linejoin="round"/>
<path d="M531.854 687.164V718.844V720.648" stroke="black" stroke-width="3" stroke-miterlimit="10"/>
<path d="M492.099 759.48C491.852 759.322 491.639 759.116 491.473 758.874C491.307 758.632 491.19 758.36 491.131 758.072C491.014 757.472 491.137 756.849 491.475 756.339C491.812 755.829 492.337 755.471 492.935 755.344C493.23 755.273 493.537 755.263 493.836 755.314C494.135 755.365 494.421 755.476 494.676 755.641C494.931 755.805 495.15 756.02 495.319 756.271C495.489 756.523 495.606 756.806 495.663 757.104C495.769 757.558 495.733 758.032 495.562 758.465C495.39 758.898 495.091 759.268 494.704 759.526C494.316 759.784 493.86 759.918 493.394 759.91C492.929 759.902 492.477 759.752 492.099 759.48Z" fill="black"/>
<path d="M437.935 760.14C437.677 760.325 437.384 760.456 437.074 760.524C436.764 760.592 436.443 760.596 436.131 760.536C435.529 760.399 435.005 760.033 434.668 759.515C434.331 758.998 434.209 758.37 434.327 757.764C434.464 757.162 434.83 756.637 435.348 756.301C435.865 755.964 436.493 755.842 437.099 755.96C437.4 756.023 437.686 756.144 437.939 756.318C438.193 756.491 438.41 756.713 438.578 756.971C438.745 757.229 438.86 757.517 438.916 757.819C438.972 758.121 438.968 758.432 438.903 758.732C438.775 759.309 438.428 759.813 437.935 760.14Z" fill="black"/>
<path d="M556.04 817.216V727.216H545.729H461.379H410.04V817.216H556.04Z" stroke="black" stroke-width="3" stroke-miterlimit="10" stroke-linecap="round"/>
<path d="M438.156 777.256C447.609 777.256 455.272 769.593 455.272 760.14C455.272 750.687 447.609 743.024 438.156 743.024C428.703 743.024 421.04 750.687 421.04 760.14C421.04 769.593 428.703 777.256 438.156 777.256Z" stroke="black" stroke-width="3" stroke-miterlimit="10" stroke-linecap="round"/>
<path d="M508.643 760.14C508.652 763.527 507.655 766.841 505.78 769.661C503.904 772.482 501.234 774.683 498.108 775.985C494.981 777.287 491.538 777.632 488.215 776.977C484.892 776.321 481.838 774.695 479.44 772.303C477.042 769.911 475.407 766.861 474.743 763.54C474.079 760.218 474.416 756.775 475.71 753.645C477.004 750.514 479.198 747.839 482.013 745.956C484.829 744.073 488.14 743.068 491.527 743.068C496.059 743.068 500.406 744.866 503.614 748.066C506.823 751.266 508.631 755.609 508.643 760.14V760.14Z" stroke="black" stroke-width="3" stroke-miterlimit="10" stroke-linecap="round"/>
<path d="M438.245 800.135C438.253 801.827 437.759 803.484 436.825 804.894C435.89 806.305 434.557 807.406 432.996 808.057C431.434 808.709 429.714 808.881 428.054 808.553C426.394 808.225 424.869 807.412 423.673 806.215C422.477 805.019 421.663 803.494 421.335 801.834C421.007 800.174 421.18 798.454 421.831 796.892C422.483 795.331 423.583 793.998 424.994 793.064C426.404 792.129 428.061 791.635 429.753 791.643C432.005 791.643 434.165 792.538 435.757 794.131C437.35 795.723 438.245 797.883 438.245 800.135V800.135Z" stroke="black" stroke-width="3" stroke-miterlimit="10" stroke-linecap="round"/>
<path d="M463.279 800.135C463.288 801.827 462.793 803.484 461.859 804.894C460.924 806.305 459.591 807.406 458.03 808.057C456.468 808.709 454.748 808.881 453.088 808.553C451.429 808.225 449.904 807.412 448.707 806.215C447.511 805.019 446.697 803.494 446.369 801.834C446.041 800.174 446.214 798.454 446.865 796.892C447.517 795.331 448.618 793.998 450.028 793.064C451.439 792.129 453.095 791.635 454.787 791.643C455.902 791.643 457.006 791.863 458.037 792.29C459.067 792.717 460.003 793.342 460.792 794.131C461.58 794.919 462.206 795.855 462.633 796.886C463.059 797.916 463.279 799.02 463.279 800.135V800.135Z" stroke="black" stroke-width="3" stroke-miterlimit="10" stroke-linecap="round"/>
<path d="M487.831 800.135C487.839 801.825 487.346 803.48 486.414 804.89C485.481 806.299 484.151 807.4 482.592 808.053C481.033 808.706 479.315 808.881 477.657 808.557C475.998 808.232 474.473 807.423 473.275 806.231C472.076 805.039 471.259 803.518 470.926 801.861C470.593 800.204 470.76 798.485 471.404 796.923C472.049 795.361 473.143 794.025 474.548 793.085C475.952 792.145 477.605 791.643 479.295 791.643C481.551 791.643 483.715 792.537 485.315 794.128C486.915 795.719 487.819 797.879 487.831 800.135V800.135Z" stroke="black" stroke-width="3" stroke-miterlimit="10" stroke-linecap="round"/>
<path d="M429.931 792.348V798.332" stroke="black" stroke-width="3" stroke-miterlimit="10" stroke-linecap="round"/>
<path d="M449.378 795.516L454.086 799.168" stroke="black" stroke-width="3" stroke-miterlimit="10" stroke-linecap="round"/>
<path d="M480.178 801.236L484.886 804.888" stroke="black" stroke-width="3" stroke-miterlimit="10" stroke-linecap="round"/>
<path d="M492.717 758.688L492.101 759.48L486.997 766.256" stroke="black" stroke-width="3" stroke-miterlimit="10" stroke-linecap="round"/>
<path d="M437.321 759.348L437.937 760.14L443.041 766.872" stroke="black" stroke-width="3" stroke-miterlimit="10" stroke-linecap="round"/>
<path d="M543.426 790.984H528.554V809.332H543.426V790.984Z" stroke="black" stroke-width="3" stroke-miterlimit="10"/>
<path d="M530.212 799.784H544.248" stroke="black" stroke-width="3" stroke-miterlimit="10"/>
<path d="M531.852 718.843H466.644H430.432C428.32 707.095 437.032 701.947 446.272 700.891H447.152H448.736L450.144 700.671L451.64 700.407L455.248 699.615L456.788 699.219C461.628 697.758 466.387 696.039 471.044 694.071L472.496 693.543L474.828 692.619L476.236 692.091L482.748 689.539L483.804 689.143L486.928 688.043L488.248 687.647L489.084 687.383H489.744H490.404H490.712H491.02L493.132 687.999L494.188 688.263L496.344 688.747L498.456 689.187H499.512H500.612L503.824 689.539C505.934 689.651 508.049 689.651 510.16 689.539H510.864H512.8L515.44 689.275L516.804 689.055H517.508H518.212L519.488 688.835L522.392 688.219H522.964H523.404L527.056 687.251L528.64 686.767L531.148 685.931C531.127 686.327 531.127 686.724 531.148 687.119V719.239L531.852 718.843Z" fill="#6F2E32"/>
<path d="M716.037 809.176H650.609H614.441C613.824 806.839 613.851 804.379 614.517 802.055C615.183 799.732 616.464 797.632 618.225 795.976L619.061 795.272L619.941 794.656C620.335 794.381 620.747 794.131 621.173 793.908L622.493 793.248L623.505 792.808L624.209 792.544L625.309 792.148C626.921 791.677 628.569 791.338 630.237 791.136L632.877 790.784H633.757L637.409 790.08L639.873 789.508L642.557 788.804L643.393 788.584L644.273 788.32L645.989 787.836L646.825 787.572C653.601 785.46 660.025 782.952 664.909 780.972L666.625 780.312L667.329 780.048L669.969 779.036L671.025 778.684H671.509C671.773 778.557 672.055 778.468 672.345 778.42L673.181 778.156H673.841H674.369H674.809V778.596C676.613 779.124 678.417 779.608 680.177 779.96C681.626 780.312 683.096 780.577 684.577 780.752H685.677L687.833 780.972H688.933C695.716 781.323 702.51 780.55 709.041 778.684H709.481L710.845 778.332L711.681 778.068L713.309 777.584L714.145 777.276L715.861 776.748V809.792L716.037 809.176Z" fill="#6F2E32"/>
<path d="M635.766 249.109C642.234 251.045 660.643 229.933 663.415 218.537C663.415 192.885 659.543 170.401 657.387 144.705V144.309C659.181 145.004 661.141 145.153 663.019 144.738C664.898 144.323 666.612 143.363 667.947 141.977C672.347 136.389 665.351 116.721 655.099 125.609H654.879C654.879 124.025 654.615 123.453 654.351 121.737V120.857H653.955C653.955 120.857 636.751 118.789 624.387 118.789C612.815 118.789 595.523 120.857 595.523 120.857C595.055 120.903 594.583 120.903 594.115 120.857V121.253C593.153 125.899 592.681 130.633 592.707 135.377C592.707 151.129 610.307 184.921 616.511 187.385C617.274 187.697 618.072 187.919 618.887 188.045C617.169 199.619 614.082 210.948 609.691 221.793C610.351 228.921 628.066 246.733 635.766 249.109Z" fill="white"/>
<path d="M627.554 132.12C629.359 131.571 631.268 131.455 633.127 131.784C634.985 132.113 636.739 132.877 638.246 134.012" stroke="black" stroke-width="3" stroke-miterlimit="10" stroke-linecap="round"/>
<path d="M630.94 143.737C631.96 143.737 632.788 142.91 632.788 141.889C632.788 140.869 631.96 140.041 630.94 140.041C629.919 140.041 629.092 140.869 629.092 141.889C629.092 142.91 629.919 143.737 630.94 143.737Z" fill="black"/>
<path d="M608.063 143.121C609.083 143.121 609.911 142.293 609.911 141.273C609.911 140.252 609.083 139.425 608.063 139.425C607.042 139.425 606.215 140.252 606.215 141.273C606.215 142.293 607.042 143.121 608.063 143.121Z" fill="black"/>
<path d="M604.981 132.605C607.885 131.285 614.442 131.681 615.63 134.541C617.522 138.941 610.305 153.285 609.073 158.785C608.281 162.525 614.485 162.085 618.269 161.645" stroke="black" stroke-width="3" stroke-miterlimit="10" stroke-linecap="round"/>
<path d="M632.569 166.529C629.269 177.573 614.969 177.705 612.153 170.357" stroke="black" stroke-width="3" stroke-miterlimit="10" stroke-linecap="round"/>
<path d="M642.689 173.745C638.465 182.413 625.221 191.169 615.893 187.473C609.645 185.009 592.045 151.261 592.045 135.597C592.019 130.853 592.49 126.119 593.453 121.473L595.266 113.609" stroke="black" stroke-width="3" stroke-miterlimit="10" stroke-linecap="round"/>
<path d="M618.667 187.825C616.027 197.637 610.766 220.233 610.766 222.609" stroke="black" stroke-width="3" stroke-miterlimit="10"/>
<path d="M453.46 184.702C453.9 175.902 453.944 169.566 453.768 161.734C453.768 159.05 452.36 148.05 457.552 149.15C462.744 150.25 461.336 174.362 461.248 178.102" stroke="black" stroke-width="3" stroke-linecap="round" stroke-linejoin="round"/>
<path d="M459.842 151.218C460.326 147.962 461.646 146.246 464.594 146.29C471.106 146.29 469.522 168.29 469.654 178.322" stroke="black" stroke-width="3" stroke-linecap="round" stroke-linejoin="round"/>
<path d="M453.46 204.546C448.268 205.162 445.32 184.746 445.056 178.454C445.056 176.386 444.704 172.558 447.3 171.282C449.06 170.446 450.556 172.074 451.172 173.306C451.982 175.197 452.501 177.2 452.712 179.246C453.064 181.886 453.548 185.054 453.856 187.694" stroke="black" stroke-width="3" stroke-linecap="round" stroke-linejoin="round"/>
<path d="M468.641 150.998C469.125 148.27 471.941 148.71 473.745 150.338C478.937 155.002 477.529 187.826 474.009 203.138C474.009 203.138 467.497 199.398 453.637 204.326" stroke="black" stroke-width="3" stroke-linecap="round" stroke-linejoin="round"/>
<path fill-rule="evenodd" clip-rule="evenodd" d="M453.205 205.127C465.653 200.782 472.163 203.259 473.394 203.823C475.286 208.515 477.353 213.25 479.596 217.942C489.408 238.54 501.191 258.164 514.784 276.546C514.784 276.546 555.443 238.103 570.266 230.109C583.461 223.028 600.266 222.109 600.266 222.109C601.949 238.846 604.256 247.533 618.766 261.609L627.266 254.609L630.266 263.109L623.766 313.109L622.266 326.609L636.266 334.195L649.766 326.609L647.766 313.109L642.266 263.109L644.766 255.609L652.766 261.109C665.097 255.551 672.854 238.997 674.266 222.109L694.266 227.609L712.266 235.109C721.59 242.668 759.029 301.613 765.582 314.993C770.773 325.636 776.447 335.02 775.699 346.923C774.115 370.773 745.438 392.538 714.693 404.268V404.745C715.836 429.421 717.42 448.188 718.299 464.609H713.549L549.223 464.349H545.661C546.188 437.632 558.24 352.267 566.157 300.831C564.794 301.482 521.513 325.419 503.04 326.896C493.715 327.591 478.584 287.798 467.324 253.348C458.967 227.717 452.766 205.3 452.766 205.3H453.118L453.205 205.127ZM619.027 339.799H598.706L598.266 334.195H624.173L627.823 358.436H640.095C640.251 356.313 641.023 354.281 642.318 352.58C643.613 350.879 645.376 349.583 647.397 348.846C649.418 348.109 651.611 347.963 653.714 348.424C655.817 348.886 657.741 349.936 659.256 351.449C660.771 352.962 661.813 354.873 662.257 356.955C662.701 359.038 662.528 361.202 661.76 363.19C660.991 365.178 659.66 366.905 657.924 368.165C656.188 369.425 654.121 370.165 651.971 370.295L651.663 377.246L651.399 382.633H651.795C657.909 383.068 663.099 388.454 662.615 390.583C662.615 390.583 661.252 409.828 665.65 412.956H664.374C659.495 414.827 654.463 416.281 649.332 417.3V417.778L648.848 426.467C648.875 427.312 648.577 428.135 648.014 428.772C647.451 429.409 646.664 429.811 645.813 429.899H624.657C623.805 429.811 623.019 429.409 622.456 428.772C621.893 428.135 621.595 427.312 621.622 426.467L621.094 416.779L622.325 416.301C616.959 414.477 613.968 411.827 613.968 409.785C613.988 409.219 614.14 408.666 614.413 408.169C614.686 407.672 615.073 407.244 615.542 406.919C616.011 406.595 616.551 406.383 617.117 406.3C617.684 406.216 618.262 406.264 618.807 406.44C617.557 405.89 616.46 405.049 615.61 403.99C614.76 402.931 614.182 401.685 613.924 400.358C613.994 399.781 614.181 399.224 614.473 398.72C614.764 398.215 615.156 397.774 615.623 397.422C616.091 397.069 616.625 396.813 617.194 396.668C617.764 396.523 618.357 396.493 618.939 396.578C617.62 395.887 616.481 394.904 615.611 393.705C614.741 392.507 614.164 391.126 613.924 389.671C613.947 389.02 614.101 388.381 614.378 387.79C614.655 387.199 615.049 386.669 615.537 386.232C616.025 385.794 616.597 385.458 617.219 385.243C617.841 385.028 618.501 384.938 619.159 384.979L618.763 378.115L617.883 362.215C617.815 361.758 617.84 361.292 617.956 360.845C618.072 360.397 618.278 359.977 618.56 359.609C618.843 359.241 619.197 358.933 619.602 358.701C620.007 358.47 620.454 358.32 620.918 358.262H621.754L619.027 339.799Z" fill="#6F2E32"/>
<path d="M627.159 358.436H649.503C649.97 358.488 650.42 358.634 650.828 358.864C651.236 359.093 651.592 359.402 651.876 359.772C652.16 360.141 652.365 360.563 652.478 361.013C652.592 361.463 652.613 361.931 652.538 362.389L651.175 387.89" stroke="black" stroke-width="3" stroke-miterlimit="10"/>
<path d="M619.202 386.152L617.882 362.389C617.814 361.932 617.839 361.466 617.956 361.019C618.072 360.571 618.277 360.151 618.56 359.783C618.842 359.415 619.196 359.106 619.601 358.875C620.006 358.644 620.453 358.494 620.917 358.436H622.633" stroke="black" stroke-width="3" stroke-miterlimit="10"/>
<path d="M649.332 417.822L648.848 426.51C648.875 427.355 648.577 428.179 648.014 428.815C647.451 429.452 646.665 429.855 645.813 429.942H624.481C623.625 429.865 622.833 429.465 622.268 428.826C621.703 428.187 621.408 427.358 621.446 426.51L620.918 417.083" stroke="black" stroke-width="3" stroke-miterlimit="10"/>
<path d="M651.222 387.368C648.715 394.362 635.739 393.189 630.109 392.233C628.042 391.886 618.145 387.889 619.157 385.196" stroke="black" stroke-width="3" stroke-miterlimit="10"/>
<path d="M619.025 385.153C618.367 385.111 617.707 385.201 617.085 385.416C616.463 385.632 615.891 385.968 615.403 386.405C614.915 386.843 614.521 387.373 614.244 387.963C613.967 388.554 613.813 389.194 613.79 389.844C614.142 396.448 626.37 402.399 639.697 400.357" stroke="black" stroke-width="3" stroke-miterlimit="10" stroke-linecap="round"/>
<path d="M618.806 396.751C618.224 396.666 617.631 396.697 617.062 396.841C616.492 396.986 615.958 397.243 615.491 397.595C615.023 397.947 614.632 398.389 614.34 398.893C614.048 399.397 613.862 399.954 613.792 400.531C614.144 406.309 625.932 411.652 639.259 409.871" stroke="black" stroke-width="3" stroke-miterlimit="10" stroke-linecap="round"/>
<path d="M618.628 406.7C618.084 406.525 617.505 406.477 616.939 406.56C616.372 406.643 615.833 406.855 615.364 407.18C614.895 407.504 614.508 407.932 614.235 408.429C613.962 408.927 613.81 409.48 613.79 410.045C613.79 415.389 633.803 424.729 664.284 412.956" stroke="black" stroke-width="3" stroke-miterlimit="10" stroke-linecap="round"/>
<path d="M662.657 390.583C663.493 388.541 658.259 382.894 651.881 382.416" stroke="black" stroke-width="3" stroke-miterlimit="10" stroke-linecap="round"/>
<path d="M651.483 376.985C641.235 372.945 639.608 384.848 626.016 383.632C624.469 383.376 623.006 382.757 621.751 381.827C620.496 380.897 619.485 379.684 618.803 378.288" stroke="black" stroke-width="3" stroke-miterlimit="10" stroke-linecap="round"/>
<path d="M625.446 383.197L619.024 339.972L598.703 339.885L598.263 334.194H624.17L631.472 382.676" stroke="black" stroke-width="3" stroke-linecap="round" stroke-linejoin="round"/>
<path d="M651.31 370.338C653.529 370.338 655.697 369.689 657.542 368.471C659.386 367.254 660.824 365.524 661.673 363.5C662.522 361.476 662.744 359.248 662.311 357.099C661.878 354.95 660.81 352.977 659.241 351.427C657.673 349.878 655.674 348.823 653.498 348.395C651.323 347.968 649.068 348.187 647.018 349.026C644.969 349.864 643.217 351.284 641.985 353.106C640.752 354.928 640.094 357.07 640.094 359.261" stroke="black" stroke-width="3" stroke-linejoin="round"/>
<path d="M713.396 404.526C713.358 403.698 713.998 402.997 714.825 402.958C715.653 402.92 716.355 403.56 716.393 404.388L713.396 404.526ZM718.502 464.609L720 464.53C720.022 464.941 719.874 465.344 719.59 465.642C719.306 465.941 718.912 466.11 718.5 466.109L718.502 464.609ZM545.773 464.304L545.771 465.804C545.369 465.803 544.984 465.641 544.702 465.354C544.421 465.067 544.266 464.679 544.274 464.277L545.773 464.304ZM568.579 275.66C568.712 274.843 569.483 274.288 570.3 274.421C571.118 274.554 571.673 275.325 571.54 276.143L568.579 275.66ZM514.494 275.683L515.511 276.785C515.197 277.075 514.774 277.217 514.349 277.176C513.923 277.134 513.536 276.914 513.283 276.569L514.494 275.683ZM572.314 227.983L571.6 226.664L571.602 226.662L572.314 227.983ZM712.266 235.665L711.318 236.829L711.316 236.827L712.266 235.665ZM765.58 314.271L766.926 313.61L766.929 313.616L765.58 314.271ZM775.699 346.356L777.196 346.449L777.196 346.453L775.699 346.356ZM666.413 412.925L666.508 411.428L666.51 411.428L666.413 412.925ZM662.277 390.051L660.78 389.964C660.818 389.304 661.284 388.747 661.926 388.593L662.277 390.051ZM726.951 345.745L728.153 344.847C728.183 344.887 728.211 344.928 728.237 344.971L726.951 345.745ZM503.053 326.189L503.177 327.684L503.173 327.684L503.053 326.189ZM662.901 221.313L661.435 220.994C661.568 220.383 662.066 219.919 662.684 219.828L662.901 221.313ZM652.091 261.032L650.96 262.018L650.96 262.018L652.091 261.032ZM652.158 261.109L652.984 262.361C652.357 262.775 651.52 262.661 651.027 262.095L652.158 261.109ZM672.4 221.975L672.647 220.495C673.299 220.604 673.802 221.126 673.888 221.781L672.4 221.975ZM610.905 221.975L611.122 220.49C611.741 220.581 612.238 221.045 612.371 221.656L610.905 221.975ZM618.719 261.032L619.85 262.018L619.85 262.018L618.719 261.032ZM618.652 261.109L619.783 262.095C619.289 262.661 618.453 262.775 617.826 262.361L618.652 261.109ZM601.406 221.975L599.919 221.781C600.004 221.126 600.508 220.604 601.159 220.495L601.406 221.975ZM642.834 255.504C642.911 254.679 643.643 254.073 644.468 254.151C645.292 254.229 645.898 254.96 645.82 255.785L642.834 255.504ZM640.766 263.609L639.282 263.83C639.196 263.256 639.45 262.683 639.934 262.361L640.766 263.609ZM650.218 327.109L651.702 326.889C651.798 327.536 651.464 328.17 650.876 328.457L650.218 327.109ZM625.988 255.714C625.949 254.887 626.589 254.185 627.416 254.146C628.244 254.107 628.946 254.747 628.985 255.574L625.988 255.714ZM630.766 263.609L631.598 262.361C632.078 262.682 632.332 263.249 632.251 263.821L630.766 263.609ZM621.719 327.109L621.061 328.457C620.476 328.172 620.142 327.542 620.234 326.898L621.719 327.109ZM635.969 334.065L636.627 335.413C636.212 335.616 635.726 335.616 635.311 335.413L635.969 334.065ZM716.393 404.388C717.538 429.217 719.115 447.93 720 464.53L717.004 464.689C716.13 448.288 714.538 429.285 713.396 404.526L716.393 404.388ZM718.5 466.109L545.771 465.804L545.776 462.804L718.505 463.109L718.5 466.109ZM544.274 464.277C544.562 448.324 548.9 411.864 554.021 374.124C559.148 336.342 565.079 297.151 568.579 275.66L571.54 276.143C568.044 297.605 562.118 336.77 556.994 374.528C551.864 412.328 547.557 448.592 547.273 464.331L544.274 464.277ZM474.654 202.031C485.413 227.8 499.191 252.224 515.705 274.797L513.283 276.569C496.63 253.805 482.736 229.175 471.886 203.187L474.654 202.031ZM514.494 275.683C513.477 274.581 513.477 274.58 513.477 274.58C513.478 274.58 513.478 274.579 513.479 274.579C513.48 274.577 513.482 274.575 513.485 274.573C513.49 274.568 513.498 274.561 513.509 274.551C513.53 274.532 513.561 274.503 513.602 274.465C513.684 274.39 513.806 274.277 513.966 274.131C514.285 273.837 514.755 273.406 515.359 272.855C516.565 271.753 518.305 270.17 520.439 268.245C524.706 264.397 530.551 259.18 536.862 253.711C543.171 248.244 549.953 242.516 556.093 237.649C562.206 232.802 567.765 228.741 571.6 226.664L573.029 229.302C569.45 231.24 564.074 235.15 557.957 240C551.865 244.829 545.119 250.525 538.826 255.978C532.535 261.431 526.706 266.633 522.448 270.473C520.32 272.393 518.585 273.972 517.382 275.07C516.781 275.619 516.313 276.049 515.995 276.34C515.836 276.486 515.715 276.598 515.634 276.673C515.593 276.71 515.562 276.738 515.542 276.757C515.532 276.767 515.524 276.774 515.519 276.778C515.516 276.781 515.514 276.783 515.513 276.784C515.512 276.784 515.512 276.785 515.512 276.785C515.511 276.785 515.511 276.785 514.494 275.683ZM571.602 226.662C578.452 222.97 586.615 221.381 592.983 220.702C596.182 220.36 598.961 220.245 600.942 220.215C601.934 220.2 602.727 220.207 603.276 220.217C603.55 220.222 603.763 220.228 603.909 220.233C603.983 220.236 604.039 220.238 604.078 220.239C604.097 220.24 604.112 220.241 604.123 220.241C604.128 220.241 604.133 220.242 604.136 220.242C604.137 220.242 604.138 220.242 604.139 220.242C604.14 220.242 604.14 220.242 604.141 220.242C604.141 220.242 604.141 220.242 604.071 221.74C604 223.239 604.001 223.239 604.001 223.239C604.001 223.239 604.001 223.239 604.001 223.239C604.001 223.239 604 223.239 604 223.239C603.998 223.239 603.996 223.239 603.992 223.238C603.985 223.238 603.973 223.238 603.957 223.237C603.925 223.236 603.875 223.234 603.809 223.232C603.677 223.227 603.479 223.221 603.22 223.217C602.702 223.207 601.942 223.201 600.988 223.215C599.077 223.244 596.392 223.355 593.301 223.685C587.091 224.348 579.375 225.88 573.026 229.303L571.602 226.662ZM670.762 221.784C671.014 220.305 671.014 220.305 671.014 220.306C671.015 220.306 671.015 220.306 671.016 220.306C671.017 220.306 671.019 220.306 671.021 220.307C671.025 220.307 671.031 220.308 671.039 220.31C671.055 220.312 671.078 220.316 671.108 220.322C671.169 220.332 671.258 220.348 671.375 220.369C671.608 220.41 671.95 220.472 672.388 220.553C673.264 220.716 674.524 220.957 676.069 221.274C679.158 221.908 683.389 222.843 687.954 224.05C692.515 225.256 697.433 226.738 701.888 228.471C706.317 230.192 710.402 232.203 713.215 234.504L711.316 236.827C708.872 234.828 705.14 232.954 700.801 231.267C696.488 229.59 691.687 228.14 687.187 226.95C682.691 225.762 678.517 224.839 675.467 224.213C673.942 223.9 672.7 223.662 671.84 223.503C671.41 223.423 671.076 223.363 670.85 223.322C670.737 223.302 670.651 223.287 670.594 223.277C670.565 223.272 670.544 223.269 670.53 223.266C670.523 223.265 670.517 223.264 670.514 223.264C670.512 223.263 670.511 223.263 670.511 223.263C670.51 223.263 670.51 223.263 670.51 223.263C670.51 223.263 670.51 223.263 670.762 221.784ZM713.213 234.502C714.502 235.552 716.186 237.382 718.119 239.715C720.072 242.073 722.341 245.022 724.81 248.371C729.749 255.072 735.518 263.421 741.194 271.943C752.524 288.954 763.576 306.786 766.926 313.61L764.233 314.932C760.984 308.312 750.042 290.639 738.697 273.606C733.036 265.107 727.296 256.8 722.395 250.151C719.944 246.826 717.712 243.926 715.809 241.629C713.886 239.308 712.361 237.678 711.318 236.829L713.213 234.502ZM766.929 313.616C772.033 324.131 777.975 333.995 777.196 346.449L774.202 346.262C774.919 334.795 769.51 325.802 764.23 314.926L766.929 313.616ZM777.196 346.453C776.562 356.161 771.69 365.419 764.285 373.751C756.876 382.088 746.852 389.59 735.712 395.813C713.467 408.24 686.462 415.734 666.315 414.422L666.51 411.428C685.916 412.692 712.344 405.431 734.249 393.194C745.184 387.086 754.914 379.779 762.043 371.758C769.177 363.731 773.626 355.08 774.202 346.258L777.196 346.453ZM666.317 414.422C665.055 414.341 664.118 413.61 663.468 412.741C662.83 411.889 662.372 410.79 662.027 409.632C661.334 407.305 660.98 404.32 660.802 401.45C660.622 398.559 660.617 395.689 660.656 393.549C660.676 392.477 660.706 391.584 660.732 390.958C660.745 390.645 660.757 390.398 660.765 390.229C660.77 390.144 660.773 390.079 660.776 390.034C660.777 390.012 660.778 389.995 660.778 389.983C660.779 389.977 660.779 389.972 660.779 389.969C660.779 389.968 660.779 389.966 660.779 389.965C660.779 389.965 660.779 389.965 660.779 389.964C660.78 389.964 660.78 389.964 662.277 390.051C663.774 390.139 663.774 390.139 663.774 390.139C663.774 390.139 663.774 390.139 663.774 390.139C663.774 390.14 663.774 390.141 663.774 390.142C663.774 390.144 663.774 390.148 663.774 390.153C663.773 390.162 663.772 390.178 663.771 390.198C663.769 390.239 663.766 390.3 663.762 390.38C663.753 390.541 663.742 390.778 663.73 391.082C663.705 391.689 663.675 392.558 663.656 393.604C663.618 395.698 663.623 398.481 663.796 401.264C663.97 404.07 664.309 406.781 664.902 408.776C665.201 409.778 665.535 410.496 665.869 410.943C666.191 411.373 666.406 411.422 666.508 411.428L666.317 414.422ZM661.926 388.593C668.899 386.916 686.993 379.355 702.342 370.463C710.013 366.02 716.878 361.311 721.295 356.92C723.509 354.718 725.016 352.685 725.746 350.89C726.456 349.143 726.396 347.732 725.666 346.518L728.237 344.971C729.574 347.195 729.493 349.638 728.525 352.02C727.577 354.352 725.751 356.72 723.41 359.047C718.717 363.713 711.586 368.576 703.846 373.059C688.376 382.021 669.998 389.738 662.628 391.51L661.926 388.593ZM725.749 346.642C710.232 325.867 692.611 306.722 673.162 289.509L675.15 287.262C694.752 304.612 712.513 323.907 728.153 344.847L725.749 346.642ZM566.837 301.35C566.838 301.349 566.835 301.351 566.824 301.356C566.814 301.361 566.8 301.368 566.782 301.378C566.746 301.396 566.699 301.421 566.639 301.452C566.521 301.515 566.363 301.599 566.165 301.705C565.774 301.914 565.221 302.211 564.548 302.571C563.195 303.295 561.315 304.295 559.039 305.481C554.489 307.854 548.354 310.974 541.678 314.122C535.006 317.269 527.777 320.454 521.043 322.95C514.341 325.435 508.011 327.284 503.177 327.684L502.93 324.694C507.335 324.33 513.346 322.604 520 320.137C526.623 317.682 533.767 314.537 540.398 311.409C547.026 308.283 553.124 305.182 557.652 302.821C562.119 300.492 565.174 298.82 565.538 298.645L566.837 301.35ZM503.173 327.684C501.66 327.805 500.217 327.191 498.916 326.245C497.608 325.294 496.306 323.91 495.015 322.225C492.431 318.85 489.713 314.024 486.958 308.293C481.439 296.815 475.64 281.428 470.37 266.053C465.095 250.667 460.333 235.245 456.89 223.672C455.168 217.885 453.776 213.059 452.814 209.679C452.333 207.989 451.96 206.66 451.706 205.754C451.58 205.3 451.483 204.952 451.418 204.718C451.386 204.6 451.361 204.511 451.344 204.451C451.336 204.422 451.33 204.399 451.326 204.384C451.324 204.376 451.322 204.37 451.321 204.366C451.32 204.365 451.32 204.363 451.32 204.362C451.319 204.361 451.319 204.361 452.766 203.963C454.212 203.565 454.212 203.566 454.212 203.566C454.213 203.567 454.213 203.569 454.213 203.57C454.214 203.574 454.216 203.58 454.218 203.587C454.222 203.602 454.228 203.624 454.236 203.653C454.253 203.712 454.277 203.8 454.309 203.917C454.374 204.149 454.47 204.495 454.596 204.946C454.848 205.849 455.22 207.173 455.7 208.858C456.659 212.228 458.048 217.043 459.765 222.817C463.201 234.367 467.951 249.747 473.207 265.08C478.468 280.426 484.221 295.678 489.662 306.993C492.386 312.66 494.999 317.27 497.397 320.401C498.597 321.968 499.698 323.104 500.681 323.819C501.671 324.538 502.406 324.736 502.933 324.693L503.173 327.684ZM664.367 221.631C662.995 227.942 658.82 234.768 653.67 240.42C648.522 246.07 642.208 250.756 636.36 252.603L635.456 249.743C640.618 248.112 646.504 243.83 651.452 238.4C656.398 232.972 660.215 226.607 661.435 220.994L664.367 221.631ZM636.233 249.709C643.54 251.337 648.981 255.18 653.222 260.047L650.96 262.018C647.062 257.544 642.156 254.102 635.581 252.637L636.233 249.709ZM653.221 260.047L653.289 260.124L651.027 262.095L650.96 262.018L653.221 260.047ZM651.332 259.857C664.005 251.497 672.926 237.594 670.913 222.169L673.888 221.781C676.092 238.678 666.297 253.578 652.984 262.361L651.332 259.857ZM672.154 223.454C669.177 222.958 665.508 222.447 663.118 222.797L662.684 219.828C665.622 219.399 669.771 220.015 672.647 220.495L672.154 223.454ZM612.371 221.656C613.603 227.322 616.96 233.536 621.392 238.772C625.832 244.018 631.21 248.118 636.353 249.743L635.45 252.603C629.583 250.75 623.76 246.213 619.102 240.71C614.436 235.198 610.8 228.551 609.439 222.293L612.371 221.656ZM636.229 252.637C629.574 254.12 623.692 257.608 619.85 262.018L617.588 260.047C621.884 255.116 628.349 251.319 635.577 249.709L636.229 252.637ZM619.85 262.018L619.783 262.095L617.521 260.124L617.588 260.047L619.85 262.018ZM617.826 262.361C604.328 253.456 597.74 238.479 599.919 221.781L602.893 222.169C600.855 237.794 606.99 251.619 619.478 259.857L617.826 262.361ZM601.159 220.495C604.272 219.976 608.341 220.084 611.122 220.49L610.688 223.459C608.141 223.086 604.393 222.997 601.653 223.454L601.159 220.495ZM644.327 255.644C645.82 255.785 645.82 255.785 645.82 255.786C645.82 255.786 645.82 255.786 645.82 255.787C645.82 255.787 645.82 255.788 645.82 255.789C645.82 255.79 645.82 255.792 645.819 255.795C645.819 255.8 645.818 255.806 645.818 255.813C645.816 255.828 645.814 255.849 645.811 255.875C645.805 255.928 645.797 256.001 645.785 256.094C645.762 256.278 645.725 256.539 645.672 256.857C645.565 257.489 645.389 258.359 645.11 259.303C644.58 261.092 643.568 263.544 641.598 264.857L639.934 262.361C640.963 261.675 641.732 260.144 642.233 258.451C642.469 257.653 642.621 256.907 642.713 256.358C642.759 256.085 642.79 255.865 642.809 255.716C642.818 255.641 642.825 255.584 642.829 255.548C642.831 255.53 642.832 255.517 642.833 255.51C642.833 255.506 642.834 255.504 642.834 255.503C642.834 255.502 642.834 255.502 642.834 255.502C642.834 255.502 642.834 255.502 642.834 255.503C642.834 255.503 642.834 255.503 642.834 255.503C642.834 255.503 642.834 255.504 644.327 255.644ZM642.249 263.389L651.702 326.889L648.735 327.33L639.282 263.83L642.249 263.389ZM627.486 255.644C628.985 255.574 628.985 255.574 628.985 255.574C628.985 255.574 628.985 255.573 628.985 255.573C628.985 255.573 628.985 255.573 628.985 255.572C628.985 255.572 628.985 255.572 628.985 255.573C628.985 255.574 628.985 255.576 628.985 255.58C628.986 255.587 628.986 255.6 628.987 255.618C628.99 255.654 628.993 255.71 628.999 255.784C629.011 255.932 629.032 256.152 629.066 256.423C629.133 256.97 629.252 257.713 629.454 258.506C629.886 260.193 630.594 261.692 631.598 262.361L629.934 264.857C627.937 263.527 627.006 261.043 626.548 259.248C626.306 258.3 626.167 257.426 626.088 256.792C626.049 256.473 626.024 256.211 626.009 256.025C626.002 255.932 625.997 255.859 625.993 255.806C625.992 255.78 625.99 255.759 625.99 255.743C625.989 255.736 625.989 255.729 625.989 255.725C625.988 255.722 625.988 255.72 625.988 255.718C625.988 255.718 625.988 255.717 625.988 255.716C625.988 255.716 625.988 255.715 625.988 255.715C625.988 255.715 625.988 255.714 627.486 255.644ZM632.251 263.821L623.204 327.321L620.234 326.898L629.281 263.398L632.251 263.821ZM650.876 328.457L636.627 335.413L635.311 332.717L649.561 325.761L650.876 328.457ZM635.311 335.413L621.061 328.457L622.377 325.761L636.627 332.717L635.311 335.413Z" fill="black"/>
<path d="M717.948 406.57C701.485 412.193 684.034 414.44 666.662 413.174C661.208 412.826 662.528 390.41 662.528 390.41C676.867 386.978 735.454 360 727.185 346.316C711.61 325.558 693.924 306.43 674.404 289.232" stroke="white" stroke-width="3" stroke-linejoin="round"/>
<path d="M597.494 111.036C597.665 110.203 597.892 109.314 598.176 108.481C598.46 107.647 599.141 106.925 600.05 106.758C603.004 106.258 605.844 101.258 609.933 100.703C622.941 98.9806 631.631 100.036 643.843 104.703C656.453 109.481 648.37 127.46 651.04 130.516C651.494 128.96 655.495 120.72 662.766 121.609C667.829 122.223 672.297 134.898 667.472 142.609C665.747 145.365 660.93 145.743 657.191 147.147C657.303 150.159 663.741 153.01 668.277 147.98C668.342 147.908 668.407 147.834 668.472 147.758C669.704 146.313 671.196 144.242 672.595 141.589C676.356 134.455 679.441 123.11 674.969 108.369C668.835 88.1473 641.06 77.5917 615.216 87.8695C610.785 89.6473 608.116 94.0361 604.253 94.7584C568.299 101.481 596.642 115.036 597.494 111.036Z" fill="black"/>
<path d="M657.135 147.203C657.135 147.203 655.994 152.165 660.766 160.609C660.766 160.609 663.156 155.536 665.655 151.259C666.49 150.221 667.374 149.144 668.277 147.98C669.711 146.132 671.192 144.065 672.595 141.589C672.819 141.193 673.042 140.786 673.262 140.367C674.371 138.261 675.416 135.87 676.333 133.092C679.287 124.147 673.38 131.259 670.596 134.981C669.535 136.408 669.292 139.423 668.033 141.609C666.059 145.039 662.58 147.542 657.135 147.203Z" fill="black"/>
<path d="M609.934 104.37C609.934 104.37 599.653 123.203 588.747 114.814C579.035 107.314 580.966 89.6475 595.791 85.5363C609.423 81.7586 610.899 88.6475 624.531 81.3141C638.163 73.9808 662.871 78.8697 667.472 96.0363C667.472 96.0363 680.763 100.592 681.275 116.314C681.416 120.65 680.559 124.83 679.244 128.609C679.176 128.802 679.108 128.994 679.039 129.185C677.42 133.633 675.191 137.497 673.262 140.367C671.016 143.709 669.176 145.703 669.176 145.703C669.176 145.703 676.674 118.814 662.531 114.814C648.387 110.814 644.468 96.9808 635.096 96.9808C625.724 96.9808 615.898 95.8697 609.934 104.37Z" fill="black"/>
<path d="M606.265 109.609C606.265 109.609 616.265 102.109 623.875 107.834C635.765 116.78 644.947 136.167 658.523 117.112C672.098 98.0563 651.707 82.8341 630.52 89.0007C609.22 95.2229 606.493 101.998 606.265 109.609Z" fill="black"/>
<path d="M668.472 147.758C668.407 147.834 668.342 147.908 668.277 147.98C667.374 149.144 666.49 150.221 665.655 151.259C663.156 155.536 660.766 160.609 660.766 160.609C672.489 149.957 675.41 142.621 679.039 129.185C677.42 133.633 675.191 137.497 673.262 140.367C673.042 140.786 672.819 141.193 672.595 141.589C671.196 144.242 669.704 146.313 668.472 147.758Z" fill="black"/>
<path d="M651.887 129.437C664.295 109.813 673.403 135.597 668.651 142.329C666.992 144.112 664.753 145.246 662.334 145.528C659.915 145.81 657.475 145.222 655.451 143.869" stroke="black" stroke-width="3" stroke-miterlimit="10" stroke-linecap="round"/>
<path d="M657.167 133.573C659.052 135.418 661.57 136.473 664.207 136.521" stroke="black" stroke-width="3" stroke-miterlimit="10" stroke-linecap="round"/>
<path d="M663.266 222.109C663.266 196.017 659.587 170.71 657.387 144.662" stroke="black" stroke-width="3" stroke-miterlimit="10"/>
</svg>
