<svg width="14" height="14" viewBox="0 0 14 14" fill="none" xmlns="http://www.w3.org/2000/svg">
<path d="M7 14C6.71667 14 6.47933 13.904 6.288 13.712C6.096 13.5207 6 13.2833 6 13V8H1C0.716667 8 0.479 7.904 0.287 7.712C0.0956668 7.52067 0 7.28333 0 7C0 6.71667 0.0956668 6.479 0.287 6.287C0.479 6.09567 0.716667 6 1 6H6V1C6 0.716667 6.096 0.479 6.288 0.287C6.47933 0.0956668 6.71667 0 7 0C7.28333 0 7.521 0.0956668 7.713 0.287C7.90433 0.479 8 0.716667 8 1V6H13C13.2833 6 13.5207 6.09567 13.712 6.287C13.904 6.479 14 6.71667 14 7C14 7.28333 13.904 7.52067 13.712 7.712C13.5207 7.904 13.2833 8 13 8H8V13C8 13.2833 7.90433 13.5207 7.713 13.712C7.521 13.904 7.28333 14 7 14Z" fill="white"/>
</svg>
