<svg width="24" height="33" viewBox="0 0 24 33" fill="none" xmlns="http://www.w3.org/2000/svg">
<g clip-path="url(#clip0_1103_1841)">
<mask id="mask0_1103_1841" style="mask-type:alpha" maskUnits="userSpaceOnUse" x="0" y="4" width="24" height="25">
<rect y="4.5" width="24" height="24" fill="#D9D9D9"/>
</mask>
<g mask="url(#mask0_1103_1841)">
<path d="M8.85 18.925C8.46667 18.925 8.14583 18.7958 7.8875 18.5375C7.62917 18.2792 7.5 17.9583 7.5 17.575C7.5 17.1917 7.62917 16.8708 7.8875 16.6125C8.14583 16.3542 8.46667 16.225 8.85 16.225C9.23333 16.225 9.55417 16.3542 9.8125 16.6125C10.0708 16.8708 10.2 17.1917 10.2 17.575C10.2 17.9583 10.0708 18.2792 9.8125 18.5375C9.55417 18.7958 9.23333 18.925 8.85 18.925ZM15.175 18.925C14.7917 18.925 14.4708 18.7958 14.2125 18.5375C13.9542 18.2792 13.825 17.9583 13.825 17.575C13.825 17.1917 13.9542 16.8708 14.2125 16.6125C14.4708 16.3542 14.7917 16.225 15.175 16.225C15.5583 16.225 15.8792 16.3542 16.1375 16.6125C16.3958 16.8708 16.525 17.1917 16.525 17.575C16.525 17.9583 16.3958 18.2792 16.1375 18.5375C15.8792 18.7958 15.5583 18.925 15.175 18.925ZM12 25C14.3667 25 16.375 24.175 18.025 22.525C19.675 20.875 20.5 18.8667 20.5 16.5C20.5 16.0667 20.4667 15.6417 20.4 15.225C20.3333 14.8083 20.25 14.425 20.15 14.075C19.8167 14.1583 19.4542 14.2167 19.0625 14.25C18.6708 14.2833 18.2667 14.3 17.85 14.3C16.2333 14.3 14.7042 13.9667 13.2625 13.3C11.8208 12.6333 10.5917 11.6833 9.575 10.45C9.00833 11.8 8.19583 12.9792 7.1375 13.9875C6.07917 14.9958 4.86667 15.775 3.5 16.325V16.5C3.5 18.8667 4.325 20.875 5.975 22.525C7.625 24.175 9.63333 25 12 25ZM12 26.5C10.6167 26.5 9.31667 26.2375 8.1 25.7125C6.88333 25.1875 5.825 24.475 4.925 23.575C4.025 22.675 3.3125 21.6167 2.7875 20.4C2.2625 19.1833 2 17.8833 2 16.5C2 15.1167 2.2625 13.8167 2.7875 12.6C3.3125 11.3833 4.025 10.325 4.925 9.425C5.825 8.525 6.88333 7.8125 8.1 7.2875C9.31667 6.7625 10.6167 6.5 12 6.5C13.3833 6.5 14.6833 6.7625 15.9 7.2875C17.1167 7.8125 18.175 8.525 19.075 9.425C19.975 10.325 20.6875 11.3833 21.2125 12.6C21.7375 13.8167 22 15.1167 22 16.5C22 17.8833 21.7375 19.1833 21.2125 20.4C20.6875 21.6167 19.975 22.675 19.075 23.575C18.175 24.475 17.1167 25.1875 15.9 25.7125C14.6833 26.2375 13.3833 26.5 12 26.5ZM9.7 8.325C11.1667 10.0417 12.5208 11.2167 13.7625 11.85C15.0042 12.4833 16.3667 12.8 17.85 12.8C18.25 12.8 18.5667 12.7917 18.8 12.775C19.0333 12.7583 19.2917 12.7083 19.575 12.625C18.825 11.275 17.8042 10.1667 16.5125 9.3C15.2208 8.43333 13.7167 8 12 8C11.55 8 11.125 8.03333 10.725 8.1C10.325 8.16667 9.98333 8.24167 9.7 8.325ZM3.725 14.55C4.525 14.25 5.4375 13.5708 6.4625 12.5125C7.4875 11.4542 8.21667 10.175 8.65 8.675C7.2 9.325 6.10417 10.1542 5.3625 11.1625C4.62083 12.1708 4.075 13.3 3.725 14.55Z" fill="#776694"/>
</g>
</g>
<defs>
<clipPath id="clip0_1103_1841">
<rect width="24" height="24" fill="white" transform="translate(0 4.5)"/>
</clipPath>
</defs>
</svg>
