<svg width="48" height="48" viewBox="0 0 48 48" fill="none" xmlns="http://www.w3.org/2000/svg">
<g clip-path="url(#clip0_628_754)">
<mask id="mask0_628_754" style="mask-type:alpha" maskUnits="userSpaceOnUse" x="0" y="0" width="48" height="48">
<rect x="48" width="48" height="48" transform="rotate(90 48 0)" fill="#D9D9D9"/>
</mask>
<g mask="url(#mask0_628_754)">
<path d="M13.15 27C13.45 26.7 13.8083 26.55 14.225 26.55C14.6417 26.55 14.9833 26.6833 15.25 26.95L22.6 34.3V9.5C22.6 9.06667 22.7417 8.70833 23.025 8.425C23.3083 8.14167 23.6667 8 24.1 8C24.5333 8 24.8917 8.14167 25.175 8.425C25.4583 8.70833 25.6 9.06667 25.6 9.5V34.3L33 26.9C33.3 26.6 33.65 26.4583 34.05 26.475C34.45 26.4917 34.8 26.65 35.1 26.95C35.3667 27.25 35.5 27.6083 35.5 28.025C35.5 28.4417 35.3667 28.7833 35.1 29.05L25.15 39C24.9833 39.1667 24.8167 39.2833 24.65 39.35C24.4833 39.4167 24.3 39.45 24.1 39.45C23.9 39.45 23.7167 39.4167 23.55 39.35C23.3833 39.2833 23.2167 39.1667 23.05 39L13.15 29.1C12.85 28.8 12.7 28.45 12.7 28.05C12.7 27.65 12.85 27.3 13.15 27Z" fill="#7064FF"/>
</g>
</g>
<defs>
<clipPath id="clip0_628_754">
<rect width="48" height="48" fill="white" transform="translate(48) rotate(90)"/>
</clipPath>
</defs>
</svg>
