<svg width="16" height="12" viewBox="0 0 16 12" fill="none" xmlns="http://www.w3.org/2000/svg">
<path d="M9.5 11.425C9.35 11.275 9.275 11.0958 9.275 10.8875C9.275 10.6792 9.34167 10.5083 9.475 10.375L13.15 6.7H0.75C0.533333 6.7 0.354167 6.62917 0.2125 6.4875C0.0708334 6.34583 0 6.16667 0 5.95C0 5.73333 0.0708334 5.55417 0.2125 5.4125C0.354167 5.27083 0.533333 5.2 0.75 5.2H13.15L9.45 1.5C9.3 1.35 9.22917 1.175 9.2375 0.975C9.24583 0.775 9.325 0.6 9.475 0.45C9.625 0.316666 9.80417 0.25 10.0125 0.25C10.2208 0.25 10.3917 0.316666 10.525 0.45L15.5 5.425C15.5833 5.50833 15.6417 5.59167 15.675 5.675C15.7083 5.75833 15.725 5.85 15.725 5.95C15.725 6.05 15.7083 6.14167 15.675 6.225C15.6417 6.30833 15.5833 6.39167 15.5 6.475L10.55 11.425C10.4 11.575 10.225 11.65 10.025 11.65C9.825 11.65 9.65 11.575 9.5 11.425Z" fill="#7064FF"/>
</svg>
