<svg width="24" height="33" viewBox="0 0 24 33" fill="none" xmlns="http://www.w3.org/2000/svg">
<g clip-path="url(#clip0_1103_1853)">
<mask id="mask0_1103_1853" style="mask-type:alpha" maskUnits="userSpaceOnUse" x="0" y="4" width="24" height="25">
<rect y="4.5" width="24" height="24" fill="#D9D9D9"/>
</mask>
<g mask="url(#mask0_1103_1853)">
<path d="M11.5626 25.2875C11.4293 25.2875 11.3043 25.275 11.1876 25.25C11.0709 25.225 10.9543 25.1792 10.8376 25.1125L5.0876 21.9625C4.85426 21.8292 4.66676 21.6459 4.5251 21.4125C4.38343 21.1792 4.3126 20.9209 4.3126 20.6375V15.5375L1.7876 14.1625C1.65426 14.0959 1.55843 14.0042 1.5001 13.8875C1.44176 13.7709 1.4126 13.6459 1.4126 13.5125C1.4126 13.3792 1.44176 13.2542 1.5001 13.1375C1.55843 13.0209 1.65426 12.9292 1.7876 12.8625L10.8376 7.91252C10.9543 7.84586 11.0709 7.79586 11.1876 7.76252C11.3043 7.72919 11.4293 7.71252 11.5626 7.71252C11.6959 7.71252 11.8209 7.72919 11.9376 7.76252C12.0543 7.79586 12.1709 7.84586 12.2876 7.91252L22.1876 13.2875C22.3209 13.3709 22.4209 13.4709 22.4876 13.5875C22.5543 13.7042 22.5876 13.8292 22.5876 13.9625V20.6875C22.5876 20.9042 22.5168 21.0834 22.3751 21.225C22.2334 21.3667 22.0543 21.4375 21.8376 21.4375C21.6209 21.4375 21.4418 21.3667 21.3001 21.225C21.1584 21.0834 21.0876 20.9042 21.0876 20.6875V14.3875L18.8126 15.5375V20.6375C18.8126 20.9209 18.7418 21.1792 18.6001 21.4125C18.4584 21.6459 18.2709 21.8292 18.0376 21.9625L12.2876 25.1125C12.1709 25.1792 12.0543 25.225 11.9376 25.25C11.8209 25.275 11.6959 25.2875 11.5626 25.2875ZM11.5626 17.8125L19.4376 13.5125L11.5626 9.28752L3.7376 13.5125L11.5626 17.8125ZM11.5626 23.8125L17.3126 20.6375V16.4375L12.2876 19.1375C12.1709 19.2042 12.0543 19.25 11.9376 19.275C11.8209 19.3 11.6959 19.3125 11.5626 19.3125C11.4293 19.3125 11.3084 19.3 11.2001 19.275C11.0918 19.25 10.9793 19.2042 10.8626 19.1375L5.8126 16.3875V20.6375L11.5626 23.8125Z" fill="#776694"/>
</g>
</g>
<defs>
<clipPath id="clip0_1103_1853">
<rect width="24" height="24" fill="white" transform="translate(0 4.5)"/>
</clipPath>
</defs>
</svg>
