<svg width="880" height="880" viewBox="0 0 880 880" fill="none" xmlns="http://www.w3.org/2000/svg">
<path d="M579.26 73.1285H535.216C529.506 73.1285 524.876 77.7579 524.876 83.4685V103.357C524.876 109.067 529.506 113.697 535.216 113.697H579.26C584.971 113.697 589.6 109.067 589.6 103.357V83.4685C589.6 77.7579 584.971 73.1285 579.26 73.1285Z" stroke="black" stroke-width="3" stroke-linecap="round" stroke-linejoin="round"/>
<path d="M529.717 75.7677L557.261 102.08L586.213 74.4917" stroke="black" stroke-width="3" stroke-linecap="round" stroke-linejoin="round"/>
<path d="M529.629 75.8117L557.261 102.08L586.213 74.4917" stroke="black" stroke-width="3" stroke-linecap="round" stroke-linejoin="round"/>
<path d="M527.824 111.011L546.216 91.8715" stroke="black" stroke-width="3" stroke-linecap="round" stroke-linejoin="round"/>
<path d="M586.255 110.131L568.743 91.8715" stroke="black" stroke-width="3" stroke-linecap="round" stroke-linejoin="round"/>
<path d="M571.12 135.168H517.66C515.079 135.3 512.549 134.409 510.622 132.687C508.694 130.965 507.523 128.552 507.364 125.972V58.52C507.512 55.9358 508.679 53.5158 510.61 51.7916C512.54 50.0674 515.076 49.1798 517.66 49.324H593.296C595.881 49.1798 598.417 50.0674 600.347 51.7916C602.278 53.5158 603.445 55.9358 603.592 58.52V125.972C603.433 128.552 602.263 130.965 600.335 132.687C598.407 134.409 595.878 135.3 593.296 135.168H583.044" stroke="black" stroke-width="3" stroke-linecap="round" stroke-linejoin="round"/>
<path d="M583.352 129.712C583.352 129.712 580.8 150.04 575.564 154C570.328 157.96 571.648 125.884 571.648 125.884" stroke="black" stroke-width="3" stroke-linecap="round" stroke-linejoin="round"/>
<path d="M547.58 804.408C556.732 805.508 565.18 810.568 563.42 822.008H461.736V788.7C461.736 789.14 461.736 789.492 461.736 789.8C461.736 790.108 493.68 790.46 496.452 789.8H497.728C503.844 790.46 528.396 802.164 547.58 804.408Z" fill="#332E6F"/>
<path d="M381.128 820.864V821.876L327.844 821.392L284.636 801.02L298.54 772.552H299.068L328.988 784.432L329.736 784.784C345.62 792.88 346.412 803.704 354.552 803.308C368.632 802.868 379.984 813.34 381.128 820.864Z" fill="#332E6F"/>
<path d="M567.072 216.568C565.806 215.827 564.39 215.379 562.928 215.257C561.466 215.135 559.996 215.343 558.624 215.864C555.5 217.184 553.036 212.124 555.984 209.264C556.578 208.715 557.227 208.228 557.92 207.812V207.416C550.924 205.744 553.96 201.476 556.204 199.804C556.954 199.268 557.749 198.797 558.58 198.396C551.804 197.56 554.18 191.488 556.644 189.904C558.951 188.42 561.519 187.39 564.212 186.868L562.408 168.696C562.363 167.667 562.115 166.658 561.68 165.725C561.244 164.792 560.628 163.954 559.868 163.259C559.108 162.564 558.218 162.026 557.249 161.676C556.281 161.325 555.253 161.169 554.224 161.216L534.512 163.196C532.476 163.501 530.643 164.596 529.407 166.243C528.172 167.889 527.635 169.956 527.912 171.996L530.42 196.108V196.416C535.832 193.82 542.476 192.852 543.62 196.68C545.468 201.74 531.344 209.88 531.344 209.88L532.4 220C532.451 221.029 532.704 222.038 533.145 222.969C533.587 223.9 534.207 224.735 534.972 225.425C535.736 226.116 536.629 226.649 537.6 226.994C538.57 227.339 539.6 227.49 540.628 227.436L560.296 225.5C564.564 225.104 570.02 220 567.072 216.568ZM549.12 220.616C548.442 220.616 547.778 220.415 547.214 220.038C546.649 219.661 546.209 219.125 545.95 218.498C545.69 217.871 545.622 217.18 545.754 216.515C545.887 215.849 546.214 215.237 546.694 214.757C547.174 214.278 547.785 213.951 548.451 213.818C549.117 213.686 549.807 213.754 550.434 214.014C551.061 214.273 551.597 214.713 551.974 215.278C552.351 215.842 552.552 216.505 552.552 217.184C552.552 218.094 552.191 218.967 551.547 219.611C550.903 220.255 550.031 220.616 549.12 220.616Z" fill="black"/>
<path d="M533.192 290.4C533.778 272.775 533.116 255.131 531.212 237.6" stroke="black" stroke-width="3" stroke-linecap="round" stroke-linejoin="round"/>
<path d="M554.399 235.4C543.531 232.364 529.319 238.612 529.319 238.612" stroke="black" stroke-width="3" stroke-miterlimit="10"/>
<path d="M330 784.96C341.572 775.544 429.836 621.588 449.02 517.352" stroke="black" stroke-width="3" stroke-miterlimit="10" stroke-linecap="round"/>
<path d="M338.8 482.064C333.52 582.648 299.2 772.464 299.2 772.464" stroke="black" stroke-width="3" stroke-miterlimit="10" stroke-linecap="round"/>
<path d="M427.019 592.724C435.291 637.648 459.579 775.28 461.911 789.976C461.911 789.976 496.407 790.68 496.847 789.976C502.655 777.304 506.615 642.884 503.051 482.988" stroke="black" stroke-width="3" stroke-miterlimit="10" stroke-linecap="round"/>
<path d="M530.332 196.152L528 172.04C527.723 170 528.26 167.933 529.495 166.286C530.731 164.639 532.565 163.545 534.6 163.24L554.312 161.26C556.387 161.176 558.411 161.915 559.944 163.316C561.476 164.716 562.394 166.666 562.496 168.74L564.344 187.308" stroke="black" stroke-width="3" stroke-miterlimit="10"/>
<path d="M576.621 210.76C585.993 198 566.193 192.456 556.161 199.804C553.917 201.476 550.881 205.744 557.877 207.416" stroke="black" stroke-width="3" stroke-miterlimit="10"/>
<path d="M576.399 199.012C584.451 185.812 566.103 183.436 556.467 189.86C554.091 191.444 551.627 197.516 558.403 198.352" stroke="black" stroke-width="3" stroke-miterlimit="10"/>
<path d="M552.861 235.092C552.861 235.092 570.461 236.72 576.621 224.928C578.083 222.455 578.625 219.544 578.15 216.711C577.675 213.877 576.214 211.302 574.025 209.44C571.497 207.32 568.304 206.158 565.005 206.158C561.706 206.158 558.512 207.32 555.985 209.44C553.037 212.3 555.501 217.36 558.625 216.04C559.996 215.519 561.467 215.311 562.929 215.433C564.391 215.555 565.807 216.003 567.073 216.744C570.021 220.22 564.565 225.28 560.473 225.544L540.805 227.48C539.758 227.558 538.707 227.424 537.713 227.088C536.719 226.751 535.803 226.218 535.019 225.52C534.235 224.822 533.599 223.974 533.149 223.026C532.7 222.078 532.445 221.049 532.401 220L531.433 209.836C531.433 209.836 545.557 201.784 543.709 196.636C541.861 191.488 529.629 195.272 524.877 199.98C518.057 206.712 516.077 232.056 531.257 237.644" stroke="black" stroke-width="3" stroke-linejoin="round"/>
<path d="M368.632 506C364.232 529.716 340.692 536.8 319.088 533.148" stroke="black" stroke-width="3" stroke-miterlimit="10" stroke-linecap="round"/>
<path d="M497.904 790.02C503.844 790.46 528.396 802.164 547.58 804.408C556.776 805.508 565.532 810.656 563.376 822.404L462 822.8" stroke="black" stroke-width="3" stroke-linecap="round" stroke-linejoin="round"/>
<path d="M461.692 830.544H563.552V822.184H461.692V830.544Z" stroke="black" stroke-width="3" stroke-linecap="round" stroke-linejoin="round"/>
<path d="M461.736 788.876V822.096" stroke="black" stroke-width="3" stroke-miterlimit="10"/>
<path d="M279.971 809.996L325.907 830.676L381.171 830.236V821.876L327.844 821.392L284.636 801.02L279.971 809.996Z" stroke="black" stroke-width="3" stroke-linecap="round" stroke-linejoin="round"/>
<path d="M381.128 820.864C379.984 813.34 368.632 802.868 354.728 803.528C346.456 803.924 345.928 792.792 329.164 784.652L298.716 772.552L284.812 801.02" stroke="black" stroke-width="3" stroke-linecap="round" stroke-linejoin="round"/>
<path d="M396.44 140.8C397.804 130.812 399.608 116.028 406.56 108.284C428.868 83.3801 454.696 134.112 458.832 150.48C462.748 165.704 441.232 199.98 435.072 202.444C425.744 206.14 412.544 197.384 408.32 188.716" stroke="black" stroke-width="3" stroke-miterlimit="10" stroke-linecap="round"/>
<path d="M393.273 235.84C393.273 209.792 391.865 186.12 394.065 160.116" stroke="black" stroke-width="3" stroke-miterlimit="10"/>
<path d="M432.564 202.092C435.028 212.476 435.512 225.72 439.868 235.136" stroke="black" stroke-width="3" stroke-miterlimit="10"/>
<path d="M400.005 145.464C387.729 127.336 378.621 151.14 383.373 157.388C386.409 161.392 392.921 160.688 396.573 158.796" stroke="black" stroke-width="3" stroke-miterlimit="10" stroke-linecap="round"/>
<path d="M443.785 119.68C445.281 119.68 480.569 112.64 475.597 102.96C469.965 91.9163 401.941 126.852 397.717 128.7" stroke="black" stroke-width="3" stroke-miterlimit="10"/>
<path d="M423.897 147.356C422.089 146.827 420.184 146.723 418.329 147.051C416.475 147.379 414.721 148.131 413.205 149.248" stroke="black" stroke-width="3" stroke-miterlimit="10" stroke-linecap="round"/>
<path d="M394.283 148.984C392.402 150.703 389.966 151.687 387.419 151.756" stroke="black" stroke-width="3" stroke-miterlimit="10" stroke-linecap="round"/>
<path d="M420.553 159.148C421.573 159.148 422.401 158.321 422.401 157.3C422.401 156.28 421.573 155.452 420.553 155.452C419.532 155.452 418.705 156.28 418.705 157.3C418.705 158.321 419.532 159.148 420.553 159.148Z" fill="black"/>
<path d="M444.708 158.532C445.728 158.532 446.556 157.704 446.556 156.684C446.556 155.663 445.728 154.836 444.708 154.836C443.687 154.836 442.86 155.663 442.86 156.684C442.86 157.704 443.687 158.532 444.708 158.532Z" fill="black"/>
<path d="M447.788 148.06C444.884 146.696 438.284 147.092 437.14 149.952C435.248 154.352 438.064 164.12 439.252 169.62C440.088 173.404 441.408 180.664 434.852 178.684" stroke="black" stroke-width="3" stroke-miterlimit="10" stroke-linecap="round"/>
<path d="M425.831 188.056C426.614 188.895 427.575 189.55 428.642 189.972C429.709 190.395 430.857 190.574 432.003 190.499C433.148 190.423 434.263 190.093 435.265 189.534C436.268 188.975 437.133 188.199 437.799 187.264" stroke="black" stroke-width="3" stroke-miterlimit="10" stroke-linecap="round"/>
<path d="M582.692 80.4325C588.962 80.4325 594.044 75.3501 594.044 69.0805C594.044 62.811 588.962 57.7285 582.692 57.7285C576.423 57.7285 571.34 62.811 571.34 69.0805C571.34 75.3501 576.423 80.4325 582.692 80.4325Z" fill="white"/>
<path d="M582.56 54.956C579.749 54.956 577.001 55.7895 574.664 57.3511C572.327 58.9127 570.505 61.1324 569.429 63.7293C568.354 66.3262 568.072 69.1837 568.621 71.9406C569.169 74.6974 570.523 77.2298 572.51 79.2174C574.498 81.2049 577.03 82.5585 579.787 83.1069C582.544 83.6552 585.401 83.3738 587.998 82.2981C590.595 81.2225 592.815 79.4009 594.376 77.0637C595.938 74.7266 596.772 71.9788 596.772 69.168C596.772 65.3987 595.274 61.7838 592.609 59.1186C589.944 56.4533 586.329 54.956 582.56 54.956ZM584.98 75.988C584.98 76.2364 584.931 76.4824 584.836 76.712C584.741 76.9415 584.601 77.1501 584.425 77.3258C584.25 77.5015 584.041 77.6409 583.812 77.7359C583.582 77.831 583.336 77.88 583.088 77.88C582.582 77.8801 582.096 77.6822 581.734 77.3286C581.372 76.975 581.163 76.4938 581.152 75.988V67.584L580.932 67.936C580.798 68.1494 580.624 68.3342 580.418 68.4793C580.213 68.6245 579.98 68.7272 579.734 68.7814C579.489 68.8357 579.235 68.8403 578.987 68.7951C578.739 68.7499 578.503 68.6558 578.293 68.5182C578.082 68.3806 577.901 68.2024 577.76 67.9939C577.619 67.7855 577.521 67.551 577.471 67.3042C577.422 67.0574 577.423 66.8032 577.473 66.5566C577.523 66.31 577.622 66.0759 577.764 65.868L581.504 60.192C581.72 59.8475 582.046 59.5861 582.429 59.4503C582.813 59.3146 583.231 59.3123 583.616 59.444C584.007 59.5577 584.351 59.7947 584.597 60.1197C584.843 60.4448 584.977 60.8405 584.98 61.248V75.988Z" fill="#FFB55F"/>
<path d="M487.638 325.345C495.514 377.881 506.162 455.849 506.646 481.281H504.446L336.982 481.589H333.902C334.826 464.781 336.19 463.241 337.334 438.293L376.626 440.273C355.638 437.545 326.158 423.509 304.642 405.469C288.934 392.269 277.406 377.045 276.482 362.525C275.69 350.469 281.366 341.009 286.602 330.229C293.158 316.633 331.218 267.089 340.502 259.433C351.238 250.633 387.054 245.353 387.054 245.353C388.506 241.745 389.254 238.489 392.774 236.333C392.997 236.206 393.233 236.103 393.478 236.025C408.092 232.772 423.219 232.562 437.918 235.409C438.569 235.582 439.192 235.848 439.766 236.201C441.46 237.125 442.913 238.435 444.006 240.025C445.099 241.615 445.802 243.44 446.058 245.353C446.058 245.353 467.75 244.517 480.818 251.645C499.491 262.768 517.041 275.677 533.222 290.189C533.824 272.565 533.177 254.921 531.286 237.389L553.286 235.761H553.902C561.866 262.865 579.422 327.325 569.082 337.577C561.294 345.541 494.282 327.633 487.638 325.345ZM357.486 323.541C355.374 325.741 353.086 327.941 351.238 330.229C341.955 340.211 333.286 350.747 325.278 361.777C316.962 375.725 376.846 412.289 391.278 415.765C391.278 415.765 391.278 416.777 391.278 418.405C390.97 424.521 389.826 439.261 385.866 440.405C388.506 443.881 406.722 456.597 413.674 457.741C423.838 459.501 436.334 449.469 443.902 443.309C448.265 443.537 452.54 442.025 455.79 439.105C459.04 436.185 460.999 432.095 461.238 427.733L465.33 345.365C465.533 340.998 464 336.728 461.065 333.488C458.13 330.247 454.032 328.301 449.666 328.073L357.486 323.541Z" fill="#332E6F"/>
<path d="M377.901 303.961C370.703 310.066 363.885 316.605 357.485 323.541C355.373 325.741 353.085 327.941 351.237 330.229C341.955 340.211 333.285 350.747 325.277 361.777C316.961 375.725 376.845 412.289 391.277 415.765C391.277 415.765 391.277 416.777 391.277 418.405C390.969 424.521 389.825 439.261 385.865 440.405H385.381C382.529 440.468 379.675 440.321 376.845 439.965C355.857 437.237 326.377 423.201 304.861 405.161C289.153 391.961 277.625 376.737 276.701 362.217C275.909 350.161 281.585 340.701 286.821 329.921C293.377 316.325 331.437 266.781 340.721 259.125C351.237 250.633 387.053 245.353 387.053 245.353C388.505 241.745 389.253 238.489 392.773 236.333C392.996 236.206 393.232 236.103 393.477 236.025C408.091 232.772 423.218 232.562 437.917 235.409C438.568 235.581 439.191 235.848 439.765 236.201C441.459 237.125 442.912 238.435 444.005 240.025C445.098 241.615 445.801 243.44 446.057 245.353C446.057 245.353 467.749 244.517 480.817 251.645C499.49 262.768 517.04 275.677 533.221 290.189C535.861 292.477 538.457 294.589 541.009 297.141" stroke="black" stroke-width="3" stroke-linecap="round" stroke-linejoin="round"/>
<path d="M443.901 443.353C436.333 449.513 423.837 459.545 413.673 457.785C406.721 456.641 388.505 443.925 385.865 440.449C385.729 440.271 385.611 440.079 385.513 439.877" stroke="black" stroke-width="3" stroke-miterlimit="10"/>
<path d="M337.334 438.293C336.19 463.241 334.826 464.693 333.902 481.589H336.982L504.446 481.281H506.646C506.162 455.849 495.514 377.881 487.638 325.345C485.614 311.925 483.81 300.177 482.358 291.377" stroke="black" stroke-width="3" stroke-linecap="round" stroke-linejoin="round"/>
<path d="M487.24 325.213H487.636C494.28 327.501 561.292 345.409 569.256 337.489C579.596 327.237 562.04 262.689 554.076 235.673H553.636C548.706 234.205 544.265 234.263 531.636 237.301C533.527 254.833 534.174 272.477 533.572 290.101" stroke="black" stroke-width="3" stroke-miterlimit="10"/>
<path d="M442.802 443.354H442.318C434.266 443.75 419.878 443.794 415.566 440.01C412.926 437.678 412.794 427.954 417.194 426.062C420.23 424.742 426.346 422.674 428.502 421.398C429.351 420.983 430.044 420.305 430.478 419.465C430.912 418.624 431.064 417.667 430.911 416.733C430.758 415.8 430.308 414.941 429.629 414.283C428.949 413.626 428.075 413.205 427.138 413.082C423.727 412.776 420.296 412.776 416.886 413.082C410.286 413.874 399.902 420.342 391.19 418.406" stroke="black" stroke-width="3" stroke-miterlimit="10"/>
<path d="M376.67 440.141L337.378 438.161L319.514 437.281C315.148 437.053 311.05 435.107 308.115 431.867C305.18 428.626 303.646 424.356 303.85 419.989L304.598 405.425" stroke="black" stroke-width="3" stroke-miterlimit="10"/>
<path d="M356.825 323.497H357.485L449.445 327.897C453.811 328.124 457.91 330.071 460.845 333.311C463.78 336.551 465.313 340.821 465.109 345.189L461.237 427.733C461.126 429.92 460.579 432.064 459.631 434.038C458.682 436.012 457.35 437.778 455.711 439.232C454.073 440.685 452.162 441.799 450.089 442.506C448.016 443.214 445.823 443.501 443.637 443.353V443.353H442.229H441.129" stroke="black" stroke-width="3" stroke-miterlimit="10"/>
<path d="M351.237 330.273L443.637 334.673C447.517 334.855 451.165 336.571 453.781 339.442C456.396 342.313 457.765 346.105 457.585 349.985L454.021 422.849L453.141 439.965" stroke="black" stroke-width="3" stroke-miterlimit="10"/>
<path d="M332.844 373.349C350.444 392.269 382.74 412.157 393.256 414.709C393.256 414.709 392.684 442.693 386.568 442.957C368.968 443.661 340.896 433.761 316.916 418.669" stroke="white" stroke-width="3" stroke-linecap="round" stroke-linejoin="round"/>
</svg>
