<svg width="896" height="896" viewBox="0 0 896 896" fill="none" xmlns="http://www.w3.org/2000/svg">
<g filter="url(#filter0_d_514_1920)">
<g clip-path="url(#clip0_514_1920)">
<path d="M8 28C8 16.9543 16.9543 8 28 8H868C879.046 8 888 16.9543 888 28V868C888 879.046 879.046 888 868 888H28C16.9543 888 8 879.046 8 868V28Z" fill="#FCFBFF"/>
<path d="M587.26 81.1285H543.216C537.505 81.1285 532.876 85.7579 532.876 91.4685V111.357C532.876 117.067 537.505 121.697 543.216 121.697H587.26C592.971 121.697 597.6 117.067 597.6 111.357V91.4685C597.6 85.7579 592.971 81.1285 587.26 81.1285Z" stroke="black" stroke-width="1.376" stroke-linecap="round" stroke-linejoin="round"/>
<path d="M537.717 83.7677L565.261 110.08L594.213 82.4917" stroke="black" stroke-width="1.376" stroke-linecap="round" stroke-linejoin="round"/>
<path d="M537.629 83.8117L565.261 110.08L594.213 82.4917" stroke="black" stroke-width="1.376" stroke-linecap="round" stroke-linejoin="round"/>
<path d="M535.824 119.011L554.216 99.8715" stroke="black" stroke-width="1.376" stroke-linecap="round" stroke-linejoin="round"/>
<path d="M594.255 118.131L576.743 99.8715" stroke="black" stroke-width="1.376" stroke-linecap="round" stroke-linejoin="round"/>
<path d="M579.12 143.168H525.66C523.079 143.3 520.549 142.409 518.622 140.687C516.694 138.965 515.523 136.552 515.364 133.972V66.52C515.512 63.9358 516.679 61.5159 518.61 59.7916C520.54 58.0674 523.076 57.1799 525.66 57.324H601.296C603.881 57.1799 606.417 58.0674 608.347 59.7916C610.277 61.5159 611.445 63.9358 611.592 66.52V133.972C611.433 136.552 610.263 138.965 608.335 140.687C606.407 142.409 603.878 143.3 601.296 143.168H591.044" stroke="black" stroke-width="1.376" stroke-linecap="round" stroke-linejoin="round"/>
<path d="M591.351 137.712C591.351 137.712 588.799 158.04 583.563 162C578.327 165.96 579.647 133.884 579.647 133.884" stroke="black" stroke-width="1.376" stroke-linecap="round" stroke-linejoin="round"/>
<path d="M555.579 812.408C564.731 813.508 573.179 818.568 571.419 830.008H469.735V796.7C469.735 797.14 469.735 797.492 469.735 797.8C469.735 798.108 501.679 798.46 504.451 797.8H505.727C511.843 798.46 536.395 810.164 555.579 812.408Z" fill="#332E6F"/>
<path d="M389.128 828.864V829.876L335.844 829.392L292.636 809.02L306.54 780.552H307.068L336.988 792.432L337.736 792.784C353.62 800.88 354.412 811.704 362.552 811.308C376.632 810.868 387.984 821.34 389.128 828.864Z" fill="#332E6F"/>
<path d="M575.072 224.568C573.806 223.827 572.39 223.379 570.928 223.257C569.466 223.135 567.995 223.343 566.624 223.864C563.5 225.184 561.036 220.124 563.984 217.264C564.578 216.715 565.226 216.228 565.92 215.812V215.416C558.924 213.744 561.96 209.476 564.204 207.804C564.954 207.268 565.749 206.797 566.58 206.396V206.396C559.804 205.56 562.18 199.488 564.644 197.904C566.951 196.42 569.519 195.39 572.212 194.868L570.408 176.696C570.363 175.667 570.115 174.658 569.679 173.725C569.243 172.792 568.628 171.954 567.867 171.259C567.107 170.564 566.218 170.026 565.249 169.676C564.281 169.325 563.253 169.169 562.224 169.216L542.512 171.196C540.476 171.501 538.642 172.596 537.407 174.243C536.172 175.889 535.635 177.956 535.912 179.996L538.42 204.108V204.416C543.832 201.82 550.476 200.852 551.62 204.68C553.468 209.74 539.344 217.88 539.344 217.88L540.4 228C540.451 229.029 540.704 230.038 541.145 230.969C541.586 231.9 542.207 232.735 542.971 233.425C543.736 234.116 544.629 234.649 545.599 234.994C546.57 235.339 547.599 235.49 548.628 235.436L568.296 233.5C572.564 233.104 578.02 228 575.072 224.568ZM557.12 228.616C556.441 228.616 555.778 228.415 555.213 228.038C554.649 227.661 554.209 227.125 553.949 226.498C553.69 225.871 553.622 225.18 553.754 224.515C553.887 223.849 554.213 223.237 554.693 222.757C555.173 222.277 555.785 221.951 556.451 221.818C557.116 221.686 557.806 221.754 558.434 222.014C559.061 222.273 559.597 222.713 559.974 223.278C560.351 223.842 560.552 224.505 560.552 225.184C560.552 226.094 560.191 226.967 559.547 227.611C558.903 228.255 558.03 228.616 557.12 228.616Z" fill="black"/>
<path d="M541.192 298.4C541.778 280.775 541.116 263.131 539.212 245.6" stroke="black" stroke-width="1.376" stroke-linecap="round" stroke-linejoin="round"/>
<path d="M562.399 243.4C551.531 240.364 537.319 246.612 537.319 246.612" stroke="black" stroke-width="1.376" stroke-miterlimit="10"/>
<path d="M338 792.96C349.572 783.544 437.836 629.588 457.02 525.352" stroke="black" stroke-width="1.376" stroke-miterlimit="10" stroke-linecap="round"/>
<path d="M346.8 490.064C341.52 590.648 307.2 780.464 307.2 780.464" stroke="black" stroke-width="1.376" stroke-miterlimit="10" stroke-linecap="round"/>
<path d="M435.02 600.724C443.292 645.648 467.58 783.28 469.912 797.976C469.912 797.976 504.408 798.68 504.848 797.976C510.656 785.304 514.616 650.884 511.052 490.988" stroke="black" stroke-width="1.376" stroke-miterlimit="10" stroke-linecap="round"/>
<path d="M538.332 204.152L536 180.04C535.723 178 536.26 175.933 537.495 174.286C538.73 172.639 540.564 171.545 542.6 171.24L562.312 169.26C564.387 169.176 566.411 169.915 567.943 171.316C569.476 172.716 570.393 174.666 570.496 176.74L572.344 195.308" stroke="black" stroke-width="1.376" stroke-miterlimit="10"/>
<path d="M584.62 218.76C593.992 206 574.192 200.456 564.16 207.804C561.916 209.476 558.88 213.744 565.876 215.416" stroke="black" stroke-width="1.376" stroke-miterlimit="10"/>
<path d="M584.399 207.012C592.451 193.812 574.103 191.436 564.467 197.86C562.091 199.444 559.627 205.516 566.403 206.352" stroke="black" stroke-width="1.376" stroke-miterlimit="10"/>
<path d="M560.861 243.092C560.861 243.092 578.461 244.72 584.621 232.928C586.083 230.455 586.624 227.544 586.149 224.711C585.674 221.877 584.214 219.302 582.025 217.44C579.497 215.32 576.303 214.158 573.005 214.158C569.706 214.158 566.512 215.32 563.985 217.44C561.037 220.3 563.501 225.36 566.625 224.04C567.996 223.519 569.466 223.311 570.928 223.433C572.391 223.555 573.807 224.003 575.073 224.744C578.021 228.22 572.565 233.28 568.473 233.544L548.805 235.48C547.758 235.558 546.706 235.424 545.712 235.088C544.719 234.751 543.802 234.218 543.018 233.52C542.235 232.822 541.599 231.974 541.149 231.026C540.699 230.078 540.445 229.049 540.401 228L539.433 217.836C539.433 217.836 553.557 209.784 551.709 204.636C549.861 199.488 537.629 203.272 532.877 207.98C526.057 214.712 524.077 240.056 539.257 245.644" stroke="black" stroke-width="1.376" stroke-linejoin="round"/>
<path d="M376.632 514C372.232 537.716 348.692 544.8 327.088 541.148" stroke="black" stroke-width="1.376" stroke-miterlimit="10" stroke-linecap="round"/>
<path d="M505.904 798.02C511.844 798.46 536.396 810.164 555.58 812.408C564.776 813.508 573.532 818.656 571.376 830.404L470 830.8" stroke="black" stroke-width="1.376" stroke-linecap="round" stroke-linejoin="round"/>
<path d="M469.693 838.544H571.553V830.184H469.693V838.544Z" stroke="black" stroke-width="1.376" stroke-linecap="round" stroke-linejoin="round"/>
<path d="M469.735 796.876V830.096" stroke="black" stroke-width="1.376" stroke-miterlimit="10"/>
<path d="M287.972 817.996L333.908 838.676L389.172 838.236V829.876L335.844 829.392L292.636 809.02L287.972 817.996Z" stroke="black" stroke-width="1.376" stroke-linecap="round" stroke-linejoin="round"/>
<path d="M389.128 828.864C387.984 821.34 376.632 810.868 362.728 811.528C354.456 811.924 353.927 800.792 337.163 792.652L306.716 780.552L292.812 809.02" stroke="black" stroke-width="1.376" stroke-linecap="round" stroke-linejoin="round"/>
<path d="M404.44 148.8C405.804 138.812 407.608 124.028 414.56 116.284C436.868 91.3801 462.696 142.112 466.832 158.48C470.748 173.704 449.232 207.98 443.072 210.444C433.744 214.14 420.544 205.384 416.32 196.716" stroke="black" stroke-width="1.376" stroke-miterlimit="10" stroke-linecap="round"/>
<path d="M401.273 243.84C401.273 217.792 399.865 194.12 402.065 168.116" stroke="black" stroke-width="1.376" stroke-miterlimit="10"/>
<path d="M440.564 210.092C443.028 220.476 443.512 233.72 447.868 243.136" stroke="black" stroke-width="1.376" stroke-miterlimit="10"/>
<path d="M408.005 153.464C395.729 135.336 386.621 159.14 391.373 165.388C394.409 169.392 400.921 168.688 404.573 166.796" stroke="black" stroke-width="1.376" stroke-miterlimit="10" stroke-linecap="round"/>
<path d="M451.785 127.68C453.281 127.68 488.569 120.64 483.597 110.96C477.965 99.9163 409.941 134.852 405.717 136.7" stroke="black" stroke-width="1.376" stroke-miterlimit="10"/>
<path d="M431.897 155.356C430.089 154.827 428.184 154.723 426.33 155.051C424.475 155.379 422.721 156.131 421.205 157.248" stroke="black" stroke-width="1.376" stroke-miterlimit="10" stroke-linecap="round"/>
<path d="M402.283 156.984C400.402 158.703 397.966 159.687 395.419 159.757" stroke="black" stroke-width="1.376" stroke-miterlimit="10" stroke-linecap="round"/>
<path d="M428.553 167.148C429.574 167.148 430.401 166.321 430.401 165.3C430.401 164.28 429.574 163.452 428.553 163.452C427.532 163.452 426.705 164.28 426.705 165.3C426.705 166.321 427.532 167.148 428.553 167.148Z" fill="black"/>
<path d="M452.707 166.532C453.728 166.532 454.555 165.704 454.555 164.684C454.555 163.663 453.728 162.836 452.707 162.836C451.687 162.836 450.859 163.663 450.859 164.684C450.859 165.704 451.687 166.532 452.707 166.532Z" fill="black"/>
<path d="M455.789 156.06C452.885 154.696 446.285 155.092 445.141 157.952C443.249 162.352 446.065 172.12 447.253 177.62C448.089 181.404 449.409 188.664 442.853 186.684" stroke="black" stroke-width="1.376" stroke-miterlimit="10" stroke-linecap="round"/>
<path d="M433.831 196.056C434.614 196.895 435.575 197.55 436.642 197.972C437.709 198.395 438.857 198.574 440.003 198.499C441.148 198.423 442.263 198.093 443.265 197.534C444.268 196.975 445.133 196.199 445.799 195.264" stroke="black" stroke-width="1.376" stroke-miterlimit="10" stroke-linecap="round"/>
<path d="M590.693 88.4325C596.962 88.4325 602.045 83.35 602.045 77.0805C602.045 70.811 596.962 65.7285 590.693 65.7285C584.423 65.7285 579.341 70.811 579.341 77.0805C579.341 83.35 584.423 88.4325 590.693 88.4325Z" fill="white"/>
<path d="M590.56 62.9559C587.749 62.9559 585.001 63.7895 582.664 65.3511C580.327 66.9127 578.505 69.1323 577.429 71.7292C576.354 74.3261 576.072 77.1837 576.621 79.9406C577.169 82.6974 578.523 85.2298 580.51 87.2173C582.498 89.2049 585.03 90.5585 587.787 91.1069C590.544 91.6552 593.401 91.3738 595.998 90.2981C598.595 89.2224 600.815 87.4009 602.376 85.0637C603.938 82.7265 604.772 79.9788 604.772 77.1679C604.772 73.3987 603.274 69.7838 600.609 67.1185C597.944 64.4533 594.329 62.9559 590.56 62.9559ZM592.98 83.9879C592.98 84.2364 592.931 84.4824 592.836 84.712C592.741 84.9415 592.601 85.1501 592.425 85.3258C592.25 85.5015 592.041 85.6408 591.812 85.7359C591.582 85.831 591.336 85.8799 591.088 85.8799C590.582 85.8801 590.096 85.6821 589.734 85.3285C589.372 84.9749 589.163 84.4937 589.152 83.9879V75.5839L588.932 75.9359C588.798 76.1494 588.624 76.3341 588.418 76.4793C588.213 76.6245 587.98 76.7272 587.734 76.7814C587.489 76.8356 587.235 76.8403 586.987 76.7951C586.739 76.7499 586.503 76.6557 586.293 76.5182C586.082 76.3806 585.901 76.2024 585.76 75.9939C585.619 75.7855 585.521 75.551 585.471 75.3042C585.422 75.0574 585.423 74.8032 585.473 74.5566C585.523 74.31 585.622 74.0759 585.764 73.8679L589.504 68.1919C589.72 67.8474 590.046 67.5861 590.429 67.4503C590.813 67.3145 591.231 67.3123 591.616 67.4439C592.007 67.5576 592.351 67.7947 592.597 68.1197C592.843 68.4447 592.977 68.8404 592.98 69.2479V83.9879Z" fill="#FFB55F"/>
<path d="M495.638 333.345C503.514 385.881 514.162 463.849 514.646 489.281H512.446L344.982 489.589H341.902C342.826 472.781 344.19 471.241 345.334 446.293L384.626 448.273C363.638 445.545 334.158 431.509 312.642 413.469C296.934 400.269 285.406 385.045 284.482 370.525C283.69 358.469 289.366 349.009 294.602 338.229C301.158 324.633 339.218 275.089 348.502 267.433C359.238 258.633 395.054 253.353 395.054 253.353C396.506 249.745 397.254 246.489 400.774 244.333C400.997 244.206 401.233 244.103 401.478 244.025C416.092 240.772 431.219 240.562 445.918 243.409C446.569 243.582 447.192 243.848 447.766 244.201C449.46 245.125 450.913 246.435 452.006 248.025C453.099 249.615 453.802 251.44 454.058 253.353C454.058 253.353 475.75 252.517 488.818 259.645C507.491 270.768 525.041 283.677 541.222 298.189C541.824 280.565 541.177 262.921 539.286 245.389L561.286 243.761H561.902C569.866 270.865 587.422 335.325 577.082 345.577C569.294 353.541 502.282 335.633 495.638 333.345ZM365.486 331.541C363.374 333.741 361.086 335.941 359.238 338.229C349.955 348.211 341.286 358.747 333.278 369.777C324.962 383.725 384.846 420.289 399.278 423.765C399.278 423.765 399.278 424.777 399.278 426.405C398.97 432.521 397.826 447.261 393.866 448.405C396.506 451.881 414.722 464.597 421.674 465.741C431.838 467.501 444.334 457.469 451.902 451.309C456.265 451.537 460.54 450.025 463.79 447.105C467.04 444.185 468.999 440.095 469.238 435.733L473.33 353.365C473.533 348.998 472 344.728 469.065 341.488C466.13 338.247 462.032 336.301 457.666 336.073L365.486 331.541Z" fill="#332E6F"/>
<path d="M385.9 311.961C378.703 318.066 371.885 324.605 365.484 331.541C363.372 333.741 361.084 335.941 359.236 338.229C349.954 348.211 341.285 358.747 333.276 369.777C324.96 383.725 384.844 420.289 399.276 423.765C399.276 423.765 399.276 424.777 399.276 426.405C398.968 432.521 397.824 447.261 393.864 448.405H393.38C390.528 448.468 387.675 448.321 384.844 447.965C363.856 445.237 334.376 431.201 312.86 413.161C297.152 399.961 285.624 384.737 284.7 370.217C283.908 358.161 289.584 348.701 294.82 337.921C301.376 324.325 339.436 274.781 348.72 267.125C359.236 258.633 395.052 253.353 395.052 253.353C396.504 249.745 397.252 246.489 400.772 244.333C400.996 244.206 401.232 244.103 401.476 244.025C416.09 240.772 431.218 240.562 445.916 243.409C446.568 243.582 447.19 243.848 447.764 244.201C449.459 245.125 450.911 246.435 452.005 248.025C453.098 249.615 453.801 251.44 454.056 253.353C454.056 253.353 475.748 252.517 488.816 259.645C507.49 270.769 525.04 283.677 541.22 298.189C543.86 300.477 546.456 302.589 549.008 305.141" stroke="black" stroke-width="1.376" stroke-linecap="round" stroke-linejoin="round"/>
<path d="M451.902 451.354C444.334 457.514 431.838 467.546 421.674 465.786C414.722 464.642 396.506 451.926 393.866 448.45C393.729 448.271 393.612 448.08 393.514 447.878" stroke="black" stroke-width="1.376" stroke-miterlimit="10"/>
<path d="M345.333 446.294C344.189 471.242 342.825 472.694 341.901 489.59H344.981L512.445 489.282H514.645C514.161 463.85 503.513 385.882 495.637 333.346C493.613 319.926 491.809 308.178 490.357 299.378" stroke="black" stroke-width="1.376" stroke-linecap="round" stroke-linejoin="round"/>
<path d="M495.24 333.213H495.636C502.28 335.501 569.292 353.409 577.256 345.489C587.596 335.237 570.04 270.689 562.076 243.673H561.636C556.706 242.206 552.265 242.264 539.636 245.301C541.528 262.833 542.175 280.478 541.572 298.101" stroke="black" stroke-width="1.376" stroke-miterlimit="10"/>
<path d="M450.801 451.355H450.317C442.265 451.751 427.877 451.795 423.565 448.011C420.925 445.679 420.793 435.955 425.193 434.063C428.229 432.743 434.345 430.675 436.501 429.399C437.351 428.983 438.044 428.305 438.478 427.465C438.912 426.625 439.064 425.667 438.911 424.734C438.758 423.8 438.308 422.941 437.628 422.284C436.949 421.626 436.075 421.205 435.137 421.083C431.727 420.776 428.296 420.776 424.885 421.083C418.285 421.875 407.901 428.343 399.189 426.407" stroke="black" stroke-width="1.376" stroke-miterlimit="10"/>
<path d="M384.67 448.141L345.378 446.161L327.514 445.281C323.148 445.054 319.05 443.107 316.115 439.867C313.18 436.627 311.646 432.356 311.85 427.989L312.598 413.425" stroke="black" stroke-width="1.376" stroke-miterlimit="10"/>
<path d="M364.825 331.497H365.485L457.445 335.897C461.811 336.125 465.909 338.071 468.844 341.311C471.78 344.552 473.313 348.822 473.109 353.189L469.237 435.733C469.125 437.92 468.579 440.064 467.63 442.038C466.682 444.012 465.349 445.778 463.711 447.232C462.073 448.686 460.162 449.799 458.089 450.506C456.016 451.214 453.823 451.502 451.637 451.353V451.353H450.229H449.129" stroke="black" stroke-width="1.376" stroke-miterlimit="10"/>
<path d="M359.237 338.273L451.637 342.673C455.517 342.855 459.165 344.571 461.781 347.442C464.396 350.313 465.765 354.105 465.585 357.985L462.021 430.849L461.141 447.965" stroke="black" stroke-width="1.376" stroke-miterlimit="10"/>
<path d="M340.844 381.349C358.444 400.269 390.74 420.157 401.256 422.709C401.256 422.709 400.684 450.693 394.568 450.957C376.968 451.661 348.896 441.761 324.916 426.669" stroke="white" stroke-width="1.376" stroke-linecap="round" stroke-linejoin="round"/>
</g>
</g>
<defs>
<filter id="filter0_d_514_1920" x="0" y="0" width="896" height="896" filterUnits="userSpaceOnUse" color-interpolation-filters="sRGB">
<feFlood flood-opacity="0" result="BackgroundImageFix"/>
<feColorMatrix in="SourceAlpha" type="matrix" values="0 0 0 0 0 0 0 0 0 0 0 0 0 0 0 0 0 0 127 0" result="hardAlpha"/>
<feOffset/>
<feGaussianBlur stdDeviation="4"/>
<feComposite in2="hardAlpha" operator="out"/>
<feColorMatrix type="matrix" values="0 0 0 0 0.439216 0 0 0 0 0.392157 0 0 0 0 1 0 0 0 0.25 0"/>
<feBlend mode="normal" in2="BackgroundImageFix" result="effect1_dropShadow_514_1920"/>
<feBlend mode="normal" in="SourceGraphic" in2="effect1_dropShadow_514_1920" result="shape"/>
</filter>
<clipPath id="clip0_514_1920">
<path d="M8 28C8 16.9543 16.9543 8 28 8H868C879.046 8 888 16.9543 888 28V868C888 879.046 879.046 888 868 888H28C16.9543 888 8 879.046 8 868V28Z" fill="white"/>
</clipPath>
</defs>
</svg>
