<svg width="15" height="9" viewBox="0 0 15 9" fill="none" xmlns="http://www.w3.org/2000/svg">
<path d="M14.63 2.30153L8.4417 8.62214C8.30717 8.75954 8.16143 8.85664 8.00448 8.91344C7.84753 8.97115 7.67937 9 7.5 9C7.32063 9 7.15247 8.97115 6.99551 8.91344C6.83856 8.85664 6.69282 8.75954 6.5583 8.62214L0.369955 2.30153C0.123318 2.04962 0 1.72901 0 1.3397C0 0.950382 0.123318 0.629772 0.369955 0.377864C0.616591 0.125956 0.930493 0 1.31166 0C1.69282 0 2.00673 0.125956 2.25336 0.377864L7.5 5.73664L12.7466 0.377864C12.9933 0.125956 13.3072 0 13.6883 0C14.0695 0 14.3834 0.125956 14.63 0.377864C14.8767 0.629772 15 0.950382 15 1.3397C15 1.72901 14.8767 2.04962 14.63 2.30153Z" fill="#FF54B0"/>
</svg>
