<svg width="24" height="24" viewBox="0 0 24 24" fill="none" xmlns="http://www.w3.org/2000/svg">
<g clip-path="url(#clip0_1115_2777)">
<mask id="mask0_1115_2777" style="mask-type:alpha" maskUnits="userSpaceOnUse" x="0" y="0" width="24" height="24">
<rect width="24" height="24" fill="#D9D9D9"/>
</mask>
<g mask="url(#mask0_1115_2777)">
<path d="M21.8376 16.9375C21.6209 16.9375 21.4418 16.8667 21.3001 16.725C21.1584 16.5834 21.0876 16.4042 21.0876 16.1875V9.88752L12.2876 14.6375C12.1709 14.7042 12.0543 14.75 11.9376 14.775C11.8209 14.8 11.6959 14.8125 11.5626 14.8125C11.4293 14.8125 11.3084 14.8 11.2001 14.775C11.0918 14.75 10.9793 14.7042 10.8626 14.6375L1.7876 9.66252C1.65426 9.59586 1.55843 9.50419 1.5001 9.38752C1.44176 9.27086 1.4126 9.14586 1.4126 9.01252C1.4126 8.87919 1.44176 8.75419 1.5001 8.63752C1.55843 8.52086 1.65426 8.42919 1.7876 8.36252L10.8376 3.41252C10.9543 3.34586 11.0709 3.29586 11.1876 3.26252C11.3043 3.22919 11.4293 3.21252 11.5626 3.21252C11.6959 3.21252 11.8209 3.22919 11.9376 3.26252C12.0543 3.29586 12.1709 3.34586 12.2876 3.41252L22.1876 8.78752C22.3209 8.87086 22.4209 8.97086 22.4876 9.08752C22.5543 9.20419 22.5876 9.32919 22.5876 9.46252V16.1875C22.5876 16.4042 22.5168 16.5834 22.3751 16.725C22.2334 16.8667 22.0543 16.9375 21.8376 16.9375ZM11.5626 20.7875C11.4293 20.7875 11.3043 20.775 11.1876 20.75C11.0709 20.725 10.9543 20.6792 10.8376 20.6125L5.0876 17.4625C4.85426 17.3292 4.66676 17.1459 4.5251 16.9125C4.38343 16.6792 4.3126 16.4209 4.3126 16.1375V11.7875L10.5376 15.1875L11.0376 15.4375C11.2043 15.5209 11.3793 15.5625 11.5626 15.5625C11.7459 15.5625 11.9251 15.5209 12.1001 15.4375C12.2751 15.3542 12.4459 15.2709 12.6126 15.1875L18.8126 11.7875V16.1375C18.8126 16.4209 18.7418 16.6792 18.6001 16.9125C18.4584 17.1459 18.2709 17.3292 18.0376 17.4625L12.2876 20.6125C12.1709 20.6792 12.0543 20.725 11.9376 20.75C11.8209 20.775 11.6959 20.7875 11.5626 20.7875Z" fill="#4D3483"/>
</g>
</g>
<defs>
<clipPath id="clip0_1115_2777">
<rect width="24" height="24" fill="white"/>
</clipPath>
</defs>
</svg>
