<svg width="114" height="102" viewBox="0 0 114 102" fill="none" xmlns="http://www.w3.org/2000/svg">
<path d="M48.7989 53.3494C42.1989 53.3494 36.7244 51.175 32.3757 46.8262C28.0245 42.475 25.8489 36.9994 25.8489 30.3994C25.8489 23.7994 28.0245 18.325 32.3757 13.9762C36.7244 9.625 42.1989 7.4494 48.7989 7.4494C55.3988 7.4494 60.8733 9.625 65.2221 13.9762C69.5733 18.325 71.7489 23.7994 71.7489 30.3994C71.7489 36.9994 69.5733 42.475 65.2221 46.8262C60.8733 51.175 55.3988 53.3494 48.7989 53.3494ZM5.75005 101.499C4.34845 101.499 3.17245 101.025 2.22205 100.077C1.27405 99.127 0.800049 97.951 0.800049 96.5494V86.5018C0.800049 83.0002 1.70005 79.825 3.50005 76.9762C5.30005 74.125 7.74925 71.9998 10.8476 70.6006C17.8484 67.4014 24.3741 65.0758 30.4244 63.6238C36.4748 62.1742 42.5997 61.4494 48.7989 61.4494C54.9981 61.4494 61.1229 62.1742 67.1733 63.6238C73.2237 65.0758 79.7493 67.4014 86.7501 70.6006C89.8484 72.1006 92.2977 74.251 94.0977 77.0518C95.8977 79.8502 96.7977 83.0002 96.7977 86.5018V96.5494C96.7977 97.951 96.3236 99.127 95.3756 100.077C94.4252 101.025 93.2493 101.499 91.8477 101.499H5.75005ZM10.8476 91.4518H86.7501V86.5018C86.7501 85.1002 86.3997 83.7502 85.6989 82.4518C84.9981 81.151 83.9481 80.2006 82.5489 79.6006C76.0497 76.4014 70.2249 74.251 65.0745 73.1494C59.9241 72.0502 54.4989 71.5006 48.7989 71.5006C43.0989 71.5006 37.6737 72.0754 32.5233 73.225C27.3729 74.3746 21.548 76.4998 15.0488 79.6006C13.748 80.2006 12.7232 81.151 11.9744 82.4518C11.2232 83.7502 10.8476 85.1002 10.8476 86.5018V91.4518ZM48.7989 43.4494C52.4997 43.4494 55.5993 42.2002 58.0977 39.7018C60.5985 37.201 61.8489 34.1002 61.8489 30.3994C61.8489 26.701 60.5985 23.6014 58.0977 21.1006C55.5993 18.5998 52.4997 17.3494 48.7989 17.3494C45.098 17.3494 41.9985 18.5998 39.5 21.1006C36.9992 23.6014 35.7489 26.701 35.7489 30.3994C35.7489 34.1002 36.9992 37.201 39.5 39.7018C41.9985 42.2002 45.098 43.4494 48.7989 43.4494Z" fill="#D0D1CF"/>
<path d="M99.4947 33.3427C98.4841 33.3427 97.6319 32.9848 96.938 32.269C96.2425 31.5532 95.9368 30.7111 96.021 29.7427C96.1473 27.9743 96.5684 26.4375 97.2841 25.1322C97.9999 23.8269 99.1368 22.4796 100.695 21.0901C102.421 19.5743 103.736 18.2581 104.641 17.1415C105.547 16.0265 106 14.7532 106 13.3217C106 11.5953 105.421 10.1638 104.264 9.02693C103.106 7.89008 101.495 7.32166 99.4315 7.32166C98.0841 7.32166 96.9372 7.60545 95.9907 8.17303C95.0425 8.74229 94.2736 9.44798 93.6841 10.2901C93.0947 11.1322 92.3688 11.7006 91.5065 11.9953C90.6425 12.2901 89.8105 12.269 89.0105 11.9322C88.042 11.5111 87.3793 10.8164 87.0223 9.84798C86.6635 8.87956 86.7368 7.97429 87.242 7.13219C88.4631 5.23745 90.1052 3.6585 92.1684 2.39535C94.2315 1.13219 96.6526 0.50061 99.4315 0.50061C103.853 0.50061 107.253 1.73261 109.633 4.19661C112.011 6.65893 113.2 9.6164 113.2 13.069C113.2 15.1743 112.748 16.9747 111.843 18.4703C110.937 19.9642 109.516 21.6585 107.579 23.5532C106.147 24.9006 105.137 25.9953 104.547 26.8375C103.958 27.6796 103.558 28.648 103.347 29.7427C103.179 30.7953 102.737 31.6585 102.021 32.3322C101.305 33.0059 100.463 33.3427 99.4947 33.3427ZM99.4315 48.5006C98.042 48.5006 96.853 48.0063 95.8644 47.0177C94.874 46.0273 94.3789 44.8375 94.3789 43.448C94.3789 42.0585 94.874 40.8686 95.8644 39.8783C96.853 38.8897 98.042 38.3953 99.4315 38.3953C100.821 38.3953 102.011 38.8897 103.001 39.8783C103.99 40.8686 104.484 42.0585 104.484 43.448C104.484 44.8375 103.99 46.0273 103.001 47.0177C102.011 48.0063 100.821 48.5006 99.4315 48.5006Z" fill="#D0D1CF"/>
</svg>
