<svg width="109" height="97" viewBox="0 0 109 97" fill="none" xmlns="http://www.w3.org/2000/svg">
<path fill-rule="evenodd" clip-rule="evenodd" d="M68.2367 7.76429C67.2999 7.28812 66.3415 6.83818 65.3615 6.41445C59.6651 3.95146 53.5446 2.71997 47 2.71997C40.533 2.71997 34.4319 3.95146 28.6967 6.41445C22.9614 8.87744 17.9763 12.2264 13.7414 16.4613C9.50643 20.6963 6.15747 25.6814 3.69448 31.4166C1.23149 37.1519 0 43.253 0 49.72C0 56.1869 1.23149 62.288 3.69448 68.0233C6.15747 73.7586 9.50643 78.7437 13.7414 82.9786C17.9763 87.2135 22.9614 90.5625 28.6967 93.0255C34.4319 95.4885 40.533 96.72 47 96.72C53.467 96.72 59.5681 95.4885 65.3033 93.0255C71.0386 90.5625 76.0237 87.2135 80.2586 82.9786C84.4936 78.7437 87.8425 73.7586 90.3055 68.0233C92.2083 63.5924 93.3761 58.9432 93.8089 54.0756C90.4913 52.3952 87.5518 50.0766 85.1519 47.2812C85.2008 48.0871 85.2253 48.9 85.2253 49.72C85.2253 60.4219 81.5105 69.4682 74.0808 76.859C66.6512 84.2498 57.6243 87.9452 47 87.9452C36.3757 87.9452 27.3488 84.2498 19.9192 76.859C12.4895 69.4682 8.77474 60.4219 8.77474 49.72V49.0271C14.935 46.5641 20.4014 43.0609 25.174 38.5174C29.9466 33.9757 33.6032 28.6636 36.1438 22.5809C40.6873 28.124 46.1926 32.4162 52.6595 35.4576C59.1265 38.4989 66.0166 40.0195 73.3298 40.0195C75.1775 40.0195 76.9679 39.9429 78.701 39.7895C79.2931 39.7364 79.874 39.6654 80.4436 39.5764C79.4654 37.1758 78.8093 34.6096 78.5291 31.9316C78.1512 31.9849 77.7845 32.0248 77.4289 32.0513C76.3905 32.1289 75.0629 32.1677 73.4462 32.1677C66.6706 32.1677 60.4346 30.6471 54.7382 27.6057C49.0399 24.5644 43.4192 19.5026 37.876 12.4204C39.1085 12.1118 40.4942 11.8421 42.0334 11.6111C43.5744 11.3802 45.2299 11.2647 47 11.2647C54.5442 11.2647 61.2227 13.1318 67.0356 16.866C67.4633 17.1407 67.8844 17.4216 68.299 17.7087C67.9791 16.1929 67.8125 14.5145 67.8125 12.6575C67.8125 10.9885 67.9579 9.35341 68.2367 7.76429ZM9.81407 39.7895C13.5871 38.1728 17.5522 35.1314 21.7096 30.6655C25.8669 26.1996 28.8306 20.9263 30.6007 14.8455C24.8267 17.6171 20.3229 21.1388 17.0894 25.4107C13.8559 29.6844 11.4308 34.4774 9.81407 39.7895Z" fill="#D0D1CF"/>
<path d="M32.7958 60.6898C31.0257 60.6898 29.5632 60.093 28.4084 58.8994C27.2536 57.7076 26.6762 56.2645 26.6762 54.5702C26.6762 52.8001 27.2721 51.3376 28.4639 50.1828C29.6575 49.028 31.1014 48.4506 32.7958 48.4506C34.5659 48.4506 36.0283 49.0474 37.1832 50.241C38.338 51.4328 38.9154 52.8758 38.9154 54.5702C38.9154 56.3403 38.3195 57.8027 37.1277 58.9576C35.9341 60.1124 34.4901 60.6898 32.7958 60.6898Z" fill="#D0D1CF"/>
<path d="M61.2042 60.6898C59.5099 60.6898 58.0659 60.093 56.8723 58.8994C55.6805 57.7076 55.0846 56.2645 55.0846 54.5702C55.0846 52.8001 55.6805 51.3376 56.8723 50.1828C58.0659 49.028 59.5487 48.4506 61.3206 48.4506C63.0131 48.4506 64.4562 49.0474 65.6498 50.241C66.8434 51.4328 67.4402 52.8758 67.4402 54.5702C67.4402 56.3403 66.8434 57.8027 65.6498 58.9576C64.4562 60.1124 62.9743 60.6898 61.2042 60.6898Z" fill="#D0D1CF"/>
<path d="M95.4467 30.4679C94.4688 30.4679 93.644 30.1359 92.9725 29.4718C92.2993 28.8078 92.0035 28.0266 92.085 27.1281C92.2073 25.4876 92.6147 24.0618 93.3074 22.8509C94.0002 21.64 95.1004 20.3901 96.608 19.101C98.2787 17.6948 99.5517 16.4738 100.427 15.4378C101.304 14.4035 101.742 13.2223 101.742 11.8942C101.742 10.2927 101.182 8.96459 100.063 7.90993C98.9413 6.85528 97.3822 6.32795 95.3856 6.32795C94.0817 6.32795 92.9717 6.59122 92.0557 7.11777C91.138 7.64588 90.394 8.30055 89.8235 9.08178C89.253 9.863 88.5505 10.3903 87.716 10.6638C86.8799 10.9372 86.0747 10.9177 85.3005 10.6052C84.3633 10.2146 83.7219 9.57004 83.3764 8.67163C83.0292 7.77322 83.1001 6.9334 83.5891 6.15217C84.7708 4.39441 86.3599 2.92961 88.3566 1.75776C90.3532 0.585921 92.6962 0 95.3856 0C99.6641 0 102.955 1.14294 105.258 3.42881C107.559 5.71312 108.71 8.45679 108.71 11.6598C108.71 13.6129 108.273 15.2832 107.397 16.6706C106.52 18.0565 105.145 19.6284 103.27 21.3861C101.885 22.6361 100.907 23.6517 100.336 24.4329C99.766 25.2141 99.3789 26.1125 99.1751 27.1281C99.0122 28.1047 98.5843 28.9054 97.8916 29.5304C97.1989 30.1554 96.3839 30.4679 95.4467 30.4679ZM95.3856 44.53C94.0409 44.53 92.8902 44.0714 91.9334 43.1543C90.975 42.2355 90.4958 41.1317 90.4958 39.8426C90.4958 38.5536 90.975 37.4497 91.9334 36.531C92.8902 35.6138 94.0409 35.1553 95.3856 35.1553C96.7303 35.1553 97.8818 35.6138 98.8402 36.531C99.797 37.4497 100.275 38.5536 100.275 39.8426C100.275 41.1317 99.797 42.2355 98.8402 43.1543C97.8818 44.0714 96.7303 44.53 95.3856 44.53Z" fill="#D0D1CF"/>
</svg>
