<svg width="102" height="102" viewBox="0 0 102 102" fill="none" xmlns="http://www.w3.org/2000/svg">
<path d="M11.0167 6.0163C9.87773 6.41593 8.85084 7.0726 7.936 7.98631C6.312 9.61231 5.5 11.5923 5.5 13.9263V87.1743C5.5 89.5083 6.312 91.4883 7.936 93.1143C9.562 94.7383 11.542 95.5503 13.876 95.5503H65.5L83.0254 78.025L67.1757 62.1753H66.376C65.208 62.1753 64.208 62.5923 63.376 63.4263C62.542 64.2583 62.125 65.2583 62.125 66.4263V87.1743H13.876V13.9263H18.9267L11.0167 6.0163Z" fill="#D0D1CF"/>
<path d="M35.5497 30.5493H31.375C30.209 30.5493 29.209 30.9453 28.375 31.7373C27.541 32.5293 27.124 33.5083 27.124 34.6743C27.124 35.8423 27.541 36.8423 28.375 37.6743C29.209 38.5083 30.209 38.9253 31.375 38.9253H43.9257L35.5497 30.5493Z" fill="#D0D1CF"/>
<path d="M53.8252 38.9253L45.4492 30.5493H69.625C70.791 30.5493 71.791 30.9453 72.625 31.7373C73.459 32.5293 73.876 33.5083 73.876 34.6743C73.876 35.9243 73.459 36.9453 72.625 37.7373C71.791 38.5293 70.791 38.9253 69.625 38.9253H53.8252Z" fill="#D0D1CF"/>
<path d="M77.0752 62.1753H87.124V13.9263H28.8262L20.4502 5.55031H87.124C89.458 5.55031 91.438 6.36231 93.064 7.98631C94.688 9.61231 95.5 11.5923 95.5 13.9263V65.5503L87.9751 73.0752L77.0752 62.1753Z" fill="#D0D1CF"/>
<path d="M28.375 57.6753C29.209 58.5093 30.209 58.9263 31.375 58.9263H45.499C46.667 58.9263 47.646 58.5303 48.436 57.7383C49.228 56.9463 49.624 55.9253 49.624 54.6753C49.624 53.5093 49.228 52.5303 48.436 51.7383C47.646 50.9463 46.667 50.5503 45.499 50.5503H31.375C30.209 50.5503 29.209 50.9463 28.375 51.7383C27.541 52.5303 27.124 53.5093 27.124 54.6753C27.124 55.8413 27.541 56.8413 28.375 57.6753Z" fill="#D0D1CF"/>
<path d="M1.02513 1.02519C2.39196 -0.341648 4.60804 -0.341648 5.97487 1.02519L100.02 95.0704C101.387 96.4372 101.387 98.6533 100.02 100.02C98.6532 101.387 96.4372 101.387 95.0703 100.02L1.02513 5.97493C-0.34171 4.6081 -0.341708 2.39202 1.02513 1.02519Z" fill="#D0D1CF"/>
</svg>
