<svg xmlns="http://www.w3.org/2000/svg" width="118" height="98" viewBox="0 0 118 98" fill="none">
<path fill-rule="evenodd" clip-rule="evenodd" d="M54.1506 97.3625C54.8889 97.5 55.6272 97.5687 56.3655 97.5687C57.1969 97.5687 57.9829 97.5 58.7234 97.3625C59.4617 97.2229 60.1546 96.9224 60.802 96.4613L85.8062 82.8216L99.158 96.1734C99.967 96.9804 100.917 97.3839 102.007 97.3839C103.099 97.3839 104.049 96.9804 104.856 96.1734C105.583 95.3644 105.967 94.4148 106.008 93.3245C106.046 92.2973 105.709 91.3954 104.996 90.6187C104.976 90.6006 104.956 90.5821 104.937 90.5632C104.922 90.5489 104.907 90.5343 104.892 90.5195L95.1178 80.9167L89.3611 75.013L66.334 52.084L45.7386 31.3555L42.7164 28.3333L37.5504 23.2512L32.5041 18.3518L28.6282 14.4265L26.7473 12.5216L17.1733 2.797C16.4679 2.15895 15.5857 1.83991 14.5265 1.83991C13.3935 1.83991 12.4633 2.20366 11.7358 2.93116C10.9287 3.74014 10.5049 4.68978 10.4641 5.78005C10.4234 6.87227 10.8075 7.82191 11.6165 8.62894L21.3155 18.3309L21.342 18.3569L2.87804 28.4238C2.04661 28.885 1.44577 29.4614 1.07551 30.1532C0.70746 30.8472 0.523438 31.6099 0.523438 32.4413C0.523438 33.2727 0.70746 34.0354 1.07551 34.7294C1.44577 35.4211 2.04661 35.9976 2.87804 36.4587L16.7363 43.9416V71.6581C16.7363 73.4119 17.152 75.0049 17.9834 76.4372C18.8149 77.8694 19.9689 79.0013 21.4455 79.8327L51.9323 96.4613C52.6706 96.9224 53.4101 97.2229 54.1506 97.3625ZM14.7941 32.4413L28.2707 25.1639L32.1058 28.9989L37.9258 34.9412L57.5224 54.5377L56.3655 55.1659L14.7941 32.4413ZM60.9384 63.3438L64.4261 61.4415L79.0401 76.0555L56.3655 88.423L25.882 71.7945V49.0699L52.072 63.3438C52.7172 63.7119 53.4101 63.989 54.1506 64.1752C54.8889 64.3593 55.6272 64.4513 56.3655 64.4513C57.1969 64.4513 57.9829 64.3593 58.7234 64.1752C59.4617 63.989 60.2001 63.7119 60.9384 63.3438Z" fill="#ff54b0"/>
<path d="M96.1377 43.9416L108.193 37.7059V71.9341C108.193 73.2267 108.632 74.312 109.51 75.19C110.386 76.068 111.517 76.507 112.903 76.507C114.197 76.507 115.284 76.068 116.162 75.19C117.038 74.312 117.476 73.2267 117.476 71.9341V35.2116C117.476 34.3802 117.268 33.5953 116.854 32.857C116.437 32.1187 115.813 31.5178 114.981 31.0545L60.802 1.67843C60.1546 1.21726 59.4617 0.893559 58.7234 0.707319C57.9829 0.523296 57.1969 0.431284 56.3655 0.431284C55.6272 0.431284 54.8889 0.523296 54.1506 0.707319C53.4101 0.893559 52.6706 1.21726 51.9323 1.67843L36.2544 10.2263L43.1547 17.1266L56.3655 9.99271L98.2163 32.4413L72.4566 46.4286L79.3368 53.3087L86.8523 49.2095V60.8242L96.1377 70.1096V43.9416Z" fill="#ff54b0"/>
<path fill-rule="evenodd" clip-rule="evenodd" d="M17.3143 2.93116C17.2681 2.88498 17.2211 2.84026 17.1733 2.797L26.7473 12.5216L28.6282 14.4265L17.3143 2.93116Z" fill="#ff54b0"/>
</svg>