<svg width="98" height="98" viewBox="0 0 98 98" fill="none" xmlns="http://www.w3.org/2000/svg">
<path d="M90.2148 96.1936L80.4736 86.4494H15.6955C14.5133 86.4494 13.5213 86.0496 12.7197 85.25C11.9201 84.4483 11.5203 83.4564 11.5203 82.2742V73.7993C11.5203 70.6777 12.2996 67.957 13.8584 65.6371C15.4192 63.3172 17.4648 61.5671 19.9952 60.387C24.635 58.1946 29.1695 56.486 33.5988 55.2613C38.0261 54.0386 42.4746 53.2592 46.9443 52.9232L1.65157 7.75492C0.807412 6.91077 0.406591 5.91985 0.449102 4.78217C0.491614 3.64246 0.933934 2.65053 1.77606 1.80638C2.62022 0.964248 3.63239 0.543182 4.81258 0.543182C5.9948 0.543182 7.00698 0.964248 7.84911 1.80638L96.2878 90.2451C97.132 91.0892 97.554 92.0801 97.554 93.2178C97.554 94.3575 97.132 95.3495 96.2878 96.1936C95.4457 97.0357 94.4335 97.4568 93.2513 97.4568C92.0711 97.4568 91.0589 97.0357 90.2148 96.1936ZM19.9952 77.9745H71.9956L55.1703 61.2736C54.6642 61.1886 54.1581 61.1461 53.652 61.1461H52.0062C47.1984 61.1461 42.5171 61.6522 37.9623 62.6643C33.4075 63.6765 28.5997 65.4478 23.5388 67.9783C22.4416 68.4843 21.5772 69.286 20.9456 70.3832C20.312 71.4784 19.9952 72.6171 19.9952 73.7993V77.9745ZM84.0172 60.387C86.5477 61.5671 88.5922 63.3172 90.151 65.6371C91.7118 67.957 92.4921 70.6352 92.4921 73.6717V74.4309L74.7801 56.7188C76.2984 57.2249 77.8166 57.7938 79.3349 58.4254C80.8532 59.059 82.4139 59.7128 84.0172 60.387ZM61.6229 43.5585L55.0427 36.9814C57.4051 36.3053 59.3242 35.0188 60.8 33.122C62.2757 31.2232 63.0136 29.0086 63.0136 26.4781C63.0136 23.4416 61.9377 20.8484 59.7858 18.6985C57.6359 16.5467 55.0427 15.4707 52.0062 15.4707C49.4758 15.4707 47.2611 16.2096 45.3623 17.6874C43.4655 19.1631 42.18 21.0812 41.5059 23.4416L34.9258 16.8645C36.6971 13.7429 39.101 11.339 42.1375 9.65275C45.174 7.96444 48.4636 7.12029 52.0062 7.12029C57.4051 7.12029 61.9812 8.99787 65.7343 12.753C69.4875 16.5062 71.364 21.0812 71.364 26.4781C71.364 30.0207 70.5209 33.3103 68.8346 36.3468C67.1463 39.3833 64.7424 41.7872 61.6229 43.5585Z" fill="#D0D1CF"/>
</svg>
