<svg width="24" height="33" viewBox="0 0 24 33" fill="none" xmlns="http://www.w3.org/2000/svg">
<g clip-path="url(#clip0_603_748)">
<mask id="mask0_603_748" style="mask-type:alpha" maskUnits="userSpaceOnUse" x="0" y="4" width="24" height="25">
<rect y="4.5" width="24" height="24" fill="#D9D9D9"/>
</mask>
<g mask="url(#mask0_603_748)">
<path d="M9.325 18C8.375 18 7.5625 17.6625 6.8875 16.9875C6.2125 16.3125 5.875 15.5 5.875 14.55C5.875 13.6 6.2125 12.7875 6.8875 12.1125C7.5625 11.4375 8.375 11.1 9.325 11.1C10.275 11.1 11.0875 11.4375 11.7625 12.1125C12.4375 12.7875 12.775 13.6 12.775 14.55C12.775 15.5 12.4375 16.3125 11.7625 16.9875C11.0875 17.6625 10.275 18 9.325 18ZM9.325 16.5C9.875 16.5 10.3375 16.3083 10.7125 15.925C11.0875 15.5417 11.275 15.0833 11.275 14.55C11.275 14 11.0875 13.5375 10.7125 13.1625C10.3375 12.7875 9.875 12.6 9.325 12.6C8.79167 12.6 8.33333 12.7875 7.95 13.1625C7.56667 13.5375 7.375 14 7.375 14.55C7.375 15.0833 7.56667 15.5417 7.95 15.925C8.33333 16.3083 8.79167 16.5 9.325 16.5ZM16.85 19.15C16.1167 19.15 15.4917 18.8917 14.975 18.375C14.4583 17.8583 14.2 17.2333 14.2 16.5C14.2 15.7667 14.4583 15.1417 14.975 14.625C15.4917 14.1083 16.1167 13.85 16.85 13.85C17.5833 13.85 18.2083 14.1083 18.725 14.625C19.2417 15.1417 19.5 15.7667 19.5 16.5C19.5 17.2333 19.2417 17.8583 18.725 18.375C18.2083 18.8917 17.5833 19.15 16.85 19.15ZM10.55 24.9C11.35 23.4167 12.3708 22.4042 13.6125 21.8625C14.8542 21.3208 15.9333 21.05 16.85 21.05C17.2333 21.05 17.5875 21.0792 17.9125 21.1375C18.2375 21.1958 18.575 21.275 18.925 21.375C19.3583 20.7583 19.7292 20.025 20.0375 19.175C20.3458 18.325 20.5 17.4333 20.5 16.5C20.5 14.1333 19.675 12.125 18.025 10.475C16.375 8.825 14.3667 8 12 8C9.63333 8 7.625 8.825 5.975 10.475C4.325 12.125 3.5 14.1333 3.5 16.5C3.5 17.35 3.625 18.1708 3.875 18.9625C4.125 19.7542 4.46667 20.4667 4.9 21.1C5.53333 20.7667 6.24167 20.5 7.025 20.3C7.80833 20.1 8.575 20 9.325 20C9.775 20 10.2125 20.0292 10.6375 20.0875C11.0625 20.1458 11.4583 20.2417 11.825 20.375C11.5083 20.5417 11.2167 20.7208 10.95 20.9125C10.6833 21.1042 10.4417 21.3083 10.225 21.525C10.0583 21.5083 9.9 21.5 9.75 21.5H9.325C8.75833 21.5 8.14583 21.5792 7.4875 21.7375C6.82917 21.8958 6.25833 22.0917 5.775 22.325C6.40833 22.9917 7.1375 23.5542 7.9625 24.0125C8.7875 24.4708 9.65 24.7667 10.55 24.9ZM12 26.5C10.6333 26.5 9.34167 26.2375 8.125 25.7125C6.90833 25.1875 5.84583 24.4708 4.9375 23.5625C4.02917 22.6542 3.3125 21.5917 2.7875 20.375C2.2625 19.1583 2 17.8667 2 16.5C2 15.1167 2.2625 13.8208 2.7875 12.6125C3.3125 11.4042 4.02917 10.3458 4.9375 9.4375C5.84583 8.52917 6.90833 7.8125 8.125 7.2875C9.34167 6.7625 10.6333 6.5 12 6.5C13.3833 6.5 14.6792 6.7625 15.8875 7.2875C17.0958 7.8125 18.1542 8.52917 19.0625 9.4375C19.9708 10.3458 20.6875 11.4042 21.2125 12.6125C21.7375 13.8208 22 15.1167 22 16.5C22 17.8667 21.7375 19.1583 21.2125 20.375C20.6875 21.5917 19.9708 22.6542 19.0625 23.5625C18.1542 24.4708 17.0958 25.1875 15.8875 25.7125C14.6792 26.2375 13.3833 26.5 12 26.5Z" fill="#776694"/>
</g>
</g>
<defs>
<clipPath id="clip0_603_748">
<rect width="24" height="24" fill="white" transform="translate(0 4.5)"/>
</clipPath>
</defs>
</svg>
