<svg width="16" height="16" viewBox="0 0 16 16" fill="none" xmlns="http://www.w3.org/2000/svg">
<path d="M8 11.875C7.9 11.875 7.80833 11.8583 7.725 11.825C7.64167 11.7917 7.55833 11.7333 7.475 11.65L3.7 7.875C3.55 7.725 3.47917 7.54583 3.4875 7.3375C3.49583 7.12917 3.575 6.95 3.725 6.8C3.875 6.65 4.05417 6.575 4.2625 6.575C4.47083 6.575 4.65 6.65 4.8 6.8L7.25 9.275V0.75C7.25 0.533333 7.32083 0.354167 7.4625 0.2125C7.60417 0.0708334 7.78333 0 8 0C8.21667 0 8.39583 0.0708334 8.5375 0.2125C8.67917 0.354167 8.75 0.533333 8.75 0.75V9.275L11.225 6.8C11.375 6.65 11.5542 6.575 11.7625 6.575C11.9708 6.575 12.15 6.65 12.3 6.8C12.45 6.95 12.525 7.12917 12.525 7.3375C12.525 7.54583 12.45 7.725 12.3 7.875L8.525 11.65C8.44167 11.7333 8.35833 11.7917 8.275 11.825C8.19167 11.8583 8.1 11.875 8 11.875ZM1.5 16C1.1 16 0.75 15.85 0.45 15.55C0.15 15.25 0 14.9 0 14.5V11.675C0 11.4583 0.0708334 11.2792 0.2125 11.1375C0.354167 10.9958 0.533333 10.925 0.75 10.925C0.966667 10.925 1.14583 10.9958 1.2875 11.1375C1.42917 11.2792 1.5 11.4583 1.5 11.675V14.5H14.5V11.675C14.5 11.4583 14.5708 11.2792 14.7125 11.1375C14.8542 10.9958 15.0333 10.925 15.25 10.925C15.4667 10.925 15.6458 10.9958 15.7875 11.1375C15.9292 11.2792 16 11.4583 16 11.675V14.5C16 14.9 15.85 15.25 15.55 15.55C15.25 15.85 14.9 16 14.5 16H1.5Z" fill="#7064FF"/>
</svg>
