<svg width="97" height="97" viewBox="0 0 97 97" fill="none" xmlns="http://www.w3.org/2000/svg">
<path d="M37.1368 70.9958C36.0701 69.9291 35.5581 68.6403 35.6008 67.1291C35.647 65.618 36.2034 64.3291 37.2701 63.2625L47.0034 53.5291H6.20345C4.69234 53.5291 3.42656 53.0171 2.40612 51.9931C1.38212 50.9727 0.870117 49.7069 0.870117 48.1958C0.870117 46.6847 1.38212 45.4171 2.40612 44.3931C3.42656 43.3727 4.69234 42.8625 6.20345 42.8625H47.0034L37.1368 32.9958C36.0701 31.9291 35.5368 30.6634 35.5368 29.1985C35.5368 27.73 36.0701 26.4625 37.1368 25.3958C38.2035 24.3291 39.471 23.7958 40.9394 23.7958C42.4043 23.7958 43.6701 24.3291 44.7368 25.3958L63.8035 44.4625C64.3368 44.9958 64.7155 45.5736 64.9395 46.1958C65.1599 46.818 65.2701 47.4847 65.2701 48.1958C65.2701 48.9069 65.1599 49.5736 64.9395 50.1958C64.7155 50.818 64.3368 51.3958 63.8035 51.9291L44.6035 71.1291C43.6257 72.1069 42.4043 72.5958 40.9394 72.5958C39.471 72.5958 38.2035 72.0625 37.1368 70.9958ZM11.5368 96.1958C8.60345 96.1958 6.09145 95.1523 4.00078 93.0651C1.91367 90.9745 0.870117 88.4625 0.870117 85.5291V69.5291C0.870117 68.018 1.38212 66.7505 2.40612 65.7265C3.42656 64.706 4.69234 64.1958 6.20345 64.1958C7.71456 64.1958 8.98212 64.706 10.0061 65.7265C11.0266 66.7505 11.5368 68.018 11.5368 69.5291V85.5291H86.2035V10.8625H11.5368V26.8625C11.5368 28.3736 11.0266 29.6394 10.0061 30.6598C8.98212 31.6838 7.71456 32.1958 6.20345 32.1958C4.69234 32.1958 3.42656 31.6838 2.40612 30.6598C1.38212 29.6394 0.870117 28.3736 0.870117 26.8625V10.8625C0.870117 7.92913 1.91367 5.41713 4.00078 3.32647C6.09145 1.23936 8.60345 0.195801 11.5368 0.195801H86.2035C89.1368 0.195801 91.6488 1.23936 93.7395 3.32647C95.8266 5.41713 96.8701 7.92913 96.8701 10.8625V85.5291C96.8701 88.4625 95.8266 90.9745 93.7395 93.0651C91.6488 95.1523 89.1368 96.1958 86.2035 96.1958H11.5368Z" fill="#D0D1CF"/>
</svg>
