<svg width="22" height="15" viewBox="0 0 22 15" fill="none" xmlns="http://www.w3.org/2000/svg">
<path d="M10.9998 11.75C12.1831 11.75 13.1873 11.3375 14.0123 10.5125C14.8373 9.6875 15.2498 8.68333 15.2498 7.5C15.2498 6.31667 14.8373 5.3125 14.0123 4.4875C13.1873 3.6625 12.1831 3.25 10.9998 3.25C9.81647 3.25 8.8123 3.6625 7.9873 4.4875C7.1623 5.3125 6.7498 6.31667 6.7498 7.5C6.7498 8.68333 7.1623 9.6875 7.9873 10.5125C8.8123 11.3375 9.81647 11.75 10.9998 11.75ZM10.9998 10.3C10.2165 10.3 9.55397 10.0292 9.0123 9.4875C8.47064 8.94583 8.1998 8.28333 8.1998 7.5C8.1998 6.71667 8.47064 6.05417 9.0123 5.5125C9.55397 4.97083 10.2165 4.7 10.9998 4.7C11.7831 4.7 12.4456 4.97083 12.9873 5.5125C13.529 6.05417 13.7998 6.71667 13.7998 7.5C13.7998 8.28333 13.529 8.94583 12.9873 9.4875C12.4456 10.0292 11.7831 10.3 10.9998 10.3ZM10.9998 15C8.6998 15 6.60397 14.375 4.71231 13.125C2.82064 11.875 1.35814 10.225 0.324805 8.175C0.274805 8.09167 0.237305 7.99167 0.212305 7.875C0.187305 7.75833 0.174805 7.63333 0.174805 7.5C0.174805 7.36667 0.187305 7.24167 0.212305 7.125C0.237305 7.00833 0.274805 6.90833 0.324805 6.825C1.35814 4.775 2.82064 3.125 4.71231 1.875C6.60397 0.625 8.6998 0 10.9998 0C13.2998 0 15.3956 0.625 17.2873 1.875C19.179 3.125 20.6415 4.775 21.6748 6.825C21.7248 6.90833 21.7623 7.00833 21.7873 7.125C21.8123 7.24167 21.8248 7.36667 21.8248 7.5C21.8248 7.63333 21.8123 7.75833 21.7873 7.875C21.7623 7.99167 21.7248 8.09167 21.6748 8.175C20.6415 10.225 19.179 11.875 17.2873 13.125C15.3956 14.375 13.2998 15 10.9998 15ZM10.9998 13.5C13.0165 13.5 14.8706 12.9542 16.5623 11.8625C18.254 10.7708 19.5415 9.31667 20.4248 7.5C19.5415 5.68333 18.254 4.22917 16.5623 3.1375C14.8706 2.04583 13.0165 1.5 10.9998 1.5C8.98314 1.5 7.12897 2.04583 5.4373 3.1375C3.74564 4.22917 2.4498 5.68333 1.5498 7.5C2.4498 9.31667 3.74564 10.7708 5.4373 11.8625C7.12897 12.9542 8.98314 13.5 10.9998 13.5Z" fill="#7064FF"/>
</svg>
