<svg width="20" height="20" viewBox="0 0 20 20" fill="none" xmlns="http://www.w3.org/2000/svg">
<path d="M6.85 12.425C6.46667 12.425 6.14583 12.2958 5.8875 12.0375C5.62917 11.7791 5.5 11.4583 5.5 11.075C5.5 10.6916 5.62917 10.3708 5.8875 10.1125C6.14583 9.85414 6.46667 9.72497 6.85 9.72497C7.23333 9.72497 7.55417 9.85414 7.8125 10.1125C8.07083 10.3708 8.2 10.6916 8.2 11.075C8.2 11.4583 8.07083 11.7791 7.8125 12.0375C7.55417 12.2958 7.23333 12.425 6.85 12.425ZM13.175 12.425C12.7917 12.425 12.4708 12.2958 12.2125 12.0375C11.9542 11.7791 11.825 11.4583 11.825 11.075C11.825 10.6916 11.9542 10.3708 12.2125 10.1125C12.4708 9.85414 12.7917 9.72497 13.175 9.72497C13.5583 9.72497 13.8792 9.85414 14.1375 10.1125C14.3958 10.3708 14.525 10.6916 14.525 11.075C14.525 11.4583 14.3958 11.7791 14.1375 12.0375C13.8792 12.2958 13.5583 12.425 13.175 12.425ZM10 18.5C12.3667 18.5 14.375 17.675 16.025 16.025C17.675 14.375 18.5 12.3666 18.5 9.99997C18.5 9.56664 18.4667 9.14164 18.4 8.72497C18.3333 8.3083 18.25 7.92497 18.15 7.57497C17.8167 7.6583 17.4542 7.71664 17.0625 7.74997C16.6708 7.7833 16.2667 7.79997 15.85 7.79997C14.2333 7.79997 12.7042 7.46664 11.2625 6.79997C9.82083 6.1333 8.59167 5.1833 7.575 3.94997C7.00833 5.29997 6.19583 6.47914 5.1375 7.48747C4.07917 8.4958 2.86667 9.27497 1.5 9.82497V9.99997C1.5 12.3666 2.325 14.375 3.975 16.025C5.625 17.675 7.63333 18.5 10 18.5ZM10 20C8.61667 20 7.31667 19.7375 6.1 19.2125C4.88333 18.6875 3.825 17.975 2.925 17.075C2.025 16.175 1.3125 15.1166 0.7875 13.9C0.2625 12.6833 0 11.3833 0 9.99997C0 8.61664 0.2625 7.31664 0.7875 6.09997C1.3125 4.8833 2.025 3.82497 2.925 2.92497C3.825 2.02497 4.88333 1.31247 6.1 0.787469C7.31667 0.262469 8.61667 -3.05176e-05 10 -3.05176e-05C11.3833 -3.05176e-05 12.6833 0.262469 13.9 0.787469C15.1167 1.31247 16.175 2.02497 17.075 2.92497C17.975 3.82497 18.6875 4.8833 19.2125 6.09997C19.7375 7.31664 20 8.61664 20 9.99997C20 11.3833 19.7375 12.6833 19.2125 13.9C18.6875 15.1166 17.975 16.175 17.075 17.075C16.175 17.975 15.1167 18.6875 13.9 19.2125C12.6833 19.7375 11.3833 20 10 20Z" fill="#4D3483"/>
</svg>
