<svg width="321" height="320" viewBox="0 0 321 320" fill="none" xmlns="http://www.w3.org/2000/svg">
<path d="M317.5 160V160.003C317.604 247.058 247.063 317.5 160 317.5C72.9412 317.5 2.5 246.955 2.5 160C2.5 72.9412 73.0452 2.5 160 2.5C247.059 2.5 317.5 73.0452 317.5 160Z" stroke="#DBD8FF" stroke-width="5"/>
<path fill-rule="evenodd" clip-rule="evenodd" d="M190.472 236.606C190.246 235.962 190.142 235.287 190.142 234.643C190.142 233.504 190.156 230.83 190.175 227.249C190.212 219.99 190.269 209.005 190.269 199.524C190.545 195.952 190.071 192.36 188.879 188.995C187.686 185.63 185.804 182.572 183.361 180.031C206.076 177.388 229.997 174.153 229.997 133.618C230.061 128.959 229.161 124.34 227.356 120.072C225.551 115.803 222.884 111.983 219.533 108.869C222.612 99.5566 222.235 89.3927 218.474 80.3521C209.992 77.629 190.453 91.6965 190.453 91.6965C173.762 86.9366 156.137 86.9366 139.445 91.6965C139.445 91.6965 119.917 77.6189 111.425 80.3521C107.665 89.393 107.287 99.5565 110.366 108.869C107.134 112.031 104.603 115.88 102.947 120.15C101.292 124.421 100.551 129.012 100.776 133.608C100.776 173.992 123.677 177.418 146.382 180.021C142.703 183.824 140.407 188.826 139.883 194.179C137.391 195.655 134.639 196.6 131.788 196.957C128.937 197.314 126.046 197.076 123.286 196.257C120.526 195.439 117.952 194.056 115.718 192.19C113.484 190.324 111.634 188.014 110.278 185.397C108.636 182.474 106.369 179.979 103.651 178.102C100.933 176.225 97.8363 175.015 94.5971 174.565C84.6481 174.444 93.9461 181.036 93.9461 181.036C100.601 184.191 105.236 196.409 105.236 196.409C111.211 215.23 139.64 208.93 139.64 208.93C139.64 214.597 139.672 222.504 139.695 228.159C139.707 231.307 139.717 233.756 139.717 234.733C139.717 235.407 139.606 236.119 139.361 236.794C147.415 238.887 155.858 240 164.56 240C173.518 240 182.204 238.82 190.472 236.606ZM129.127 201.916C130.264 201.916 131.235 201.253 131.235 200.409C131.235 199.444 130.099 198.901 128.962 198.901C127.825 198.901 126.854 199.444 126.854 200.409C126.854 201.373 127.786 202.046 129.127 201.916ZM120.354 200.529C119.13 200.328 118.323 199.364 118.605 198.52C118.84 198.07 119.222 197.721 119.683 197.535C120.144 197.349 120.654 197.338 121.121 197.505C122.345 197.876 123.113 198.841 122.87 199.685C122.631 200.128 122.239 200.462 121.772 200.618C121.305 200.775 120.799 200.743 120.354 200.529ZM134.694 199.816C134.617 198.901 135.384 198.098 136.56 197.806C137.706 197.675 138.882 198.148 138.96 198.982C139.037 199.816 138.318 200.62 137.094 200.911C135.87 201.202 134.772 200.73 134.694 199.816ZM103.613 183.899C102.924 183.106 102.807 182.141 103.332 181.719C103.856 181.166 104.75 181.347 105.44 182.141C106.13 182.935 106.246 183.739 105.722 184.321C105.197 184.904 104.303 184.693 103.613 183.899ZM99.9214 179.95C99.0761 179.528 98.668 178.855 98.9498 178.312C99.2315 177.901 99.8825 177.77 100.699 178.021C101.544 178.443 101.952 179.116 101.67 179.659C101.578 179.802 101.459 179.925 101.319 180.018C101.179 180.111 101.022 180.174 100.858 180.201C100.693 180.228 100.525 180.22 100.364 180.177C100.203 180.134 100.052 180.057 99.9214 179.95ZM112.63 195.867C111.697 195.073 111.454 193.807 112.105 193.264C112.63 192.591 113.854 192.722 114.748 193.686C115.554 194.48 115.807 195.616 115.272 196.289C114.738 196.962 113.601 196.872 112.63 195.867ZM107.471 189.577C106.82 188.602 106.82 187.517 107.471 187.095C108.122 186.542 109.181 186.944 109.744 187.979C110.06 188.333 110.236 188.798 110.236 189.28C110.236 189.762 110.06 190.227 109.744 190.581C109.219 190.963 108.122 190.551 107.471 189.577Z" fill="#7064FF"/>
</svg>
