<svg width="22" height="18" viewBox="0 0 22 18" fill="none" xmlns="http://www.w3.org/2000/svg">
<path d="M20.8371 13.9375C20.6204 13.9375 20.4413 13.8667 20.2996 13.725C20.1579 13.5834 20.0871 13.4042 20.0871 13.1875V6.88752L11.2871 11.6375C11.1704 11.7042 11.0538 11.75 10.9371 11.775C10.8204 11.8 10.6954 11.8125 10.5621 11.8125C10.4288 11.8125 10.3079 11.8 10.1996 11.775C10.0913 11.75 9.97878 11.7042 9.86211 11.6375L0.787109 6.66252C0.653776 6.59586 0.557943 6.50419 0.499609 6.38752C0.441276 6.27086 0.412109 6.14586 0.412109 6.01252C0.412109 5.87919 0.441276 5.75419 0.499609 5.63752C0.557943 5.52086 0.653776 5.42919 0.787109 5.36252L9.83711 0.412524C9.95378 0.345858 10.0704 0.295858 10.1871 0.262524C10.3038 0.229191 10.4288 0.212524 10.5621 0.212524C10.6954 0.212524 10.8204 0.229191 10.9371 0.262524C11.0538 0.295858 11.1704 0.345858 11.2871 0.412524L21.1871 5.78752C21.3204 5.87086 21.4204 5.97086 21.4871 6.08752C21.5538 6.20419 21.5871 6.32919 21.5871 6.46252V13.1875C21.5871 13.4042 21.5163 13.5834 21.3746 13.725C21.2329 13.8667 21.0538 13.9375 20.8371 13.9375ZM10.5621 17.7875C10.4288 17.7875 10.3038 17.775 10.1871 17.75C10.0704 17.725 9.95378 17.6792 9.83711 17.6125L4.08711 14.4625C3.85378 14.3292 3.66628 14.1459 3.52461 13.9125C3.38294 13.6792 3.31211 13.4209 3.31211 13.1375V8.78752L9.53711 12.1875L10.0371 12.4375C10.2038 12.5209 10.3788 12.5625 10.5621 12.5625C10.7454 12.5625 10.9246 12.5209 11.0996 12.4375C11.2746 12.3542 11.4454 12.2709 11.6121 12.1875L17.8121 8.78752V13.1375C17.8121 13.4209 17.7413 13.6792 17.5996 13.9125C17.4579 14.1459 17.2704 14.3292 17.0371 14.4625L11.2871 17.6125C11.1704 17.6792 11.0538 17.725 10.9371 17.75C10.8204 17.775 10.6954 17.7875 10.5621 17.7875Z" fill="#4D3483"/>
</svg>
