<svg width="22" height="18" viewBox="0 0 22 18" fill="#776694" xmlns="http://www.w3.org/2000/svg">
<path d="M10.5625 17.7875C10.4291 17.7875 10.3041 17.775 10.1875 17.75C10.0708 17.725 9.95414 17.6792 9.83748 17.6125L4.08748 14.4625C3.85414 14.3292 3.66664 14.1458 3.52498 13.9125C3.38331 13.6792 3.31248 13.4208 3.31248 13.1375V8.03749L0.787476 6.66249C0.654142 6.59583 0.558309 6.50416 0.499976 6.38749C0.441642 6.27083 0.412476 6.14583 0.412476 6.01249C0.412476 5.87916 0.441642 5.75416 0.499976 5.63749C0.558309 5.52083 0.654142 5.42916 0.787476 5.36249L9.83748 0.412494C9.95414 0.345827 10.0708 0.295827 10.1875 0.262494C10.3041 0.229161 10.4291 0.212494 10.5625 0.212494C10.6958 0.212494 10.8208 0.229161 10.9375 0.262494C11.0541 0.295827 11.1708 0.345827 11.2875 0.412494L21.1875 5.78749C21.3208 5.87083 21.4208 5.97083 21.4875 6.08749C21.5541 6.20416 21.5875 6.32916 21.5875 6.46249V13.1875C21.5875 13.4042 21.5166 13.5833 21.375 13.725C21.2333 13.8667 21.0541 13.9375 20.8375 13.9375C20.6208 13.9375 20.4416 13.8667 20.3 13.725C20.1583 13.5833 20.0875 13.4042 20.0875 13.1875V6.88749L17.8125 8.03749V13.1375C17.8125 13.4208 17.7416 13.6792 17.6 13.9125C17.4583 14.1458 17.2708 14.3292 17.0375 14.4625L11.2875 17.6125C11.1708 17.6792 11.0541 17.725 10.9375 17.75C10.8208 17.775 10.6958 17.7875 10.5625 17.7875ZM10.5625 10.3125L18.4375 6.01249L10.5625 1.78749L2.73748 6.01249L10.5625 10.3125ZM10.5625 16.3125L16.3125 13.1375V8.93749L11.2875 11.6375C11.1708 11.7042 11.0541 11.75 10.9375 11.775C10.8208 11.8 10.6958 11.8125 10.5625 11.8125C10.4291 11.8125 10.3083 11.8 10.2 11.775C10.0916 11.75 9.97914 11.7042 9.86248 11.6375L4.81248 8.88749V13.1375L10.5625 16.3125Z" fill="current"/>
</svg>
