<svg width="22" height="19" viewBox="0 0 22 19" fill="#776694" xmlns="http://www.w3.org/2000/svg">
<path d="M10.5626 18.2874C10.4293 18.2874 10.3043 18.2749 10.1876 18.2499C10.0709 18.2249 9.95426 18.1791 9.8376 18.1124L4.0876 14.9624C3.85426 14.8291 3.66676 14.6457 3.5251 14.4124C3.38343 14.1791 3.3126 13.9207 3.3126 13.6374V8.5374L0.787598 7.1624C0.654264 7.09574 0.558431 7.00407 0.500098 6.8874C0.441764 6.77074 0.412598 6.64574 0.412598 6.5124C0.412598 6.37907 0.441764 6.25407 0.500098 6.1374C0.558431 6.02074 0.654264 5.92907 0.787598 5.8624L9.8376 0.912402C9.95426 0.845736 10.0709 0.795736 10.1876 0.762402C10.3043 0.729069 10.4293 0.712402 10.5626 0.712402C10.6959 0.712402 10.8209 0.729069 10.9376 0.762402C11.0543 0.795736 11.1709 0.845736 11.2876 0.912402L21.1876 6.2874C21.3209 6.37074 21.4209 6.47074 21.4876 6.5874C21.5543 6.70407 21.5876 6.82907 21.5876 6.9624V13.6874C21.5876 13.9041 21.5168 14.0832 21.3751 14.2249C21.2334 14.3666 21.0543 14.4374 20.8376 14.4374C20.6209 14.4374 20.4418 14.3666 20.3001 14.2249C20.1584 14.0832 20.0876 13.9041 20.0876 13.6874V7.3874L17.8126 8.5374V13.6374C17.8126 13.9207 17.7418 14.1791 17.6001 14.4124C17.4584 14.6457 17.2709 14.8291 17.0376 14.9624L11.2876 18.1124C11.1709 18.1791 11.0543 18.2249 10.9376 18.2499C10.8209 18.2749 10.6959 18.2874 10.5626 18.2874ZM10.5626 10.8124L18.4376 6.5124L10.5626 2.2874L2.7376 6.5124L10.5626 10.8124ZM10.5626 16.8124L16.3126 13.6374V9.4374L11.2876 12.1374C11.1709 12.2041 11.0543 12.2499 10.9376 12.2749C10.8209 12.2999 10.6959 12.3124 10.5626 12.3124C10.4293 12.3124 10.3084 12.2999 10.2001 12.2749C10.0918 12.2499 9.97926 12.2041 9.8626 12.1374L4.8126 9.3874V13.6374L10.5626 16.8124Z" fill="current"/>
</svg>
