<svg width="22" height="22" viewBox="0 0 22 22" fill="#776694" xmlns="http://www.w3.org/2000/svg">
<path d="M5.70001 18.3L2.95001 17.7C2.70001 17.65 2.50001 17.5207 2.35001 17.312C2.20001 17.104 2.14168 16.875 2.17501 16.625L2.45001 13.8L0.575012 11.65C0.408346 11.4667 0.325012 11.25 0.325012 11C0.325012 10.75 0.408346 10.5333 0.575012 10.35L2.45001 8.19999L2.17501 5.37499C2.14168 5.12499 2.20001 4.89599 2.35001 4.68799C2.50001 4.47933 2.70001 4.34999 2.95001 4.29999L5.70001 3.69999L7.15001 1.24999C7.28335 1.03333 7.46668 0.891659 7.70001 0.824993C7.93335 0.758326 8.16668 0.766659 8.40001 0.849993L11 1.94999L13.6 0.849993C13.8333 0.766659 14.0667 0.758326 14.3 0.824993C14.5333 0.891659 14.7167 1.03333 14.85 1.24999L16.3 3.69999L19.05 4.29999C19.3 4.34999 19.5 4.47933 19.65 4.68799C19.8 4.89599 19.8583 5.12499 19.825 5.37499L19.55 8.19999L21.425 10.35C21.5917 10.5333 21.675 10.75 21.675 11C21.675 11.25 21.5917 11.4667 21.425 11.65L19.55 13.8L19.825 16.625C19.8583 16.875 19.8 17.104 19.65 17.312C19.5 17.5207 19.3 17.65 19.05 17.7L16.3 18.3L14.85 20.75C14.7167 20.9667 14.5333 21.1083 14.3 21.175C14.0667 21.2417 13.8333 21.2333 13.6 21.15L11 20.05L8.40001 21.15C8.16668 21.2333 7.93335 21.2417 7.70001 21.175C7.46668 21.1083 7.28335 20.9667 7.15001 20.75L5.70001 18.3ZM9.25001 13.85C9.43335 14.0333 9.66668 14.125 9.95001 14.125C10.2333 14.125 10.4667 14.0333 10.65 13.85L14.9 9.59999C15.1 9.39999 15.2 9.16233 15.2 8.88699C15.2 8.61233 15.1 8.37499 14.9 8.17499C14.7 7.97499 14.4627 7.87499 14.188 7.87499C13.9127 7.87499 13.675 7.97499 13.475 8.17499L9.95001 11.7L8.50001 10.275C8.30001 10.0917 8.06268 10.004 7.78801 10.012C7.51268 10.0207 7.28335 10.1167 7.10001 10.3C6.91668 10.4833 6.82501 10.7167 6.82501 11C6.82501 11.2833 6.91668 11.5167 7.10001 11.7L9.25001 13.85ZM8.45001 18.95L11 17.85L13.6 18.95L15 16.55L17.75 15.9L17.5 13.1L19.35 11L17.5 8.84999L17.75 6.04999L15 5.44999L13.55 3.04999L11 4.14999L8.40001 3.04999L7.00001 5.44999L4.25001 6.04999L4.50001 8.84999L2.65001 11L4.50001 13.1L4.25001 15.95L7.00001 16.55L8.45001 18.95Z" fill="current"/>
</svg>
