<svg width="24" height="33" viewBox="0 0 24 33" fill="none" xmlns="http://www.w3.org/2000/svg">
<mask id="mask0_603_768" style="mask-type:alpha" maskUnits="userSpaceOnUse" x="0" y="4" width="24" height="25">
<rect y="4.5" width="24" height="24" fill="#D9D9D9"/>
</mask>
<g mask="url(#mask0_603_768)">
<path d="M4 22.5C3.71667 22.5 3.47933 22.404 3.288 22.212C3.096 22.0207 3 21.7833 3 21.5C3 21.2167 3.096 20.9793 3.288 20.788C3.47933 20.596 3.71667 20.5 4 20.5H20C20.2833 20.5 20.5207 20.596 20.712 20.788C20.904 20.9793 21 21.2167 21 21.5C21 21.7833 20.904 22.0207 20.712 22.212C20.5207 22.404 20.2833 22.5 20 22.5H4ZM4 17.5C3.71667 17.5 3.47933 17.404 3.288 17.212C3.096 17.0207 3 16.7833 3 16.5C3 16.2167 3.096 15.979 3.288 15.787C3.47933 15.5957 3.71667 15.5 4 15.5H20C20.2833 15.5 20.5207 15.5957 20.712 15.787C20.904 15.979 21 16.2167 21 16.5C21 16.7833 20.904 17.0207 20.712 17.212C20.5207 17.404 20.2833 17.5 20 17.5H4ZM4 12.5C3.71667 12.5 3.47933 12.4043 3.288 12.213C3.096 12.021 3 11.7833 3 11.5C3 11.2167 3.096 10.979 3.288 10.787C3.47933 10.5957 3.71667 10.5 4 10.5H20C20.2833 10.5 20.5207 10.5957 20.712 10.787C20.904 10.979 21 11.2167 21 11.5C21 11.7833 20.904 12.021 20.712 12.213C20.5207 12.4043 20.2833 12.5 20 12.5H4Z" fill="#7064FF"/>
</g>
</svg>
