<svg width="30" height="27" viewBox="0 0 30 27" fill="none" xmlns="http://www.w3.org/2000/svg">
<path d="M19.9667 15.0332L18.5 13.5665C19.0778 11.9887 18.7778 10.6776 17.6 9.63319C16.4222 8.58874 15.1444 8.32208 13.7667 8.83319L12.3 7.36652C12.6778 7.12208 13.1 6.9443 13.5667 6.83319C14.0333 6.72208 14.5111 6.66652 15 6.66652C16.5778 6.66652 17.9167 7.21652 19.0167 8.31652C20.1166 9.41652 20.6667 10.7554 20.6667 12.3332C20.6667 12.8221 20.6055 13.3054 20.4833 13.7832C20.3611 14.261 20.1889 14.6776 19.9667 15.0332ZM24.2667 19.3332L22.9333 17.9999C24.0222 17.1999 24.9722 16.3054 25.7833 15.3165C26.5944 14.3276 27.1889 13.3332 27.5667 12.3332C26.4555 9.86652 24.7889 7.91652 22.5667 6.48319C20.3444 5.04985 17.9333 4.33319 15.3333 4.33319C14.4 4.33319 13.4444 4.42208 12.4667 4.59985C11.4889 4.77763 10.7222 4.98874 10.1667 5.23319L8.63332 3.66652C9.4111 3.31096 10.4055 2.99985 11.6166 2.73319C12.8278 2.46652 14.0111 2.33319 15.1667 2.33319C18.1667 2.33319 20.9333 3.15541 23.4667 4.79985C26 6.4443 27.9333 8.65541 29.2667 11.4332C29.3333 11.5443 29.3778 11.6776 29.4 11.8332C29.4222 11.9887 29.4333 12.1554 29.4333 12.3332C29.4333 12.511 29.4222 12.6832 29.4 12.8499C29.3778 13.0165 29.3333 13.1554 29.2667 13.2665C28.6889 14.4887 27.9778 15.611 27.1333 16.6332C26.2889 17.6554 25.3333 18.5554 24.2667 19.3332ZM25.4667 26.1332L20.6 21.3665C19.8222 21.6776 18.9444 21.9165 17.9667 22.0832C16.9889 22.2499 16 22.3332 15 22.3332C11.9333 22.3332 9.12221 21.511 6.56665 19.8665C4.0111 18.2221 2.06665 16.011 0.733317 13.2332C0.66665 13.0999 0.622206 12.961 0.599984 12.8165C0.577762 12.6721 0.56665 12.511 0.56665 12.3332C0.56665 12.1554 0.583317 11.9832 0.61665 11.8165C0.649984 11.6499 0.688873 11.511 0.733317 11.3999C1.19998 10.3999 1.79443 9.42763 2.51665 8.48319C3.23887 7.53874 4.08887 6.6443 5.06665 5.79985L1.56665 2.29985C1.36665 2.09985 1.26665 1.86652 1.26665 1.59985C1.26665 1.33319 1.36665 1.09985 1.56665 0.899853C1.76665 0.699853 2.00554 0.599854 2.28332 0.599854C2.5611 0.599854 2.79998 0.699853 2.99998 0.899853L26.8667 24.7665C27.0444 24.9443 27.1333 25.161 27.1333 25.4165C27.1333 25.6721 27.0444 25.8999 26.8667 26.0999C26.6889 26.3221 26.4611 26.4332 26.1833 26.4332C25.9055 26.4332 25.6667 26.3332 25.4667 26.1332ZM6.43332 7.19985C5.61109 7.79985 4.81665 8.58874 4.04998 9.56652C3.28332 10.5443 2.73332 11.4665 2.39998 12.3332C3.53332 14.7999 5.23887 16.7499 7.51665 18.1832C9.79443 19.6165 12.3778 20.3332 15.2667 20.3332C16 20.3332 16.7222 20.2887 17.4333 20.1999C18.1444 20.111 18.6778 19.9776 19.0333 19.7999L16.9 17.6665C16.6555 17.7776 16.3555 17.861 16 17.9165C15.6444 17.9721 15.3111 17.9999 15 17.9999C13.4444 17.9999 12.1111 17.4554 11 16.3665C9.88887 15.2776 9.33332 13.9332 9.33332 12.3332C9.33332 11.9999 9.36109 11.6665 9.41665 11.3332C9.47221 10.9999 9.55554 10.6999 9.66665 10.4332L6.43332 7.19985Z" fill="#A954FF"/>
</svg>
