<svg width="321" height="320" viewBox="0 0 321 320" fill="none" xmlns="http://www.w3.org/2000/svg">
<rect width="320" height="320" transform="translate(0.5)" fill="white"/>
<path d="M134.249 162.113C132.767 163.155 131.6 164.583 130.872 166.241C130.144 167.9 129.884 169.726 130.121 171.521V171.905C117.945 169.377 107.721 167.105 100.537 164.929C93.3526 162.753 89.1926 160.817 88.5206 158.785C83.3526 143.121 94.7446 111.441 100.713 105.553C104.185 102.145 112.201 99.4892 120.841 97.8092C121.23 96.7011 121.916 95.7213 122.825 94.9773C122.948 94.9125 123.076 94.859 123.209 94.8172C128.457 93.7527 133.865 93.7527 139.113 94.8172C139.422 94.8983 139.722 95.0109 140.009 95.1533C140.575 95.3833 141.073 95.7537 141.457 96.2296C141.84 96.7054 142.096 97.2711 142.201 97.8732C142.201 97.8732 158.171 99.6758 161.346 103.454L175.898 116.105L184.67 94.8677L191.307 97.8108C189.016 112.088 187.267 125.858 185.42 131.167C182.881 133.911 159.731 126.031 156.809 124.588L159.731 148.433H156.809C155.614 148.485 154.475 148.958 153.597 149.77C152.718 150.581 152.155 151.678 152.009 152.865L148.809 172.897C148.505 170.129 148.297 166.785 145.353 165.905C142.409 165.025 138.553 163.665 134.249 162.113Z" fill="#332E6F"/>
<path d="M131.817 171.793C106.825 166.641 89.865 162.513 88.473 158.321C83.305 142.657 94.697 110.961 100.665 105.089C104.137 101.665 112.153 99.0252 120.793 97.3292C121.182 96.221 121.868 95.2413 122.777 94.4972C124.009 93.7612 133.705 92.8972 139.065 94.2892C139.82 94.4451 140.514 94.8168 141.062 95.3592C141.61 95.9017 142.046 97.0933 142.21 97.847C156.319 97.272 164.025 106.801 175.895 116.152M175.895 116.152C176.079 116.298 176.265 116.443 176.452 116.588L175.895 116.152ZM175.895 116.152L184.844 94.4637L191.538 97.2915L185.693 130.815C185.636 131.14 185.387 131.399 185.061 131.45C177.861 132.566 166.946 128.102 156.628 124.707L156.257 122.846C157.877 132.358 159.133 140.247 160.204 147.94" stroke="black" stroke-width="1.5" stroke-linecap="round" stroke-linejoin="round"/>
<path d="M184.604 94.0771C181.884 90.1251 184.172 83.4691 184.94 80.8291C185.388 79.2291 187.708 79.3571 187.468 81.6291C187.276 83.5811 187.004 85.6451 187.804 86.4291" stroke="black" stroke-width="1.5" stroke-miterlimit="10" stroke-linecap="round"/>
<path d="M187.916 86.6851C187.909 86.6427 187.909 86.5995 187.916 86.5571V86.5571C189.468 82.1571 194.508 74.1571 197.116 75.7571C197.349 75.8804 197.527 76.0878 197.613 76.3374C197.7 76.587 197.688 76.86 197.58 77.1011C197.281 77.7576 196.851 78.3458 196.316 78.8291C194.63 80.313 193.315 82.1704 192.476 84.2531" stroke="black" stroke-width="1.5" stroke-miterlimit="10" stroke-linecap="round"/>
<path d="M197.66 77.149C197.945 76.7755 198.313 76.4738 198.735 76.2682C199.158 76.0626 199.622 75.9588 200.092 75.965C200.408 75.9475 200.719 76.0446 200.969 76.2387C201.219 76.4328 201.391 76.7106 201.452 77.021C201.708 77.821 201.148 78.461 200.588 78.989C198.535 81.0641 196.756 83.3922 195.292 85.917" stroke="black" stroke-width="1.5" stroke-miterlimit="10" stroke-linecap="round"/>
<path d="M191.788 97.3891C194.028 97.1331 195.772 91.9331 196.364 90.2211C197.365 87.7255 198.819 85.4364 200.652 83.4691C201.324 82.6851 202.7 81.3891 202.62 80.2691C202.567 80.0559 202.471 79.8558 202.337 79.6814C202.204 79.507 202.035 79.362 201.843 79.2554C201.651 79.1488 201.439 79.083 201.22 79.0619C201.002 79.0409 200.781 79.0651 200.572 79.1331" stroke="black" stroke-width="1.5" stroke-miterlimit="10" stroke-linecap="round"/>
<path d="M191.052 89.6131C191.692 87.5011 189.116 86.6211 187.852 86.6691" stroke="black" stroke-width="1.5" stroke-miterlimit="10" stroke-linecap="round"/>
<path d="M132.967 65.7641C132.791 65.7765 132.628 65.8571 132.511 65.9887C132.394 66.1203 132.334 66.2925 132.343 66.4681C132.359 66.6449 132.443 66.8086 132.577 66.9249C132.711 67.0412 132.885 67.1011 133.063 67.0921C133.238 67.0758 133.4 66.9912 133.514 66.8565C133.628 66.7219 133.684 66.5479 133.671 66.3721C133.667 66.2851 133.645 66.1998 133.607 66.1215C133.569 66.0432 133.516 65.9734 133.45 65.9165C133.384 65.8596 133.307 65.8167 133.224 65.7905C133.141 65.7643 133.053 65.7553 132.967 65.7641Z" fill="black"/>
<path d="M141.751 65.5241C141.592 65.5577 141.451 65.6478 141.353 65.7775C141.255 65.9073 141.208 66.068 141.22 66.2299C141.232 66.3919 141.301 66.5441 141.417 66.6585C141.532 66.7728 141.685 66.8416 141.847 66.8521C141.943 66.8583 142.039 66.8439 142.128 66.8098C142.218 66.7758 142.299 66.723 142.367 66.6548C142.435 66.5867 142.487 66.5049 142.52 66.4149C142.554 66.3249 142.567 66.2287 142.56 66.133C142.553 66.0373 142.526 65.9441 142.48 65.8599C142.434 65.7756 142.371 65.7021 142.294 65.6444C142.217 65.5867 142.129 65.5461 142.035 65.5254C141.942 65.5046 141.845 65.5042 141.751 65.5241Z" fill="black"/>
<path d="M124.247 60.4201C124.439 59.0761 124.647 57.5081 124.951 55.9081C125.324 53.292 126.348 50.8112 127.927 48.6921C131.591 44.5961 135.527 46.1321 138.871 49.5721C139.83 50.5662 140.708 51.6364 141.495 52.7721C143.887 56.1976 145.728 59.9767 146.951 63.9721C148.359 69.5081 140.551 81.9881 138.295 82.8841C138.024 82.983 137.746 83.058 137.463 83.1081C134.167 83.7321 129.975 80.7881 128.567 77.8921" stroke="black" stroke-width="1.5" stroke-miterlimit="10" stroke-linecap="round"/>
<path d="M123.111 94.9801C123.111 85.5081 122.599 76.9001 123.383 67.4601" stroke="black" stroke-width="1.5" stroke-miterlimit="10"/>
<path d="M137.383 82.6921C137.39 82.82 137.39 82.9482 137.383 83.0761C138.215 86.8041 138.439 91.4121 139.975 94.7241" stroke="black" stroke-width="1.5" stroke-miterlimit="10"/>
<path d="M125.559 62.1001C125.163 61.5153 124.702 60.9784 124.183 60.5001C120.439 57.3001 117.959 64.4201 119.495 66.4361C119.98 66.9458 120.605 67.3 121.291 67.4538C121.978 67.6076 122.695 67.5541 123.351 67.3001C123.652 67.2178 123.942 67.0997 124.215 66.9481" stroke="black" stroke-width="1.5" stroke-miterlimit="10" stroke-linecap="round"/>
<path d="M141.463 52.7401C142.359 52.6441 154.791 50.1321 153.015 46.6441C151.991 44.6601 145.399 46.7721 138.839 49.4921C132.599 52.0841 126.359 55.2201 124.919 55.8921L124.695 55.9881" stroke="black" stroke-width="1.5" stroke-miterlimit="10"/>
<path d="M134.23 62.8041C133.577 62.6029 132.885 62.5604 132.211 62.68C131.538 62.7996 130.903 63.078 130.358 63.4921" stroke="black" stroke-width="1.5" stroke-miterlimit="10" stroke-linecap="round"/>
<path d="M123.527 63.3961C122.839 64.0128 121.954 64.3644 121.031 64.3881" stroke="black" stroke-width="1.5" stroke-miterlimit="10" stroke-linecap="round"/>
<path d="M142.919 63.0921C141.863 62.6121 139.479 62.7401 139.047 63.7801C138.359 65.4601 139.383 68.9481 139.815 70.9481C140.119 72.3081 140.599 74.9481 138.215 74.2441" stroke="black" stroke-width="1.5" stroke-miterlimit="10" stroke-linecap="round"/>
<path d="M134.935 77.6041C135.219 77.9111 135.569 78.1504 135.958 78.3044C136.347 78.4584 136.766 78.5232 137.184 78.494C137.601 78.4649 138.007 78.3425 138.371 78.1359C138.735 77.9292 139.048 77.6436 139.287 77.3001" stroke="black" stroke-width="1.5" stroke-miterlimit="10" stroke-linecap="round"/>
<path d="M211.241 258.552H211.529V258.68C212.809 258.968 220.969 263.368 227.929 264.184C231.273 264.584 234.425 266.424 233.689 270.584H196.761V258.472L211.241 258.552Z" fill="#332E6F"/>
<path d="M155.161 230.2C155.913 232.2 157.929 240.44 161.561 245.864C163.449 248.632 164.121 252.264 160.473 254.456L136.297 226.552L145.129 218.872C148.314 222.807 151.734 226.548 155.369 230.072L155.161 230.2Z" fill="black"/>
<path d="M156.329 207.144H101.817V274.136H182.297V212.392" stroke="black" stroke-width="1.5" stroke-linejoin="round"/>
<path d="M207.833 195.272C209.657 203.624 209.977 219.368 211.561 259.08" stroke="black" stroke-width="1.5" stroke-miterlimit="10"/>
<path d="M150.585 187.784L132.761 180.712C132.434 180.547 132.17 180.282 132.007 179.955C131.843 179.628 131.79 179.257 131.855 178.897C131.92 178.537 132.099 178.208 132.366 177.959C132.633 177.709 132.973 177.552 133.337 177.512L139.161 177.192" stroke="black" stroke-width="1.5" stroke-miterlimit="10"/>
<path d="M100.009 179.88L131.609 179.944" stroke="black" stroke-width="1.5" stroke-miterlimit="10"/>
<path d="M131.721 171.88C134.345 172.52 137.577 172.264 139.001 175.736C139.481 176.872 140.233 181.304 142.409 179.528C143.321 178.776 142.985 176.552 142.809 175.496C142.506 173.668 141.883 171.908 140.969 170.296" stroke="black" stroke-width="1.5" stroke-miterlimit="10" stroke-linecap="round"/>
<path d="M145.881 178.456C145.881 178.728 147.625 179.352 147.945 178.28" stroke="black" stroke-width="1.5" stroke-miterlimit="10" stroke-linecap="round"/>
<path d="M113.897 185.08C114.153 193.848 106.361 198.168 98.4086 198.568" stroke="black" stroke-width="1.5" stroke-miterlimit="10" stroke-linecap="round"/>
<path d="M211.241 258.552H196.841C193.925 242.273 190.067 226.177 185.289 210.344" stroke="black" stroke-width="1.5" stroke-miterlimit="10"/>
<path d="M211.561 258.664C212.841 258.952 221.001 263.352 227.961 264.168C231.321 264.568 234.489 266.44 233.721 270.712L196.777 270.888" stroke="black" stroke-width="1.5" stroke-linecap="round" stroke-linejoin="round"/>
<path d="M196.745 273.896H233.785V270.856H196.745V273.896Z" stroke="black" stroke-width="1.5" stroke-linecap="round" stroke-linejoin="round"/>
<path d="M196.761 258.52V270.6" stroke="black" stroke-width="1.5" stroke-miterlimit="10"/>
<path d="M155.641 230.472C156.313 232.536 158.073 240.648 161.657 245.88C163.385 248.424 164.105 251.656 161.369 253.88C161.149 254.06 160.869 254.149 160.586 254.128C160.303 254.108 160.039 253.979 159.849 253.768L136.825 227.544C136.639 227.329 136.544 227.049 136.562 226.764C136.58 226.48 136.709 226.214 136.921 226.024L144.809 219.272" fill="#332E6F"/>
<path d="M155.641 230.472C156.313 232.536 158.073 240.648 161.657 245.88C163.385 248.424 164.105 251.656 161.369 253.88C161.149 254.06 160.869 254.149 160.586 254.128C160.303 254.108 160.039 253.979 159.849 253.768L136.825 227.544C136.639 227.329 136.544 227.049 136.562 226.764C136.58 226.48 136.709 226.214 136.921 226.024L144.809 219.272" stroke="#332E6F" stroke-width="1.5" stroke-miterlimit="10"/>
<path d="M131.609 180.408H99.7689H99.6729C99.3713 175.308 99.6235 170.19 100.425 165.144C107.673 167.32 117.833 169.592 130.009 172.12L131.705 172.472C134.329 173.128 137.561 172.856 138.985 176.328C139.113 176.632 139.257 177.16 139.433 177.736H139.113L133.305 178.008C133.026 178.017 132.753 178.095 132.511 178.235C132.269 178.375 132.065 178.572 131.918 178.809C131.771 179.047 131.685 179.317 131.667 179.596C131.649 179.875 131.701 180.154 131.817 180.408H131.609Z" fill="#332E6F"/>
<path d="M100.425 164.632C96.9849 188.312 103.737 199.656 117.305 205.432C119.756 206.346 122.317 206.932 124.921 207.176L156.345 207.048" stroke="black" stroke-width="1.5" stroke-miterlimit="10"/>
<path d="M207.449 152.744L202.425 180.952C202.253 182.076 201.709 183.11 200.879 183.888C200.049 184.666 198.982 185.142 197.849 185.24L152.633 188.088C151.855 188.1 151.084 187.938 150.377 187.614C149.67 187.291 149.043 186.813 148.544 186.217C148.044 185.621 147.684 184.921 147.489 184.168C147.294 183.415 147.269 182.628 147.417 181.864L151.961 152.472C152.108 151.286 152.671 150.192 153.55 149.383C154.429 148.574 155.567 148.104 156.761 148.056L202.425 146.456C203.192 146.474 203.946 146.659 204.634 147C205.322 147.34 205.926 147.827 206.405 148.427C206.884 149.026 207.226 149.724 207.406 150.47C207.587 151.215 207.601 151.992 207.449 152.744Z" stroke="black" stroke-width="1.5" stroke-miterlimit="10"/>
<path d="M144.745 169.08C145.913 171.192 147.849 180.664 142.985 179.32" stroke="black" stroke-width="1.5" stroke-miterlimit="10" stroke-linecap="round"/>
<path d="M129.673 171.512C129.673 166.424 131.673 163.368 134.617 161.688" stroke="white" stroke-width="1.5" stroke-miterlimit="10"/>
<path d="M111.113 122.84C107.705 133.592 103.449 147.176 104.313 148.856C105.177 150.536 121.753 156.856 134.713 161.512" stroke="white" stroke-width="1.5" stroke-miterlimit="10" stroke-linecap="round"/>
<path d="M129.817 170.968C116.809 169.16 106.489 167.096 98.6008 165.256" stroke="white" stroke-width="1.5" stroke-miterlimit="10" stroke-linecap="square"/>
<path d="M204.041 170.312C204.905 170.584 205.753 170.888 206.601 171.208C215.369 174.552 218.425 185.704 211.033 192.36C205.433 197.4 158.233 228.504 155.257 230.024L144.953 218.984C144.953 218.984 166.697 196.008 175.961 186.744" stroke="black" stroke-width="1.5" stroke-miterlimit="10"/>
<path d="M133.997 228.547L158.312 256.488L160.605 254.493L136.29 226.551L133.997 228.547Z" stroke="black" stroke-width="1.5" stroke-linecap="round" stroke-linejoin="round"/>
</svg>
