<svg width="24" height="24" viewBox="0 0 24 24" fill="none" xmlns="http://www.w3.org/2000/svg">
<path d="M12 15.75C13.1833 15.75 14.1875 15.3375 15.0125 14.5125C15.8375 13.6875 16.25 12.6833 16.25 11.5C16.25 10.3167 15.8375 9.3125 15.0125 8.4875C14.1875 7.6625 13.1833 7.25 12 7.25C10.8167 7.25 9.81249 7.6625 8.98749 8.4875C8.16249 9.3125 7.74999 10.3167 7.74999 11.5C7.74999 12.6833 8.16249 13.6875 8.98749 14.5125C9.81249 15.3375 10.8167 15.75 12 15.75ZM12 14.3C11.2167 14.3 10.5542 14.0292 10.0125 13.4875C9.47082 12.9458 9.19999 12.2833 9.19999 11.5C9.19999 10.7167 9.47082 10.0542 10.0125 9.5125C10.5542 8.97083 11.2167 8.7 12 8.7C12.7833 8.7 13.4458 8.97083 13.9875 9.5125C14.5292 10.0542 14.8 10.7167 14.8 11.5C14.8 12.2833 14.5292 12.9458 13.9875 13.4875C13.4458 14.0292 12.7833 14.3 12 14.3ZM12 19C9.69999 19 7.60415 18.375 5.71249 17.125C3.82082 15.875 2.35832 14.225 1.32499 12.175C1.27499 12.0917 1.23749 11.9917 1.21249 11.875C1.18749 11.7583 1.17499 11.6333 1.17499 11.5C1.17499 11.3667 1.18749 11.2417 1.21249 11.125C1.23749 11.0083 1.27499 10.9083 1.32499 10.825C2.35832 8.775 3.82082 7.125 5.71249 5.875C7.60415 4.625 9.69999 4 12 4C14.3 4 16.3958 4.625 18.2875 5.875C20.1792 7.125 21.6417 8.775 22.675 10.825C22.725 10.9083 22.7625 11.0083 22.7875 11.125C22.8125 11.2417 22.825 11.3667 22.825 11.5C22.825 11.6333 22.8125 11.7583 22.7875 11.875C22.7625 11.9917 22.725 12.0917 22.675 12.175C21.6417 14.225 20.1792 15.875 18.2875 17.125C16.3958 18.375 14.3 19 12 19ZM12 17.5C14.0167 17.5 15.8708 16.9542 17.5625 15.8625C19.2542 14.7708 20.5417 13.3167 21.425 11.5C20.5417 9.68333 19.2542 8.22917 17.5625 7.1375C15.8708 6.04583 14.0167 5.5 12 5.5C9.98332 5.5 8.12915 6.04583 6.43749 7.1375C4.74582 8.22917 3.44999 9.68333 2.54999 11.5C3.44999 13.3167 4.74582 14.7708 6.43749 15.8625C8.12915 16.9542 9.98332 17.5 12 17.5Z" fill="#776694"/>
</svg>
