<svg width="24" height="24" viewBox="0 0 24 24" fill="none" xmlns="http://www.w3.org/2000/svg">
<path d="M15.725 13.5247L14.625 12.4247C15.0583 11.2414 14.8333 10.258 13.95 9.47471C13.0667 8.69137 12.1083 8.49137 11.075 8.87471L9.97499 7.77471C10.2583 7.59137 10.575 7.45804 10.925 7.37471C11.275 7.29137 11.6333 7.24971 12 7.24971C13.1833 7.24971 14.1875 7.66221 15.0125 8.48721C15.8375 9.31221 16.25 10.3164 16.25 11.4997C16.25 11.8664 16.2042 12.2289 16.1125 12.5872C16.0208 12.9455 15.8917 13.258 15.725 13.5247ZM18.95 16.7497L17.95 15.7497C18.7667 15.1497 19.4792 14.4789 20.0875 13.7372C20.6958 12.9955 21.1417 12.2497 21.425 11.4997C20.5917 9.64971 19.3417 8.18721 17.675 7.11221C16.0083 6.03721 14.2 5.49971 12.25 5.49971C11.55 5.49971 10.8333 5.56637 10.1 5.69971C9.36665 5.83304 8.79165 5.99137 8.37499 6.17471L7.22499 4.99971C7.80832 4.73304 8.55415 4.49971 9.46249 4.29971C10.3708 4.09971 11.2583 3.99971 12.125 3.99971C14.375 3.99971 16.45 4.61637 18.35 5.84971C20.25 7.08304 21.7 8.74137 22.7 10.8247C22.75 10.908 22.7833 11.008 22.8 11.1247C22.8167 11.2414 22.825 11.3664 22.825 11.4997C22.825 11.633 22.8167 11.7622 22.8 11.8872C22.7833 12.0122 22.75 12.1164 22.7 12.1997C22.2667 13.1164 21.7333 13.958 21.1 14.7247C20.4667 15.4914 19.75 16.1664 18.95 16.7497ZM19.85 21.8497L16.2 18.2747C15.6167 18.508 14.9583 18.6872 14.225 18.8122C13.4917 18.9372 12.75 18.9997 12 18.9997C9.69999 18.9997 7.59165 18.383 5.67499 17.1497C3.75832 15.9164 2.29999 14.258 1.29999 12.1747C1.24999 12.0747 1.21665 11.9705 1.19999 11.8622C1.18332 11.7539 1.17499 11.633 1.17499 11.4997C1.17499 11.3664 1.18749 11.2372 1.21249 11.1122C1.23749 10.9872 1.26665 10.883 1.29999 10.7997C1.64999 10.0497 2.09582 9.32054 2.63749 8.61221C3.17915 7.90387 3.81665 7.23304 4.54999 6.59971L1.92499 3.97471C1.77499 3.82471 1.69999 3.64971 1.69999 3.44971C1.69999 3.24971 1.77499 3.07471 1.92499 2.92471C2.07499 2.77471 2.25415 2.69971 2.46249 2.69971C2.67082 2.69971 2.84999 2.77471 2.99999 2.92471L20.9 20.8247C21.0333 20.958 21.1 21.1205 21.1 21.3122C21.1 21.5039 21.0333 21.6747 20.9 21.8247C20.7667 21.9914 20.5958 22.0747 20.3875 22.0747C20.1792 22.0747 20 21.9997 19.85 21.8497ZM5.57499 7.64971C4.95832 8.09971 4.36249 8.69137 3.78749 9.42471C3.21249 10.158 2.79999 10.8497 2.54999 11.4997C3.39999 13.3497 4.67915 14.8122 6.38749 15.8872C8.09582 16.9622 10.0333 17.4997 12.2 17.4997C12.75 17.4997 13.2917 17.4664 13.825 17.3997C14.3583 17.333 14.7583 17.233 15.025 17.0997L13.425 15.4997C13.2417 15.583 13.0167 15.6455 12.75 15.6872C12.4833 15.7289 12.2333 15.7497 12 15.7497C10.8333 15.7497 9.83332 15.3414 8.99999 14.5247C8.16665 13.708 7.74999 12.6997 7.74999 11.4997C7.74999 11.2497 7.77082 10.9997 7.81249 10.7497C7.85415 10.4997 7.91665 10.2747 7.99999 10.0747L5.57499 7.64971Z" fill="#7064FF"/>
</svg>
