<svg width="14" height="14" viewBox="0 0 14 14" fill="none" xmlns="http://www.w3.org/2000/svg">
<path d="M7.06829 7.78502C7.20163 7.78502 7.31552 7.7378 7.40996 7.64335C7.50441 7.54891 7.55163 7.42947 7.55163 7.28502V4.05169C7.55163 3.91835 7.50163 3.80447 7.40163 3.71002C7.30163 3.61558 7.18496 3.56836 7.05163 3.56836C6.90718 3.56836 6.78774 3.61558 6.69329 3.71002C6.59885 3.80447 6.55163 3.92391 6.55163 4.06836V7.30169C6.55163 7.43502 6.60163 7.54891 6.70163 7.64335C6.80163 7.7378 6.92385 7.78502 7.06829 7.78502ZM7.00163 10.335C7.15718 10.335 7.28774 10.2822 7.39329 10.1767C7.49885 10.0711 7.55163 9.94058 7.55163 9.78502C7.55163 9.62947 7.49885 9.49891 7.39329 9.39335C7.28774 9.2878 7.15718 9.23502 7.00163 9.23502C6.84607 9.23502 6.71552 9.2878 6.60996 9.39335C6.50441 9.49891 6.45163 9.62947 6.45163 9.78502C6.45163 9.94058 6.50441 10.0711 6.60996 10.1767C6.71552 10.2822 6.84607 10.335 7.00163 10.335ZM7.00163 13.6684C6.05718 13.6684 5.17941 13.4989 4.36829 13.16C3.55718 12.8211 2.85163 12.3517 2.25163 11.7517C1.65163 11.1517 1.18218 10.4461 0.843294 9.63502C0.504405 8.82391 0.334961 7.94613 0.334961 7.00169C0.334961 6.06835 0.504405 5.19613 0.843294 4.38502C1.18218 3.57391 1.65163 2.86836 2.25163 2.26836C2.85163 1.66836 3.55718 1.19613 4.36829 0.851689C5.17941 0.507244 6.05718 0.335022 7.00163 0.335022C7.93496 0.335022 8.80718 0.507244 9.61829 0.851689C10.4294 1.19613 11.135 1.66836 11.735 2.26836C12.335 2.86836 12.8072 3.57391 13.1516 4.38502C13.4961 5.19613 13.6683 6.06835 13.6683 7.00169C13.6683 7.94613 13.4961 8.82391 13.1516 9.63502C12.8072 10.4461 12.335 11.1517 11.735 11.7517C11.135 12.3517 10.4294 12.8211 9.61829 13.16C8.80718 13.4989 7.93496 13.6684 7.00163 13.6684ZM7.00163 12.6684C8.55718 12.6684 9.89052 12.1128 11.0016 11.0017C12.1127 9.89058 12.6683 8.55724 12.6683 7.00169C12.6683 5.44613 12.1127 4.1128 11.0016 3.00169C9.89052 1.89058 8.55718 1.33502 7.00163 1.33502C5.44607 1.33502 4.11274 1.89058 3.00163 3.00169C1.89052 4.1128 1.33496 5.44613 1.33496 7.00169C1.33496 8.55724 1.89052 9.89058 3.00163 11.0017C4.11274 12.1128 5.44607 12.6684 7.00163 12.6684Z" fill="#FF5F5F"/>
</svg>
