<svg width="60" height="32" viewBox="0 0 60 32" fill="none" xmlns="http://www.w3.org/2000/svg">
<path d="M15.9615 23.6849L8.34615 16.7527C8.21795 16.636 8.12821 16.5193 8.07692 16.4026C8.02564 16.2859 8 16.1576 8 16.0175C8 15.8775 8.02564 15.7491 8.07692 15.6324C8.12821 15.5157 8.21795 15.399 8.34615 15.2823L16 8.3151C16.2308 8.10503 16.5064 8 16.8269 8C17.1474 8 17.4231 8.10503 17.6538 8.3151C17.8846 8.52516 17.9936 8.78191 17.9808 9.08534C17.9679 9.38877 17.8462 9.64551 17.6154 9.85558L10.8462 16.0175L17.6538 22.2144C17.8846 22.4245 18 22.6696 18 22.9497C18 23.2298 17.8846 23.4748 17.6538 23.6849C17.4231 23.895 17.141 24 16.8077 24C16.4744 24 16.1923 23.895 15.9615 23.6849Z" fill="#7064FF"/>
<path d="M31.8772 19.1242H28.1592L27.5204 20.8882H26L29.1814 12.2422H30.8679L34.0492 20.8882H32.516L31.8772 19.1242ZM31.4683 17.9689L30.0246 13.9565L28.5681 17.9689H31.4683ZM37.1318 15.1988V18.9876C37.1318 19.2443 37.1914 19.4306 37.3107 19.5466C37.4384 19.6542 37.6513 19.7081 37.9495 19.7081H38.8438V20.8882H37.694C37.0381 20.8882 36.5355 20.7391 36.1863 20.441C35.8371 20.1429 35.6625 19.6584 35.6625 18.9876V15.1988H34.832V14.0435H35.6625V12.3416H37.1318V14.0435H38.8438V15.1988H37.1318ZM41.6428 15.0373C41.8557 14.6894 42.1368 14.4203 42.486 14.2298C42.8438 14.0311 43.2654 13.9317 43.7509 13.9317V15.3975H43.3804C42.8097 15.3975 42.3753 15.5383 42.0772 15.8199C41.7875 16.1014 41.6428 16.5901 41.6428 17.2857V20.8882H40.1863V14.0435H41.6428V15.0373ZM44.6043 17.4348C44.6043 16.7474 44.749 16.1387 45.0387 15.6087C45.3367 15.0787 45.7371 14.6687 46.2396 14.3789C46.7507 14.0807 47.3129 13.9317 47.9261 13.9317C48.4797 13.9317 48.961 14.0393 49.3699 14.2547C49.7872 14.4617 50.1194 14.7226 50.3665 15.0373V14.0435H51.8358V20.8882H50.3665V19.8696C50.1194 20.1925 49.7829 20.4617 49.3571 20.677C48.9312 20.8924 48.4457 21 47.9006 21C47.2958 21 46.7421 20.8509 46.2396 20.5528C45.7371 20.2464 45.3367 19.824 45.0387 19.2857C44.749 18.7391 44.6043 18.1222 44.6043 17.4348ZM50.3665 17.4596C50.3665 16.9876 50.2643 16.5776 50.0598 16.2298C49.8639 15.882 49.6041 15.617 49.2805 15.4348C48.9568 15.2526 48.6075 15.1615 48.2328 15.1615C47.858 15.1615 47.5087 15.2526 47.1851 15.4348C46.8614 15.6087 46.5974 15.8696 46.393 16.2174C46.197 16.5569 46.0991 16.9627 46.0991 17.4348C46.0991 17.9068 46.197 18.3209 46.393 18.677C46.5974 19.0331 46.8614 19.3064 47.1851 19.4969C47.5173 19.6791 47.8665 19.7702 48.2328 19.7702C48.6075 19.7702 48.9568 19.6791 49.2805 19.4969C49.6041 19.3147 49.8639 19.0497 50.0598 18.7019C50.2643 18.3458 50.3665 17.9317 50.3665 17.4596ZM49.7787 12.205L46.9551 13.559V12.5155L49.7787 11V12.205ZM56.3042 21C55.7505 21 55.2522 20.9048 54.8093 20.7143C54.3749 20.5155 54.0299 20.2505 53.7744 19.9193C53.5189 19.5797 53.3825 19.2029 53.3656 18.7888H54.8732C54.8987 19.0787 55.0393 19.323 55.2948 19.5217C55.5588 19.7122 55.8867 19.8075 56.2786 19.8075C56.6874 19.8075 57.0026 19.7329 57.2241 19.5839C57.454 19.4265 57.569 19.2277 57.569 18.9876C57.569 18.7309 57.4413 18.5404 57.1857 18.4161C56.9387 18.2919 56.5426 18.1553 55.9975 18.0062C55.4694 17.8654 55.0393 17.7288 54.7071 17.5963C54.3749 17.4638 54.0852 17.2609 53.8383 16.9876C53.5997 16.7143 53.4805 16.354 53.4805 15.9068C53.4805 15.5424 53.5912 15.2112 53.8127 14.913C54.0341 14.6066 54.3493 14.3665 54.7582 14.1925C55.1755 14.0186 55.6525 13.9317 56.1892 13.9317C56.9898 13.9317 57.6329 14.1304 58.1184 14.528C58.6124 14.9172 58.8764 15.4513 58.9106 16.1304H57.454C57.4285 15.824 57.3007 15.5797 57.0707 15.3975C56.8408 15.2153 56.5298 15.1242 56.1381 15.1242C55.7548 15.1242 55.4609 15.1946 55.2565 15.3354C55.0521 15.4762 54.9498 15.6625 54.9498 15.8944C54.9498 16.0766 55.0179 16.2298 55.1543 16.354C55.2905 16.4783 55.4566 16.5776 55.6525 16.6522C55.8484 16.7184 56.1381 16.8054 56.5214 16.913C57.0324 17.0455 57.4497 17.1822 57.7735 17.323C58.1056 17.4555 58.3909 17.6542 58.6295 17.9193C58.8679 18.1843 58.9914 18.5362 59 18.9752C59 19.3644 58.8892 19.7122 58.6678 20.0186C58.4463 20.325 58.1312 20.5652 57.7223 20.7391C57.322 20.913 56.8492 21 56.3042 21Z" fill="#7064FF"/>
</svg>
