<svg width="880" height="880" viewBox="0 0 880 880" fill="none" xmlns="http://www.w3.org/2000/svg">
<path d="M530.675 792.04C539.915 793.096 548.627 798.244 546.471 809.992V809.904H475.323C477.303 798.332 468.635 793.228 459.439 792.304C454.803 791.709 450.225 790.723 445.755 789.356V788.784C445.755 787.992 445.755 783.856 445.755 777.036H485.003C488.567 777.608 511.491 789.752 530.675 792.04Z" fill="#332E6F"/>
<path d="M459.439 792.041C468.635 793.097 477.303 798.201 475.323 809.641V809.905H374.123C374.123 806.825 374.123 794.945 373.859 776.905H414.207C416.891 777.477 431.059 784.781 446.151 789.137C450.493 790.467 454.937 791.438 459.439 792.041Z" fill="#332E6F"/>
<path d="M444.654 670.16C445.094 717.108 445.666 757.588 445.842 776.772C445.842 783.592 445.842 787.728 445.842 788.52" stroke="black" stroke-width="3" stroke-miterlimit="10"/>
<path d="M400.918 483.776C401.446 502.784 388.29 514.18 371.966 518.712C367.501 519.943 362.91 520.666 358.282 520.868" stroke="black" stroke-width="3" stroke-miterlimit="10" stroke-linecap="round"/>
<path d="M475.059 809.904L373.859 810.388C373.859 810.388 373.859 810.036 373.859 809.684C373.859 806.604 373.859 794.724 373.595 776.684C373.023 721.948 371.703 610.628 372.099 518.624C372.099 501.464 372.099 484.964 372.495 469.652" stroke="black" stroke-width="3" stroke-linecap="round" stroke-linejoin="round"/>
<path d="M469.206 505.996C466.791 561.423 458.502 616.438 444.479 670.116C435.195 707.56 424.415 743.288 414.031 776.332V776.772C416.715 777.344 430.882 784.648 445.974 789.004C450.445 790.371 455.022 791.357 459.658 791.952C468.854 793.008 477.523 798.112 475.543 809.552C475.526 809.624 475.526 809.699 475.543 809.772" stroke="black" stroke-width="3" stroke-linecap="round" stroke-linejoin="round"/>
<path d="M539.827 470.269C537.099 591.665 510.523 695.989 485.091 776.773C488.655 777.521 511.491 789.665 530.763 791.953C540.003 793.009 548.715 798.157 546.559 809.905H474.619" stroke="black" stroke-width="3" stroke-linecap="round" stroke-linejoin="round"/>
<path d="M486.719 776.772H485.091H446.503" stroke="black" stroke-width="3" stroke-miterlimit="10"/>
<path d="M413.854 776.772H413.81H373.638" stroke="black" stroke-width="3" stroke-miterlimit="10"/>
<path d="M373.727 809.772H373.507V818.132H475.059V810.036V809.772H373.727Z" stroke="black" stroke-width="3" stroke-linecap="round" stroke-linejoin="round"/>
<path d="M475.234 810.036V818.132H546.294V810.036V809.772H475.322H475.234V810.036Z" stroke="black" stroke-width="3" stroke-linecap="round" stroke-linejoin="round"/>
<path d="M415.13 777.125C421.29 779.457 441.53 789.797 459.13 791.865C468.37 792.921 475.102 796.265 474.97 811.049" stroke="white" stroke-width="3" stroke-linejoin="round"/>
<path d="M525.633 345.111C532.937 392.323 541.209 450.183 541.605 472.711L369.521 473.019C370.401 456.299 386.285 305.819 386.285 305.819C386.285 305.819 339.953 377.847 315.885 359.015C300.133 346.695 280.289 219.755 280.289 219.755L298.373 214.343C304.753 239.907 330.977 305.819 332.341 305.819C333.705 305.819 363.141 264.811 377.089 246.683C385.405 235.947 422.585 237.575 422.585 237.575C424.037 233.967 424.785 230.711 428.305 228.775C431.825 226.839 458.577 223.847 473.273 227.895C475.4 228.646 477.279 229.966 478.706 231.712C480.134 233.457 481.055 235.561 481.369 237.795C481.369 237.795 503.017 236.915 515.997 244.043C530.737 252.051 621.597 434.079 621.597 434.079L606.373 448.203L525.633 345.111Z" fill="#332E6F"/>
<path d="M475.782 133.384C474.814 123.396 473.626 108.612 466.982 100.604C445.818 74.9079 418.01 124.364 413.17 140.424C408.77 155.428 428.746 190.496 434.73 193.224C443.838 197.316 457.346 189.132 461.922 180.684" stroke="black" stroke-width="3" stroke-miterlimit="10" stroke-linecap="round"/>
<path d="M474.989 228.071C476.001 202.111 478.421 178.659 477.321 152.655" stroke="black" stroke-width="3" stroke-miterlimit="10"/>
<path d="M437.282 192.871C435.522 204.795 433.498 218.831 428.746 228.731" stroke="black" stroke-width="3" stroke-miterlimit="10"/>
<path d="M471.998 138.046C485.198 120.446 493.074 144.602 488.102 150.586C486.32 152.193 484.049 153.153 481.655 153.313C479.26 153.472 476.882 152.822 474.902 151.466" stroke="black" stroke-width="3" stroke-miterlimit="10" stroke-linecap="round"/>
<path d="M429.493 110.372C427.997 110.372 393.149 101.836 398.693 92.3759C404.765 81.6399 471.029 119.216 475.165 121.24" stroke="black" stroke-width="3" stroke-miterlimit="10"/>
<path d="M447.141 134.616C450.352 136.655 453.945 138.017 457.701 138.62" stroke="black" stroke-width="3" stroke-miterlimit="10" stroke-linecap="round"/>
<path d="M477.541 141.566C479.353 143.346 481.74 144.422 484.273 144.602" stroke="black" stroke-width="3" stroke-miterlimit="10" stroke-linecap="round"/>
<path d="M449.294 146.186C450.314 146.186 451.142 145.359 451.142 144.338C451.142 143.318 450.314 142.49 449.294 142.49C448.273 142.49 447.446 143.318 447.446 144.338C447.446 145.359 448.273 146.186 449.294 146.186Z" fill="black"/>
<path d="M425.58 141.874C426.6 141.874 427.428 141.047 427.428 140.026C427.428 139.006 426.6 138.178 425.58 138.178C424.559 138.178 423.732 139.006 423.732 140.026C423.732 141.047 424.559 141.874 425.58 141.874Z" fill="black"/>
<path d="M423.289 131.754C424.159 131.153 425.149 130.746 426.191 130.562C427.233 130.378 428.302 130.422 429.325 130.689C430.349 130.956 431.303 131.442 432.121 132.111C432.94 132.781 433.605 133.62 434.069 134.57C435.213 139.366 430.989 148.386 428.965 153.622C427.601 157.186 425.181 164.182 432.045 163.258" stroke="black" stroke-width="3" stroke-miterlimit="10" stroke-linecap="round"/>
<path d="M444.544 179.186C443.729 179.99 442.744 180.602 441.662 180.977C440.58 181.352 439.428 181.481 438.29 181.354C437.152 181.228 436.057 180.849 435.083 180.246C434.11 179.642 433.284 178.83 432.664 177.866" stroke="black" stroke-width="3" stroke-miterlimit="10" stroke-linecap="round"/>
<path d="M289.971 156.66H226.699C223.842 156.816 221.039 155.835 218.903 153.93C216.768 152.026 215.473 149.353 215.303 146.496V72.0482C215.484 69.1959 216.782 66.5299 218.915 64.6275C221.048 62.7251 223.845 61.7395 226.699 61.8842H310.035C312.897 61.7276 315.705 62.7078 317.847 64.6114C319.99 66.515 321.294 69.1878 321.475 72.0482V146.496C321.305 149.361 320.004 152.041 317.859 153.946C315.714 155.852 312.9 156.829 310.035 156.66H300.135" stroke="black" stroke-width="3" stroke-linecap="round" stroke-linejoin="round"/>
<path d="M299.784 184.512C300.638 175.258 300.564 165.943 299.564 156.704C298.816 150.808 297.452 146.276 295.164 146.188C291.82 146.188 290.764 150.148 290.28 156.66C289.796 163.172 290.06 173.468 289.136 183.632" stroke="black" stroke-width="3" stroke-miterlimit="10" stroke-linecap="round"/>
<path d="M298.153 214.386C306.337 211.79 313.729 185.038 293.753 184.202C289.793 184.202 281.785 183.41 280.553 188.602C280.287 189.484 280.371 190.434 280.79 191.254C281.208 192.074 281.928 192.701 282.797 193.002C284.713 193.473 286.677 193.724 288.649 193.75C291.069 193.75 293.621 195.158 292.785 195.466C289.045 196.83 287.505 201.978 287.285 205.454" stroke="black" stroke-width="3" stroke-miterlimit="10" stroke-linecap="round"/>
<path d="M289.531 174.259C288.871 168.495 279.807 169.859 278.883 174.259C276.155 187.459 279.631 204.575 287.243 202.551" stroke="black" stroke-width="3" stroke-miterlimit="10" stroke-linecap="round"/>
<path d="M278.091 179.188C278.155 177.962 277.73 176.762 276.909 175.85C276.088 174.938 274.939 174.39 273.713 174.326C272.488 174.261 271.287 174.687 270.376 175.508C269.464 176.329 268.915 177.478 268.851 178.704C266.211 191.332 271.315 201.364 274.747 203.212C275.345 203.473 275.988 203.613 276.64 203.623C277.292 203.634 277.94 203.515 278.545 203.274C279.151 203.032 279.703 202.673 280.169 202.217C280.635 201.76 281.005 201.216 281.259 200.616" stroke="black" stroke-width="3" stroke-miterlimit="10" stroke-linecap="round"/>
<path d="M279.984 219.667C273.34 216.455 270.216 203.827 271.448 200.131" stroke="black" stroke-width="3" stroke-miterlimit="10" stroke-linecap="round"/>
<path d="M525.417 344.716L525.725 345.112L606.289 447.896" stroke="black" stroke-width="3" stroke-miterlimit="10" stroke-linecap="round"/>
<path d="M606.286 448.027L621.51 433.903C621.51 433.903 530.694 251.831 515.954 243.647C502.754 236.519 481.326 237.399 481.326 237.399C481.012 235.165 480.091 233.061 478.664 231.316C477.236 229.57 475.357 228.25 473.23 227.499C458.534 223.451 431.606 226.355 428.262 228.379C424.918 230.403 423.862 233.791 422.542 237.179C422.542 237.179 385.362 235.551 377.046 246.287C362.834 264.811 333.662 305.819 332.298 305.819C330.934 305.819 304.71 239.819 298.33 214.343L280.246 219.755C280.246 219.755 300.09 346.695 315.842 359.015C340.042 377.847 386.242 305.819 386.242 305.819C386.242 305.819 370.358 456.255 369.478 473.019L541.562 472.711C541.166 450.227 532.762 392.367 525.59 345.111C522.554 325.531 519.694 307.755 517.67 295.083" stroke="black" stroke-width="3" stroke-linecap="round" stroke-linejoin="round"/>
<path d="M622.82 433.648C635.863 431.661 649.586 445.311 655.196 450.38C658.617 453.409 655.516 458.996 650.182 455.675C645.583 452.857 640.803 449.707 637.903 450.745" stroke="black" stroke-width="3" stroke-miterlimit="10" stroke-linecap="round"/>
<path d="M637.136 450.715C637.25 450.749 637.357 450.8 637.453 450.869V450.869C646.477 459.99 660.222 482.062 653.133 486.595C652.547 487.025 651.821 487.216 651.1 487.129C650.379 487.043 649.717 486.686 649.25 486.13C647.984 484.603 647.045 482.833 646.492 480.928C644.843 474.977 641.826 469.494 637.68 464.917" stroke="black" stroke-width="3" stroke-miterlimit="10" stroke-linecap="round"/>
<path d="M649.038 486.269C649.621 487.422 649.925 488.695 649.927 489.987C649.929 491.279 649.628 492.553 649.049 493.707C648.713 494.51 648.099 495.164 647.319 495.55C646.538 495.935 645.645 496.026 644.804 495.805C642.517 495.478 641.606 493.324 640.971 491.305C638.3 483.736 634.676 476.539 630.186 469.886" stroke="black" stroke-width="3" stroke-miterlimit="10" stroke-linecap="round"/>
<path d="M606.005 447.447C603.95 453.297 614.723 463.853 618.248 467.373C623.221 472.845 627.14 479.19 629.808 486.087C630.941 488.69 632.496 493.65 635.363 494.797C635.955 494.922 636.565 494.924 637.157 494.802C637.749 494.681 638.31 494.439 638.804 494.091C639.298 493.744 639.716 493.298 640.03 492.783C640.345 492.267 640.55 491.691 640.632 491.093" stroke="black" stroke-width="3" stroke-miterlimit="10" stroke-linecap="round"/>
<path d="M626.13 454.96C630.588 459.078 635.857 453.761 637.255 450.576" stroke="black" stroke-width="3" stroke-miterlimit="10" stroke-linecap="round"/>
<path d="M283.929 83.6346C283.551 83.2575 283.104 82.9583 282.611 82.7543C282.118 82.5502 281.59 82.4452 281.056 82.4453H247.539C246.768 82.4451 246.005 82.5968 245.293 82.8915C244.582 83.1863 243.935 83.6184 243.39 84.1632C242.845 84.7079 242.413 85.3547 242.118 86.0665C241.824 86.7783 241.672 87.5413 241.672 88.3117V129.379C241.672 130.149 241.824 130.912 242.118 131.624C242.413 132.336 242.845 132.983 243.39 133.527C243.935 134.072 244.582 134.504 245.293 134.799C246.005 135.094 246.768 135.245 247.539 135.245H288.606C290.16 135.241 291.65 134.621 292.749 133.522C293.848 132.423 294.467 130.933 294.472 129.379V95.8611C294.472 95.3277 294.367 94.7995 294.163 94.3067C293.959 93.8138 293.66 93.366 293.283 92.9888L283.929 83.6346ZM268.072 129.153C266.466 129.153 264.895 128.677 263.559 127.784C262.223 126.891 261.182 125.623 260.567 124.138C259.953 122.654 259.792 121.021 260.105 119.445C260.419 117.869 261.192 116.422 262.328 115.286C263.464 114.15 264.912 113.376 266.487 113.063C268.063 112.75 269.696 112.91 271.181 113.525C272.665 114.14 273.934 115.181 274.826 116.517C275.719 117.853 276.195 119.423 276.195 121.03C276.197 122.097 275.987 123.154 275.58 124.14C275.172 125.126 274.574 126.022 273.819 126.777C273.064 127.531 272.168 128.13 271.182 128.537C270.196 128.945 269.139 129.154 268.072 129.153ZM274.164 100.722H249.795C249.257 100.722 248.74 100.508 248.359 100.127C247.978 99.7466 247.764 99.2301 247.764 98.6915V90.5684C247.764 90.0298 247.978 89.5133 248.359 89.1324C248.74 88.7516 249.257 88.5376 249.795 88.5376H274.164C274.703 88.5376 275.22 88.7516 275.6 89.1324C275.981 89.5133 276.195 90.0298 276.195 90.5684V98.6915C276.195 99.2301 275.981 99.7466 275.6 100.127C275.22 100.508 274.703 100.722 274.164 100.722Z" fill="#5FA9FF" stroke="black" stroke-width="3" stroke-linecap="round" stroke-linejoin="round"/>
</svg>
