<svg width="320" height="272" viewBox="0 0 320 272" fill="none" xmlns="http://www.w3.org/2000/svg">
<path d="M92.2964 231.725V180.183H164.445V203.295" stroke="black" stroke-width="1.80582" stroke-miterlimit="10" stroke-linecap="round"/>
<path d="M164.445 223.272V232H92.2964" stroke="black" stroke-width="1.80582" stroke-miterlimit="10" stroke-linecap="round"/>
<path d="M228.551 192.534C220.516 185.366 210.455 180.921 199.784 179.823" stroke="black" stroke-width="1.80582" stroke-miterlimit="10" stroke-linecap="round"/>
<path d="M229.224 217.722C230.908 222.143 231.769 226.84 231.764 231.577H246.001C246.017 222.313 243.558 213.217 238.883 205.244" stroke="black" stroke-width="1.80582" stroke-miterlimit="10" stroke-linecap="round"/>
<path d="M199.701 194.292C207.9 195.301 215.506 199.123 221.245 205.118" stroke="black" stroke-width="1.80582" stroke-miterlimit="10" stroke-linecap="round"/>
<path d="M206.462 181.56L203.627 194.737" stroke="black" stroke-width="1.80582" stroke-miterlimit="10" stroke-linecap="round"/>
<path d="M218.346 185.755L212.53 198.402" stroke="black" stroke-width="1.80582" stroke-miterlimit="10" stroke-linecap="round"/>
<path d="M227.754 191.94L219.292 203.253" stroke="black" stroke-width="1.80582" stroke-miterlimit="10" stroke-linecap="round"/>
<path d="M231.324 215.54L242.39 212.51" stroke="black" stroke-width="1.80582" stroke-miterlimit="10" stroke-linecap="round"/>
<path d="M231.281 224.628L245.056 223.484" stroke="black" stroke-width="1.80582" stroke-miterlimit="10" stroke-linecap="round"/>
<path d="M149.704 207.363C157.013 218.802 168.477 226.892 181.635 229.895C194.793 232.897 208.593 230.572 220.069 223.419C231.546 216.266 239.783 204.856 243.01 191.642C246.237 178.427 244.197 164.463 237.328 152.749L225.212 160.291C227.915 164.492 229.759 169.195 230.636 174.124C231.512 179.053 231.404 184.11 230.317 188.996C229.231 193.883 227.187 198.501 224.307 202.581C221.427 206.66 217.769 210.117 213.546 212.75C209.324 215.383 204.622 217.139 199.718 217.914C194.814 218.689 189.805 218.468 184.987 217.263C180.169 216.059 175.638 213.896 171.659 210.9C167.681 207.905 164.336 204.138 161.82 199.821L149.704 207.363Z" stroke="black" stroke-width="1.80582" stroke-miterlimit="10" stroke-linecap="round"/>
<path d="M242.2 164.168L229.203 168.384" stroke="black" stroke-width="1.80582" stroke-miterlimit="10" stroke-linecap="round"/>
<path d="M244.573 177.81L231.093 178.341" stroke="black" stroke-width="1.80582" stroke-miterlimit="10" stroke-linecap="round"/>
<path d="M243.922 190.479L230.189 187.217" stroke="black" stroke-width="1.80582" stroke-miterlimit="10" stroke-linecap="round"/>
<path d="M240.016 202.258L227.187 196.602" stroke="black" stroke-width="1.80582" stroke-miterlimit="10" stroke-linecap="round"/>
<path d="M232.1 214.545L221.938 204.8" stroke="black" stroke-width="1.80582" stroke-miterlimit="10" stroke-linecap="round"/>
<path d="M221.455 223.59L214.42 211.557" stroke="black" stroke-width="1.80582" stroke-miterlimit="10" stroke-linecap="round"/>
<path d="M209.401 228.95L204.95 216.239" stroke="black" stroke-width="1.80582" stroke-miterlimit="10" stroke-linecap="round"/>
<path d="M197.098 231.683L195.481 217.828" stroke="black" stroke-width="1.80582" stroke-miterlimit="10" stroke-linecap="round"/>
<path d="M185.884 231.407L187.186 217.298" stroke="black" stroke-width="1.80582" stroke-miterlimit="10" stroke-linecap="round"/>
<path d="M174.272 228.251L179.165 214.905" stroke="black" stroke-width="1.80582" stroke-miterlimit="10" stroke-linecap="round"/>
<path d="M172.151 211.262L162.723 221.684" stroke="black" stroke-width="1.80582" stroke-miterlimit="10" stroke-linecap="round"/>
<path d="M165.852 205.457L154.723 213.761" stroke="black" stroke-width="1.80582" stroke-miterlimit="10" stroke-linecap="round"/>
<path d="M121.609 149.212C124.905 147.457 128.365 146.038 131.94 144.975" stroke="black" stroke-width="1.80582" stroke-miterlimit="10" stroke-linecap="round"/>
<path d="M94.8374 180.204C98.4429 169.853 105.022 160.819 113.735 154.254" stroke="black" stroke-width="1.80582" stroke-miterlimit="10" stroke-linecap="round"/>
<path d="M76.5068 220.542L92.2552 216.472" stroke="black" stroke-width="1.80582" stroke-miterlimit="10" stroke-linecap="round"/>
<path d="M73 201.94L91.2472 201.156" stroke="black" stroke-width="1.80582" stroke-miterlimit="10" stroke-linecap="round"/>
<path d="M74.4341 182.172L92.2123 188.001" stroke="black" stroke-width="1.80582" stroke-miterlimit="10" stroke-linecap="round"/>
<path d="M79.9473 165.183L97.0209 174.188" stroke="black" stroke-width="1.80582" stroke-miterlimit="10" stroke-linecap="round"/>
<path d="M89.8403 147.708L104.791 162.071" stroke="black" stroke-width="1.80582" stroke-miterlimit="10" stroke-linecap="round"/>
<path d="M105.504 134.277L114.554 149.784" stroke="black" stroke-width="1.80582" stroke-miterlimit="10" stroke-linecap="round"/>
<path d="M123.332 126.375L129.883 145.145" stroke="black" stroke-width="1.80582" stroke-miterlimit="10" stroke-linecap="round"/>
<path d="M109.157 197.745L102.857 204.101" stroke="black" stroke-width="1.80582" stroke-miterlimit="10" stroke-linecap="round"/>
<path d="M102.774 197.745L109.074 204.101" stroke="black" stroke-width="1.80582" stroke-miterlimit="10" stroke-linecap="round"/>
<path d="M162.996 48.4799C160.636 48.4799 158.33 49.1861 156.368 50.5092C154.406 51.8324 152.877 53.7129 151.975 55.9128C151.073 58.1127 150.838 60.5332 151.3 62.8679C151.762 65.2026 152.9 67.3466 154.57 69.0285C156.24 70.7105 158.367 71.8548 160.682 72.3167C162.997 72.7786 165.396 72.5373 167.575 71.6233C169.754 70.7093 171.615 69.1638 172.923 67.1822C174.231 65.2007 174.927 62.8722 174.923 60.4914C174.923 58.9123 174.614 57.3486 174.015 55.8899C173.415 54.4312 172.536 53.1061 171.428 51.9905C170.321 50.8748 169.006 49.9905 167.559 49.3881C166.112 48.7857 164.561 48.4771 162.996 48.4799V48.4799ZM169.568 67.101C169.484 67.1894 169.383 67.2597 169.271 67.3078C169.159 67.3558 169.039 67.3806 168.918 67.3806C168.796 67.3806 168.676 67.3558 168.564 67.3078C168.452 67.2597 168.351 67.1894 168.267 67.101C167.049 65.8511 165.033 63.8174 162.996 61.7837L157.726 67.101C157.647 67.1901 157.549 67.2609 157.441 67.3085C157.332 67.356 157.214 67.3792 157.096 67.3764C156.918 67.3716 156.745 67.3151 156.598 67.2137C156.452 67.1123 156.337 66.9703 156.268 66.8047C156.199 66.6392 156.18 66.4571 156.211 66.2804C156.242 66.1038 156.323 65.94 156.445 65.8087C156.97 65.3003 159.279 62.9488 161.715 60.4914L156.466 55.1953C156.379 55.1133 156.309 55.0147 156.26 54.9054C156.211 54.796 156.183 54.678 156.179 54.558C156.176 54.438 156.195 54.3184 156.237 54.206C156.279 54.0937 156.342 53.9907 156.424 53.9031C156.505 53.8154 156.603 53.7448 156.711 53.6953C156.82 53.6457 156.937 53.6182 157.056 53.6143C157.174 53.6103 157.293 53.6301 157.404 53.6724C157.516 53.7146 157.618 53.7786 157.705 53.8607C157.894 54.0302 160.35 56.5299 162.996 59.1992L168.288 53.8607C168.46 53.6937 168.689 53.6004 168.928 53.6004C169.167 53.6004 169.396 53.6937 169.568 53.8607C169.653 53.9454 169.72 54.046 169.766 54.1569C169.811 54.2678 169.835 54.3867 169.835 54.5068C169.835 54.6269 169.811 54.7459 169.766 54.8567C169.72 54.9676 169.653 55.0683 169.568 55.153L164.298 60.4491L169.589 65.7664C169.748 65.9516 169.83 66.1913 169.818 66.4358C169.807 66.6803 169.702 66.9109 169.526 67.0798L169.568 67.101Z" fill="#FF5F5F"/>
<path d="M140.991 197.745L134.691 204.101" stroke="black" stroke-width="1.80582" stroke-miterlimit="10" stroke-linecap="round"/>
<path d="M134.586 197.745L140.886 204.101" stroke="black" stroke-width="1.80582" stroke-miterlimit="10" stroke-linecap="round"/>
<path d="M132.128 180.163V123.918H199.7V216.727" stroke="black" stroke-width="1.80582" stroke-miterlimit="10" stroke-linecap="round"/>
<path d="M234.578 154.254C237.119 153.237 241.465 145.611 237.875 139.065C233.99 131.947 227.544 132.307 224.898 133.642C226.998 138.557 232.268 149.933 234.41 154.297" stroke="black" stroke-width="1.80582" stroke-miterlimit="10" stroke-linecap="round"/>
<path d="M217.591 137.921C215.05 138.959 210.704 146.564 214.295 153.11C218.179 160.228 224.625 159.868 227.271 158.554C225.171 153.639 219.901 142.242 217.759 137.899" stroke="black" stroke-width="1.80582" stroke-miterlimit="10" stroke-linecap="round"/>
<path d="M100.863 214.163C102.795 214.163 102.795 227.234 104.727 227.234C106.659 227.234 106.659 214.163 108.611 214.163C110.564 214.163 110.543 227.234 112.475 227.234C114.407 227.234 114.407 214.163 116.339 214.163C118.271 214.163 118.271 227.234 120.202 227.234C122.134 227.234 122.155 214.163 124.087 214.163C126.019 214.163 126.019 227.234 127.972 227.234C129.924 227.234 129.903 214.163 131.835 214.163C133.767 214.163 133.788 227.234 135.72 227.234C137.652 227.234 137.673 214.163 139.604 214.163C141.536 214.163 141.557 227.234 143.489 227.234" stroke="black" stroke-width="1.80582" stroke-miterlimit="10" stroke-linecap="round"/>
<path d="M144.581 180.035L156.172 157.643" stroke="black" stroke-width="1.80582" stroke-miterlimit="10" stroke-linecap="round"/>
<path d="M157.453 157.538C160.051 157.538 162.157 155.413 162.157 152.792C162.157 150.172 160.051 148.047 157.453 148.047C154.855 148.047 152.75 150.172 152.75 152.792C152.75 155.413 154.855 157.538 157.453 157.538Z" stroke="black" stroke-width="1.80582" stroke-miterlimit="10" stroke-linecap="round"/>
<path d="M105.44 180.035L117.031 157.643" stroke="black" stroke-width="1.80582" stroke-miterlimit="10" stroke-linecap="round"/>
<path d="M118.312 157.538C120.91 157.538 123.016 155.413 123.016 152.792C123.016 150.172 120.91 148.047 118.312 148.047C115.715 148.047 113.609 150.172 113.609 152.792C113.609 155.413 115.715 157.538 118.312 157.538Z" stroke="black" stroke-width="1.80582" stroke-miterlimit="10" stroke-linecap="round"/>
<path d="M171.333 209.439V148.851H199.47" stroke="black" stroke-width="1.80582" stroke-miterlimit="10" stroke-linecap="round"/>
<path d="M157.789 123.917C157.789 123.917 130.492 89.662 129.946 89.1748C129.085 88.2427 118.355 94.7039 121.421 107.711C124.486 120.718 132.34 123.811 132.34 123.811" stroke="black" stroke-width="1.80582" stroke-miterlimit="10" stroke-linecap="round"/>
<path d="M153.378 118.007C154.152 117.479 155.096 117.267 156.019 117.412C156.942 117.558 157.776 118.051 158.353 118.792C158.931 119.533 159.209 120.467 159.131 121.406C159.053 122.345 158.626 123.22 157.935 123.854" stroke="black" stroke-width="1.80582" stroke-miterlimit="10" stroke-linecap="round"/>
<path d="M148.842 112.181C149.616 111.654 150.56 111.441 151.483 111.587C152.406 111.732 153.24 112.225 153.817 112.966C154.395 113.707 154.672 114.641 154.595 115.58C154.517 116.519 154.09 117.394 153.399 118.028" stroke="black" stroke-width="1.80582" stroke-miterlimit="10" stroke-linecap="round"/>
<path d="M144.308 106.377C145.082 105.85 146.025 105.637 146.948 105.783C147.871 105.928 148.706 106.421 149.283 107.162C149.86 107.903 150.138 108.837 150.061 109.776C149.983 110.715 149.556 111.59 148.865 112.224" stroke="black" stroke-width="1.80582" stroke-miterlimit="10" stroke-linecap="round"/>
<path d="M139.772 100.551C140.546 100.023 141.49 99.8106 142.413 99.9561C143.336 100.102 144.17 100.594 144.747 101.335C145.325 102.076 145.603 103.01 145.525 103.95C145.447 104.889 145.02 105.764 144.329 106.398" stroke="black" stroke-width="1.80582" stroke-miterlimit="10" stroke-linecap="round"/>
<path d="M135.215 94.747C135.984 94.1205 136.968 93.8277 137.95 93.933C138.933 94.0383 139.833 94.533 140.454 95.3084C141.075 96.0837 141.365 97.0762 141.261 98.0674C141.157 99.0586 140.666 99.9674 139.898 100.594" stroke="black" stroke-width="1.80582" stroke-miterlimit="10" stroke-linecap="round"/>
<path d="M130.68 88.9213C131.452 88.3558 132.411 88.1135 133.356 88.2451C134.301 88.3767 135.159 88.8721 135.751 89.6275C136.342 90.3829 136.621 91.3399 136.529 92.2981C136.437 93.2562 135.981 94.1413 135.257 94.7682" stroke="black" stroke-width="1.80582" stroke-miterlimit="10" stroke-linecap="round"/>
<path d="M194.494 119.214C193.15 115.888 184.688 101.419 191.323 99.237C195.649 97.7965 206.924 112.816 203.334 115.041C200.541 116.778 193.717 99.6396 195.837 96.25C199.575 90.2972 210.536 104.512 210.998 108.092C211.607 112.032 208.898 110.211 207.554 107.944C204.615 103.177 201.738 94.8095 206.084 90.1066" stroke="black" stroke-width="1.80582" stroke-miterlimit="10" stroke-linecap="round"/>
<path d="M116.361 120.126C113.673 120.401 101.41 123.452 101.263 118.113C101.263 114.639 114.429 109.64 115.269 112.733C115.92 115.169 102.082 116.44 100.109 114.152C96.623 110.127 109.222 105.233 111.93 105.678C114.639 106.123 112.917 107.648 111.069 108.157C106.996 109.28 100.34 109.576 97.8828 105.382" stroke="black" stroke-width="1.80582" stroke-miterlimit="10" stroke-linecap="round"/>
<path d="M170.429 81.3581H144.916C143.683 81.4275 142.473 81.0002 141.552 80.1701C140.63 79.3399 140.073 78.1748 140.003 76.9306V44.4549C140.073 43.209 140.63 42.0418 141.55 41.2083C142.471 40.3748 143.681 39.9426 144.916 40.0062H181.012C182.244 39.9425 183.451 40.3717 184.371 41.2008C185.291 42.0298 185.849 43.1916 185.925 44.4337V76.9094C185.855 78.1536 185.298 79.3187 184.377 80.1489C183.455 80.979 182.245 81.4064 181.012 81.337H176.119" stroke="black" stroke-width="1.80582" stroke-linecap="round" stroke-linejoin="round"/>
<path d="M176.267 78.7519C176.267 78.7519 174.924 88.5391 172.551 90.4033C170.178 92.2676 170.682 76.8665 170.682 76.8665" stroke="black" stroke-width="1.80582" stroke-linecap="round" stroke-linejoin="round"/>
<path d="M131.756 123.343C80.3438 135.892 62.5561 189.356 82.3878 231.725H92.303" stroke="black" stroke-width="1.80815" stroke-linejoin="round"/>
</svg>
