<svg width="880" height="880" viewBox="0 0 880 880" fill="none" xmlns="http://www.w3.org/2000/svg">
<path d="M242.836 738.54L338.052 772.068L338.36 771.364L348.788 740.916C345.84 739.992 316.184 730.356 316.096 729.432V729.08H314.864C309.1 727.584 282.26 730.708 263.56 726.572C254.496 724.636 244.64 726.704 242.836 738.54Z" fill="#332E6F"/>
<path d="M539.352 780.692V781.704L592.592 780.648L635.58 759.836L621.412 731.544L591.052 743.952C574.552 752.268 573.98 763.4 565.708 763.136C551.672 762.564 540.408 773.124 539.352 780.692Z" fill="#332E6F"/>
<path d="M619.916 435.6L622.38 436.216C647.548 361.724 616.616 269.016 536.36 233.42L500.72 227.26C500.834 225.14 500.244 223.042 499.042 221.291C497.841 219.541 496.095 218.236 494.076 217.58C493.618 217.431 493.146 217.328 492.668 217.272C478.377 215.527 463.927 215.527 449.636 217.272C448.907 217.402 448.197 217.624 447.524 217.932C443.96 220.044 443.124 223.3 441.716 226.732C441.716 226.732 408.892 224.444 399.784 234.608C383.416 252.78 365.288 280.632 363.968 280.236C362.648 279.84 361.724 242.22 362.208 203.236V202.444C360.539 202.167 358.892 201.77 357.28 201.256C352.903 201.017 348.628 199.847 344.74 197.824V197.56L341.616 198.968L340.076 199.716V200.068C337.304 223.036 327.184 315.832 343.068 332.64C349.844 339.812 411.796 295.68 411.796 295.68C411.796 295.68 387.376 445.72 386.276 462.528H393.932L559.02 463.672C558.712 431.728 543.224 328.592 536.58 285.208C536.58 285.208 607.948 326.568 594.66 427.636C594.44 429.528 613.096 434.148 619.916 435.6Z" fill="#332E6F"/>
<path d="M429.264 149.864C428.78 150.535 428.574 151.368 428.689 152.188C428.803 153.007 429.23 153.751 429.88 154.264C430.561 154.705 431.383 154.873 432.181 154.733C432.98 154.593 433.696 154.156 434.186 153.51C434.676 152.864 434.904 152.057 434.823 151.25C434.743 150.443 434.36 149.696 433.752 149.16C433.411 148.912 433.025 148.733 432.615 148.633C432.205 148.534 431.779 148.517 431.362 148.582C430.946 148.648 430.546 148.795 430.186 149.014C429.826 149.234 429.513 149.523 429.264 149.864Z" fill="black"/>
<path d="M457.952 147.62C457.685 148.029 457.591 148.527 457.69 149.005C457.789 149.483 458.073 149.903 458.48 150.172C458.892 150.428 459.387 150.516 459.862 150.417C460.337 150.319 460.756 150.042 461.032 149.644C461.162 149.439 461.251 149.21 461.293 148.971C461.334 148.732 461.328 148.486 461.275 148.249C461.222 148.012 461.123 147.788 460.983 147.59C460.843 147.391 460.666 147.222 460.46 147.092C460.261 146.961 460.038 146.871 459.804 146.826C459.57 146.782 459.329 146.784 459.096 146.833C458.863 146.882 458.642 146.977 458.446 147.112C458.249 147.247 458.082 147.42 457.952 147.62Z" fill="black"/>
<path d="M335.236 780.076L239.58 746.9L242.308 738.98L337.964 772.156L335.236 780.076Z" stroke="black" stroke-width="3" stroke-linecap="round" stroke-linejoin="round"/>
<path d="M460.152 547.008C459.931 547.228 459.725 547.463 459.536 547.712C453.684 555.06 410.212 613.184 408.804 616.176C398.552 638.176 352.968 732.248 349.008 741.004C346.06 740.08 316.404 730.444 316.316 729.52V729.168C315.788 718.652 329.516 642.532 342.716 570.768C343.508 566.368 372.284 504.768 394.372 462.924" stroke="black" stroke-width="3" stroke-miterlimit="10" stroke-linecap="round"/>
<path d="M314.82 729.124C309.056 727.628 282.216 730.752 263.516 726.616C254.716 724.636 244.64 726.616 242.836 738.54L338.052 772.068" stroke="black" stroke-width="3" stroke-linecap="round" stroke-linejoin="round"/>
<path d="M349.096 739.948L348.788 740.916L338.36 771.364" stroke="black" stroke-width="3" stroke-miterlimit="10"/>
<path d="M588.896 744.788C581.724 740.036 514.712 667.524 486.508 629.464C476.828 616.264 467.897 582.208 459.537 547.712C454.521 527.032 449.68 506.22 445.016 489.852" stroke="black" stroke-width="3" stroke-miterlimit="10" stroke-linecap="round"/>
<path d="M553.388 465.916C553.388 478.412 553.388 492.316 553.388 506C553.96 542.08 556.028 578.424 562.76 592.372C580.36 628.804 621.016 731.192 621.016 731.192" stroke="black" stroke-width="3" stroke-miterlimit="10" stroke-linecap="round"/>
<path d="M521.136 481.624C525.8 497.772 538.736 505.032 553.564 506C560.128 506.394 566.713 505.71 573.056 503.976" stroke="black" stroke-width="3" stroke-miterlimit="10" stroke-linecap="round"/>
<path d="M635.624 759.836L640.42 768.768L594.66 789.932L539.396 790.064L539.308 781.704H539.352L592.636 780.648L635.624 759.836Z" stroke="black" stroke-width="3" stroke-linecap="round" stroke-linejoin="round"/>
<path d="M539.352 780.692C540.408 773.124 551.672 762.564 565.752 763.092C574.024 763.356 574.552 752.224 591.096 743.908L621.456 731.5L635.624 759.792" stroke="black" stroke-width="3" stroke-linecap="round" stroke-linejoin="round"/>
<path d="M445.148 158.092C445.148 161.92 445.72 169.312 451.704 165.792" stroke="black" stroke-width="3" stroke-miterlimit="10" stroke-linecap="round"/>
<path d="M433.4 175.472C439.604 184.272 446.248 191.268 449.108 192.104C449.868 192.325 450.65 192.458 451.44 192.5C460.636 193.248 471.284 184.096 474.32 175.736" stroke="black" stroke-width="3" stroke-miterlimit="10" stroke-linecap="round"/>
<path d="M415.756 128.04C413.897 133.005 412.498 138.131 411.576 143.352C410.212 152.152 417.252 166.056 425.084 177.32" stroke="black" stroke-width="3" stroke-miterlimit="10" stroke-linecap="round"/>
<path d="M481.36 126.852C481.14 126.016 480.568 123.068 479.424 119.152C478.94 117.48 478.368 115.676 477.62 113.74C476.872 111.804 476.256 110.176 475.42 108.328C471.46 99.924 465.212 91.52 455.576 90.068C449.02 89.056 442.948 93.896 437.712 100.98C435.519 104.032 433.549 107.238 431.816 110.572V110.572C429.036 115.901 426.625 121.414 424.6 127.072" stroke="black" stroke-width="3" stroke-miterlimit="10" stroke-linecap="round"/>
<path d="M494.076 217.756C491.48 192.456 490.38 170.852 485.628 145.816" stroke="black" stroke-width="3" stroke-miterlimit="10"/>
<path d="M451.44 192.5C451.836 202.356 453.068 208.868 449.592 217.096" stroke="black" stroke-width="3" stroke-miterlimit="10"/>
<path d="M478.236 132C479.136 130.275 480.26 128.677 481.58 127.248C490.908 117.348 499.664 136.048 496.012 142.208C494.824 143.717 493.22 144.845 491.399 145.455C489.577 146.065 487.617 146.129 485.76 145.64C484.914 145.483 484.087 145.232 483.296 144.892" stroke="black" stroke-width="3" stroke-miterlimit="10" stroke-linecap="round"/>
<path d="M479.028 119.064H479.336C483.736 119.988 515.812 125.004 514.536 114.664C513.964 109.472 495.836 108.108 475.904 108.24H475.2C460.02 108.24 441.628 109.78 431.552 110.572" stroke="black" stroke-width="3" stroke-miterlimit="10"/>
<path d="M425.435 141.724C426.998 140.683 428.783 140.022 430.647 139.792C432.511 139.563 434.403 139.773 436.171 140.404" stroke="black" stroke-width="4.5" stroke-miterlimit="10" stroke-linecap="round"/>
<path d="M484.308 134.772C486.362 136.287 488.889 137.02 491.436 136.84" stroke="black" stroke-width="3" stroke-miterlimit="10" stroke-linecap="round"/>
<path d="M415.712 127.6H415.448C412.14 128.244 408.991 129.534 406.182 131.395C403.372 133.256 400.957 135.652 399.073 138.447C397.19 141.242 395.875 144.38 395.204 147.683C394.534 150.985 394.52 154.388 395.164 157.696C395.808 161.004 397.098 164.153 398.959 166.962C400.82 169.772 403.217 172.188 406.011 174.071C408.806 175.955 411.944 177.269 415.247 177.94C418.55 178.611 421.952 178.624 425.26 177.98C429.046 177.17 432.599 175.509 435.648 173.123C438.697 170.737 441.163 167.688 442.86 164.208C445.838 158.092 446.269 151.044 444.058 144.611C441.848 138.177 437.176 132.883 431.068 129.888C429.249 128.987 427.329 128.307 425.348 127.864L424.292 127.644C421.456 127.139 418.554 127.124 415.712 127.6V127.6Z" stroke="black" stroke-width="3" stroke-linecap="round" stroke-linejoin="round"/>
<path d="M455.62 136.62C457.277 135.752 459.114 135.281 460.984 135.243C462.854 135.205 464.708 135.601 466.4 136.4" stroke="black" stroke-width="3" stroke-miterlimit="10" stroke-linecap="round"/>
<path d="M461.252 177.012C460.63 177.976 459.803 178.79 458.83 179.397C457.857 180.004 456.761 180.389 455.622 180.523C454.483 180.658 453.328 180.539 452.24 180.176C451.152 179.812 450.158 179.212 449.328 178.42" stroke="black" stroke-width="3" stroke-miterlimit="10" stroke-linecap="round"/>
<path d="M379.456 189.464C383.064 186.34 379.06 177.364 375.54 172.392C374.95 171.518 374.272 170.707 373.516 169.972C372.775 169.214 371.881 168.623 370.893 168.239C369.905 167.854 368.846 167.686 367.788 167.744C366.73 167.802 365.696 168.086 364.756 168.577C363.817 169.067 362.993 169.753 362.34 170.588" stroke="black" stroke-width="3" stroke-linecap="round" stroke-linejoin="round"/>
<path d="M364.364 192.28C364.386 192.455 364.386 192.633 364.364 192.808C364.672 195.36 370.964 194.128 370.128 189.068" stroke="black" stroke-width="3" stroke-linecap="round" stroke-linejoin="round"/>
<path d="M357.5 178.112C360.674 182.352 363.004 187.161 364.364 192.28" stroke="black" stroke-width="3" stroke-linecap="round" stroke-linejoin="round"/>
<path d="M368.852 178.2C367.812 175.364 365.759 173.013 363.088 171.6C362.842 171.446 362.575 171.328 362.296 171.248C357.896 169.664 353.496 172.568 356.4 176.748L357.5 178.244" stroke="black" stroke-width="3" stroke-linecap="round" stroke-linejoin="round"/>
<path d="M349.8 185.328C354.816 183.436 355.74 189.244 356.532 192.94C356.547 193.262 356.547 193.586 356.532 193.908C356.836 194.822 357.467 195.593 358.304 196.071C359.14 196.549 360.124 196.702 361.066 196.501C362.009 196.299 362.844 195.757 363.412 194.978C363.979 194.2 364.24 193.239 364.144 192.28V192.28" stroke="black" stroke-width="3" stroke-linecap="round" stroke-linejoin="round"/>
<path d="M357.5 178.112C354.948 174.9 352.484 173.932 349.184 175.472C346.915 176.723 345.043 178.587 343.783 180.851C342.522 183.115 341.924 185.688 342.056 188.276" stroke="black" stroke-width="3" stroke-linecap="round" stroke-linejoin="round"/>
<path d="M381.172 180.136L387.684 176.792C388.295 176.48 388.76 175.943 388.982 175.295C389.204 174.646 389.165 173.936 388.872 173.316V172.964L387.244 169.708C387.091 169.4 386.877 169.125 386.616 168.9C386.355 168.676 386.052 168.505 385.724 168.399C385.397 168.292 385.051 168.252 384.708 168.28C384.364 168.309 384.03 168.405 383.724 168.564L376.464 172.172" stroke="black" stroke-width="3" stroke-linecap="round" stroke-linejoin="round"/>
<path d="M350.196 185.152H349.8L342.188 188.452L338.58 189.992L333.608 192.456C332.998 192.768 332.532 193.305 332.311 193.954C332.089 194.602 332.128 195.312 332.42 195.932V196.24L334.18 199.76C334.5 200.374 335.046 200.84 335.701 201.061C336.357 201.283 337.074 201.242 337.7 200.948L339.988 199.76L341.528 199.012L344.652 197.604L355.388 192.808" stroke="black" stroke-width="3" stroke-linecap="round" stroke-linejoin="round"/>
<path d="M387.2 169.708V170.104L388.52 172.7C388.507 172.788 388.507 172.876 388.52 172.964C388.766 173.297 389.121 173.532 389.523 173.628C389.926 173.725 390.349 173.677 390.72 173.492L397.496 170.06C397.902 169.836 398.206 169.464 398.345 169.022C398.485 168.579 398.448 168.1 398.244 167.684L396.968 165.132C396.865 164.923 396.721 164.736 396.546 164.583C396.37 164.43 396.166 164.313 395.945 164.24C395.724 164.166 395.491 164.137 395.258 164.154C395.026 164.171 394.799 164.234 394.592 164.34L387.816 167.772C387.52 167.987 387.301 168.291 387.19 168.639C387.079 168.987 387.083 169.362 387.2 169.708Z" stroke="black" stroke-width="3" stroke-linecap="round" stroke-linejoin="round"/>
<path d="M344.872 198C348.76 200.023 353.035 201.193 357.412 201.432C359.024 201.946 360.671 202.343 362.34 202.62C368.94 203.764 379.94 203.544 379.236 189.816C379.214 189.7 379.214 189.58 379.236 189.464C379.007 187.549 378.398 185.699 377.447 184.022C376.495 182.345 375.218 180.874 373.692 179.696C372.295 178.691 370.617 178.152 368.896 178.156H368.104C367.28 178.286 366.535 178.719 366.014 179.37C365.493 180.021 365.234 180.844 365.288 181.676C365.288 183.568 368.764 185.284 370.48 188.804C371.195 190.249 371.499 191.862 371.36 193.468" stroke="black" stroke-width="3" stroke-linecap="round" stroke-linejoin="round"/>
<path d="M362.208 203.456C361.724 242.44 363.176 280.236 363.968 280.456C364.76 280.676 383.416 253 399.784 234.828C408.892 224.664 441.716 226.952 441.716 226.952C443.168 223.3 443.96 220.044 447.524 218.152C448.197 217.844 448.907 217.622 449.636 217.492C463.927 215.747 478.377 215.747 492.668 217.492C493.146 217.548 493.618 217.651 494.076 217.8C496.095 218.456 497.841 219.761 499.042 221.511C500.244 223.262 500.834 225.36 500.72 227.48L536.36 233.64C616.616 269.28 647.548 361.944 622.38 436.436L619.916 435.82C613.096 434.192 594.44 429.572 594.66 427.68C607.948 326.568 536.8 285.384 536.8 285.384C543.444 328.768 558.8 431.904 559.24 463.848L394.152 462.704H386.496C387.596 445.896 412.016 295.856 412.016 295.856C412.016 295.856 350.064 339.856 343.288 332.816C327.404 316.008 337.524 223.212 340.296 200.244" stroke="black" stroke-width="3" stroke-linecap="round" stroke-linejoin="round"/>
<path d="M593.736 450.384C587.092 469.876 596.728 487.828 606.056 481.976" stroke="black" stroke-width="3" stroke-linecap="round" stroke-linejoin="round"/>
<path d="M601.172 454.08C599.746 458.614 599.401 463.419 600.165 468.11C600.929 472.802 602.781 477.249 605.572 481.096L606.188 481.976C607.772 484 610.588 487.212 613.448 485.232C614.366 484.489 614.99 483.444 615.208 482.283C615.426 481.122 615.223 479.921 614.636 478.896" stroke="black" stroke-width="3" stroke-linecap="round" stroke-linejoin="round"/>
<path d="M610.148 456.28C607.904 463.32 612.92 479.732 617.32 481.932C622.512 484.836 625.196 479.16 622.644 474.276C614.108 457.864 625.504 443.784 619.916 435.776" stroke="black" stroke-width="3" stroke-linecap="round" stroke-linejoin="round"/>
<path d="M591.36 463.276C590.417 463.349 589.471 463.202 588.594 462.848C587.718 462.494 586.936 461.941 586.309 461.233C585.682 460.525 585.228 459.682 584.982 458.769C584.736 457.856 584.705 456.899 584.892 455.972C586.137 446.516 590.359 437.701 596.948 430.804" stroke="black" stroke-width="3" stroke-linecap="round" stroke-linejoin="round"/>
<path d="M554.405 103.308C554.405 103.308 557.001 98.8467 563.363 97.5167C567.141 96.7271 570.638 97.7597 573.496 99.2102C576.104 100.538 578.19 102.192 579.221 103.594C580.979 105.996 584.121 111.245 580.969 117.249C577.653 123.568 572.113 124.313 565.867 125.06C559.622 125.808 556.824 128.287 554.963 131.834" stroke="black" stroke-width="6.25" stroke-miterlimit="10" stroke-linecap="round"/>
<path d="M547.121 146.775C549.566 148.058 552.589 147.116 553.872 144.671C555.155 142.226 554.214 139.204 551.768 137.92C549.323 136.637 546.301 137.579 545.018 140.024C543.734 142.469 544.676 145.492 547.121 146.775Z" fill="black"/>
</svg>
