<svg width="320" height="320" viewBox="0 0 320 320" fill="none" xmlns="http://www.w3.org/2000/svg">
<path d="M318 160V160.003C318.104 247.058 247.563 317.5 160.5 317.5C73.4412 317.5 3 246.955 3 160C3 72.9412 73.5452 2.5 160.5 2.5C247.559 2.5 318 73.0452 318 160Z" stroke="#DBD8FF" stroke-width="5"/>
<path fill-rule="evenodd" clip-rule="evenodd" d="M190.972 236.606C190.746 235.962 190.642 235.287 190.642 234.643C190.642 233.504 190.656 230.83 190.675 227.249C190.712 219.99 190.769 209.005 190.769 199.524C191.045 195.952 190.571 192.36 189.379 188.995C188.186 185.63 186.304 182.572 183.861 180.031C206.576 177.388 230.497 174.153 230.497 133.618C230.561 128.959 229.661 124.34 227.856 120.072C226.051 115.803 223.384 111.983 220.033 108.869C223.112 99.5566 222.735 89.3927 218.974 80.3521C210.492 77.629 190.953 91.6965 190.953 91.6965C174.262 86.9366 156.637 86.9366 139.945 91.6965C139.945 91.6965 120.417 77.6189 111.925 80.3521C108.165 89.393 107.787 99.5565 110.866 108.869C107.634 112.031 105.103 115.88 103.447 120.15C101.792 124.421 101.051 129.012 101.276 133.608C101.276 173.992 124.177 177.418 146.882 180.021C143.203 183.824 140.907 188.826 140.383 194.179C137.891 195.655 135.139 196.6 132.288 196.957C129.437 197.314 126.546 197.076 123.786 196.257C121.026 195.439 118.452 194.056 116.218 192.19C113.984 190.324 112.134 188.014 110.778 185.397C109.136 182.474 106.869 179.979 104.151 178.102C101.433 176.225 98.3363 175.015 95.0971 174.565C85.1481 174.444 94.4461 181.036 94.4461 181.036C101.101 184.191 105.736 196.409 105.736 196.409C111.711 215.23 140.14 208.93 140.14 208.93C140.14 214.597 140.172 222.504 140.195 228.159C140.207 231.307 140.217 233.756 140.217 234.733C140.217 235.407 140.106 236.119 139.861 236.794C147.915 238.887 156.358 240 165.06 240C174.018 240 182.704 238.82 190.972 236.606ZM129.627 201.916C130.764 201.916 131.735 201.253 131.735 200.409C131.735 199.444 130.599 198.901 129.462 198.901C128.325 198.901 127.354 199.444 127.354 200.409C127.354 201.373 128.286 202.046 129.627 201.916ZM120.854 200.529C119.63 200.328 118.823 199.364 119.105 198.52C119.34 198.07 119.722 197.721 120.183 197.535C120.644 197.349 121.154 197.338 121.621 197.505C122.845 197.876 123.613 198.841 123.37 199.685C123.131 200.128 122.739 200.462 122.272 200.618C121.805 200.775 121.299 200.743 120.854 200.529ZM135.194 199.816C135.117 198.901 135.884 198.098 137.06 197.806C138.206 197.675 139.382 198.148 139.46 198.982C139.537 199.816 138.818 200.62 137.594 200.911C136.37 201.202 135.272 200.73 135.194 199.816ZM104.113 183.899C103.424 183.106 103.307 182.141 103.832 181.719C104.356 181.166 105.25 181.347 105.94 182.141C106.63 182.935 106.746 183.739 106.222 184.321C105.697 184.904 104.803 184.693 104.113 183.899ZM100.421 179.95C99.5761 179.528 99.168 178.855 99.4498 178.312C99.7315 177.901 100.383 177.77 101.199 178.021C102.044 178.443 102.452 179.116 102.17 179.659C102.078 179.802 101.959 179.925 101.819 180.018C101.679 180.111 101.522 180.174 101.358 180.201C101.193 180.228 101.025 180.22 100.864 180.177C100.703 180.134 100.552 180.057 100.421 179.95ZM113.13 195.867C112.197 195.073 111.954 193.807 112.605 193.264C113.13 192.591 114.354 192.722 115.248 193.686C116.054 194.48 116.307 195.616 115.772 196.289C115.238 196.962 114.101 196.872 113.13 195.867ZM107.971 189.577C107.32 188.602 107.32 187.517 107.971 187.095C108.622 186.542 109.681 186.944 110.244 187.979C110.56 188.333 110.736 188.798 110.736 189.28C110.736 189.762 110.56 190.227 110.244 190.581C109.719 190.963 108.622 190.551 107.971 189.577Z" fill="#7064FF"/>
</svg>
