<svg width="880" height="880" viewBox="0 0 880 880" fill="none" xmlns="http://www.w3.org/2000/svg">
<path d="M334.979 229.045C334.497 229.079 334.047 229.301 333.726 229.663C333.405 230.025 333.239 230.498 333.263 230.981C333.308 231.467 333.539 231.918 333.908 232.237C334.277 232.557 334.755 232.722 335.243 232.697C335.726 232.652 336.171 232.42 336.484 232.049C336.797 231.679 336.952 231.201 336.915 230.717C336.904 230.478 336.845 230.243 336.74 230.028C336.636 229.813 336.488 229.621 336.307 229.464C336.126 229.308 335.915 229.19 335.686 229.118C335.458 229.046 335.217 229.021 334.979 229.045Z" fill="black"/>
<path d="M359.134 228.385C358.697 228.477 358.308 228.725 358.04 229.082C357.772 229.439 357.642 229.881 357.674 230.326C357.706 230.771 357.898 231.19 358.215 231.504C358.532 231.819 358.952 232.008 359.398 232.037C359.661 232.054 359.925 232.014 360.172 231.921C360.419 231.827 360.643 231.682 360.829 231.494C361.015 231.307 361.158 231.082 361.25 230.835C361.342 230.587 361.379 230.323 361.36 230.059C361.341 229.796 361.266 229.54 361.14 229.308C361.013 229.077 360.839 228.875 360.628 228.716C360.417 228.557 360.174 228.446 359.917 228.388C359.659 228.331 359.392 228.33 359.134 228.385Z" fill="black"/>
<path d="M310.999 214.349C311.527 210.653 312.1 206.341 312.936 201.941C313.964 194.747 316.777 187.925 321.12 182.097C331.196 170.833 342.019 175.057 351.215 184.517C353.854 187.251 356.268 190.194 358.432 193.317C365.011 202.737 370.073 213.13 373.436 224.117C377.308 239.341 355.836 273.661 349.632 276.125C348.888 276.397 348.123 276.603 347.343 276.741C338.279 278.457 326.752 270.361 322.88 262.397" stroke="black" stroke-width="3" stroke-miterlimit="10" stroke-linecap="round"/>
<path d="M307.875 309.389C307.875 283.341 306.467 259.669 308.623 233.709" stroke="black" stroke-width="3" stroke-miterlimit="10"/>
<path d="M347.121 275.597C347.142 275.948 347.142 276.301 347.121 276.653C349.409 286.905 350.025 299.577 354.249 308.685" stroke="black" stroke-width="3" stroke-miterlimit="10"/>
<path d="M314.607 218.969C313.52 217.361 312.25 215.884 310.823 214.569C300.527 205.769 293.707 225.349 297.931 230.893C299.264 232.295 300.984 233.269 302.872 233.692C304.76 234.115 306.73 233.968 308.535 233.269C309.363 233.043 310.16 232.718 310.911 232.301" stroke="black" stroke-width="3" stroke-miterlimit="10" stroke-linecap="round"/>
<path d="M358.343 193.229C360.807 192.965 394.995 186.057 390.111 176.465C387.295 171.009 369.167 176.817 351.127 184.297C333.967 191.425 316.807 200.049 312.847 201.897L312.231 202.161" stroke="black" stroke-width="3" stroke-miterlimit="10"/>
<path d="M338.454 220.905C336.657 220.352 334.753 220.235 332.902 220.564C331.05 220.893 329.303 221.658 327.806 222.797" stroke="black" stroke-width="3" stroke-miterlimit="10" stroke-linecap="round"/>
<path d="M309.018 222.533C307.127 224.229 304.694 225.196 302.154 225.261" stroke="black" stroke-width="3" stroke-miterlimit="10" stroke-linecap="round"/>
<path d="M362.347 221.697C359.443 220.377 352.887 220.729 351.699 223.589C349.807 228.209 352.623 237.801 353.811 243.301C354.647 247.041 355.967 254.301 349.411 252.365" stroke="black" stroke-width="3" stroke-miterlimit="10" stroke-linecap="round"/>
<path d="M340.391 261.605C341.173 262.449 342.135 263.107 343.205 263.531C344.275 263.954 345.427 264.133 346.575 264.052C347.723 263.972 348.838 263.636 349.839 263.067C350.84 262.499 351.701 261.714 352.359 260.769" stroke="black" stroke-width="3" stroke-miterlimit="10" stroke-linecap="round"/>
<path d="M331.232 544.324H243.672H243.408C242.579 530.298 243.272 516.224 245.476 502.348C265.408 508.332 294.52 512.048 328.004 519L332 521C339.216 522.804 347.6 523.556 351.516 533.104C351.868 533.94 352.264 535.392 352.748 536.976H351.868L335.896 537.724C335.128 537.748 334.378 537.963 333.712 538.347C333.047 538.732 332.487 539.274 332.082 539.928C331.677 540.581 331.44 541.324 331.391 542.091C331.343 542.858 331.484 543.625 331.804 544.324H331.232Z" fill="#332E6F"/>
<path d="M338.36 494.252C334.286 497.117 331.075 501.043 329.074 505.604C327.073 510.164 326.358 515.186 327.008 520.124V521.18C293.524 514.228 265.408 507.98 245.652 501.996C225.896 496.012 214.456 490.688 212.608 485.1C198.396 442.024 229.724 354.904 246.136 338.712C255.684 329.34 277.728 322.036 301.488 317.416C302.558 314.368 304.445 311.674 306.944 309.628C307.282 309.45 307.636 309.303 308 309.188C322.432 306.26 337.304 306.26 351.736 309.188C352.587 309.411 353.413 309.72 354.2 310.112C355.757 310.744 357.128 311.763 358.182 313.072C359.237 314.38 359.941 315.936 360.228 317.592C360.228 317.592 404.668 322.608 413.028 333.124C423.06 345.62 440.66 388.696 455.268 454.784L400.4 456.632C397.114 456.774 393.984 458.076 391.567 460.307C389.15 462.539 387.603 465.555 387.2 468.82L378.4 523.908C377.564 516.296 376.992 507.1 368.896 504.68C360.8 502.26 350.196 498.52 338.36 494.252Z" fill="#332E6F"/>
<path d="M640.86 156.992C634.744 156.156 626.076 135.52 639.804 128.216L641.212 127.424C656.409 144.698 666.315 165.98 669.748 188.731C673.18 211.481 669.995 234.738 660.572 255.728C661.892 237.292 664.356 219.56 650.408 209.44C630.036 194.656 604.384 211.508 604.384 211.508C604.384 186.868 605.792 164.56 603.592 139.964C605.082 140.472 606.693 140.508 608.205 140.067C609.717 139.626 611.056 138.73 612.04 137.5C613.345 134.749 613.565 131.606 612.656 128.7H612.876C613.53 129.519 614.35 130.19 615.283 130.668C616.217 131.146 617.241 131.42 618.288 131.472C616.088 139.612 613.888 157.872 640.772 156.992H640.86Z" fill="#332E6F"/>
<path d="M605.352 107.361H604.868C603.724 106.305 602.096 106.217 599.896 107.889H599.324C598.508 103.468 597.225 99.1463 595.496 94.9966C599.06 96.4046 602.58 97.9886 606.012 99.7486C605.297 102.218 605.073 104.804 605.352 107.361Z" fill="black"/>
<path d="M573.408 181.588C572.025 191.127 569.636 200.493 566.28 209.528C565.444 205.128 555.368 199.1 547.36 199.1C519.948 199.1 514.448 226.6 511.324 242.22C510.664 232.76 510.004 223.784 509.652 220.616C509.3 217.448 509.916 212.696 502.48 212.828C496.408 212.828 490.952 212.828 484.572 212.828C483.925 212.819 483.284 212.952 482.695 213.218C482.106 213.484 481.583 213.877 481.163 214.369C480.743 214.86 480.436 215.438 480.265 216.062C480.093 216.685 480.062 217.339 480.172 217.976C480.172 219.12 480.436 220.484 480.612 221.892C477.651 221.961 474.838 223.198 472.786 225.333C470.733 227.468 469.608 230.327 469.656 233.288C469.711 234.544 470.074 235.768 470.712 236.852C470.015 238.512 469.782 240.331 470.037 242.113C470.293 243.895 471.028 245.575 472.164 246.972C470.404 254.76 476.564 257.4 480.964 257.488H484V258.236L484.88 266.552C484.924 267.241 485.106 267.914 485.415 268.53C485.724 269.147 486.154 269.696 486.679 270.143C487.205 270.591 487.815 270.928 488.473 271.135C489.131 271.342 489.825 271.414 490.512 271.348H492.228C492.228 277.024 488.356 309.1 501.644 314.908L501.336 315.568C476.554 304.102 456.426 284.523 444.28 260.067C432.133 235.612 428.694 207.744 434.532 181.069C440.369 154.395 455.134 130.51 476.385 113.364C497.636 96.2174 524.102 86.8353 551.408 86.7681H554.796C549.734 91.2081 545.799 96.7858 543.313 103.043C540.827 109.3 539.861 116.057 540.496 122.76C541.608 123.37 542.79 123.843 544.016 124.168L543.62 125.444C543.62 126.984 543.62 128.612 543.62 130.24C542.191 131.268 541.045 132.64 540.289 134.23C539.534 135.819 539.193 137.574 539.298 139.331C539.404 141.088 539.952 142.789 540.892 144.277C541.832 145.765 543.134 146.991 544.676 147.84C546.48 164.252 551.1 179.74 562.76 182.072C566.293 182.806 569.955 182.64 573.408 181.588Z" fill="#332E6F"/>
<path d="M538.472 244.068C538.472 246.664 537.724 290.752 527.428 323.268V324.016C518.417 322.184 509.647 319.32 501.292 315.48L501.6 314.82C502.494 315.222 503.443 315.489 504.416 315.612C520.52 318.076 538.472 244.068 538.472 244.068Z" fill="#332E6F"/>
<path d="M550.22 759.22H551.012V759.572C554.532 760.364 576.972 772.464 596.112 774.708C605.308 775.808 613.976 780.868 611.952 792.308H510.4V759L550.22 759.22Z" fill="#332E6F"/>
<path d="M396 681.252C398.068 686.752 403.612 709.412 413.6 724.328C418.792 731.94 420.64 741.928 410.608 747.956L344.124 671.22L368.412 650.1C377.172 660.922 386.576 671.208 396.572 680.9L396 681.252Z" fill="black"/>
<path d="M399.212 617.848H249.304V802.076H470.624V632.28" stroke="black" stroke-width="3" stroke-linejoin="round"/>
<path d="M331.672 520.872C262.944 506.704 216.304 495.352 212.476 483.824C198.264 440.748 229.592 353.584 246.004 337.436C255.552 328.02 277.596 320.76 301.356 316.096C302.426 313.049 304.313 310.354 306.812 308.308C310.2 306.284 336.864 303.908 351.604 307.736C353.681 308.165 355.589 309.187 357.096 310.679C358.604 312.17 359.646 314.068 360.096 316.14C360.096 316.14 404.536 321.156 412.896 331.716C422.972 344.256 440.616 386.232 455.312 452.672" stroke="black" stroke-width="3" stroke-linejoin="round"/>
<path d="M245.476 500.94C236.016 566.06 254.584 597.256 291.896 613.14C298.636 615.653 305.678 617.265 312.84 617.936L399.256 617.584" stroke="black" stroke-width="3" stroke-miterlimit="10"/>
<path d="M540.848 585.2C545.864 608.168 546.744 651.464 551.1 760.672" stroke="black" stroke-width="3" stroke-miterlimit="10"/>
<path d="M539.792 468.248L525.976 545.82C525.504 548.912 524.007 551.755 521.725 553.894C519.442 556.033 516.508 557.342 513.392 557.612L389.048 565.444C386.909 565.476 384.79 565.031 382.845 564.141C380.899 563.251 379.177 561.939 377.803 560.299C376.429 558.66 375.438 556.735 374.902 554.664C374.366 552.593 374.298 550.428 374.704 548.328L387.2 467.5C387.604 464.24 389.153 461.229 391.571 459.005C393.988 456.781 397.117 455.488 400.4 455.356L525.976 450.956C528.086 451.004 530.159 451.514 532.051 452.451C533.942 453.387 535.605 454.727 536.922 456.376C538.239 458.024 539.179 459.942 539.675 461.993C540.171 464.045 540.211 466.18 539.792 468.248Z" stroke="black" stroke-width="3" stroke-miterlimit="10"/>
<path d="M383.416 564.608L334.4 545.16C333.503 544.707 332.775 543.977 332.327 543.078C331.878 542.178 331.732 541.158 331.91 540.169C332.088 539.18 332.58 538.275 333.315 537.588C334.049 536.902 334.985 536.471 335.984 536.36L352 535.48" stroke="black" stroke-width="3" stroke-miterlimit="10"/>
<path d="M244.332 542.872L331.232 543.048" stroke="black" stroke-width="3" stroke-miterlimit="10"/>
<path d="M326 519C333.216 520.76 347.644 521.928 351.56 531.476C352.88 534.6 354.948 546.788 360.932 541.904C363.44 539.836 362.516 533.72 362.032 530.816C361.199 525.789 359.486 520.948 356.972 516.516" stroke="black" stroke-width="3" stroke-miterlimit="10" stroke-linecap="round"/>
<path d="M367.356 513.171C370.568 518.979 375.892 545.027 362.516 541.331" stroke="black" stroke-width="3" stroke-miterlimit="10" stroke-linecap="round"/>
<path d="M370.48 538.955C370.48 539.703 375.276 541.419 376.156 538.471" stroke="black" stroke-width="3" stroke-miterlimit="10" stroke-linecap="round"/>
<path d="M414.04 451.353C412.412 440.837 402.292 407.353 396.44 384.429" stroke="white" stroke-width="3" stroke-miterlimit="10" stroke-linecap="square"/>
<path d="M325.908 519.86C325.908 505.868 331.408 497.464 339.504 492.844" stroke="white" stroke-width="3" stroke-miterlimit="10"/>
<path d="M282.524 557.171C283.228 581.283 261.8 593.163 239.932 594.263" stroke="black" stroke-width="3" stroke-miterlimit="10" stroke-linecap="round"/>
<path d="M550.22 759.22H510.62C502.601 714.452 491.994 670.187 478.852 626.648" stroke="black" stroke-width="3" stroke-miterlimit="10"/>
<path d="M551.1 759.529C554.62 760.321 577.06 772.421 596.2 774.665C605.44 775.765 614.152 780.913 612.04 792.661L510.444 793.145" stroke="black" stroke-width="3" stroke-linecap="round" stroke-linejoin="round"/>
<path d="M510.356 801.416H612.216V793.056H510.356V801.416Z" stroke="black" stroke-width="3" stroke-linecap="round" stroke-linejoin="round"/>
<path d="M510.4 759.132V792.352" stroke="black" stroke-width="3" stroke-miterlimit="10"/>
<path d="M397.32 682C399.168 687.676 404.008 709.984 413.864 724.372C418.616 731.368 420.596 740.256 413.072 746.372C412.469 746.868 411.699 747.112 410.921 747.055C410.142 746.998 409.416 746.643 408.892 746.064L345.576 673.948C345.065 673.355 344.806 672.586 344.855 671.804C344.904 671.023 345.258 670.292 345.84 669.768L367.532 651.2" fill="#332E6F"/>
<path d="M397.32 682C399.168 687.676 404.008 709.984 413.864 724.372C418.616 731.368 420.596 740.256 413.072 746.372C412.469 746.868 411.699 747.112 410.921 747.055C410.142 746.998 409.416 746.643 408.892 746.064L345.576 673.948C345.065 673.355 344.806 672.586 344.855 671.804C344.904 671.023 345.258 670.292 345.84 669.768L367.532 651.2" stroke="black" stroke-width="3" stroke-miterlimit="10"/>
<path d="M274.868 386.012C265.496 415.58 253.792 452.936 256.168 457.556C258.544 462.176 304.128 479.556 339.768 492.36" stroke="white" stroke-width="3" stroke-miterlimit="10" stroke-linecap="round"/>
<path d="M326 519C292.275 514.256 264.732 507.14 240 502" stroke="white" stroke-width="3" stroke-miterlimit="10" stroke-linecap="square"/>
<path d="M544.588 146.916C546.392 163.328 551.012 178.772 562.672 181.148C568.015 181.774 573.423 180.805 578.215 178.362C583.007 175.919 586.969 172.111 589.6 167.42" stroke="black" stroke-width="3" stroke-miterlimit="10" stroke-linecap="round"/>
<path d="M543.444 124.256C543.444 125.752 543.444 127.38 543.444 129.052" stroke="black" stroke-width="3" stroke-miterlimit="10" stroke-linecap="round"/>
<path d="M597.696 124.784C608.344 107.536 616.264 130.24 612.128 136.18C610.708 137.693 608.799 138.655 606.737 138.897C604.676 139.138 602.596 138.644 600.864 137.5" stroke="black" stroke-width="3" stroke-miterlimit="10" stroke-linecap="round"/>
<path d="M606.496 125.356C605.847 127.811 606.096 130.417 607.2 132.704" stroke="black" stroke-width="3" stroke-miterlimit="10" stroke-linecap="round"/>
<path d="M600.952 117.612C598.534 120.752 595.22 123.084 591.448 124.3C586.075 125.041 580.602 124.297 575.623 122.149C570.643 120 566.347 116.529 563.2 112.112C561.176 116.512 560.076 120.12 555.896 122.012C553.452 123.125 550.785 123.664 548.101 123.588C545.416 123.512 542.785 122.822 540.408 121.572C536.756 93.456 568.964 62.084 591.272 86.988C598.18 94.732 600.072 109.516 601.392 119.504" stroke="black" stroke-width="3" stroke-linecap="round" stroke-linejoin="round"/>
<path d="M599.896 106.744C606.892 101.464 608.168 114.048 606.452 117.876" stroke="black" stroke-width="3" stroke-miterlimit="10" stroke-linecap="round"/>
<path d="M628.804 122.804C628.434 124.449 627.624 125.964 626.461 127.186C625.298 128.407 623.826 129.291 622.201 129.743C620.575 130.194 618.858 130.196 617.232 129.749C615.605 129.302 614.13 128.422 612.964 127.204" stroke="black" stroke-width="3" stroke-linecap="round" stroke-linejoin="round"/>
<path d="M605.352 106.04C604.12 94.9517 614.46 74.6237 639.584 84.3917C659.208 92.0037 658.548 116.996 639.584 126.896C625.856 134.2 634.568 154.924 640.684 155.716" stroke="black" stroke-width="3" stroke-linecap="round" stroke-linejoin="round"/>
<path d="M640.86 155.716C613.8 156.376 616.176 138.38 618.376 130.196" stroke="black" stroke-width="3" stroke-linecap="round" stroke-linejoin="round"/>
<path d="M576.179 148.016C581.793 148.016 586.343 143.366 586.343 137.632C586.343 131.897 581.793 127.248 576.179 127.248C570.566 127.248 566.016 131.897 566.016 137.632C566.016 143.366 570.566 148.016 576.179 148.016Z" stroke="black" stroke-width="3" stroke-linecap="round" stroke-linejoin="round"/>
<path d="M549.384 148.016C554.998 148.016 559.548 143.366 559.548 137.632C559.548 131.897 554.998 127.248 549.384 127.248C543.771 127.248 539.22 131.897 539.22 137.632C539.22 143.366 543.771 148.016 549.384 148.016Z" stroke="black" stroke-width="3" stroke-linecap="round" stroke-linejoin="round"/>
<path d="M597.432 124.959C597.432 124.959 585.508 132.659 585.42 132.659" stroke="black" stroke-width="3" stroke-miterlimit="10" stroke-linecap="round"/>
<path d="M565.928 137.809C565.928 136.968 565.594 136.163 565 135.569C564.406 134.974 563.6 134.641 562.76 134.641C561.919 134.641 561.114 134.974 560.52 135.569C559.925 136.163 559.592 136.968 559.592 137.809" stroke="black" stroke-width="3" stroke-linecap="round" stroke-linejoin="round"/>
<path d="M579.7 162.096C579.486 163.134 579.044 164.111 578.405 164.956C577.767 165.801 576.948 166.493 576.008 166.982C575.068 167.471 574.031 167.744 572.973 167.782C571.914 167.82 570.86 167.621 569.888 167.2" stroke="black" stroke-width="3" stroke-linecap="round" stroke-linejoin="round"/>
<path d="M560.164 136.84C560.051 139.034 559.742 141.214 559.24 143.352C558.976 145.068 556.556 154.748 556.292 156.2C556.028 157.652 561.484 158.048 562.804 158.268" stroke="black" stroke-width="3" stroke-linecap="round" stroke-linejoin="round"/>
<path d="M641.74 283.8C629.508 270.6 586.828 232.892 585.068 231.616C582.352 230.214 579.322 229.532 576.268 229.636C567.476 228.858 558.628 229.005 549.868 230.076C545.468 230.604 544.412 236.632 549.516 236.984C552.948 236.984 556.732 236.72 560.208 236.72C564.817 236.542 569.432 236.674 574.024 237.116" stroke="black" stroke-width="3" stroke-miterlimit="10" stroke-linecap="round"/>
<path d="M574.068 237.336C569.077 236.74 564.017 237.374 559.328 239.184C552.376 242.044 556.468 248.424 557.744 249.744" stroke="black" stroke-width="3" stroke-miterlimit="10" stroke-linecap="round"/>
<path d="M573.672 244.2C570.196 243.936 556.908 243.144 557.656 251.636C557.876 253.924 562.936 262.724 569.096 261.228C569.485 261.176 569.857 261.04 570.188 260.828C570.518 260.616 570.797 260.335 571.007 260.004C571.217 259.672 571.351 259.299 571.401 258.91C571.451 258.521 571.415 258.126 571.296 257.752C570.856 256.124 569.008 255.244 567.908 254.1C566.808 252.956 566.588 252.912 567.336 252.208C569.596 251.578 571.985 251.578 574.244 252.208C589.82 259.732 614.372 293.656 621.148 301.664" stroke="black" stroke-width="3" stroke-miterlimit="10" stroke-linecap="round"/>
<path d="M497.508 240.416C498.341 240.55 499.195 240.388 499.921 239.958C500.647 239.528 501.2 238.857 501.482 238.062C501.765 237.266 501.76 236.397 501.468 235.605C501.176 234.814 500.615 234.149 499.884 233.728C494.071 232.583 488.193 231.789 482.284 231.352C481.338 231.342 480.428 230.981 479.732 230.34C478.544 228.756 480.304 226.512 482.064 226.468" stroke="black" stroke-width="3" stroke-miterlimit="10"/>
<path d="M480.436 220.748C477.48 220.805 474.667 222.033 472.613 224.16C470.56 226.288 469.433 229.143 469.48 232.1C469.876 238.568 476.652 240.548 479.16 240.9C481.668 241.252 498.784 240.02 501.16 240.9C503.536 241.78 505.252 247.104 501.16 248.512C494.025 249.208 486.852 249.429 479.688 249.172C478.061 249.299 476.429 249.004 474.95 248.314C473.471 247.624 472.195 246.563 471.248 245.234C470.3 243.906 469.712 242.354 469.541 240.731C469.37 239.108 469.622 237.468 470.272 235.972" stroke="black" stroke-width="3" stroke-miterlimit="10"/>
<path d="M500.368 248.819C501.038 249.08 501.613 249.536 502.019 250.129C502.424 250.722 502.641 251.423 502.641 252.141C502.641 252.86 502.424 253.561 502.019 254.154C501.613 254.747 501.038 255.203 500.368 255.463C493.868 256.185 487.328 256.493 480.788 256.387C475.728 256.387 469.524 253.439 471.988 244.859" stroke="black" stroke-width="3" stroke-miterlimit="10"/>
<path d="M484 257.18L484.88 265.452C484.925 266.142 485.107 266.817 485.415 267.436C485.724 268.055 486.153 268.606 486.678 269.057C487.202 269.508 487.812 269.849 488.47 270.061C489.129 270.273 489.823 270.352 490.512 270.292L509.08 269.06C510.392 268.773 511.542 267.99 512.288 266.874C513.035 265.759 513.32 264.397 513.084 263.076C512.204 251.46 510.532 225.236 509.828 219.296C509.432 216.084 510.092 211.376 502.7 211.552C496.584 211.552 491.128 211.552 484.748 211.552C484.102 211.542 483.461 211.675 482.872 211.942C482.283 212.208 481.76 212.601 481.34 213.092C480.919 213.584 480.613 214.162 480.442 214.785C480.27 215.409 480.238 216.063 480.348 216.7C480.788 221.1 481.668 227.392 482.108 231.748" stroke="black" stroke-width="3" stroke-miterlimit="10"/>
<path d="M660.748 254.364C662.068 235.664 663.356 215.36 648 207C624.416 194.196 604.648 210.276 604.648 210.276C604.648 185.68 606.056 163.328 603.856 138.776" stroke="black" stroke-width="3" stroke-linejoin="round"/>
<path d="M511.28 241.208C514.36 225.632 519.772 197.824 547.36 197.824C555.368 197.824 564.388 201.52 566.28 208.252C569.671 199.152 572.061 189.709 573.408 180.092" stroke="black" stroke-width="3" stroke-linejoin="round"/>
<path d="M527.428 322.212C537.724 289.432 538.56 245.344 538.472 242.748C538.472 242.748 520.52 316.756 504.284 314.556C488.048 312.356 492.052 275.176 492.052 269.94" stroke="black" stroke-width="3" stroke-linejoin="round"/>
<path d="M599.016 243.671L626.516 244.067C626.516 244.067 626.516 252.031 626.516 268.927" stroke="black" stroke-width="3" stroke-linejoin="round"/>
<path d="M538.471 242.748L555.587 243.012" stroke="black" stroke-width="3" stroke-linejoin="round"/>
<path d="M606.012 98.7365C602.536 96.9765 599.016 95.3485 595.364 93.8965" stroke="black" stroke-width="3" stroke-miterlimit="10"/>
<path d="M554.796 85.5796H551.232C523.81 85.5674 497.212 94.9517 475.869 112.169C454.526 129.386 439.728 153.397 433.938 180.2C428.149 207.004 431.718 234.982 444.053 259.473C456.387 283.965 476.74 303.49 501.722 314.797C526.705 326.104 554.807 328.509 581.347 321.612C607.887 314.714 631.263 298.932 647.579 276.892C663.895 254.853 672.167 227.888 671.017 200.491C669.866 173.093 659.363 146.917 641.256 126.324" stroke="black" stroke-width="3" stroke-miterlimit="10"/>
<path d="M530.421 516.56C532.797 517.308 535.129 518.144 537.461 519.024C561.573 528.22 569.977 558.888 549.649 577.192C534.249 591.052 404.449 676.588 396.265 680.768L367.929 650.408C367.929 650.408 427.725 587.224 453.201 561.748" stroke="black" stroke-width="3" stroke-miterlimit="10"/>
<path d="M540.848 242.616C540.276 241.516 536.8 205.964 555.192 199.012" stroke="black" stroke-width="3" stroke-linejoin="round"/>
<path d="M555.852 228.272C555.28 224.84 557.304 208.912 564.652 207.724" stroke="black" stroke-width="3" stroke-linejoin="round"/>
<path d="M625.373 244.2C625.945 243.144 631.5 212.5 614.5 204.5" stroke="black" stroke-width="3" stroke-linejoin="round"/>
<path d="M612.172 244.244C613.096 238.656 612.48 212.432 604.56 210.012" stroke="black" stroke-width="3" stroke-linejoin="round"/>
<path d="M337.798 676.705L404.665 753.545L410.971 748.057L344.105 671.217L337.798 676.705Z" stroke="black" stroke-width="3" stroke-linecap="round" stroke-linejoin="round"/>
</svg>
