<svg width="320" height="320" viewBox="0 0 320 320" fill="none" xmlns="http://www.w3.org/2000/svg">
<path d="M133.749 162.113C132.267 163.155 131.1 164.583 130.372 166.241C129.644 167.9 129.384 169.726 129.621 171.521V171.905C117.445 169.377 107.221 167.105 100.037 164.929C92.8526 162.753 88.6926 160.817 88.0206 158.785C82.8526 143.121 94.2446 111.441 100.213 105.553C103.685 102.145 111.701 99.4893 120.341 97.8093C120.73 96.7011 121.416 95.7213 122.325 94.9773C122.448 94.9125 122.576 94.859 122.709 94.8173C127.957 93.7527 133.365 93.7527 138.613 94.8173C138.922 94.8983 139.222 95.0109 139.509 95.1533C140.075 95.3833 140.573 95.7537 140.957 96.2296C141.34 96.7054 141.596 97.2711 141.701 97.8733C141.701 97.8733 157.671 99.6758 160.846 103.454L175.398 116.105L184.17 94.8677L190.807 97.8109C188.516 112.088 186.767 125.858 184.92 131.167C182.381 133.911 159.231 126.031 156.309 124.588L159.231 148.433H156.309C155.114 148.485 153.975 148.958 153.097 149.77C152.218 150.581 151.655 151.678 151.509 152.865L148.309 172.897C148.005 170.129 147.797 166.785 144.853 165.905C141.909 165.025 138.053 163.665 133.749 162.113Z" fill="#332E6F"/>
<path d="M131.317 171.793C106.325 166.641 89.3649 162.513 87.9729 158.321C82.8049 142.657 94.1969 110.961 100.165 105.089C103.637 101.665 111.653 99.0252 120.293 97.3292C120.682 96.221 121.368 95.2413 122.277 94.4972C123.509 93.7612 133.205 92.8972 138.565 94.2892C139.32 94.445 140.014 94.8168 140.562 95.3592C141.11 95.9017 141.546 97.0933 141.71 97.8469C155.818 97.272 163.525 106.801 175.395 116.152M175.395 116.152C175.579 116.298 175.765 116.443 175.952 116.588L175.395 116.152ZM175.395 116.152L184.344 94.4637L191.038 97.2914L185.193 130.815C185.136 131.14 184.887 131.399 184.561 131.45C177.361 132.566 166.446 128.102 156.128 124.707L155.757 122.846C157.377 132.358 158.633 140.247 159.704 147.94" stroke="black" stroke-width="1.5" stroke-linecap="round" stroke-linejoin="round"/>
<path d="M184.104 94.0771C181.384 90.1251 183.672 83.4691 184.44 80.8291C184.888 79.2291 187.208 79.3571 186.968 81.6291C186.776 83.5811 186.504 85.6451 187.304 86.4291" stroke="black" stroke-width="1.5" stroke-miterlimit="10" stroke-linecap="round"/>
<path d="M187.416 86.6851C187.409 86.6427 187.409 86.5995 187.416 86.5571V86.5571C188.968 82.1571 194.008 74.1571 196.616 75.7571C196.849 75.8804 197.027 76.0878 197.113 76.3374C197.2 76.587 197.188 76.86 197.08 77.1011C196.781 77.7576 196.351 78.3458 195.816 78.8291C194.13 80.3129 192.815 82.1704 191.976 84.2531" stroke="black" stroke-width="1.5" stroke-miterlimit="10" stroke-linecap="round"/>
<path d="M197.16 77.149C197.445 76.7755 197.813 76.4739 198.235 76.2682C198.658 76.0626 199.122 75.9588 199.592 75.965C199.908 75.9475 200.219 76.0447 200.469 76.2387C200.719 76.4328 200.891 76.7106 200.952 77.021C201.208 77.821 200.648 78.461 200.088 78.989C198.035 81.0641 196.256 83.3922 194.792 85.917" stroke="black" stroke-width="1.5" stroke-miterlimit="10" stroke-linecap="round"/>
<path d="M191.288 97.3891C193.528 97.1331 195.272 91.9331 195.864 90.2211C196.865 87.7255 198.319 85.4364 200.152 83.4691C200.824 82.6851 202.2 81.3891 202.12 80.2691C202.067 80.0559 201.971 79.8558 201.837 79.6814C201.704 79.507 201.535 79.362 201.343 79.2554C201.151 79.1488 200.939 79.083 200.72 79.0619C200.502 79.0409 200.281 79.0651 200.072 79.1331" stroke="black" stroke-width="1.5" stroke-miterlimit="10" stroke-linecap="round"/>
<path d="M190.552 89.6132C191.192 87.5012 188.616 86.6212 187.352 86.6692" stroke="black" stroke-width="1.5" stroke-miterlimit="10" stroke-linecap="round"/>
<path d="M132.467 65.7641C132.291 65.7765 132.128 65.8571 132.011 65.9887C131.894 66.1204 131.834 66.2925 131.843 66.4681C131.859 66.645 131.943 66.8086 132.077 66.9249C132.211 67.0412 132.385 67.1011 132.563 67.0921C132.738 67.0759 132.9 66.9913 133.014 66.8566C133.128 66.7219 133.184 66.5479 133.171 66.3721C133.167 66.2851 133.145 66.1999 133.107 66.1215C133.069 66.0432 133.016 65.9734 132.95 65.9165C132.884 65.8596 132.807 65.8167 132.724 65.7905C132.641 65.7643 132.553 65.7553 132.467 65.7641Z" fill="black"/>
<path d="M141.251 65.5241C141.092 65.5577 140.951 65.6478 140.853 65.7775C140.755 65.9073 140.708 66.068 140.72 66.2299C140.732 66.3919 140.802 66.5441 140.917 66.6584C141.032 66.7728 141.185 66.8416 141.347 66.8521C141.443 66.8583 141.539 66.8438 141.628 66.8098C141.718 66.7758 141.8 66.7229 141.867 66.6548C141.935 66.5867 141.987 66.5049 142.02 66.4149C142.054 66.3248 142.067 66.2287 142.06 66.133C142.053 66.0373 142.026 65.9441 141.98 65.8599C141.934 65.7756 141.871 65.7021 141.794 65.6444C141.717 65.5867 141.629 65.5461 141.535 65.5254C141.442 65.5046 141.345 65.5042 141.251 65.5241Z" fill="black"/>
<path d="M123.747 60.4201C123.939 59.0761 124.147 57.5081 124.451 55.9081C124.824 53.292 125.848 50.8112 127.427 48.6921C131.091 44.5961 135.027 46.1321 138.371 49.5721C139.33 50.5662 140.208 51.6364 140.995 52.7721C143.387 56.1976 145.228 59.9767 146.451 63.9721C147.859 69.5081 140.051 81.9881 137.795 82.8841C137.524 82.983 137.246 83.0579 136.963 83.1081C133.667 83.7321 129.475 80.7881 128.067 77.8921" stroke="black" stroke-width="1.5" stroke-miterlimit="10" stroke-linecap="round"/>
<path d="M122.611 94.9801C122.611 85.5081 122.099 76.9001 122.883 67.4601" stroke="black" stroke-width="1.5" stroke-miterlimit="10"/>
<path d="M136.883 82.6921C136.89 82.82 136.89 82.9482 136.883 83.0761C137.715 86.8041 137.939 91.4121 139.475 94.7241" stroke="black" stroke-width="1.5" stroke-miterlimit="10"/>
<path d="M125.059 62.1001C124.663 61.5153 124.202 60.9783 123.683 60.5001C119.939 57.3001 117.459 64.4201 118.995 66.4361C119.48 66.9457 120.105 67.3 120.791 67.4538C121.478 67.6076 122.195 67.5541 122.851 67.3001C123.152 67.2178 123.442 67.0996 123.715 66.9481" stroke="black" stroke-width="1.5" stroke-miterlimit="10" stroke-linecap="round"/>
<path d="M140.963 52.7401C141.859 52.6441 154.291 50.1321 152.515 46.6441C151.491 44.6601 144.899 46.7721 138.339 49.4921C132.099 52.0841 125.859 55.2201 124.419 55.8921L124.195 55.9881" stroke="black" stroke-width="1.5" stroke-miterlimit="10"/>
<path d="M133.73 62.8041C133.077 62.6029 132.385 62.5604 131.711 62.68C131.038 62.7997 130.403 63.0781 129.858 63.4921" stroke="black" stroke-width="1.5" stroke-miterlimit="10" stroke-linecap="round"/>
<path d="M123.026 63.3961C122.339 64.0128 121.454 64.3645 120.53 64.3881" stroke="black" stroke-width="1.5" stroke-miterlimit="10" stroke-linecap="round"/>
<path d="M142.419 63.0921C141.363 62.6121 138.979 62.7401 138.547 63.7801C137.859 65.4601 138.883 68.9481 139.315 70.9481C139.619 72.3081 140.099 74.9481 137.715 74.2441" stroke="black" stroke-width="1.5" stroke-miterlimit="10" stroke-linecap="round"/>
<path d="M134.435 77.6041C134.719 77.9111 135.069 78.1504 135.458 78.3044C135.847 78.4584 136.266 78.5232 136.684 78.494C137.101 78.4649 137.507 78.3425 137.871 78.1359C138.235 77.9292 138.548 77.6437 138.787 77.3001" stroke="black" stroke-width="1.5" stroke-miterlimit="10" stroke-linecap="round"/>
<path d="M210.741 258.552H211.029V258.68C212.309 258.968 220.469 263.368 227.429 264.184C230.773 264.584 233.925 266.424 233.189 270.584H196.261V258.472L210.741 258.552Z" fill="#332E6F"/>
<path d="M154.661 230.2C155.413 232.2 157.429 240.44 161.061 245.864C162.949 248.632 163.621 252.264 159.973 254.456L135.797 226.552L144.629 218.872C147.814 222.807 151.234 226.548 154.869 230.072L154.661 230.2Z" fill="black"/>
<path d="M155.829 207.144H101.317V274.136H181.797V212.392" stroke="black" stroke-width="1.5" stroke-linejoin="round"/>
<path d="M207.333 195.272C209.157 203.624 209.477 219.368 211.061 259.08" stroke="black" stroke-width="1.5" stroke-miterlimit="10"/>
<path d="M150.085 187.784L132.261 180.712C131.934 180.547 131.67 180.282 131.507 179.955C131.343 179.628 131.29 179.257 131.355 178.897C131.42 178.537 131.599 178.208 131.866 177.959C132.133 177.709 132.473 177.552 132.837 177.512L138.661 177.192" stroke="black" stroke-width="1.5" stroke-miterlimit="10"/>
<path d="M99.5087 179.88L131.109 179.944" stroke="black" stroke-width="1.5" stroke-miterlimit="10"/>
<path d="M131.221 171.88C133.845 172.52 137.077 172.264 138.501 175.736C138.981 176.872 139.733 181.304 141.909 179.528C142.821 178.776 142.485 176.552 142.309 175.496C142.006 173.668 141.383 171.908 140.469 170.296" stroke="black" stroke-width="1.5" stroke-miterlimit="10" stroke-linecap="round"/>
<path d="M145.381 178.456C145.381 178.728 147.125 179.352 147.445 178.28" stroke="black" stroke-width="1.5" stroke-miterlimit="10" stroke-linecap="round"/>
<path d="M113.397 185.08C113.653 193.848 105.861 198.168 97.9086 198.568" stroke="black" stroke-width="1.5" stroke-miterlimit="10" stroke-linecap="round"/>
<path d="M210.741 258.552H196.341C193.425 242.273 189.568 226.177 184.789 210.344" stroke="black" stroke-width="1.5" stroke-miterlimit="10"/>
<path d="M211.061 258.664C212.341 258.952 220.501 263.352 227.461 264.168C230.821 264.568 233.989 266.44 233.221 270.712L196.277 270.888" stroke="black" stroke-width="1.5" stroke-linecap="round" stroke-linejoin="round"/>
<path d="M196.245 273.896H233.285V270.856H196.245V273.896Z" stroke="black" stroke-width="1.5" stroke-linecap="round" stroke-linejoin="round"/>
<path d="M196.261 258.52V270.6" stroke="black" stroke-width="1.5" stroke-miterlimit="10"/>
<path d="M155.141 230.472C155.813 232.536 157.573 240.648 161.157 245.88C162.885 248.424 163.605 251.656 160.869 253.88C160.649 254.06 160.369 254.149 160.086 254.128C159.803 254.108 159.539 253.979 159.349 253.768L136.325 227.544C136.139 227.329 136.044 227.049 136.062 226.765C136.08 226.48 136.209 226.215 136.421 226.024L144.309 219.272" fill="#332E6F"/>
<path d="M155.141 230.472C155.813 232.536 157.573 240.648 161.157 245.88C162.885 248.424 163.605 251.656 160.869 253.88C160.649 254.06 160.369 254.149 160.086 254.128C159.803 254.108 159.539 253.979 159.349 253.768L136.325 227.544C136.139 227.329 136.044 227.049 136.062 226.765C136.08 226.48 136.209 226.215 136.421 226.024L144.309 219.272" stroke="#332E6F" stroke-width="1.5" stroke-miterlimit="10"/>
<path d="M131.109 180.408H99.269H99.173C98.8714 175.308 99.1235 170.19 99.925 165.144C107.173 167.32 117.333 169.592 129.509 172.12L131.205 172.472C133.829 173.128 137.061 172.856 138.485 176.328C138.613 176.632 138.757 177.16 138.933 177.736H138.613L132.805 178.008C132.526 178.017 132.253 178.095 132.011 178.235C131.769 178.374 131.565 178.572 131.418 178.809C131.271 179.047 131.185 179.317 131.167 179.596C131.149 179.875 131.201 180.154 131.317 180.408H131.109Z" fill="#332E6F"/>
<path d="M99.9249 164.632C96.4849 188.312 103.237 199.656 116.805 205.432C119.256 206.346 121.817 206.932 124.421 207.176L155.845 207.048" stroke="black" stroke-width="1.5" stroke-miterlimit="10"/>
<path d="M206.949 152.744L201.925 180.952C201.753 182.076 201.209 183.11 200.379 183.888C199.549 184.666 198.482 185.142 197.349 185.24L152.133 188.088C151.355 188.1 150.585 187.938 149.877 187.614C149.17 187.291 148.544 186.813 148.044 186.217C147.544 185.621 147.184 184.921 146.989 184.168C146.794 183.415 146.769 182.628 146.917 181.864L151.461 152.472C151.608 151.286 152.171 150.192 153.05 149.383C153.929 148.574 155.067 148.104 156.261 148.056L201.925 146.456C202.692 146.473 203.446 146.659 204.134 147C204.822 147.34 205.426 147.827 205.905 148.427C206.384 149.026 206.726 149.724 206.906 150.47C207.087 151.215 207.101 151.992 206.949 152.744Z" stroke="black" stroke-width="1.5" stroke-miterlimit="10"/>
<path d="M144.245 169.08C145.413 171.192 147.349 180.664 142.485 179.32" stroke="black" stroke-width="1.5" stroke-miterlimit="10" stroke-linecap="round"/>
<path d="M129.173 171.512C129.173 166.424 131.173 163.368 134.117 161.688" stroke="white" stroke-width="1.5" stroke-miterlimit="10"/>
<path d="M110.613 122.84C107.205 133.592 102.949 147.176 103.813 148.856C104.677 150.536 121.253 156.856 134.213 161.512" stroke="white" stroke-width="1.5" stroke-miterlimit="10" stroke-linecap="round"/>
<path d="M129.317 170.968C116.309 169.16 105.989 167.096 98.1007 165.256" stroke="white" stroke-width="1.5" stroke-miterlimit="10" stroke-linecap="square"/>
<path d="M203.541 170.312C204.405 170.584 205.253 170.888 206.101 171.208C214.869 174.552 217.925 185.704 210.533 192.36C204.933 197.4 157.733 228.504 154.757 230.024L144.453 218.984C144.453 218.984 166.197 196.008 175.461 186.744" stroke="black" stroke-width="1.5" stroke-miterlimit="10"/>
<path d="M133.497 228.547L157.812 256.489L160.105 254.493L135.79 226.551L133.497 228.547Z" stroke="black" stroke-width="1.5" stroke-linecap="round" stroke-linejoin="round"/>
</svg>
