<svg width="880" height="880" viewBox="0 0 880 880" fill="none" xmlns="http://www.w3.org/2000/svg">
<path d="M427.66 793.865V793.601H498.896C500.964 781.897 492.252 776.749 483.056 775.693C463.916 773.449 440.948 761.261 437.384 760.513H398.136C398.136 767.289 398.136 771.425 398.136 772.261V772.789C402.62 774.16 407.212 775.146 411.864 775.737C421.06 776.925 429.816 782.073 427.66 793.865Z" fill="#332E6F"/>
<path d="M427.66 793.601V793.865C429.816 782.073 421.06 776.925 411.864 775.869C407.212 775.278 402.62 774.292 398.136 772.921C383.044 768.521 368.92 761.261 366.192 760.689H325.932C325.932 778.685 326.152 790.609 325.932 793.689L427.66 793.601Z" fill="#332E6F"/>
<path d="M408.651 132.765C408.169 132.799 407.719 133.02 407.398 133.382C407.077 133.744 406.911 134.218 406.935 134.701C406.98 135.187 407.211 135.637 407.58 135.957C407.949 136.277 408.428 136.441 408.915 136.417C409.398 136.372 409.844 136.139 410.156 135.769C410.469 135.398 410.624 134.92 410.587 134.437C410.576 134.197 410.517 133.963 410.413 133.747C410.308 133.532 410.161 133.34 409.979 133.184C409.798 133.027 409.587 132.909 409.359 132.837C409.13 132.765 408.889 132.74 408.651 132.765Z" fill="black"/>
<path d="M432.807 132.105C432.371 132.197 431.982 132.445 431.714 132.802C431.445 133.158 431.315 133.6 431.347 134.046C431.38 134.491 431.572 134.91 431.889 135.224C432.206 135.539 432.626 135.728 433.071 135.757C433.335 135.774 433.599 135.734 433.846 135.64C434.092 135.547 434.316 135.401 434.502 135.214C434.688 135.027 434.832 134.802 434.924 134.554C435.015 134.307 435.053 134.042 435.034 133.779C435.015 133.516 434.94 133.26 434.813 133.028C434.687 132.796 434.512 132.594 434.301 132.436C434.09 132.277 433.848 132.165 433.59 132.108C433.333 132.051 433.066 132.05 432.807 132.105Z" fill="black"/>
<path d="M384.671 118.069C385.199 114.373 385.771 110.061 386.607 105.661C387.636 98.4664 390.449 91.6441 394.791 85.8166C404.867 74.5526 415.691 78.7766 424.887 88.2366C427.526 90.9704 429.939 93.9134 432.103 97.0366C438.683 106.457 443.745 116.849 447.107 127.837C450.979 143.061 429.507 177.381 423.303 179.845C422.56 180.117 421.795 180.323 421.015 180.461C411.951 182.177 400.423 174.081 396.551 166.117" stroke="black" stroke-width="3" stroke-miterlimit="10" stroke-linecap="round"/>
<path d="M381.548 213.109C381.548 187.061 380.14 163.389 382.296 137.429" stroke="black" stroke-width="3" stroke-miterlimit="10"/>
<path d="M420.796 179.317C420.817 179.668 420.817 180.021 420.796 180.373C423.084 190.625 423.7 203.297 427.924 212.405" stroke="black" stroke-width="3" stroke-miterlimit="10"/>
<path d="M388.28 122.689C387.193 121.08 385.923 119.604 384.496 118.289C374.2 109.489 367.38 129.069 371.604 134.613C372.937 136.014 374.657 136.988 376.545 137.411C378.432 137.834 380.403 137.687 382.208 136.989C383.036 136.762 383.833 136.437 384.584 136.021" stroke="black" stroke-width="3" stroke-miterlimit="10" stroke-linecap="round"/>
<path d="M432.015 96.9486C434.479 96.6846 468.667 89.7766 463.783 80.1846C460.967 74.7286 442.839 80.5366 424.799 88.0166C407.639 95.1446 390.479 103.769 386.519 105.617L385.903 105.881" stroke="black" stroke-width="3" stroke-miterlimit="10"/>
<path d="M412.127 124.625C410.33 124.071 408.426 123.954 406.575 124.283C404.723 124.612 402.976 125.378 401.479 126.517" stroke="black" stroke-width="3" stroke-miterlimit="10" stroke-linecap="round"/>
<path d="M382.691 126.253C380.8 127.948 378.367 128.916 375.827 128.981" stroke="black" stroke-width="3" stroke-miterlimit="10" stroke-linecap="round"/>
<path d="M436.019 125.417C433.115 124.097 426.559 124.449 425.371 127.309C423.479 131.929 426.295 141.521 427.483 147.021C428.319 150.761 429.639 158.021 423.083 156.085" stroke="black" stroke-width="3" stroke-miterlimit="10" stroke-linecap="round"/>
<path d="M414.063 165.325C414.846 166.169 415.807 166.827 416.877 167.25C417.948 167.674 419.099 167.852 420.247 167.772C421.396 167.692 422.511 167.355 423.512 166.787C424.513 166.219 425.374 165.433 426.031 164.489" stroke="black" stroke-width="3" stroke-miterlimit="10" stroke-linecap="round"/>
<path d="M397.08 654.033C397.476 700.937 398.048 741.417 398.224 760.645C398.224 767.421 398.224 771.557 398.224 772.393" stroke="black" stroke-width="3" stroke-miterlimit="10"/>
<path d="M353.3 467.605C353.828 486.437 340.936 497.789 324.832 502.409C320.213 503.722 315.46 504.505 310.664 504.741" stroke="black" stroke-width="3" stroke-miterlimit="10" stroke-linecap="round"/>
<path d="M326.108 793.601C326.108 790.521 326.108 778.597 326.108 760.601C325.624 705.821 324.524 594.369 325.008 502.409C325.008 486.041 325.228 470.289 325.448 455.593" stroke="black" stroke-width="3" stroke-linecap="round" stroke-linejoin="round"/>
<path d="M427.66 793.865L326.108 794.305C326.108 794.305 326.108 793.997 326.108 793.689" stroke="black" stroke-width="3" stroke-linecap="round" stroke-linejoin="round"/>
<path d="M421.588 489.825C419.17 545.266 410.881 600.295 396.86 653.989C387.576 691.389 376.796 727.161 366.412 760.161V760.601C369.14 761.173 383.264 768.477 398.356 772.833C402.84 774.204 407.432 775.19 412.084 775.781C421.28 776.837 430.036 781.985 427.88 793.777" stroke="black" stroke-width="3" stroke-linecap="round" stroke-linejoin="round"/>
<path d="M492.208 454.097C489.48 575.493 462.904 679.817 437.472 760.601C441.036 761.349 463.872 773.537 483.144 775.781C492.34 776.837 501.052 781.985 498.984 793.689H426.692" stroke="black" stroke-width="3" stroke-linecap="round" stroke-linejoin="round"/>
<path d="M439.1 760.645H437.472H398.884" stroke="black" stroke-width="3" stroke-miterlimit="10"/>
<path d="M366.236 760.645H366.192H326.02" stroke="black" stroke-width="3" stroke-miterlimit="10"/>
<path d="M326.108 794.305V801.961H427.66V793.865V793.645H326.108V793.689V794.305Z" stroke="black" stroke-width="3" stroke-linecap="round" stroke-linejoin="round"/>
<path d="M427.792 793.865V801.961H498.896V793.777V793.645H427.792V793.865Z" stroke="black" stroke-width="3" stroke-linecap="round" stroke-linejoin="round"/>
<path d="M367.776 760.645C373.892 763.021 394.176 773.317 411.776 775.385C421.016 776.441 427.748 779.785 427.572 794.613" stroke="white" stroke-width="3" stroke-linejoin="round"/>
<path fill-rule="evenodd" clip-rule="evenodd" d="M338.815 348.937V349.333C332.347 394.477 324.779 444.373 324.251 454.097L496.995 453.789C496.423 422.725 483.795 335.737 476.535 290.989L470.991 224.109C457.791 216.981 436.231 217.861 436.231 217.861C435.955 215.835 435.184 213.908 433.987 212.25C432.79 210.593 431.203 209.256 429.367 208.357L428.091 207.873C413.351 203.825 386.335 206.729 382.947 208.797C380.109 210.992 378.119 214.101 377.315 217.597C377.315 217.597 341.367 222.877 330.807 231.545C330.807 231.545 298.775 275.325 282.759 309.689C276.863 322.317 279.107 330.061 289.843 336.089C296.003 340.225 317.123 345.153 338.727 348.937H338.815ZM328.255 312.461C331.599 313.429 336.791 314.661 343.215 316.113L343.259 316.025C345.767 297.281 346.955 289.097 346.955 289.097C345.248 291.258 343.731 293.234 342.219 295.203C338.466 300.09 334.746 304.934 328.255 312.461ZM408.291 322.801C402.527 323.285 397.643 329.225 398.435 331.337H398.347C402.527 336.837 399.711 349.509 395.795 353.425L396.543 354.041C401.771 356.132 407.195 357.694 412.735 358.705V359.409L413.967 370.585C418.011 371.61 422.159 372.171 426.331 372.257C430.159 372.221 433.964 371.659 437.639 370.585L438.959 358.749V357.693C444.327 355.845 447.319 353.205 447.319 351.093C447.299 350.526 447.148 349.971 446.877 349.472C446.606 348.974 446.223 348.545 445.757 348.22C445.292 347.896 444.757 347.684 444.196 347.602C443.634 347.521 443.061 347.571 442.523 347.749C443.759 347.171 444.843 346.313 445.691 345.244C446.538 344.175 447.126 342.924 447.407 341.589C447.382 340.991 447.227 340.406 446.952 339.875C446.677 339.343 446.288 338.879 445.814 338.514C445.34 338.149 444.792 337.892 444.208 337.762C443.624 337.632 443.019 337.631 442.435 337.761C443.767 337.077 444.917 336.086 445.789 334.869C446.661 333.653 447.231 332.246 447.451 330.765C447.509 330.132 447.43 329.493 447.218 328.894C447.006 328.294 446.667 327.748 446.224 327.292C445.78 326.836 445.244 326.482 444.65 326.253C444.057 326.025 443.421 325.928 442.787 325.969C442.806 325.852 442.806 325.733 442.787 325.617L445.163 304.717C445.328 304.502 445.42 304.24 445.427 303.969C445.427 301.505 436.671 299.569 426.067 299.569C415.463 299.569 406.663 301.637 406.663 303.969L408.863 322.801H408.291Z" fill="#332E6F"/>
<path d="M531.183 269.605L529.819 268.373C511.785 251.633 492.071 236.8 470.991 224.109C457.791 216.981 436.231 217.861 436.231 217.861C435.955 215.835 435.184 213.908 433.987 212.25C432.79 210.593 431.203 209.256 429.367 208.357L428.091 207.873C413.351 203.825 386.335 206.729 382.947 208.797C380.11 210.992 378.12 214.101 377.315 217.597C377.315 217.597 341.367 222.877 330.807 231.545C330.807 231.545 298.775 275.325 282.759 309.689C276.863 322.317 279.107 330.061 289.843 336.089C296.311 339.785 317.211 344.889 338.815 348.497C364.291 352.897 390.691 355.977 395.091 353.645C395.483 353.439 395.84 353.171 396.147 352.853C399.799 349.069 402.615 336.441 398.435 330.853C397.594 329.752 396.422 328.949 395.091 328.565C376.655 323.241 357.163 318.841 343.303 315.629C336.879 314.177 331.687 312.945 328.343 311.977C337.451 301.417 341.103 296.137 347.043 288.613C347.043 288.613 345.855 296.797 343.347 315.541" stroke="black" stroke-width="3" stroke-linecap="round" stroke-linejoin="round"/>
<path d="M409.347 327.333C411.987 334.153 425.143 332.965 430.907 332.041C432.931 331.733 441.203 329.357 442.655 325.661C442.675 325.544 442.675 325.425 442.655 325.309" stroke="black" stroke-width="3" stroke-miterlimit="10"/>
<path d="M442.611 325.704C443.246 325.664 443.881 325.761 444.475 325.989C445.068 326.218 445.605 326.572 446.048 327.028C446.491 327.484 446.831 328.03 447.042 328.63C447.254 329.229 447.334 329.867 447.275 330.5C447.055 331.981 446.486 333.388 445.613 334.605C444.741 335.822 443.591 336.813 442.259 337.496C435.95 341.166 428.544 342.475 421.359 341.192" stroke="black" stroke-width="3" stroke-miterlimit="10" stroke-linecap="round"/>
<path d="M442.347 337.541C442.931 337.411 443.537 337.412 444.121 337.542C444.705 337.672 445.253 337.929 445.727 338.294C446.201 338.659 446.589 339.123 446.864 339.654C447.139 340.186 447.295 340.771 447.319 341.369C447.038 342.704 446.451 343.955 445.603 345.024C444.756 346.093 443.671 346.951 442.435 347.529C436.11 350.783 428.913 351.939 421.887 350.829" stroke="black" stroke-width="3" stroke-miterlimit="10" stroke-linecap="round"/>
<path d="M398.435 331.248C397.643 329.136 402.527 323.196 408.291 322.712" stroke="black" stroke-width="3" stroke-miterlimit="10" stroke-linecap="round"/>
<path d="M445.251 303.704L445.163 304.452L442.787 325.352L442.743 325.616" stroke="black" stroke-width="3" stroke-linecap="round" stroke-linejoin="round"/>
<path d="M406.619 303.704L406.663 303.836L408.863 322.668L409.391 327.376" stroke="black" stroke-width="3" stroke-linecap="round" stroke-linejoin="round"/>
<path d="M445.163 304.452C445.328 304.237 445.42 303.975 445.427 303.704C445.427 301.372 436.627 299.304 426.067 299.304C415.507 299.304 406.663 301.24 406.663 303.704C406.927 305.992 415.463 307.84 426.023 307.84C435.659 307.972 443.623 306.432 445.163 304.452Z" stroke="black" stroke-width="3" stroke-linecap="round" stroke-linejoin="round"/>
<path d="M420.919 293.585C419.801 292.424 418.941 291.04 418.395 289.523C417.849 288.007 417.63 286.392 417.751 284.785C418.82 282.283 420.085 279.87 421.535 277.569C424.307 271.233 421.535 266.613 417.135 262.257" stroke="white" stroke-width="3" stroke-miterlimit="10" stroke-linecap="round"/>
<path d="M432.051 293.585C430.933 292.424 430.073 291.04 429.527 289.523C428.981 288.007 428.761 286.392 428.883 284.785C429.969 282.291 431.234 279.88 432.667 277.569C435.483 271.233 432.667 266.613 428.267 262.257" stroke="white" stroke-width="3" stroke-miterlimit="10" stroke-linecap="round"/>
<path d="M400.987 329.84C384.531 321.04 356.987 316.156 342.819 312.768" stroke="white" stroke-width="3" stroke-linecap="square" stroke-linejoin="round"/>
<path d="M470.946 225.324C457.922 218.196 436.23 219.076 436.23 219.076L477.59 299.068C484.41 301.4 551.29 319.264 559.21 311.344C569.55 301.092 551.994 236.632 544.074 209.572V208.956H543.282C535.836 207.955 528.258 208.894 521.282 211.684C523.136 229.071 523.783 246.567 523.218 264.044C507.064 249.506 489.561 236.54 470.946 225.324Z" fill="#332E6F"/>
<path d="M523.084 262.375C523.67 244.75 523.142 227.561 521.238 210.03" stroke="black" stroke-width="3" stroke-linecap="round" stroke-linejoin="round"/>
<path d="M544.426 207.83C533.558 204.794 519.346 211.042 519.346 211.042" stroke="black" stroke-width="3" stroke-miterlimit="10"/>
<path d="M477.238 297.722C481.066 299.306 551.07 318.226 559.21 310.13C569.55 299.878 551.994 235.33 544.074 208.358" stroke="black" stroke-width="3" stroke-miterlimit="10"/>
<path d="M436.26 217.839C453.349 218.552 462.41 219.788 470.96 224.102C481.907 229.625 512.541 252.09 531.24 270" stroke="black" stroke-width="3" stroke-linecap="round"/>
<path d="M557.146 188.954C555.88 188.213 554.464 187.765 553.002 187.643C551.54 187.521 550.069 187.728 548.698 188.25C545.574 189.57 543.11 184.51 546.058 181.65C546.651 181.101 547.3 180.614 547.994 180.198V179.802C540.998 178.13 544.034 173.862 546.278 172.19C547.028 171.653 547.823 171.182 548.654 170.782C541.878 169.946 544.254 163.874 546.718 162.29C549.024 160.806 551.593 159.776 554.286 159.254L552.482 141.082C552.437 140.053 552.189 139.043 551.753 138.11C551.317 137.177 550.701 136.34 549.941 135.645C549.181 134.95 548.291 134.412 547.323 134.061C546.355 133.711 545.327 133.555 544.298 133.602L524.586 135.582C522.55 135.887 520.716 136.982 519.481 138.628C518.246 140.275 517.709 142.342 517.986 144.382L520.494 168.494V168.802C525.906 166.206 532.55 165.238 533.694 169.066C535.542 174.126 521.418 182.266 521.418 182.266L522.474 192.386C522.525 193.415 522.778 194.424 523.219 195.355C523.66 196.286 524.281 197.121 525.045 197.811C525.809 198.502 526.702 199.035 527.673 199.38C528.644 199.725 529.673 199.875 530.702 199.822L550.37 197.886C554.638 197.49 560.094 192.386 557.146 188.954ZM539.194 193.002C538.515 193.002 537.852 192.801 537.287 192.424C536.723 192.047 536.283 191.511 536.023 190.883C535.763 190.256 535.695 189.566 535.828 188.901C535.96 188.235 536.287 187.623 536.767 187.143C537.247 186.663 537.859 186.336 538.524 186.204C539.19 186.072 539.88 186.14 540.507 186.399C541.134 186.659 541.67 187.099 542.047 187.663C542.425 188.228 542.626 188.891 542.626 189.57C542.626 190.48 542.264 191.353 541.621 191.997C540.977 192.641 540.104 193.002 539.194 193.002Z" fill="#A954FF"/>
<path d="M520.406 168.538L518.074 144.426C517.797 142.386 518.334 140.319 519.569 138.672C520.804 137.026 522.638 135.931 524.674 135.626L544.386 133.646C546.461 133.562 548.485 134.301 550.017 135.702C551.55 137.103 552.467 139.052 552.57 141.126L554.418 159.694" stroke="black" stroke-width="3" stroke-miterlimit="10"/>
<path d="M566.694 183.146C576.066 170.386 556.266 164.842 546.234 172.19C543.99 173.862 540.954 178.13 547.95 179.802" stroke="black" stroke-width="3" stroke-miterlimit="10"/>
<path d="M566.474 171.398C574.526 158.198 556.178 155.822 546.542 162.246C544.166 163.83 541.702 169.902 548.478 170.738" stroke="black" stroke-width="3" stroke-miterlimit="10"/>
<path d="M542.934 207.478C542.934 207.478 560.534 209.106 566.694 197.314C568.156 194.841 568.698 191.93 568.223 189.096C567.748 186.263 566.287 183.688 564.098 181.826C561.57 179.706 558.377 178.544 555.078 178.544C551.779 178.544 548.586 179.706 546.058 181.826C543.11 184.686 545.574 189.746 548.698 188.426C550.069 187.905 551.54 187.697 553.002 187.819C554.464 187.941 555.88 188.389 557.146 189.13C560.094 192.606 554.638 197.666 550.546 197.93L530.878 199.866C529.831 199.944 528.78 199.81 527.786 199.473C526.792 199.137 525.876 198.604 525.092 197.906C524.308 197.208 523.672 196.36 523.223 195.412C522.773 194.464 522.518 193.435 522.474 192.386L521.506 182.222C521.506 182.222 535.63 174.17 533.782 169.022C531.934 163.874 519.702 167.658 514.95 172.366C508.13 179.098 506.15 204.442 521.33 210.03" stroke="black" stroke-width="3" stroke-linejoin="round"/>
<path d="M443.223 347.363C443.762 347.184 444.335 347.134 444.896 347.216C445.458 347.298 445.992 347.51 446.458 347.834C446.923 348.159 447.307 348.587 447.578 349.086C447.849 349.585 448 350.139 448.019 350.707C448.019 352.819 445.027 355.459 439.659 357.307C431.225 359.801 422.301 360.149 413.699 358.319C408.159 357.308 402.735 355.746 397.507 353.655" stroke="black" stroke-width="3" stroke-miterlimit="10" stroke-linecap="round"/>
<path d="M413.41 358.436L414.642 369.612C418.686 370.637 422.834 371.198 427.006 371.284C430.834 371.249 434.639 370.686 438.314 369.612L439.634 357.776" stroke="black" stroke-width="3" stroke-linecap="round" stroke-linejoin="round"/>
<path d="M335.603 350.78L339.035 351.396C364.995 355.796 393.771 355.796 400.635 352.408" stroke="white" stroke-width="3" stroke-linecap="round" stroke-linejoin="round"/>
<path d="M338.639 349.333C332.171 394.477 324.603 444.373 324.075 454.097L496.819 453.789C496.247 422.725 483.619 335.737 476.359 290.989C476.359 289.713 475.963 288.525 475.787 287.337" stroke="black" stroke-width="3" stroke-linecap="round" stroke-linejoin="round"/>
<path d="M485.598 124.781L500.396 136.32" stroke="black" stroke-width="3" stroke-linecap="round"/>
<path d="M529.636 103.476L533.968 118.162" stroke="black" stroke-width="3" stroke-linecap="round"/>
<path d="M574.435 110.449L566.3 121.649" stroke="black" stroke-width="3" stroke-linecap="round"/>
<path d="M600.428 147.853L581.937 154.298" stroke="black" stroke-width="3" stroke-linecap="round"/>
</svg>
