<svg width="880" height="880" viewBox="0 0 880 880" fill="none" xmlns="http://www.w3.org/2000/svg">
<path d="M764.076 625.08V638.567H750.569H692.116H678.61V625.08V496.151H574.126C549.812 496.151 633.818 454.434 613.593 442.352C593.329 430.459 470.675 450.246 458.684 430.355C446.157 410.178 439.925 387.766 439.925 363.445C439.925 339.527 445.951 317.495 458.102 297.679C469.718 278.153 485.414 262.687 505.05 251.473C524.551 239.763 546.241 233.976 569.796 233.976H750.569H764.076V247.462V625.08Z" fill="#0D1117" stroke="#0D1117" stroke-width="20.2985"/>
<path d="M747.991 625.566V628.103H744.595V638.566H741.472V628.103H738.076V625.566H747.991ZM764.076 625.566V638.566H760.953V630.77L758.086 638.566H755.566L752.681 630.752V638.566H749.558V625.566H753.247L756.844 634.566L760.405 625.566H764.076Z" fill="white"/>
<path d="M115.774 625.082V638.568H129.281H187.734H201.24V625.082V496.152H305.724C330.038 496.152 246.032 454.435 266.258 442.353C286.521 430.461 409.175 450.247 421.166 430.356C433.693 410.179 439.925 387.768 439.925 363.446C439.925 339.528 433.899 317.496 421.748 297.68C410.132 278.155 394.436 262.689 374.8 251.474C355.299 239.764 333.609 233.977 310.054 233.977H129.281H115.774V247.463V625.082Z" fill="#0D1117" stroke="#0D1117" stroke-width="20.2985"/>
<path d="M277.113 549.216C299.052 532.522 278.089 475.474 223.619 452.914C236.476 449.625 249.308 448.967 261.462 450.514C274.573 452.184 286.895 456.419 297.612 462.685C316.684 473.837 330.67 491.422 334.959 512.426C341.493 544.427 310.745 582.648 254.811 549.781C262.954 553.884 270.727 554.075 277.113 549.216Z" fill="#DA121A"/>
<path d="M239.555 307.876C265.105 290.184 323.692 310.229 342.393 389.502C377.89 392.186 417.526 359.712 433.277 347.096C396.491 263.876 249.444 250.555 239.555 307.876Z" fill="#315CF3"/>
<path d="M342.393 389.502C323.692 310.229 265.105 290.184 239.555 307.876C202.86 333.283 188.596 379.262 200.801 453.722C206.208 486.704 220.579 516.449 236.415 534.565C242.473 541.496 248.744 546.724 254.811 549.781C262.954 553.884 270.727 554.075 277.113 549.216C299.052 532.522 278.089 475.474 223.619 452.914C236.476 449.625 249.308 448.967 261.462 450.514C241.191 427.506 231.616 400.362 238.213 391.255C244.245 382.93 280.546 383.479 289.586 391.255C290.947 392.427 292.205 393.569 293.372 394.683C305.636 373.499 315.758 375.186 342.393 389.502Z" fill="white"/>
<path d="M536.925 390.243C549.597 319.362 598.886 294.331 636.835 304.708C610.93 249.311 498.249 265.273 446.756 347.096C461.168 359.186 495.694 390.243 536.925 390.243Z" fill="#315CF3"/>
<path d="M636.835 304.708C598.886 294.331 549.597 319.362 536.925 390.243C568.15 372.738 577.696 375.189 583.635 396.718C596.163 379.881 629.808 381.676 638.527 392.158C649.34 405.155 629.694 437.99 619.287 448.633C629.887 448.046 641.784 449.338 655.093 453.135C595.173 476.411 585.322 537.491 602.652 548.301C606.775 550.873 613.166 551.734 620.618 549.566C640.692 543.723 668.468 515.891 680.344 440.252C692.22 364.614 668.67 317.897 636.835 304.708Z" fill="white"/>
<path d="M602.652 548.301C585.322 537.491 595.173 476.411 655.093 453.135C641.784 449.338 629.887 448.046 619.287 448.633C605.45 449.399 593.822 453.367 584.142 459.145C583.184 459.717 582.245 460.306 581.326 460.912C554.353 478.673 543.556 510.504 542.572 522.407C540.733 544.635 556.586 581.878 620.618 549.566C613.166 551.734 606.775 550.873 602.652 548.301Z" fill="#DA121A"/>
<path d="M440.062 342.206C439.365 342.26 436.982 344.129 433.277 347.096C417.526 359.712 377.89 392.186 342.393 389.502C315.758 375.186 305.636 373.499 293.372 394.683C292.205 393.569 290.947 392.427 289.586 391.255C280.546 383.479 244.245 382.93 238.213 391.255C231.616 400.362 241.191 427.506 261.462 450.514C274.573 452.184 286.895 456.419 297.612 462.685C304.561 458.276 329.186 456.379 342.206 466.601C355.872 477.33 350.707 493.245 355.872 507.985C360.685 521.72 364.921 531.895 370.114 541.199L373.063 606.859L404.405 632.597C401.438 660.635 478.252 662.944 474.956 632.597C474.956 632.597 493.127 624.024 505.616 613.457L508.583 561.991L509.814 541.199C516.392 530.611 521.831 519.07 524.407 507.555C528.107 491.017 523.338 480.198 534.297 467.965C542.869 458.398 560.941 458.828 581.326 460.912C582.245 460.306 583.184 459.717 584.142 459.145C593.822 453.367 605.45 449.399 619.287 448.633C629.694 437.99 649.34 405.155 638.527 392.158C629.808 381.676 596.163 379.881 583.635 396.718C577.696 375.189 568.15 372.738 536.925 390.243C495.694 390.243 461.168 359.186 446.756 347.096C443.113 344.039 440.802 342.148 440.062 342.206Z" fill="white"/>
<path d="M440.062 342.206L439.889 339.979L440.062 342.206ZM342.393 389.502L341.336 391.469C341.611 391.617 341.914 391.706 342.225 391.729L342.393 389.502ZM536.925 390.243V392.476C537.307 392.476 537.683 392.377 538.017 392.19L536.925 390.243ZM239.555 307.876L240.826 309.711L240.826 309.711L239.555 307.876ZM200.801 453.722L198.598 454.083L200.801 453.722ZM277.113 549.216L275.761 547.439L275.761 547.439L277.113 549.216ZM223.619 452.914L223.066 450.751C222.134 450.989 221.46 451.797 221.392 452.755C221.323 453.714 221.876 454.609 222.765 454.977L223.619 452.914ZM334.959 512.426L337.147 511.98L334.959 512.426ZM254.811 549.781L255.815 547.787L255.815 547.787L254.811 549.781ZM236.415 534.565L238.096 533.096L236.415 534.565ZM433.277 347.096L434.673 348.839L434.673 348.839L433.277 347.096ZM238.213 391.255L236.405 389.945L236.405 389.945L238.213 391.255ZM289.586 391.255L288.129 392.948L289.586 391.255ZM329.671 435.972C330.802 436.463 332.117 435.943 332.608 434.812C333.098 433.68 332.579 432.366 331.448 431.875L329.671 435.972ZM293.372 394.683L291.83 396.298L291.83 396.298L293.372 394.683ZM297.612 462.685L296.485 464.613L296.485 464.613L297.612 462.685ZM342.206 466.601L343.585 464.845L343.585 464.845L342.206 466.601ZM355.872 507.985L357.98 507.247L357.98 507.247L355.872 507.985ZM387.294 569.318C388.084 570.265 389.493 570.392 390.439 569.601C391.386 568.811 391.513 567.403 390.723 566.456L387.294 569.318ZM373.063 606.859L370.832 606.959C370.861 607.592 371.156 608.183 371.646 608.585L373.063 606.859ZM435.394 634.83C436.628 634.83 437.627 633.83 437.627 632.597C437.627 631.364 436.628 630.364 435.394 630.364V634.83ZM443.966 630.364C442.733 630.364 441.733 631.364 441.733 632.597C441.733 633.83 442.733 634.83 443.966 634.83V630.364ZM505.616 613.457L507.058 615.162C507.525 614.767 507.81 614.197 507.845 613.586L505.616 613.457ZM508.583 561.991L506.354 561.859L506.353 561.862L508.583 561.991ZM488.291 567.969C487.584 568.979 487.83 570.372 488.841 571.079C489.851 571.785 491.244 571.539 491.95 570.529L488.291 567.969ZM524.407 507.555L522.228 507.067L522.228 507.067L524.407 507.555ZM534.297 467.965L532.634 466.475L534.297 467.965ZM581.326 460.912L582.554 462.777L582.554 462.777L581.326 460.912ZM509.814 541.199L507.917 540.021L507.917 540.021L509.814 541.199ZM602.652 548.301L601.471 550.196L601.471 550.196L602.652 548.301ZM655.093 453.135L655.902 455.217C656.796 454.87 657.368 453.99 657.324 453.032C657.28 452.074 656.628 451.251 655.706 450.988L655.093 453.135ZM542.572 522.407L544.797 522.591L544.797 522.591L542.572 522.407ZM415.063 575.182C415.063 573.949 414.063 572.949 412.83 572.949C411.596 572.949 410.597 573.949 410.597 575.182H415.063ZM437.559 632.597C437.559 633.83 438.559 634.83 439.792 634.83C441.025 634.83 442.025 633.83 442.025 632.597H437.559ZM468.85 574.992C468.745 573.763 467.663 572.852 466.434 572.958C465.206 573.063 464.295 574.144 464.4 575.373L468.85 574.992ZM446.756 347.096L445.321 348.807L446.756 347.096ZM619.287 448.633L619.41 450.862L619.41 450.862L619.287 448.633ZM638.527 392.158L636.81 393.586L638.527 392.158ZM547.233 433.497C546.058 433.87 545.407 435.125 545.779 436.3C546.152 437.476 547.407 438.127 548.582 437.754L547.233 433.497ZM439.792 594.652L437.661 595.32C437.955 596.259 438.83 596.895 439.814 596.885C440.798 596.876 441.66 596.223 441.936 595.278L439.792 594.652ZM423.266 577.729C422.039 577.599 420.94 578.488 420.81 579.715C420.68 580.941 421.569 582.04 422.795 582.17L423.266 577.729ZM456.428 581.977C457.655 581.851 458.547 580.754 458.42 579.527C458.294 578.3 457.197 577.408 455.97 577.535L456.428 581.977ZM584.142 459.145L582.997 457.228L582.997 457.228L584.142 459.145ZM344.567 388.99C335.106 348.884 315.488 323.51 294.733 310.438C274.083 297.432 252.037 296.516 238.283 306.04L240.826 309.711C252.623 301.543 272.645 301.804 292.353 314.216C311.954 326.562 330.98 350.847 340.22 390.015L344.567 388.99ZM238.283 306.04C200.539 332.174 186.335 379.276 198.598 454.083L203.005 453.361C190.856 379.247 205.181 334.392 240.826 309.711L238.283 306.04ZM278.465 550.993C284.63 546.302 287.617 538.884 287.901 530.373C288.185 521.874 285.796 512.111 281.028 502.29C271.485 482.635 252.219 462.342 224.474 450.851L222.765 454.977C249.489 466.046 267.939 485.557 277.01 504.24C281.549 513.588 283.692 522.627 283.438 530.224C283.185 537.809 280.565 543.783 275.761 547.439L278.465 550.993ZM332.771 512.873C335.878 528.088 330.094 544.696 317.053 553.584C304.133 562.389 283.436 564.011 255.942 547.855L253.679 551.706C282.119 568.417 304.764 567.363 319.568 557.274C334.252 547.267 340.574 528.765 337.147 511.98L332.771 512.873ZM198.598 454.083C204.063 487.427 218.592 517.569 234.734 536.035L238.096 533.096C222.566 515.329 208.352 485.982 203.005 453.361L198.598 454.083ZM234.734 536.035C241.958 544.299 249.631 550.369 257.105 553.242C264.664 556.147 272.144 555.802 278.465 550.993L275.761 547.439C270.938 551.108 265.164 551.555 258.707 549.073C252.166 546.559 245.062 541.064 238.096 533.096L234.734 536.035ZM253.806 551.775C262.447 556.129 271.192 556.527 278.465 550.993L275.761 547.439C270.261 551.623 263.461 551.639 255.815 547.787L253.806 551.775ZM439.889 339.979C439.42 340.016 439.03 340.173 438.812 340.271C438.558 340.384 438.307 340.523 438.074 340.664C437.607 340.946 437.064 341.325 436.472 341.761C435.284 342.637 433.726 343.876 431.881 345.353L434.673 348.839C436.533 347.349 438.019 346.169 439.122 345.356C439.677 344.947 440.092 344.663 440.384 344.487C440.53 344.398 440.608 344.36 440.633 344.349C440.693 344.322 440.53 344.409 440.236 344.432L439.889 339.979ZM431.881 345.353C423.99 351.674 410.272 362.838 394.129 372.1C377.934 381.391 359.633 388.566 342.562 387.276L342.225 391.729C360.651 393.122 379.916 385.402 396.351 375.973C412.839 366.514 426.814 355.134 434.673 348.839L431.881 345.353ZM435.32 346.193C416.504 303.628 369.688 279.209 326.67 272.576C305.123 269.254 284.276 270.346 268.085 276.011C251.888 281.679 240.013 292.082 237.354 307.496L241.755 308.255C244.04 295.009 254.256 285.582 269.56 280.226C284.872 274.869 304.94 273.744 325.989 276.99C368.163 283.492 413.264 307.344 431.235 347.999L435.32 346.193ZM224.172 455.077C236.752 451.859 249.3 451.217 261.18 452.73L261.744 448.299C249.315 446.717 236.2 447.39 223.066 450.751L224.172 455.077ZM263.138 449.038C253.16 437.714 245.847 425.403 241.849 414.879C239.848 409.612 238.707 404.869 238.439 400.968C238.169 397.014 238.815 394.231 240.021 392.566L236.405 389.945C234.312 392.834 233.681 396.859 233.984 401.273C234.29 405.743 235.572 410.931 237.674 416.465C241.882 427.541 249.492 440.306 259.787 451.991L263.138 449.038ZM240.021 392.566C240.475 391.939 241.341 391.238 242.752 390.557C244.142 389.886 245.917 389.302 248.008 388.827C252.189 387.877 257.395 387.417 262.757 387.45C268.114 387.484 273.533 388.01 278.128 388.988C282.816 389.986 286.313 391.386 288.129 392.948L291.042 389.563C288.338 387.237 283.908 385.652 279.058 384.62C274.116 383.568 268.388 383.019 262.785 382.984C257.188 382.949 251.624 383.426 247.019 384.472C244.717 384.995 242.596 385.673 240.81 386.535C239.046 387.387 237.459 388.491 236.405 389.945L240.021 392.566ZM288.129 392.948C289.463 394.095 290.692 395.211 291.83 396.298L294.914 393.067C293.719 391.926 292.432 390.758 291.042 389.563L288.129 392.948ZM291.83 396.298C301.15 405.197 304.378 412.126 308.438 418.529C310.479 421.748 312.728 424.812 316.039 427.734C319.346 430.651 323.627 433.351 329.671 435.972L331.448 431.875C325.729 429.395 321.874 426.925 318.994 424.385C316.12 421.849 314.132 419.169 312.21 416.138C308.345 410.042 304.742 402.451 294.914 393.067L291.83 396.298ZM343.45 387.536C336.775 383.947 331.04 381.099 326.009 379.204C320.983 377.311 316.501 376.307 312.362 376.551C303.795 377.057 297.666 382.808 291.439 393.564L295.304 395.801C301.342 385.373 306.406 381.377 312.625 381.009C315.878 380.817 319.688 381.595 324.434 383.383C329.175 385.169 334.694 387.899 341.336 391.469L343.45 387.536ZM234.734 536.035C240.911 543.102 247.402 548.548 253.806 551.775L255.815 547.787C250.087 544.9 244.034 539.889 238.096 533.096L234.734 536.035ZM261.18 452.73C273.997 454.361 286.032 458.5 296.485 464.613L298.739 460.757C287.759 454.337 275.148 450.006 261.744 448.299L261.18 452.73ZM296.485 464.613C315.096 475.495 328.628 492.583 332.771 512.873L337.147 511.98C332.712 490.261 318.272 472.179 298.739 460.757L296.485 464.613ZM298.809 464.571C300.188 463.695 302.7 462.814 306.082 462.196C309.409 461.587 313.388 461.266 317.567 461.388C326 461.634 334.855 463.668 340.827 468.357L343.585 464.845C336.537 459.311 326.569 457.183 317.697 456.924C313.224 456.794 308.931 457.135 305.279 457.803C301.682 458.46 298.51 459.47 296.416 460.8L298.809 464.571ZM340.827 468.357C347.016 473.216 348.994 479.213 350.018 486.116C350.55 489.7 350.784 493.158 351.263 497.08C351.726 500.875 352.396 504.817 353.765 508.723L357.98 507.247C356.766 503.783 356.144 500.208 355.696 496.538C355.264 492.995 354.967 489.04 354.436 485.461C353.335 478.039 351.062 470.715 343.585 464.845L340.827 468.357ZM353.765 508.723C358.597 522.515 362.882 532.824 368.164 542.287L372.064 540.11C366.959 530.965 362.773 520.925 357.98 507.247L353.765 508.723ZM368.164 542.287C373.225 551.354 379.165 559.579 387.294 569.318L390.723 566.456C382.706 556.852 376.947 548.859 372.064 540.11L368.164 542.287ZM367.883 541.299L370.832 606.959L375.294 606.759L372.345 541.099L367.883 541.299ZM371.646 608.585L402.988 634.323L405.822 630.871L374.48 605.133L371.646 608.585ZM404.405 634.83H435.394V630.364H404.405V634.83ZM402.184 632.362C401.309 640.627 406.42 646.739 413.568 650.652C420.709 654.561 430.314 656.576 439.769 656.724C449.217 656.872 458.831 655.16 465.966 651.307C473.174 647.416 478.128 641.127 477.175 632.356L472.736 632.838C473.431 639.24 470.02 644.043 463.845 647.378C457.597 650.751 448.811 652.399 439.839 652.259C430.873 652.118 422.037 650.196 415.712 646.734C409.395 643.277 406.016 638.586 406.625 632.832L402.184 632.362ZM474.956 630.364H443.966V634.83H474.956V630.364ZM474.956 632.597C475.908 634.617 475.909 634.616 475.909 634.616C475.909 634.616 475.91 634.616 475.91 634.616C475.911 634.615 475.912 634.615 475.913 634.614C475.916 634.613 475.92 634.611 475.925 634.609C475.935 634.604 475.949 634.597 475.968 634.588C476.005 634.571 476.059 634.545 476.129 634.511C476.27 634.443 476.476 634.344 476.742 634.214C477.274 633.954 478.044 633.572 479.005 633.081C480.927 632.101 483.619 630.683 486.705 628.932C492.857 625.44 500.659 620.576 507.058 615.162L504.173 611.753C498.083 616.905 490.556 621.611 484.5 625.048C481.482 626.76 478.85 628.146 476.975 629.103C476.038 629.582 475.29 629.952 474.779 630.202C474.524 630.327 474.328 630.422 474.196 630.485C474.13 630.517 474.081 630.54 474.049 630.556C474.032 630.563 474.02 630.569 474.013 630.573C474.009 630.575 474.006 630.576 474.004 630.577C474.004 630.577 474.003 630.577 474.003 630.577C474.003 630.578 474.003 630.578 474.003 630.578C474.003 630.578 474.003 630.577 474.956 632.597ZM507.845 613.586L510.812 562.119L506.353 561.862L503.386 613.329L507.845 613.586ZM526.586 508.042C528.469 499.626 528.251 492.28 528.852 486.371C529.461 480.377 530.89 475.115 535.961 469.455L532.634 466.475C526.746 473.048 525.08 479.311 524.408 485.92C523.728 492.613 524.045 498.946 522.228 507.067L526.586 508.042ZM535.961 469.455C539.699 465.282 545.688 463.096 553.608 462.291C561.501 461.488 570.919 462.092 581.098 463.133L581.553 458.69C571.348 457.647 561.538 456.995 553.156 457.848C544.8 458.698 537.467 461.08 532.634 466.475L535.961 469.455ZM491.95 570.529C498.473 561.204 505.627 552.171 511.711 542.378L507.917 540.021C501.904 549.701 495.035 558.328 488.291 567.969L491.95 570.529ZM511.711 542.378C518.37 531.659 523.938 519.881 526.586 508.042L522.228 507.067C519.724 518.259 514.414 529.564 507.917 540.021L511.711 542.378ZM510.812 562.123L512.043 541.332L507.585 541.067L506.354 561.859L510.812 562.123ZM539.123 390.636C551.624 320.714 599.868 296.915 636.246 306.862L637.424 302.554C597.903 291.748 547.571 318.01 534.727 389.85L539.123 390.636ZM635.981 306.771C666.365 319.359 689.957 364.635 678.138 439.906L682.55 440.599C694.484 364.592 670.974 316.435 637.69 302.645L635.981 306.771ZM603.834 546.407C600.384 544.255 597.89 539.286 597.335 531.976C596.788 524.763 598.187 515.729 601.978 506.22C609.546 487.237 626.547 466.62 655.902 455.217L654.285 451.054C623.719 462.927 605.834 484.488 597.83 504.566C593.834 514.588 592.275 524.305 592.882 532.313C593.482 540.223 596.255 546.943 601.471 550.196L603.834 546.407ZM540.346 522.223C539.39 533.788 542.987 549.609 555.63 558.28C568.378 567.024 589.341 567.85 621.624 551.559L619.612 547.572C587.863 563.593 568.883 561.955 558.156 554.598C547.325 547.169 543.915 533.254 544.797 522.591L540.346 522.223ZM678.138 439.906C666.302 515.287 638.781 541.954 619.994 547.422L621.242 551.71C642.603 545.493 670.634 516.494 682.55 440.599L678.138 439.906ZM619.994 547.422C612.986 549.461 607.286 548.56 603.834 546.407L601.471 550.196C606.263 553.185 613.346 554.008 621.242 551.71L619.994 547.422ZM410.597 575.182C410.597 580.729 411.359 584.947 412.878 588.313C414.415 591.72 416.653 594.089 419.312 596.04C421.894 597.936 424.981 599.504 428.128 601.209C431.333 602.945 434.789 604.913 438.433 607.708L441.151 604.164C437.225 601.153 433.524 599.053 430.255 597.282C426.927 595.479 424.22 594.103 421.954 592.44C419.765 590.833 418.101 589.029 416.949 586.476C415.778 583.881 415.063 580.349 415.063 575.182H410.597ZM437.559 605.936V632.597H442.025V605.936H437.559ZM441.186 607.68C443.821 605.573 446.85 603.769 450.028 601.899C453.155 600.06 456.443 598.147 459.337 595.906C462.25 593.65 464.875 590.979 466.647 587.54C468.432 584.075 469.277 579.976 468.85 574.992L464.4 575.373C464.763 579.608 464.038 582.852 462.677 585.494C461.303 588.161 459.205 590.359 456.602 592.376C453.979 594.407 450.957 596.171 447.764 598.05C444.622 599.898 441.32 601.855 438.397 604.192L441.186 607.68ZM440.236 344.432C440.031 344.448 439.874 344.425 439.791 344.409C439.704 344.392 439.65 344.373 439.638 344.368C439.62 344.361 439.666 344.378 439.795 344.452C440.053 344.6 440.438 344.861 440.977 345.267C442.047 346.072 443.488 347.269 445.321 348.807L448.192 345.385C446.381 343.866 444.845 342.589 443.664 341.699C443.077 341.257 442.518 340.865 442.02 340.579C441.772 340.437 441.488 340.291 441.187 340.179C440.92 340.081 440.449 339.936 439.889 339.979L440.236 344.432ZM445.321 348.807C452.486 354.817 464.868 365.735 480.642 375.122C496.414 384.508 515.755 392.476 536.925 392.476V388.01C516.863 388.01 498.326 380.449 482.925 371.284C467.526 362.12 455.439 351.465 448.192 345.385L445.321 348.807ZM448.646 348.285C474.043 307.929 514.537 283.821 551.814 276.637C589.257 269.421 622.508 279.341 634.812 305.654L638.858 303.762C625.257 274.678 589.215 264.881 550.968 272.252C512.555 279.655 470.962 304.44 444.867 345.906L448.646 348.285ZM655.706 450.988C642.186 447.13 630.04 445.801 619.163 446.403L619.41 450.862C629.734 450.291 641.381 451.545 654.481 455.283L655.706 450.988ZM620.883 450.194C626.3 444.654 633.957 433.549 638.912 422.17C641.393 416.472 643.254 410.575 643.769 405.181C644.281 399.806 643.48 394.62 640.244 390.73L636.81 393.586C638.98 396.194 639.778 399.987 639.323 404.757C638.87 409.507 637.197 414.921 634.817 420.387C630.05 431.335 622.681 441.968 617.69 447.071L620.883 450.194ZM640.244 390.73C637.669 387.635 633.461 385.384 628.678 383.943C623.846 382.486 618.188 381.782 612.439 381.962C601.048 382.317 588.688 386.187 581.843 395.385L585.426 398.051C591.11 390.413 601.836 386.761 612.579 386.425C617.898 386.259 623.069 386.917 627.389 388.219C631.758 389.536 635.025 391.44 636.81 393.586L640.244 390.73ZM581.843 395.385C579.546 398.472 577.034 402.198 574.393 406.034C571.734 409.894 568.92 413.904 565.957 417.665C559.949 425.29 553.645 431.465 547.233 433.497L548.582 437.754C556.403 435.276 563.433 428.085 569.465 420.429C572.522 416.548 575.405 412.438 578.071 408.567C580.754 404.67 583.194 401.052 585.426 398.051L581.843 395.385ZM538.017 392.19C545.779 387.839 552.101 384.781 557.303 382.948C562.527 381.108 566.423 380.574 569.412 381.048C574.988 381.933 578.527 386.599 581.482 397.312L585.787 396.124C582.804 385.309 578.6 377.984 570.112 376.638C566.069 375.996 561.353 376.786 555.819 378.736C550.263 380.694 543.683 383.894 535.833 388.295L538.017 392.19ZM580.098 459.047C566.218 468.186 556.549 480.909 550.231 492.809C543.93 504.677 540.869 515.904 540.346 522.223L544.797 522.591C545.259 517.008 548.089 506.367 554.175 494.903C560.245 483.471 569.46 471.398 582.554 462.777L580.098 459.047ZM441.923 593.985C440.385 589.076 438.897 585.164 436.048 582.43C433.122 579.623 429.096 578.346 423.266 577.729L422.795 582.17C428.305 582.754 431.11 583.882 432.956 585.652C434.877 587.496 436.1 590.336 437.661 595.32L441.923 593.985ZM441.936 595.278C443.516 589.857 445.024 586.91 447.008 585.126C448.944 583.385 451.655 582.469 456.428 581.977L455.97 577.535C450.926 578.054 447.034 579.096 444.021 581.806C441.056 584.473 439.269 588.468 437.648 594.027L441.936 595.278ZM582.554 462.777C583.446 462.189 584.357 461.617 585.286 461.063L582.997 457.228C582.011 457.817 581.045 458.423 580.098 459.047L582.554 462.777ZM585.286 461.063C594.666 455.464 605.945 451.608 619.41 450.862L619.163 446.403C604.955 447.19 592.978 451.27 582.997 457.228L585.286 461.063ZM582.997 457.228C568.045 466.152 557.658 479.234 550.89 491.588C544.139 503.909 540.886 515.692 540.346 522.223L544.797 522.591C545.275 516.813 548.287 505.633 554.806 493.733C561.308 481.867 571.197 469.472 585.286 461.063L582.997 457.228Z" fill="#0D1117"/>
</svg>
