<svg width="320" height="320" viewBox="0 0 320 320" fill="none" xmlns="http://www.w3.org/2000/svg">
<path d="M160 320C71.5594 320 0 248.334 0 160C0 71.5594 71.6655 0 160 0C248.441 0 320 71.6655 320 160C320.106 248.441 248.441 320 160 320Z" fill="#F4DA92"/>
<mask id="mask0_963_5085" style="mask-type:alpha" maskUnits="userSpaceOnUse" x="0" y="0" width="321" height="320">
<path d="M160 320C71.5594 320 0 248.334 0 160C0 71.5594 71.6656 0 160 0C248.441 0 320 71.6656 320 160C320.106 248.441 248.441 320 160 320Z" fill="#F7C0B5"/>
</mask>
<g mask="url(#mask0_963_5085)">
<path d="M249.6 294.728C248.854 295.261 248 295.794 247.254 296.328C246.4 296.861 245.654 297.394 244.8 297.821C244.054 298.248 243.414 298.674 242.667 299.101C242.56 299.208 242.454 299.208 242.347 299.314C239.894 300.808 237.334 302.194 234.774 303.474C234.027 303.901 233.174 304.328 232.427 304.648C232.427 304.648 232.32 304.754 232.214 304.754C231.36 305.181 230.507 305.608 229.654 306.034C227.947 306.888 226.134 307.634 224.427 308.381C223.574 308.808 222.614 309.128 221.76 309.448C220.907 309.768 219.947 310.194 219.094 310.514C218.24 310.834 217.28 311.261 216.427 311.581C216.427 311.581 216.427 311.581 216.32 311.581C215.467 311.901 214.507 312.221 213.654 312.541C211.734 313.181 209.707 313.821 207.787 314.461C207.147 314.674 206.4 314.888 205.76 315.101C203.734 315.741 201.707 316.274 199.68 316.701C198.934 316.914 198.187 317.021 197.334 317.234C195.414 317.661 193.387 318.088 191.467 318.514C191.04 318.621 190.72 318.621 190.294 318.728C189.654 318.834 188.907 318.941 188.267 319.048C187.307 319.154 186.454 319.368 185.494 319.474C185.067 319.581 184.64 319.581 184.214 319.688C183.68 319.794 183.04 319.901 182.4 319.901C180.694 320.114 178.88 320.328 177.174 320.541C176.64 320.648 176 320.648 175.467 320.754H175.36C174.614 320.861 173.867 320.861 173.12 320.968C172.374 321.074 171.627 321.074 170.88 321.074C170.454 321.074 169.92 321.181 169.494 321.181C168.64 321.181 167.894 321.288 167.147 321.288C166.08 321.288 165.12 321.394 164.054 321.394C162.987 321.394 162.027 321.394 160.96 321.394C160.214 321.394 159.467 321.394 158.72 321.394C113.814 320.754 73.2803 301.661 44.4803 271.368C44.4803 271.368 44.4803 271.261 44.3737 271.261C47.6803 264.754 59.947 253.021 72.747 243.314C88.9603 231.048 111.894 223.474 111.894 223.474C111.894 223.474 126.934 221.021 182.72 232.648C225.28 241.608 243.414 277.981 249.6 294.728Z" fill="#F7D3B5"/>
<path d="M194.56 262.194C192.32 273.181 177.814 279.687 153.387 269.874C123.414 257.714 111.894 223.474 111.894 223.474C110.294 198.941 106.56 177.927 106.56 177.927C141.227 174.941 182.187 215.474 182.187 215.474L186.88 235.527C187.307 237.234 188.16 238.727 189.44 239.794C191.68 243.634 196.054 255.154 194.56 262.194Z" fill="#F7D3B5"/>
<path d="M189.44 239.901C169.067 238.834 154.027 235.848 137.92 206.941C151.574 218.994 167.68 223.581 184.64 225.714L186.88 235.528C187.307 237.341 188.16 238.834 189.44 239.901Z" fill="#EFBDA5"/>
<path d="M231.574 111.368C233.494 120.328 234.454 127.581 229.227 151.474C224 175.368 234.027 199.261 208.854 221.128C191.894 235.848 162.24 238.621 138.56 222.514C130.56 217.074 123.2 209.501 117.227 199.581C112.534 191.794 107.094 184.434 101.014 177.714C92.587 168.541 82.4537 150.088 87.467 117.448C95.5737 64.3276 148.16 58.2476 179.2 64.1143C210.24 69.981 226.347 87.6876 231.574 111.368Z" fill="#F7D3B5"/>
<path d="M129.494 153.074C129.494 153.074 126.187 137.074 110.614 138.994C97.1736 140.701 92.4803 172.914 122.987 181.874" fill="#F7D3B5"/>
<path d="M122.027 167.261C122.027 167.261 118.187 164.808 118.614 160.541C119.254 155.528 118.614 152.434 116.267 151.474C110.4 149.021 109.227 155.848 109.44 156.701" stroke="#423232" stroke-width="3.2" stroke-miterlimit="10" stroke-linecap="round" stroke-linejoin="round"/>
<path d="M203.414 177.607C203.414 177.607 207.467 177.821 211.307 173.234C213.44 170.674 215.254 167.474 214.08 166.514C212.907 165.447 193.6 168.434 192.32 170.994C191.04 173.554 198.507 177.607 203.414 177.607Z" fill="#EFBDA5"/>
<path d="M206.614 141.768C206.614 141.768 206.827 151.901 213.334 163.208C216.214 168.221 211.84 176.434 202.347 177.821" stroke="#423232" stroke-width="3.2" stroke-miterlimit="10" stroke-linecap="round" stroke-linejoin="round"/>
<path d="M284.757 360.853H15.1038C15.1038 360.853 16.7038 311.359 32.9171 276.053C45.1838 249.386 74.0904 234.559 95.6371 226.879C101.717 224.746 107.264 223.146 111.53 221.973C111.53 222.506 111.637 222.933 111.637 223.466C111.637 223.466 123.157 257.706 153.13 269.866C177.557 279.786 192.064 273.173 194.304 262.186C195.69 255.146 191.317 243.626 189.077 239.893C187.797 238.826 186.944 237.226 186.517 235.626L185.664 232.106C187.69 231.679 189.61 231.146 191.53 230.506C192.17 230.293 192.704 230.079 193.344 229.866C207.104 233.493 227.797 242.133 252.224 262.613C279.85 285.759 284.757 360.853 284.757 360.853Z" fill="#444444"/>
<path d="M143.85 281.066C107.05 264.533 92.757 234.986 95.5303 226.986C95.5303 226.986 95.5303 226.88 95.637 226.773C97.557 222.826 100.65 219.626 104.49 217.386C106.624 216.106 108.97 214.933 110.89 214.293C110.997 215.786 111.424 220.48 111.53 222.08C111.53 222.613 118.464 248.96 148.437 261.12C172.864 271.04 187.584 264.746 189.184 253.653C190.997 241.386 184.49 232.32 184.49 232.32C186.517 231.893 189.717 231.146 191.637 230.506C196.33 236.16 201.13 241.813 202.944 256.746C205.504 278.186 181.93 298.133 143.85 281.066Z" fill="#444444"/>
<path d="M67.9038 360.853L63.1038 321.386" stroke="#544D4D" stroke-width="3.2" stroke-miterlimit="10" stroke-linecap="round" stroke-linejoin="round"/>
<path d="M254.144 307.839C254.144 307.839 250.944 315.626 251.904 323.413C252.864 331.199 255.637 342.613 251.69 360.853" stroke="#544D4D" stroke-width="3.2" stroke-miterlimit="10" stroke-linecap="round" stroke-linejoin="round"/>
<path d="M68.1172 423.039C68.1172 423.039 69.0772 370.026 68.1172 314.666C67.1572 259.306 106.304 247.039 106.304 247.039C106.304 247.039 109.717 235.199 115.371 231.573" stroke="white" stroke-width="3.2" stroke-miterlimit="10" stroke-linecap="round" stroke-linejoin="round"/>
<path d="M115.584 423.039C109.397 269.546 129.344 268.053 129.344 268.053C129.344 268.053 129.557 260.799 134.89 253.653" stroke="white" stroke-width="3.2" stroke-miterlimit="10" stroke-linecap="round" stroke-linejoin="round"/>
<path d="M159.317 423.04C163.264 386.453 159.317 280.853 159.317 280.853C159.317 280.853 161.344 271.68 160.17 264.853" stroke="white" stroke-width="3.2" stroke-miterlimit="10" stroke-linecap="round" stroke-linejoin="round"/>
<path d="M209.344 423.04C213.93 310.613 192.384 274.666 192.384 274.666C192.384 274.666 190.997 265.066 185.237 261.12" stroke="white" stroke-width="3.2" stroke-miterlimit="10" stroke-linecap="round" stroke-linejoin="round"/>
<path d="M249.45 423.039C249.45 423.039 257.877 377.279 247.317 321.386C236.757 265.493 201.344 251.199 201.344 251.199C201.344 251.199 195.584 241.493 188.65 241.919" stroke="white" stroke-width="3.2" stroke-miterlimit="10" stroke-linecap="round" stroke-linejoin="round"/>
<path d="M52.1171 251.2C52.1171 251.2 52.9704 272.213 77.7171 272.32C77.7171 272.32 89.3437 302.506 118.357 297.066C118.357 297.066 135.744 324.8 160.064 306.346C160.064 306.346 187.37 322.666 201.13 300.48C201.13 300.48 228.97 307.84 231.744 280.213C231.744 280.213 247.21 276.906 244.437 256.32" stroke="white" stroke-width="3.2" stroke-miterlimit="10" stroke-linecap="round" stroke-linejoin="round"/>
<path d="M77.0769 234.773C77.0769 234.773 70.2503 248.213 88.8103 258.24C88.8103 258.24 91.4769 278.506 121.344 282.986C121.344 282.986 136.597 301.866 159.85 295.04C159.85 295.04 189.29 306.88 197.717 287.573C197.717 287.573 221.504 287.466 217.664 262.613C217.664 262.613 225.664 253.76 218.624 239.68" stroke="white" stroke-width="3.2" stroke-miterlimit="10" stroke-linecap="round" stroke-linejoin="round"/>
<path d="M95.6371 226.879C95.6371 226.879 93.3972 238.826 106.41 247.039C106.41 247.039 107.157 261.653 129.344 268.053C129.344 268.053 139.477 282.773 159.424 280.853C159.424 280.853 183.85 289.919 192.49 274.666C192.49 274.666 206.677 266.559 201.237 251.093C201.237 251.093 203.477 239.679 194.624 230.826" stroke="white" stroke-width="3.2" stroke-miterlimit="10" stroke-linecap="round" stroke-linejoin="round"/>
<path d="M187.086 294.127C187.122 291.064 184.715 288.553 181.711 288.518C178.707 288.483 176.243 290.938 176.207 294.001C176.172 297.064 178.578 299.575 181.582 299.61C184.586 299.645 187.05 297.19 187.086 294.127Z" fill="white"/>
<path d="M193.344 308.586C194.09 314.239 190.357 319.466 185.024 320.106C179.69 320.853 174.784 316.799 174.037 311.039C173.29 305.386 176.704 297.599 182.037 296.853C187.37 296.106 192.597 302.933 193.344 308.586Z" fill="white"/>
<path d="M179.477 301.866C179.264 302.079 179.157 302.186 179.05 302.293C178.944 302.399 178.731 302.399 178.624 302.506C178.304 302.613 178.09 302.719 177.77 302.826C177.237 303.039 176.704 303.146 176.064 303.253C174.997 303.466 173.824 303.573 172.757 303.679C171.691 303.679 170.517 303.679 169.344 303.466C168.704 303.359 168.171 303.253 167.424 302.933C167.104 302.826 166.677 302.613 166.144 302.186C165.931 302.079 165.824 301.866 165.611 301.759C165.397 301.546 165.184 301.119 164.97 300.906C164.864 300.479 164.65 300.159 164.65 299.733C164.544 298.879 164.65 298.239 164.65 297.599C164.757 296.959 164.757 296.426 164.864 295.893C165.077 294.826 165.397 293.759 165.717 292.799C166.464 290.773 167.424 288.746 168.917 286.933V286.826C168.917 286.719 169.024 286.719 169.131 286.826L169.237 286.933L168.277 293.119C168.064 295.146 167.637 297.279 167.85 299.199C167.85 299.306 167.851 299.413 167.957 299.519C167.957 299.519 168.064 299.626 168.064 299.733C168.277 299.839 168.49 299.946 168.704 300.053C169.13 300.266 169.664 300.373 170.091 300.586C171.051 300.906 172.117 301.013 173.077 301.226C174.144 301.439 175.104 301.546 176.17 301.653C176.704 301.759 177.237 301.759 177.664 301.759C177.877 301.759 178.197 301.759 178.411 301.759C178.624 301.759 178.944 301.759 179.05 301.653H179.157C179.264 301.653 179.37 301.653 179.37 301.759C179.477 301.759 179.477 301.759 179.477 301.866Z" fill="white"/>
<path d="M178.624 308.053C176.704 309.546 174.464 310.506 172.224 311.146C169.984 311.786 167.637 312.106 165.077 311.786H164.864L164.544 311.679L163.904 311.466C163.477 311.359 163.051 311.146 162.624 310.933L162.091 310.613L161.664 310.186C161.344 309.973 161.024 309.653 160.811 309.439C159.744 308.373 159.104 307.093 158.677 305.919C157.824 303.573 157.611 301.119 158.144 298.666V298.559C158.144 298.453 158.251 298.453 158.357 298.453C158.464 298.453 158.464 298.559 158.464 298.559C158.784 299.626 159.104 300.693 159.531 301.653C159.957 302.719 160.384 303.679 160.917 304.639C161.984 306.453 163.477 308.266 165.611 308.586C167.744 308.906 169.984 308.799 172.117 308.586C174.251 308.373 176.491 308.159 178.624 307.733C178.731 307.733 178.837 307.733 178.837 307.839C178.837 307.946 178.731 307.946 178.624 308.053Z" fill="white"/>
<path d="M177.237 313.386C174.891 314.453 172.757 315.306 171.051 316.373C170.197 316.906 169.557 317.44 169.131 317.973C169.024 318.08 168.917 318.293 168.811 318.4C168.704 318.506 168.704 318.72 168.597 318.826C168.491 318.933 168.491 319.146 168.384 319.253L168.277 319.466C168.277 319.573 168.277 319.68 168.171 319.786C167.744 321.28 167.744 323.2 167.851 325.333C168.064 327.466 168.384 329.706 168.491 332.266V332.373C168.491 332.48 168.384 332.48 168.384 332.586C168.277 332.586 168.277 332.586 168.277 332.48C166.997 330.453 166.037 328.32 165.397 325.973C164.757 323.733 164.437 321.28 165.077 318.826C165.397 317.653 166.037 316.48 166.997 315.733C167.957 314.88 169.024 314.346 170.091 313.92C172.331 313.173 174.784 312.96 177.131 313.066C177.237 313.066 177.237 313.173 177.237 313.173C177.344 313.28 177.344 313.28 177.237 313.386Z" fill="white"/>
<path d="M179.904 316.693C179.584 318.613 179.157 320.106 179.05 321.386C178.944 322.026 179.05 322.559 179.157 322.879C179.157 322.986 179.157 323.093 179.264 323.093C179.264 323.199 179.264 323.199 179.37 323.306C179.37 323.413 179.37 323.413 179.477 323.519L179.69 323.946C180.33 325.226 180.864 326.719 181.397 328.213C181.824 329.813 182.25 331.413 182.357 333.439V333.546C182.357 333.653 182.25 333.653 182.25 333.653C182.25 333.653 182.144 333.653 182.144 333.546C181.184 332.266 180.224 330.879 179.264 329.493C178.41 328.106 177.557 326.719 176.81 325.226C176.49 324.479 176.17 323.626 176.277 322.773C176.277 321.919 176.49 321.066 176.917 320.319C177.664 318.826 178.73 317.439 179.904 316.373C180.01 316.373 180.01 316.373 180.117 316.373V316.479L179.904 316.693Z" fill="white"/>
<path d="M185.984 300.8C186.09 300.693 186.304 300.48 186.517 300.266L187.157 299.733L188.33 298.666C189.184 298.026 189.93 297.386 190.784 296.746L193.13 295.04C193.45 294.826 193.877 294.506 194.09 294.293C194.197 294.186 194.304 294.08 194.197 294.293C194.197 294.293 194.09 294.4 194.09 294.506C194.09 294.506 193.984 294.613 193.984 294.72C193.984 294.826 193.877 294.933 193.877 295.04C193.77 295.253 193.77 295.36 193.877 295.573C193.877 295.466 193.77 295.04 193.664 294.613L193.344 293.226C193.13 292.266 192.81 291.306 192.597 290.24C192.17 288.213 191.85 286.08 191.957 283.733V283.626C191.957 283.52 192.064 283.52 192.064 283.52C192.17 283.52 192.17 283.52 192.17 283.626C193.13 285.44 193.984 287.36 194.837 289.28C195.264 290.24 195.69 291.2 196.01 292.16C196.33 293.12 196.757 294.08 196.97 295.253C196.97 295.466 196.97 295.573 196.97 295.786C196.864 296 196.864 296.106 196.757 296.213C196.544 296.426 196.33 296.64 196.117 296.746C195.69 297.066 195.264 297.386 194.73 297.6C193.77 298.133 192.917 298.56 191.957 298.986C190.997 299.413 190.037 299.84 189.077 300.16C188.544 300.373 188.117 300.48 187.584 300.586C187.37 300.693 187.05 300.693 186.837 300.8C186.73 300.8 186.624 300.8 186.41 300.906C186.304 300.906 186.197 301.013 185.877 300.8C185.77 300.693 185.77 300.693 185.877 300.586C185.77 300.693 185.877 300.693 185.984 300.8Z" fill="white"/>
<path d="M188.117 306.453C190.25 305.173 192.277 304.319 194.304 303.573C196.33 302.826 198.357 302.186 199.957 301.546L200.064 301.439H200.17C200.17 301.439 200.277 301.439 200.277 301.333C200.384 301.333 200.49 301.226 200.49 301.119L200.597 301.013L200.704 300.799C200.81 300.693 200.917 300.586 201.024 300.479C201.45 299.946 201.984 299.199 202.41 298.239C203.264 296.533 204.117 294.399 205.184 292.266V292.159C205.184 292.053 205.29 292.053 205.397 292.053L205.504 292.159C205.61 294.399 205.504 296.639 204.864 298.773C204.544 299.839 204.224 300.906 203.584 301.866C203.05 302.826 202.09 303.679 201.024 304.213C198.89 305.066 196.757 305.493 194.517 305.919C192.277 306.239 190.144 306.559 187.904 306.666C187.797 306.666 187.797 306.559 187.797 306.559C188.01 306.559 188.01 306.559 188.117 306.453Z" fill="white"/>
<path d="M190.784 311.253C192.704 309.44 195.157 308.48 197.93 308.266C199.317 308.16 200.81 308.373 202.41 309.013C202.837 309.226 203.157 309.44 203.477 309.653C203.797 309.866 204.117 310.186 204.544 310.506C204.864 310.826 205.184 311.146 205.397 311.466L205.824 312C205.93 312.213 206.037 312.32 206.144 312.533C206.997 313.92 207.317 315.306 207.53 316.693C207.744 318.08 207.637 319.466 207.424 320.746C206.997 323.306 206.037 325.76 204.33 327.68C204.224 327.786 204.224 327.786 204.117 327.68C204.117 327.68 204.01 327.573 204.117 327.573C204.437 326.4 204.65 325.333 204.757 324.16C204.864 322.986 204.97 321.813 204.97 320.64C204.97 318.293 204.65 315.946 203.477 314.026C202.944 313.066 202.197 312.213 201.13 311.68C200.17 311.146 198.997 310.933 197.824 310.826C196.65 310.72 195.477 310.826 194.41 310.933C193.237 311.04 192.064 311.253 190.997 311.573C190.89 311.573 190.784 311.573 190.784 311.466C190.677 311.36 190.677 311.253 190.784 311.253Z" fill="white"/>
<path d="M189.29 315.2C191.317 314.986 193.13 315.626 194.837 316.906C195.69 317.546 196.437 318.506 196.864 319.786C196.97 320.106 197.077 320.426 197.077 320.746C197.184 321.066 197.184 321.386 197.184 321.706C197.184 322.026 197.184 322.453 197.184 322.666L197.077 323.413C196.757 325.226 196.117 326.826 195.264 328.32C194.304 329.813 193.237 331.2 191.637 332.373H191.53C191.424 332.373 191.424 332.373 191.317 332.373V332.266C191.85 330.773 192.384 329.173 192.81 327.573C193.237 325.973 193.664 324.48 193.984 322.88C194.197 322.026 194.197 321.386 193.984 320.64C193.77 319.893 193.45 319.146 192.917 318.613C191.957 317.44 190.677 316.373 189.29 315.52C189.184 315.52 189.184 315.413 189.29 315.306C189.184 315.2 189.184 315.2 189.29 315.2Z" fill="white"/>
<path d="M183.582 129.612C185.899 129.932 187.69 127.479 186.847 125.132C186.426 123.852 185.689 122.679 184.53 121.932C180.949 119.692 167.571 119.479 160.514 124.599C154.299 129.292 173.049 128.119 183.582 129.612Z" fill="#423232"/>
<path d="M212.759 130.786C210.863 130.786 209.704 128.332 210.652 126.306C211.179 125.239 211.916 124.279 212.969 123.746C216.235 122.146 224.977 123.106 228.875 128.546C232.351 133.346 221.501 130.679 212.759 130.786Z" fill="#423232"/>
<path d="M179.895 143.052C173.154 139.639 162.515 142.199 162.515 142.199" stroke="#423232" stroke-width="3.2" stroke-miterlimit="10" stroke-linecap="round" stroke-linejoin="round"/>
<path d="M221.502 145.185C221.502 145.185 218.764 142.199 208.652 144.545" stroke="#423232" stroke-width="3.2" stroke-miterlimit="10" stroke-linecap="round" stroke-linejoin="round"/>
<path d="M198.785 188.873C194.945 191.113 189.398 190.473 184.598 188.126" stroke="#423232" stroke-width="3.2" stroke-miterlimit="10" stroke-linecap="round" stroke-linejoin="round"/>
<path d="M185.132 184.394C185.132 184.394 185.132 189.087 179.905 191.007" stroke="#423232" stroke-width="3.2" stroke-miterlimit="10" stroke-linecap="round" stroke-linejoin="round"/>
<path d="M231.308 142.415C234.188 126.202 233.335 119.802 231.628 112.228C231.095 109.882 230.455 107.642 229.708 105.402C222.988 102.415 217.441 110.735 208.268 109.455C183.841 106.148 165.175 95.6948 144.588 100.175C131.681 102.948 129.548 114.575 133.281 136.015C134.348 141.882 134.348 147.535 129.335 153.401C128.481 150.415 124.321 138.255 110.668 139.962C97.7613 141.562 92.8547 171.428 119.521 181.668C119.308 187.535 113.868 198.415 109.495 200.868C109.495 200.868 108.748 193.081 100.215 182.841C91.6813 172.602 74.6146 146.042 86.1346 107.215C97.6546 68.3882 149.815 48.1215 198.348 67.8548C206.668 71.2682 213.495 76.0682 218.935 81.0815C231.735 92.8149 238.561 109.882 236.535 127.055C236.108 132.815 234.508 138.362 231.308 142.415Z" fill="#423232"/>
<path d="M122.188 75.2147C122.188 75.2147 125.281 40.9747 106.721 36.8147C88.1613 32.6547 94.5613 52.9214 100.321 65.6147C100.321 65.6147 78.1346 45.7747 68.428 59.2147C59.148 72.1214 82.4013 86.2014 82.4013 86.2014C82.4013 86.2014 47.948 88.9747 55.2013 108.601C62.5613 128.228 100.321 102.628 100.321 102.628C100.321 102.628 122.081 82.5747 122.188 75.2147Z" fill="#423232"/>
<path d="M204.063 179.736C204.063 179.736 200.117 171.309 185.503 176.536C176.117 179.949 166.943 185.283 161.823 179.736C161.823 179.736 164.49 193.603 181.13 196.589C201.61 200.109 205.983 186.029 204.063 179.736Z" fill="#423232"/>
<path d="M203.21 178.456C203.21 178.456 209.29 172.696 215.156 178.136C220.49 183.043 223.05 183.79 224.97 180.803C224.97 180.803 225.396 192.536 216.116 194.03C205.983 195.736 202.25 187.63 202.25 187.63" fill="#423232"/>
</g>
</svg>
