<svg width="320" height="207" viewBox="0 0 320 207" fill="none" xmlns="http://www.w3.org/2000/svg">
<g clip-path="url(#clip0_352_6083)">
<path d="M135.951 68.5037C135.718 68.5202 135.5 68.6276 135.344 68.8029C135.189 68.9782 135.109 69.2074 135.12 69.4414C135.142 69.6769 135.254 69.8949 135.433 70.0498C135.611 70.2047 135.843 70.2845 136.079 70.2725C136.313 70.2508 136.529 70.1381 136.68 69.9587C136.832 69.7794 136.907 69.5476 136.889 69.3135C136.884 69.1977 136.855 69.0841 136.804 68.9797C136.754 68.8754 136.682 68.7825 136.595 68.7067C136.507 68.6309 136.405 68.5738 136.294 68.5389C136.183 68.504 136.067 68.492 135.951 68.5037Z" fill="black"/>
<path d="M147.651 68.184C147.439 68.2288 147.251 68.3487 147.121 68.5216C146.991 68.6944 146.928 68.9084 146.944 69.1241C146.959 69.3398 147.052 69.5425 147.206 69.6949C147.359 69.8472 147.563 69.9388 147.779 69.9527C147.906 69.961 148.034 69.9418 148.154 69.8965C148.273 69.8512 148.382 69.7808 148.472 69.69C148.562 69.5993 148.631 69.4903 148.676 69.3704C148.72 69.2506 148.738 69.1225 148.729 68.995C148.72 68.8675 148.683 68.7435 148.622 68.6312C148.561 68.519 148.477 68.4211 148.374 68.3443C148.272 68.2675 148.155 68.2134 148.03 68.1857C147.905 68.1581 147.776 68.1575 147.651 68.184Z" fill="black"/>
<path d="M124.338 61.3864C124.594 59.5963 124.871 57.508 125.276 55.3769C125.774 51.8926 127.136 48.5885 129.239 45.7661C134.119 40.3107 139.362 42.3564 143.816 46.9381C145.094 48.2622 146.262 49.6875 147.31 51.2002C150.497 55.7625 152.949 60.7959 154.577 66.1172C156.452 73.4905 146.053 90.1125 143.048 91.3058C142.688 91.4375 142.318 91.5374 141.94 91.6042C137.55 92.4353 131.967 88.5142 130.092 84.6571" stroke="black" stroke-width="1.83267" stroke-miterlimit="10" stroke-linecap="round"/>
<path d="M122.825 107.417C122.825 94.8013 122.143 83.3364 123.188 70.7634" stroke="black" stroke-width="1.83267" stroke-miterlimit="10"/>
<path d="M141.833 91.0503C141.844 91.2206 141.844 91.3914 141.833 91.5617C142.942 96.527 143.24 102.664 145.286 107.076" stroke="black" stroke-width="1.83267" stroke-miterlimit="10"/>
<path d="M126.085 63.6238C125.559 62.8449 124.944 62.1298 124.252 61.4928C119.266 57.2308 115.963 66.7138 118.008 69.3988C118.654 70.0777 119.487 70.5495 120.402 70.7543C121.316 70.9592 122.27 70.8879 123.144 70.5496C123.545 70.4401 123.932 70.2827 124.295 70.0808" stroke="black" stroke-width="1.83267" stroke-miterlimit="10" stroke-linecap="round"/>
<path d="M147.268 51.1573C148.461 51.0294 165.019 47.6837 162.654 43.0381C161.29 40.3956 152.51 43.2086 143.773 46.8313C135.462 50.2835 127.151 54.4603 125.233 55.3554L124.935 55.4832" stroke="black" stroke-width="1.83267" stroke-miterlimit="10"/>
<path d="M137.636 64.5623C136.765 64.2943 135.843 64.2376 134.946 64.397C134.05 64.5564 133.204 64.9271 132.479 65.4786" stroke="black" stroke-width="1.83267" stroke-miterlimit="10" stroke-linecap="round"/>
<path d="M123.378 65.3499C122.462 66.1712 121.284 66.6396 120.054 66.6711" stroke="black" stroke-width="1.83267" stroke-miterlimit="10" stroke-linecap="round"/>
<path d="M149.207 64.9447C147.8 64.3054 144.625 64.4759 144.049 65.8611C143.133 68.0986 144.497 72.7442 145.072 75.408C145.477 77.2194 146.117 80.7355 142.941 79.7979" stroke="black" stroke-width="1.83267" stroke-miterlimit="10" stroke-linecap="round"/>
<path d="M138.573 84.2738C138.952 84.6826 139.417 85.0014 139.936 85.2065C140.454 85.4116 141.012 85.4979 141.568 85.4591C142.124 85.4202 142.664 85.2572 143.149 84.982C143.634 84.7068 144.051 84.3265 144.369 83.8689" stroke="black" stroke-width="1.83267" stroke-miterlimit="10" stroke-linecap="round"/>
<path d="M143.374 168.622C144.097 168.096 144.703 167.424 145.151 166.65C145.599 165.875 145.879 165.015 145.973 164.126C145.995 163.79 145.945 163.453 145.827 163.138C145.708 162.823 145.524 162.537 145.286 162.299C145.048 162.061 144.762 161.876 144.446 161.758C144.131 161.639 143.795 161.589 143.459 161.611C143.357 161.863 143.22 162.1 143.054 162.314L143.246 158.457L143.672 150.658C143.708 150.435 143.699 150.207 143.645 149.987C143.591 149.768 143.494 149.562 143.359 149.381C143.223 149.2 143.053 149.048 142.858 148.934C142.663 148.82 142.447 148.747 142.223 148.719H141.711L143.033 139.662H152.878L153.112 136.849H140.603L138.835 148.761H132.868C132.791 147.723 132.419 146.729 131.794 145.897C131.169 145.064 130.318 144.429 129.342 144.066C128.367 143.703 127.307 143.628 126.291 143.85C125.274 144.072 124.342 144.581 123.606 145.317C122.87 146.053 122.361 146.985 122.139 148.002C121.917 149.019 121.992 150.078 122.355 151.053C122.718 152.029 123.353 152.88 124.185 153.505C125.018 154.13 126.012 154.503 127.05 154.579L127.22 157.861L127.391 161.121H127.071C125.622 161.266 124.269 161.915 123.249 162.955C122.229 163.994 121.606 165.359 121.488 166.811L121.701 177.594L121.147 177.786C112.269 180.876 103.133 183.173 93.8488 184.647C86.5182 185.649 81.2759 185.265 78.9317 183.284C69.3209 175.292 86.1772 126.748 94.1259 118.927C98.7289 114.367 108.148 112.406 119.698 110.169C120.093 108.689 121.038 107.416 122.34 106.61H122.468C129.539 105.078 136.847 104.998 143.949 106.375L144.737 106.652C145.503 106.909 146.179 107.378 146.689 108.004C147.198 108.63 147.519 109.388 147.614 110.19C147.614 110.19 164.854 112.108 167.923 115.688C175.765 124.873 183.756 134.228 189.766 140.663C190.192 141.111 201.444 130.584 205.365 120.291H205.493C205.493 120.291 209.755 126.684 217.021 125.491C216.446 126.641 197.182 165.063 188.04 161.718C180.304 158.862 171.908 152.554 162.979 145.053C159.505 142.006 173.442 204.402 173.677 205.681H164.598L133.592 205.851H128.925L91.6965 206.043C91.8466 199.36 92.459 192.695 93.5292 186.097C102.908 183.834 112.157 181.06 121.232 177.786L121.786 177.956C124.023 178.949 126.349 179.727 128.734 180.279L128.989 184.541C128.971 184.959 129.113 185.368 129.386 185.685C129.659 186.002 130.043 186.203 130.46 186.246H140.774C141.19 186.203 141.574 186.002 141.847 185.685C142.121 185.368 142.263 184.959 142.244 184.541L142.5 179.81C144.695 178.958 145.973 177.679 145.973 176.699C145.998 176.394 145.952 176.088 145.839 175.803C145.726 175.519 145.55 175.264 145.324 175.058C145.098 174.853 144.827 174.701 144.534 174.616C144.24 174.531 143.93 174.515 143.629 174.568H143.523H143.693C144.317 174.195 144.847 173.684 145.242 173.075C145.637 172.465 145.887 171.773 145.973 171.052C145.999 170.733 145.953 170.412 145.837 170.113C145.722 169.815 145.541 169.546 145.308 169.327C145.074 169.108 144.795 168.944 144.489 168.848C144.184 168.752 143.861 168.726 143.544 168.771L143.374 168.622Z" fill="#332E6F"/>
<path d="M243.999 83.915C243.232 87.1968 237.82 113.749 236.647 119.673" stroke="black" stroke-width="1.83267" stroke-linecap="round" stroke-linejoin="round"/>
<path d="M236.563 119.652C234.739 118.405 232.673 117.557 230.499 117.164C228.325 116.771 226.092 116.842 223.947 117.372" stroke="black" stroke-width="1.83267" stroke-linecap="round" stroke-linejoin="round"/>
<path d="M208.54 116.605C197.416 112.94 186.463 119.652 186.463 119.652C187.379 108.997 188.232 81.8055 188.232 81.8055C206.111 73.6863 216.361 84.8528 217.512 86.2167V86.3445C222.2 78.6516 237.373 78.2254 243.851 83.8939" stroke="black" stroke-width="1.83267" stroke-linecap="round" stroke-linejoin="round"/>
<path d="M139.154 148.719H128.307C128.082 148.747 127.865 148.821 127.669 148.934C127.473 149.048 127.302 149.199 127.165 149.38C127.028 149.56 126.928 149.766 126.872 149.986C126.816 150.205 126.804 150.434 126.837 150.658L127.05 154.536L127.22 157.818L127.391 161.079V162.997V163.167" stroke="black" stroke-width="1.83267" stroke-miterlimit="10"/>
<path d="M143.011 162.315L143.202 158.457L143.629 150.658C143.665 150.435 143.656 150.207 143.602 149.988C143.548 149.768 143.451 149.562 143.315 149.381C143.18 149.2 143.01 149.048 142.815 148.934C142.62 148.821 142.404 148.747 142.18 148.719H141.327" stroke="black" stroke-width="1.83267" stroke-miterlimit="10"/>
<path d="M128.691 180.28L128.947 184.542C128.928 184.96 129.07 185.369 129.343 185.686C129.617 186.003 130.001 186.204 130.417 186.247H140.731C141.147 186.204 141.532 186.003 141.805 185.686C142.078 185.369 142.22 184.96 142.202 184.542L142.457 179.811V179.662" stroke="black" stroke-width="1.83267" stroke-miterlimit="10"/>
<path d="M127.434 162.827V162.997C129.266 167.771 140.39 165.469 142.947 162.315C143.114 162.1 143.25 161.864 143.352 161.612C143.352 161.612 143.352 161.612 143.352 161.612" stroke="black" stroke-width="1.83267" stroke-miterlimit="10"/>
<path d="M143.395 161.612C143.736 161.58 144.08 161.623 144.403 161.737C144.726 161.852 145.02 162.035 145.265 162.274C145.51 162.513 145.701 162.802 145.823 163.122C145.946 163.442 145.997 163.785 145.974 164.126C145.884 165.013 145.611 165.87 145.17 166.645C144.73 167.419 144.133 168.093 143.417 168.623C142.011 169.704 140.387 170.466 138.658 170.856C136.928 171.246 135.134 171.255 133.401 170.882" stroke="black" stroke-width="1.83267" stroke-miterlimit="10" stroke-linecap="round"/>
<path d="M143.502 168.772C143.822 168.719 144.15 168.739 144.461 168.832C144.771 168.925 145.057 169.088 145.295 169.308C145.534 169.528 145.719 169.799 145.836 170.101C145.954 170.404 146.001 170.729 145.974 171.052C145.879 171.781 145.615 172.478 145.205 173.088C144.794 173.698 144.248 174.205 143.609 174.568H143.438C140.474 176.318 136.98 176.946 133.593 176.337" stroke="black" stroke-width="1.83267" stroke-miterlimit="10" stroke-linecap="round"/>
<path d="M127.37 157.818C131.632 156.134 132.762 159.949 136.981 160.929C137.871 161.116 138.784 161.159 139.687 161.057H139.986C140.674 160.893 141.318 160.579 141.871 160.137C142.423 159.695 142.871 159.136 143.182 158.5" stroke="black" stroke-width="1.83267" stroke-miterlimit="10" stroke-linecap="round"/>
<path d="M139.985 160.844L141.754 148.719L143.075 139.662L152.92 139.619L153.155 136.806H140.603L138.834 148.719L137.065 160.588" stroke="black" stroke-width="1.83267" stroke-linecap="round" stroke-linejoin="round"/>
<path d="M127.454 154.558H127.05C126.012 154.481 125.017 154.109 124.185 153.484C123.353 152.859 122.717 152.008 122.354 151.032C121.992 150.057 121.917 148.997 122.138 147.981C122.36 146.964 122.869 146.032 123.605 145.296C124.341 144.56 125.273 144.051 126.29 143.829C127.307 143.607 128.366 143.682 129.342 144.045C130.317 144.408 131.168 145.043 131.793 145.875C132.418 146.708 132.791 147.702 132.867 148.74C132.867 148.868 132.867 148.996 132.867 149.124" stroke="black" stroke-width="1.83267" stroke-linejoin="round"/>
<path d="M133.358 205.937H128.542" stroke="black" stroke-width="1.83267" stroke-miterlimit="10"/>
<path d="M91.3955 207.125C91.5346 200.442 92.5544 192.801 93.6356 186.204C93.7847 185.33 93.8913 184.797 93.9126 184.627" stroke="black" stroke-width="1.83267" stroke-miterlimit="10"/>
<path d="M91.6963 206.214L128.925 206.022H133.485L164.492 205.852H167.305C169.676 205.853 171.931 205.871 174.078 205.908" stroke="black" stroke-width="1.83267" stroke-miterlimit="10"/>
<path d="M217.853 119.908L218.301 119.248C221.327 114.368 218.684 109.573 218.876 108.166C219.366 104.821 222.691 105.865 223.543 110.596C223.979 112.82 224.072 115.098 223.82 117.351C223.765 119.262 223.081 121.101 221.875 122.584C220.67 124.067 219.009 125.111 217.15 125.555C216.575 126.706 197.31 165.128 188.168 161.783C180.433 158.927 172.036 152.619 163.107 145.118C159.527 142.113 173.763 204.616 173.997 205.98H167.327" stroke="black" stroke-width="1.83267" stroke-miterlimit="10" stroke-linecap="round"/>
<path d="M213.249 117.457C213.108 117.722 212.952 117.978 212.78 118.224" stroke="black" stroke-width="1.83267" stroke-miterlimit="10" stroke-linecap="round"/>
<path d="M217.788 119.843C217.968 119.658 218.132 119.459 218.278 119.246C220.623 115.56 219.067 105.608 215.934 105.139C215.637 105.1 215.334 105.144 215.061 105.267C211.395 106.716 216.978 111.063 213.271 117.435" stroke="black" stroke-width="1.83267" stroke-miterlimit="10" stroke-linecap="round"/>
<path d="M121.612 165.608C116.732 166.482 100.519 168.942 94.957 169.603C96.4209 159.988 99.1883 150.618 103.183 141.751" stroke="white" stroke-width="1.83267" stroke-miterlimit="10" stroke-linecap="round"/>
<path d="M212.781 118.246C212.953 117.992 213.109 117.729 213.25 117.457C214.184 115.824 214.473 113.901 214.059 112.066C213.868 110.915 212.717 107.548 211.459 107.036C211.156 106.902 210.82 106.86 210.493 106.916C210.166 106.972 209.863 107.123 209.621 107.351C209.38 107.578 209.211 107.872 209.136 108.195C209.062 108.519 209.084 108.857 209.201 109.167C210.991 114.111 210.053 115.795 208.689 116.754C207.325 117.713 206.153 117.862 205.727 119.098C205.618 119.467 205.49 119.829 205.343 120.185C201.422 130.478 190.171 141.005 189.744 140.557C183.735 134.164 175.744 124.766 167.902 115.582C164.833 112.002 147.593 110.084 147.593 110.084C147.498 109.282 147.177 108.524 146.667 107.898C146.158 107.272 145.481 106.803 144.716 106.546L143.949 106.376C136.841 104.989 129.526 105.061 122.447 106.589H122.319C121.017 107.395 120.072 108.668 119.677 110.148C108.169 112.279 98.7502 114.41 94.1046 118.906C86.1346 126.727 69.257 175.271 78.8892 183.263C81.2759 185.245 86.5182 185.628 93.8063 184.627C103.105 183.154 112.255 180.858 121.147 177.765" stroke="black" stroke-width="1.83267" stroke-miterlimit="10" stroke-linecap="round"/>
<path d="M217.511 85.8966L217.49 86.2163L215.956 105.012" stroke="black" stroke-width="1.83267" stroke-linecap="round" stroke-linejoin="round"/>
<path d="M205.493 120.27C205.493 120.27 209.755 126.663 217.022 125.469" stroke="black" stroke-width="1.83267" stroke-miterlimit="10" stroke-linecap="round"/>
<path d="M143.522 174.676H143.629C143.921 174.625 144.22 174.64 144.506 174.719C144.791 174.798 145.056 174.94 145.28 175.133C145.504 175.327 145.683 175.568 145.802 175.839C145.922 176.11 145.981 176.404 145.973 176.7C145.973 177.744 144.737 179.023 142.5 179.96C138.072 181.543 133.262 181.715 128.733 180.451C126.349 179.899 124.023 179.121 121.786 178.128" stroke="black" stroke-width="1.83267" stroke-miterlimit="10" stroke-linecap="round" stroke-linejoin="round"/>
<path d="M91.4839 186.544C92.1445 186.544 92.8264 186.352 93.6149 186.203C102.994 183.941 112.242 181.166 121.318 177.892L123.897 177.018" stroke="white" stroke-width="1.83267" stroke-linejoin="round"/>
</g>
<defs>
<clipPath id="clip0_352_6083">
<path d="M0 0H320V187C320 198.046 311.046 207 300 207H20C8.95431 207 0 198.046 0 187V0Z" fill="white"/>
</clipPath>
</defs>
</svg>
