<svg width="320" height="360" viewBox="0 0 320 360" fill="none" xmlns="http://www.w3.org/2000/svg">
<path d="M135.504 222.678H99.6842H99.5762C99.2369 216.94 99.5206 211.183 100.422 205.506C108.576 207.954 120.006 210.51 133.704 213.354L135.612 213.75C138.564 214.488 142.2 214.182 143.802 218.088C143.946 218.43 144.108 219.024 144.306 219.672H143.946L137.412 219.978C137.098 219.988 136.791 220.076 136.519 220.233C136.247 220.39 136.018 220.612 135.852 220.88C135.686 221.147 135.589 221.451 135.569 221.765C135.55 222.078 135.608 222.392 135.738 222.678H135.504Z" fill="#332E6F"/>
<path d="M138.42 202.194C136.753 203.366 135.44 204.972 134.621 206.838C133.802 208.704 133.51 210.758 133.776 212.778V213.21C120.078 210.366 108.576 207.81 100.494 205.362C92.4118 202.914 87.7318 200.736 86.9758 198.45C81.1618 180.828 93.9778 145.188 100.692 138.564C104.598 134.73 113.616 131.742 123.336 129.852C123.773 128.605 124.546 127.503 125.568 126.666C125.706 126.593 125.851 126.533 126 126.486C131.904 125.288 137.988 125.288 143.892 126.486C144.24 126.577 144.578 126.704 144.9 126.864C145.537 127.123 146.097 127.54 146.529 128.075C146.96 128.61 147.248 129.247 147.366 129.924C147.366 129.924 165.546 131.976 168.966 136.278C173.07 141.39 180.27 159.012 186.246 186.048L163.8 186.804C162.455 186.862 161.175 187.395 160.186 188.308C159.198 189.221 158.565 190.454 158.4 191.79L154.8 214.326C154.458 211.212 154.224 207.45 150.912 206.46C147.6 205.47 143.262 203.94 138.42 202.194Z" fill="#332E6F"/>
<path d="M262.17 64.224C259.668 63.882 256.122 55.44 261.738 52.452L262.314 52.128C268.531 59.1948 272.583 67.9011 273.988 77.208C275.392 86.515 274.089 96.0294 270.234 104.616C270.774 97.074 271.782 89.82 266.076 85.68C257.742 79.632 247.248 86.526 247.248 86.526C247.248 76.446 247.824 67.32 246.924 57.258C247.534 57.4658 248.193 57.4805 248.811 57.3001C249.43 57.1198 249.977 56.753 250.38 56.25C250.914 55.1245 251.004 53.8389 250.632 52.65H250.722C250.989 52.9852 251.325 53.2597 251.707 53.4552C252.089 53.6507 252.508 53.7628 252.936 53.784C252.036 57.114 251.136 64.584 262.134 64.224H262.17Z" fill="#332E6F"/>
<path d="M247.644 43.92H247.446C246.978 43.488 246.312 43.452 245.412 44.136H245.178C244.844 42.3275 244.319 40.5596 243.612 38.862C245.07 39.438 246.51 40.086 247.914 40.806C247.621 41.8164 247.529 42.8743 247.644 43.92Z" fill="#332E6F"/>
<path d="M234.576 74.286C234.011 78.1883 233.033 82.0197 231.66 85.716C231.318 83.916 227.196 81.45 223.92 81.45C212.706 81.45 210.456 92.7 209.178 99.09C208.908 95.22 208.638 91.548 208.494 90.252C208.35 88.956 208.602 87.012 205.56 87.066C203.076 87.066 200.844 87.066 198.234 87.066C197.97 87.0621 197.708 87.1166 197.467 87.2256C197.226 87.3345 197.012 87.4952 196.84 87.6963C196.668 87.8974 196.542 88.1339 196.472 88.3889C196.402 88.644 196.389 88.9114 196.434 89.172C196.434 89.64 196.542 90.198 196.614 90.774C195.403 90.8024 194.252 91.3083 193.413 92.1816C192.573 93.0549 192.113 94.2247 192.132 95.436C192.155 95.95 192.303 96.4506 192.564 96.894C192.279 97.5732 192.184 98.3171 192.288 99.0462C192.393 99.7753 192.694 100.462 193.158 101.034C192.438 104.22 194.958 105.3 196.758 105.336H198V105.642L198.36 109.044C198.378 109.326 198.453 109.601 198.579 109.853C198.706 110.106 198.882 110.33 199.097 110.513C199.311 110.696 199.561 110.834 199.83 110.919C200.1 111.003 200.383 111.033 200.664 111.006H201.366C201.366 113.328 199.782 126.45 205.218 128.826L205.092 129.096C194.954 124.405 186.72 116.396 181.751 106.391C176.782 96.3867 175.375 84.9861 177.763 74.0738C180.152 63.1614 186.192 53.3906 194.885 46.3761C203.579 39.3617 214.406 35.5235 225.576 35.496H226.962C224.892 37.3124 223.282 39.5941 222.265 42.1538C221.248 44.7135 220.853 47.4779 221.112 50.22C221.567 50.4696 222.051 50.663 222.552 50.796L222.39 51.318C222.39 51.948 222.39 52.614 222.39 53.28C221.806 53.7003 221.337 54.2618 221.028 54.9121C220.719 55.5624 220.579 56.2803 220.622 56.999C220.666 57.7177 220.89 58.4139 221.274 59.0225C221.659 59.6312 222.192 60.1326 222.822 60.48C223.56 67.194 225.45 73.53 230.22 74.484C231.666 74.7844 233.164 74.7163 234.576 74.286Z" fill="#332E6F"/>
<path d="M220.284 99.846C220.284 100.908 219.978 118.944 215.766 132.246V132.552C212.08 131.803 208.492 130.631 205.074 129.06L205.2 128.79C205.566 128.954 205.954 129.064 206.352 129.114C212.94 130.122 220.284 99.846 220.284 99.846Z" fill="#332E6F"/>
<path d="M225.09 310.59H225.414V310.734C226.854 311.058 236.034 316.008 243.864 316.926C247.626 317.376 251.172 319.446 250.344 324.126H208.8V310.5L225.09 310.59Z" fill="black"/>
<path d="M162 278.694C162.846 280.944 165.114 290.214 169.2 296.316C171.324 299.43 172.08 303.516 167.976 305.982L140.778 274.59L150.714 265.95C154.298 270.377 158.145 274.585 162.234 278.55L162 278.694Z" fill="black"/>
<path d="M163.314 252.756H101.988V328.122H192.528V258.66" stroke="black" stroke-width="0.86" stroke-linejoin="round"/>
<path d="M135.684 213.084C107.568 207.288 88.4881 202.644 86.9221 197.928C81.1081 180.306 93.9241 144.648 100.638 138.042C104.544 134.19 113.562 131.22 123.282 129.312C123.72 128.065 124.492 126.963 125.514 126.126C126.9 125.298 137.808 124.326 143.838 125.892C144.688 126.067 145.468 126.486 146.085 127.096C146.702 127.706 147.128 128.482 147.312 129.33C147.312 129.33 165.492 131.382 168.912 135.702C173.034 140.832 180.252 158.004 186.264 185.184" stroke="black" stroke-width="0.86" stroke-linejoin="round"/>
<path d="M100.422 204.93C96.5521 231.57 104.148 244.332 119.412 250.83C122.169 251.858 125.05 252.517 127.98 252.792L163.332 252.648" stroke="black" stroke-width="0.86" stroke-miterlimit="10"/>
<path d="M221.256 239.4C223.308 248.796 223.668 266.508 225.45 311.184" stroke="black" stroke-width="0.86" stroke-miterlimit="10"/>
<path d="M220.824 191.556L215.172 223.29C214.979 224.555 214.367 225.718 213.433 226.593C212.499 227.468 211.299 228.004 210.024 228.114L159.156 231.318C158.281 231.331 157.414 231.149 156.618 230.785C155.823 230.421 155.118 229.884 154.556 229.213C153.994 228.543 153.588 227.755 153.369 226.908C153.15 226.061 153.122 225.175 153.288 224.316L158.4 191.25C158.565 189.916 159.199 188.685 160.188 187.775C161.177 186.865 162.457 186.336 163.8 186.282L215.172 184.482C216.035 184.502 216.883 184.71 217.657 185.093C218.431 185.477 219.111 186.025 219.65 186.699C220.189 187.374 220.573 188.158 220.776 188.997C220.979 189.836 220.995 190.71 220.824 191.556Z" stroke="black" stroke-width="0.86" stroke-miterlimit="10"/>
<path d="M156.852 230.976L136.8 223.02C136.433 222.835 136.135 222.536 135.952 222.168C135.768 221.8 135.708 221.383 135.781 220.978C135.854 220.574 136.056 220.203 136.356 219.923C136.656 219.642 137.039 219.465 137.448 219.42L144 219.06" stroke="black" stroke-width="0.86" stroke-miterlimit="10"/>
<path d="M99.9541 222.084L135.504 222.156" stroke="black" stroke-width="0.86" stroke-miterlimit="10"/>
<path d="M135.63 213.084C138.582 213.804 142.218 213.516 143.82 217.422C144.36 218.7 145.206 223.686 147.654 221.688C148.68 220.842 148.302 218.34 148.104 217.152C147.763 215.096 147.062 213.115 146.034 211.302" stroke="black" stroke-width="0.86" stroke-miterlimit="10" stroke-linecap="round"/>
<path d="M150.282 209.934C151.596 212.31 153.774 222.966 148.302 221.454" stroke="black" stroke-width="0.86" stroke-miterlimit="10" stroke-linecap="round"/>
<path d="M151.56 220.482C151.56 220.788 153.522 221.49 153.882 220.284" stroke="black" stroke-width="0.86" stroke-miterlimit="10" stroke-linecap="round"/>
<path d="M169.38 184.644C168.714 180.342 164.574 166.644 162.18 157.266" stroke="white" stroke-width="0.86" stroke-miterlimit="10" stroke-linecap="square"/>
<path d="M133.326 212.67C133.326 206.946 135.576 203.508 138.888 201.618" stroke="white" stroke-width="0.86" stroke-miterlimit="10"/>
<path d="M115.578 227.934C115.866 237.798 107.1 242.658 98.1538 243.108" stroke="black" stroke-width="0.86" stroke-miterlimit="10" stroke-linecap="round"/>
<path d="M127.224 87.696C127.782 83.61 128.52 77.562 131.364 74.394C140.49 64.206 151.056 84.96 152.766 91.638C154.35 97.884 145.566 111.906 143.028 112.914C139.23 114.426 133.812 110.844 132.084 107.298" stroke="black" stroke-width="0.86" stroke-miterlimit="10" stroke-linecap="round"/>
<path d="M126 126.558C125.211 116.243 125.295 105.88 126.252 95.58" stroke="black" stroke-width="0.86" stroke-miterlimit="10"/>
<path d="M142.002 112.734C143.01 117 143.226 122.418 145.008 126.27" stroke="black" stroke-width="0.86" stroke-miterlimit="10"/>
<path d="M128.7 89.568C123.66 82.152 119.952 91.908 121.878 94.464C123.138 96.102 125.784 95.796 127.278 95.022" stroke="black" stroke-width="0.86" stroke-miterlimit="10" stroke-linecap="round"/>
<path d="M146.592 79.038C147.204 79.038 161.658 76.158 159.624 72.198C157.302 67.662 129.474 81.972 127.8 82.8" stroke="black" stroke-width="0.86" stroke-miterlimit="10"/>
<path d="M126.342 91.026C125.575 91.7318 124.577 92.1348 123.534 92.16" stroke="black" stroke-width="0.86" stroke-miterlimit="10" stroke-linecap="round"/>
<path d="M137.79 96.534C138.208 96.534 138.546 96.1955 138.546 95.778C138.546 95.3605 138.208 95.022 137.79 95.022C137.373 95.022 137.034 95.3605 137.034 95.778C137.034 96.1955 137.373 96.534 137.79 96.534Z" fill="black"/>
<path d="M146.898 96.534C147.316 96.534 147.654 96.1955 147.654 95.778C147.654 95.3605 147.316 95.022 146.898 95.022C146.481 95.022 146.142 95.3605 146.142 95.778C146.142 96.1955 146.481 96.534 146.898 96.534Z" fill="black"/>
<path d="M144 93.6C143.118 95.4 144.144 98.388 144.486 100.314C144.702 101.628 145.044 104.184 142.362 103.338" stroke="black" stroke-width="0.86" stroke-miterlimit="10" stroke-linecap="round"/>
<path d="M225.09 310.59H208.89C205.609 292.276 201.27 274.168 195.894 256.356" stroke="black" stroke-width="0.86" stroke-miterlimit="10"/>
<path d="M225.45 310.716C226.89 311.04 236.07 315.99 243.9 316.908C247.68 317.358 251.244 319.464 250.38 324.27L208.818 324.468" stroke="black" stroke-width="0.86" stroke-linecap="round" stroke-linejoin="round"/>
<path d="M208.782 327.852H250.452V324.432H208.782V327.852Z" stroke="black" stroke-width="0.86" stroke-linecap="round" stroke-linejoin="round"/>
<path d="M208.8 310.554V324.144" stroke="black" stroke-width="0.86" stroke-miterlimit="10"/>
<path d="M162.54 279C163.296 281.322 165.276 290.448 169.308 296.334C171.252 299.196 172.062 302.832 168.984 305.334C168.737 305.537 168.422 305.637 168.104 305.613C167.785 305.59 167.488 305.445 167.274 305.208L141.372 275.706C141.162 275.464 141.056 275.149 141.077 274.829C141.097 274.509 141.242 274.21 141.48 273.996L150.354 266.4" fill="black"/>
<path d="M162.54 279C163.296 281.322 165.276 290.448 169.308 296.334C171.252 299.196 172.062 302.832 168.984 305.334C168.737 305.537 168.422 305.637 168.104 305.613C167.785 305.59 167.488 305.445 167.274 305.208L141.372 275.706C141.162 275.464 141.056 275.149 141.077 274.829C141.097 274.509 141.242 274.21 141.48 273.996L150.354 266.4" stroke="black" stroke-width="0.86" stroke-miterlimit="10"/>
<path d="M135 104.598C135.306 107.1 138.924 107.1 139.572 106.398" stroke="black" stroke-width="0.86" stroke-miterlimit="10" stroke-linecap="round"/>
<path d="M112.446 157.914C108.612 170.01 103.824 185.292 104.796 187.182C105.768 189.072 124.416 196.182 138.996 201.42" stroke="white" stroke-width="0.86" stroke-miterlimit="10" stroke-linecap="round"/>
<path d="M133.488 212.058C118.854 210.024 107.244 207.702 98.3701 205.632" stroke="white" stroke-width="0.86" stroke-miterlimit="10" stroke-linecap="square"/>
<path d="M222.786 60.102C223.524 66.816 225.414 73.134 230.184 74.106C232.37 74.3623 234.582 73.9658 236.543 72.9663C238.503 71.9669 240.124 70.4093 241.2 68.49" stroke="black" stroke-width="0.86" stroke-miterlimit="10" stroke-linecap="round"/>
<path d="M222.318 50.832C222.318 51.444 222.318 52.11 222.318 52.794" stroke="black" stroke-width="0.86" stroke-miterlimit="10" stroke-linecap="round"/>
<path d="M244.512 51.048C248.868 43.992 252.108 53.28 250.416 55.71C249.835 56.3289 249.054 56.7225 248.211 56.8213C247.368 56.9201 246.517 56.7178 245.808 56.25" stroke="black" stroke-width="0.86" stroke-miterlimit="10" stroke-linecap="round"/>
<path d="M248.112 51.282C247.846 52.2863 247.949 53.3524 248.4 54.288" stroke="black" stroke-width="0.86" stroke-miterlimit="10" stroke-linecap="round"/>
<path d="M245.844 48.114C244.855 49.3985 243.499 50.3525 241.956 50.85C239.758 51.1532 237.519 50.8489 235.482 49.9699C233.445 49.091 231.688 47.671 230.4 45.864C229.572 47.664 229.122 49.14 227.412 49.914C226.412 50.3694 225.322 50.5899 224.223 50.5587C223.125 50.5275 222.049 50.2454 221.076 49.734C219.582 38.232 232.758 25.398 241.884 35.586C244.71 38.754 245.484 44.802 246.024 48.888" stroke="black" stroke-width="0.86" stroke-linecap="round" stroke-linejoin="round"/>
<path d="M245.412 43.668C248.274 41.508 248.796 46.656 248.094 48.222" stroke="black" stroke-width="0.86" stroke-miterlimit="10" stroke-linecap="round"/>
<path d="M257.238 50.238C257.086 50.9112 256.755 51.5307 256.279 52.0306C255.804 52.5304 255.201 52.892 254.536 53.0766C253.871 53.2613 253.169 53.2623 252.504 53.0794C251.838 52.8965 251.235 52.5366 250.758 52.038" stroke="black" stroke-width="0.86" stroke-linecap="round" stroke-linejoin="round"/>
<path d="M247.644 43.38C247.14 38.844 251.37 30.528 261.648 34.524C269.676 37.638 269.406 47.862 261.648 51.912C256.032 54.9 259.596 63.378 262.098 63.702" stroke="black" stroke-width="0.86" stroke-linecap="round" stroke-linejoin="round"/>
<path d="M262.17 63.702C251.1 63.972 252.072 56.61 252.972 53.262" stroke="black" stroke-width="0.86" stroke-linecap="round" stroke-linejoin="round"/>
<path d="M235.71 60.552C238.006 60.552 239.868 58.6501 239.868 56.304C239.868 53.9579 238.006 52.056 235.71 52.056C233.413 52.056 231.552 53.9579 231.552 56.304C231.552 58.6501 233.413 60.552 235.71 60.552Z" stroke="black" stroke-width="0.86" stroke-linecap="round" stroke-linejoin="round"/>
<path d="M224.748 60.552C227.044 60.552 228.906 58.6501 228.906 56.304C228.906 53.9579 227.044 52.056 224.748 52.056C222.451 52.056 220.59 53.9579 220.59 56.304C220.59 58.6501 222.451 60.552 224.748 60.552Z" stroke="black" stroke-width="0.86" stroke-linecap="round" stroke-linejoin="round"/>
<path d="M244.404 51.12C244.404 51.12 239.526 54.27 239.49 54.27" stroke="black" stroke-width="0.86" stroke-miterlimit="10" stroke-linecap="round"/>
<path d="M231.516 56.376C231.516 56.0323 231.379 55.7027 231.136 55.4596C230.893 55.2166 230.564 55.08 230.22 55.08C229.876 55.08 229.546 55.2166 229.303 55.4596C229.06 55.7027 228.924 56.0323 228.924 56.376" stroke="black" stroke-width="0.86" stroke-linecap="round" stroke-linejoin="round"/>
<path d="M237.15 66.312C237.063 66.7365 236.882 67.1361 236.621 67.4818C236.359 67.8276 236.024 68.1107 235.64 68.3107C235.255 68.5107 234.831 68.6225 234.398 68.6379C233.965 68.6534 233.534 68.5721 233.136 68.4" stroke="black" stroke-width="0.86" stroke-linecap="round" stroke-linejoin="round"/>
<path d="M229.158 55.98C229.112 56.8775 228.985 57.769 228.78 58.644C228.672 59.346 227.682 63.306 227.574 63.9C227.466 64.494 229.698 64.656 230.238 64.746" stroke="black" stroke-width="0.86" stroke-linecap="round" stroke-linejoin="round"/>
<path d="M262.53 116.1C257.526 110.7 240.066 95.274 239.346 94.752C238.235 94.1785 236.996 93.8996 235.746 93.942C232.15 93.6237 228.53 93.684 224.946 94.122C223.146 94.338 222.714 96.804 224.802 96.948C226.206 96.948 227.754 96.84 229.176 96.84C231.062 96.7673 232.95 96.8214 234.828 97.002" stroke="black" stroke-width="0.86" stroke-miterlimit="10" stroke-linecap="round"/>
<path d="M234.846 97.092C232.805 96.8482 230.734 97.1078 228.816 97.848C225.972 99.018 227.646 101.628 228.168 102.168" stroke="black" stroke-width="0.86" stroke-miterlimit="10" stroke-linecap="round"/>
<path d="M234.684 99.9C233.262 99.792 227.826 99.468 228.132 102.942C228.222 103.878 230.292 107.478 232.812 106.866C232.971 106.845 233.123 106.789 233.259 106.702C233.394 106.616 233.508 106.501 233.594 106.365C233.68 106.229 233.735 106.077 233.755 105.918C233.775 105.758 233.761 105.597 233.712 105.444C233.532 104.778 232.776 104.418 232.326 103.95C231.876 103.482 231.786 103.464 232.092 103.176C233.016 102.918 233.994 102.918 234.918 103.176C241.29 106.254 251.334 120.132 254.106 123.408" stroke="black" stroke-width="0.86" stroke-miterlimit="10" stroke-linecap="round"/>
<path d="M203.526 98.352C203.867 98.407 204.216 98.3407 204.513 98.1647C204.81 97.9888 205.036 97.7143 205.152 97.3889C205.267 97.0636 205.265 96.708 205.146 96.3841C205.026 96.0602 204.797 95.7884 204.498 95.616C202.12 95.1476 199.715 94.823 197.298 94.644C196.911 94.6398 196.539 94.4923 196.254 94.23C195.768 93.582 196.488 92.664 197.208 92.646" stroke="black" stroke-width="0.86" stroke-miterlimit="10"/>
<path d="M196.542 90.306C195.333 90.3297 194.182 90.8317 193.342 91.7021C192.502 92.5726 192.041 93.7405 192.06 94.95C192.222 97.596 194.994 98.406 196.02 98.55C197.046 98.694 204.048 98.19 205.02 98.55C205.992 98.91 206.694 101.088 205.02 101.664C202.101 101.949 199.167 102.039 196.236 101.934C195.571 101.986 194.903 101.865 194.298 101.583C193.693 101.301 193.171 100.867 192.783 100.323C192.395 99.7797 192.155 99.1451 192.085 98.4811C192.015 97.8172 192.118 97.1464 192.384 96.534" stroke="black" stroke-width="0.86" stroke-miterlimit="10"/>
<path d="M204.696 101.79C204.97 101.896 205.205 102.083 205.371 102.326C205.537 102.568 205.626 102.855 205.626 103.149C205.626 103.443 205.537 103.73 205.371 103.972C205.205 104.215 204.97 104.402 204.696 104.508C202.037 104.803 199.361 104.929 196.686 104.886C194.616 104.886 192.078 103.68 193.086 100.17" stroke="black" stroke-width="0.86" stroke-miterlimit="10"/>
<path d="M198 105.21L198.36 108.594C198.378 108.876 198.453 109.152 198.579 109.406C198.705 109.659 198.881 109.884 199.096 110.069C199.31 110.253 199.559 110.393 199.829 110.48C200.098 110.567 200.382 110.599 200.664 110.574L208.26 110.07C208.797 109.953 209.267 109.632 209.572 109.176C209.878 108.72 209.995 108.163 209.898 107.622C209.538 102.87 208.854 92.142 208.566 89.712C208.404 88.398 208.674 86.472 205.65 86.544C203.148 86.544 200.916 86.544 198.306 86.544C198.042 86.5402 197.78 86.5946 197.539 86.7036C197.298 86.8125 197.084 86.9732 196.912 87.1743C196.74 87.3754 196.614 87.6119 196.544 87.8669C196.474 88.122 196.461 88.3894 196.506 88.65C196.686 90.45 197.046 93.024 197.226 94.806" stroke="black" stroke-width="0.86" stroke-miterlimit="10"/>
<path d="M270.306 104.058C270.846 96.408 271.638 86.94 265.356 83.52C255.708 78.282 247.356 86.022 247.356 86.022C247.356 75.96 247.932 66.816 247.032 56.772" stroke="black" stroke-width="0.86" stroke-linejoin="round"/>
<path d="M209.16 98.676C210.42 92.304 212.634 80.928 223.92 80.928C227.196 80.928 230.886 82.44 231.66 85.194C233.048 81.4713 234.025 77.6085 234.576 73.674" stroke="black" stroke-width="0.86" stroke-linejoin="round"/>
<path d="M215.766 131.814C219.978 118.404 220.32 100.368 220.284 99.306C220.284 99.306 212.94 129.582 206.298 128.682C199.656 127.782 201.294 112.572 201.294 110.43" stroke="black" stroke-width="0.86" stroke-linejoin="round"/>
<path d="M245.052 99.684L256.302 99.846C256.302 99.846 256.302 103.104 256.302 110.016" stroke="black" stroke-width="0.86" stroke-linejoin="round"/>
<path d="M220.284 99.306L227.286 99.414" stroke="black" stroke-width="0.86" stroke-linejoin="round"/>
<path d="M247.914 40.392C246.492 39.672 245.052 39.006 243.558 38.412" stroke="black" stroke-width="0.86" stroke-miterlimit="10"/>
<path d="M226.962 35.01H225.504C214.286 35.005 203.405 38.844 194.674 45.8875C185.943 52.9309 179.889 62.7534 177.52 73.7185C175.152 84.6836 176.612 96.1292 181.658 106.148C186.704 116.168 195.03 124.155 205.25 128.781C215.47 133.406 226.966 134.39 237.824 131.569C248.681 128.747 258.244 122.29 264.919 113.274C271.594 104.258 274.978 93.2273 274.507 82.0192C274.036 70.8111 269.739 60.1026 262.332 51.678" stroke="black" stroke-width="0.86" stroke-miterlimit="10"/>
<path d="M216.99 211.32C217.962 211.626 218.916 211.968 219.87 212.328C229.734 216.09 233.172 228.636 224.856 236.124C218.556 241.794 165.456 276.786 162.108 278.496L150.516 266.076C150.516 266.076 174.978 240.228 185.4 229.806" stroke="black" stroke-width="0.86" stroke-miterlimit="10"/>
<path d="M221.256 99.252C221.022 98.802 219.6 84.258 227.124 81.414" stroke="black" stroke-width="0.86" stroke-linejoin="round"/>
<path d="M227.394 93.384C227.16 91.98 227.988 85.464 230.994 84.978" stroke="black" stroke-width="0.86" stroke-linejoin="round"/>
<path d="M255.834 99.9C256.068 99.468 257.49 84.906 249.948 82.062" stroke="black" stroke-width="0.86" stroke-linejoin="round"/>
<path d="M250.434 99.918C250.812 97.632 250.56 86.904 247.32 85.914" stroke="black" stroke-width="0.86" stroke-linejoin="round"/>
<path d="M144 93.6C144 93.6 146.79 91.8 148.392 93.6" stroke="black" stroke-width="0.86" stroke-miterlimit="10" stroke-linecap="round"/>
<path d="M135.396 93.6C136.075 93.2481 136.828 93.0645 137.592 93.0645C138.356 93.0645 139.109 93.2481 139.788 93.6" stroke="black" stroke-width="0.86" stroke-linecap="round" stroke-linejoin="round"/>
<path d="M138.19 276.834L165.544 308.268L168.124 306.023L140.77 274.589L138.19 276.834Z" stroke="black" stroke-width="0.86" stroke-linecap="round" stroke-linejoin="round"/>
</svg>
