<svg width="880" height="880" viewBox="0 0 880 880" fill="none" xmlns="http://www.w3.org/2000/svg">
<path d="M342.011 318.076C335.587 316.624 330.395 315.392 327.051 314.424C336.159 303.864 339.811 298.584 345.751 291.06C345.751 291.06 344.563 299.244 342.055 317.988L342.011 318.076ZM337.611 350.9V351.296C331.143 396.44 323.575 446.336 323.047 456.06L495.791 455.752C495.219 424.688 482.591 337.7 475.331 292.952C479.159 294.536 546.523 319.352 554.531 311.212V310.992C560.119 278.96 567.291 244.024 571.383 217.712L552.463 209.484C549.515 218.68 536.667 252.34 528.615 269.984C510.564 253.367 490.851 238.653 469.787 226.072C456.587 218.944 435.027 219.824 435.027 219.824C434.751 217.798 433.981 215.871 432.784 214.214C431.587 212.556 430 211.219 428.163 210.32L426.887 209.836C412.147 205.788 385.131 208.692 381.743 210.76C378.906 212.955 376.916 216.064 376.111 219.56C376.111 219.56 340.163 224.84 329.603 233.508C329.603 233.508 297.571 277.288 281.555 311.652C275.659 324.28 277.903 332.024 288.639 338.052C294.799 342.188 315.919 347.116 337.523 350.9H337.611ZM397.231 333.3C396.439 331.188 401.323 325.248 407.087 324.764H407.659L405.459 305.932C405.459 303.6 414.259 301.532 424.863 301.532C435.467 301.532 444.223 303.468 444.223 305.932C444.217 306.203 444.125 306.465 443.959 306.68L441.583 327.58C441.603 327.697 441.603 327.816 441.583 327.932C442.218 327.891 442.854 327.988 443.447 328.217C444.04 328.445 444.577 328.8 445.02 329.255C445.464 329.711 445.803 330.258 446.015 330.857C446.226 331.457 446.306 332.095 446.247 332.728C446.028 334.209 445.458 335.616 444.586 336.833C443.713 338.05 442.563 339.041 441.231 339.724C441.815 339.595 442.421 339.595 443.005 339.726C443.589 339.856 444.137 340.112 444.611 340.477C445.085 340.842 445.473 341.307 445.748 341.838C446.024 342.369 446.179 342.954 446.203 343.552C445.922 344.887 445.335 346.139 444.487 347.208C443.64 348.277 442.555 349.134 441.319 349.712C441.858 349.534 442.431 349.484 442.992 349.566C443.554 349.648 444.089 349.859 444.554 350.184C445.02 350.508 445.403 350.937 445.674 351.436C445.945 351.934 446.096 352.489 446.115 353.056C446.115 355.168 443.123 357.808 437.755 359.656V360.712L436.435 372.548C432.761 373.622 428.956 374.185 425.127 374.22C420.956 374.134 416.808 373.573 412.763 372.548L411.531 361.372V360.668C405.992 359.658 400.567 358.095 395.339 356.004L394.591 355.388C398.507 351.472 401.323 338.8 397.143 333.3H397.231Z" fill="#332E6F"/>
<path d="M394.945 354.816C398.597 351.032 401.413 338.404 397.233 332.816" stroke="#332E6F" stroke-width="3.784" stroke-linecap="round" stroke-linejoin="round"/>
<path d="M427.769 796.048V795.784H499.005C501.073 784.08 492.361 778.932 483.165 777.876C464.025 775.632 441.057 763.444 437.493 762.696H398.245C398.245 769.472 398.245 773.608 398.245 774.444V774.972C402.729 776.344 407.321 777.33 411.973 777.92C421.169 779.108 429.925 784.256 427.769 796.048Z" fill="#332E6F"/>
<path d="M427.767 795.783V796.047C429.923 784.255 421.167 779.107 411.971 778.051C407.32 777.461 402.727 776.475 398.243 775.103C383.151 770.703 369.027 763.443 366.299 762.871H326.039C326.039 780.867 326.259 792.791 326.039 795.871L427.767 795.783Z" fill="#332E6F"/>
<path d="M408.76 130.548C408.278 130.582 407.828 130.804 407.507 131.166C407.186 131.528 407.02 132.001 407.044 132.484C407.089 132.97 407.32 133.42 407.689 133.74C408.058 134.06 408.537 134.225 409.024 134.2C409.507 134.155 409.953 133.923 410.266 133.552C410.578 133.182 410.733 132.703 410.696 132.22C410.686 131.981 410.626 131.746 410.522 131.531C410.417 131.315 410.27 131.124 410.089 130.967C409.907 130.811 409.696 130.693 409.468 130.621C409.239 130.549 408.999 130.524 408.76 130.548Z" fill="black"/>
<path d="M432.916 129.887C432.479 129.98 432.09 130.228 431.822 130.584C431.553 130.941 431.423 131.383 431.456 131.829C431.488 132.274 431.68 132.692 431.997 133.007C432.314 133.322 432.734 133.511 433.18 133.539C433.443 133.556 433.707 133.517 433.954 133.423C434.201 133.33 434.425 133.184 434.61 132.997C434.796 132.81 434.94 132.585 435.032 132.337C435.123 132.09 435.161 131.825 435.142 131.562C435.123 131.299 435.048 131.043 434.921 130.811C434.795 130.579 434.621 130.377 434.41 130.218C434.199 130.06 433.956 129.948 433.698 129.891C433.441 129.834 433.174 129.833 432.916 129.887Z" fill="black"/>
<path d="M475.2 293.083C479.028 294.667 546.392 319.483 554.4 311.343" stroke="black" stroke-width="3.784" stroke-miterlimit="10"/>
<path d="M384.781 115.851C385.309 112.155 385.881 107.843 386.717 103.443C387.745 96.2491 390.559 89.4269 394.901 83.5993C404.977 72.3353 415.801 76.5593 424.997 86.0193C427.636 88.7531 430.049 91.6961 432.213 94.8193C438.792 104.239 443.855 114.632 447.217 125.619C451.089 140.843 429.617 175.163 423.413 177.627C422.67 177.899 421.904 178.105 421.125 178.243C412.061 179.959 400.533 171.863 396.661 163.899" stroke="black" stroke-width="3.784" stroke-miterlimit="10" stroke-linecap="round"/>
<path d="M381.657 210.892C381.657 184.844 380.249 161.172 382.405 135.212" stroke="black" stroke-width="3.784" stroke-miterlimit="10"/>
<path d="M420.903 177.1C420.924 177.452 420.924 177.804 420.903 178.156C423.191 188.408 423.807 201.08 428.031 210.188" stroke="black" stroke-width="3.784" stroke-miterlimit="10"/>
<path d="M388.388 120.472C387.301 118.863 386.032 117.387 384.604 116.072C374.308 107.272 367.488 126.852 371.712 132.396C373.046 133.797 374.765 134.771 376.653 135.194C378.541 135.617 380.512 135.47 382.316 134.772C383.144 134.545 383.942 134.22 384.692 133.804" stroke="black" stroke-width="3.784" stroke-miterlimit="10" stroke-linecap="round"/>
<path d="M432.125 94.7318C434.589 94.4678 468.777 87.5598 463.893 77.9678C461.077 72.5118 442.949 78.3198 424.909 85.7998C407.749 92.9278 390.589 101.552 386.629 103.4L386.013 103.664" stroke="black" stroke-width="3.784" stroke-miterlimit="10"/>
<path d="M412.236 122.409C410.438 121.856 408.535 121.739 406.683 122.068C404.831 122.397 403.085 123.162 401.588 124.301" stroke="black" stroke-width="3.784" stroke-miterlimit="10" stroke-linecap="round"/>
<path d="M382.8 124.036C380.909 125.732 378.475 126.699 375.936 126.764" stroke="black" stroke-width="3.784" stroke-miterlimit="10" stroke-linecap="round"/>
<path d="M436.128 123.2C433.224 121.88 426.668 122.232 425.48 125.092C423.588 129.712 426.404 139.304 427.592 144.804C428.428 148.544 429.748 155.804 423.192 153.868" stroke="black" stroke-width="3.784" stroke-miterlimit="10" stroke-linecap="round"/>
<path d="M414.172 163.107C414.955 163.952 415.916 164.61 416.987 165.033C418.057 165.457 419.208 165.635 420.357 165.555C421.505 165.475 422.62 165.138 423.621 164.57C424.622 164.002 425.483 163.216 426.14 162.271" stroke="black" stroke-width="3.784" stroke-miterlimit="10" stroke-linecap="round"/>
<path d="M397.187 656.216C397.583 703.12 398.155 743.599 398.331 762.827C398.331 769.603 398.331 773.739 398.331 774.575" stroke="black" stroke-width="3.784" stroke-miterlimit="10"/>
<path d="M353.409 469.788C353.937 488.62 341.045 499.972 324.941 504.592C320.322 505.906 315.569 506.688 310.773 506.924" stroke="black" stroke-width="3.784" stroke-miterlimit="10" stroke-linecap="round"/>
<path d="M326.217 795.784C326.217 792.704 326.217 780.78 326.217 762.784C325.733 708.004 324.633 596.552 325.117 504.592C325.117 488.224 325.337 472.472 325.557 457.776" stroke="black" stroke-width="3.784" stroke-linecap="round" stroke-linejoin="round"/>
<path d="M427.769 796.047L326.217 796.487C326.217 796.487 326.217 796.179 326.217 795.871" stroke="black" stroke-width="3.784" stroke-linecap="round" stroke-linejoin="round"/>
<path d="M421.697 492.007C419.278 547.449 410.989 602.478 396.969 656.171C387.685 693.571 376.905 729.343 366.521 762.343V762.783C369.249 763.355 383.373 770.659 398.465 775.015" stroke="black" stroke-width="3.784" stroke-linecap="round" stroke-linejoin="round"/>
<path d="M492.317 456.281C489.589 577.677 463.013 682.001 437.581 762.785C441.145 763.533 463.981 775.721 483.253 777.965C492.449 779.021 501.161 784.169 499.093 795.873H426.801" stroke="black" stroke-width="3.784" stroke-linecap="round" stroke-linejoin="round"/>
<path d="M439.207 762.828H437.579H398.991" stroke="black" stroke-width="3.784" stroke-miterlimit="10"/>
<path d="M366.343 762.828H366.299H326.127" stroke="black" stroke-width="3.784" stroke-miterlimit="10"/>
<path d="M326.217 796.489V804.144H427.769V796.049V795.828H326.217V795.873V796.489Z" stroke="black" stroke-width="3.784" stroke-linecap="round" stroke-linejoin="round"/>
<path d="M427.901 796.049V804.144H499.005V795.96V795.828H427.901V796.049Z" stroke="black" stroke-width="3.784" stroke-linecap="round" stroke-linejoin="round"/>
<path d="M337.437 351.296C330.969 396.44 323.401 446.336 322.873 456.06L495.617 455.752C495.045 424.688 482.417 337.7 475.157 292.952C475.157 291.676 474.761 290.488 474.585 289.3" stroke="black" stroke-width="3.784" stroke-linecap="round" stroke-linejoin="round"/>
<path d="M552.243 208.78C544.763 197.912 551.055 179.608 553.167 172.348C554.399 167.948 560.779 168.3 560.119 174.548C559.591 179.916 558.843 185.592 561.043 187.748" stroke="black" stroke-width="3.784" stroke-miterlimit="10" stroke-linecap="round"/>
<path d="M561.353 188.451C561.333 188.335 561.333 188.216 561.353 188.099V188.099C565.621 175.999 579.481 153.999 586.653 158.399C587.295 158.738 587.784 159.309 588.021 159.995C588.258 160.682 588.225 161.432 587.929 162.095C587.108 163.901 585.925 165.518 584.453 166.847C579.818 170.928 576.202 176.036 573.893 181.763" stroke="black" stroke-width="3.784" stroke-miterlimit="10" stroke-linecap="round"/>
<path d="M588.149 162.229C588.932 161.202 589.945 160.372 591.106 159.807C592.268 159.241 593.545 158.956 594.837 158.973C595.706 158.924 596.563 159.192 597.25 159.725C597.937 160.259 598.408 161.023 598.577 161.877C599.281 164.077 597.741 165.837 596.201 167.289C590.557 172.995 585.663 179.397 581.637 186.341" stroke="black" stroke-width="3.784" stroke-miterlimit="10" stroke-linecap="round"/>
<path d="M571.999 217.889C578.159 217.185 582.955 202.885 584.583 198.177C587.337 191.314 591.334 185.019 596.375 179.609C598.223 177.453 602.007 173.889 601.787 170.809C601.642 170.222 601.377 169.672 601.01 169.192C600.642 168.713 600.18 168.314 599.651 168.021C599.123 167.728 598.54 167.547 597.938 167.489C597.337 167.431 596.73 167.498 596.155 167.685" stroke="black" stroke-width="3.784" stroke-miterlimit="10" stroke-linecap="round"/>
<path d="M569.977 196.504C571.737 190.696 564.653 188.276 561.177 188.408" stroke="black" stroke-width="3.784" stroke-miterlimit="10" stroke-linecap="round"/>
<path d="M529.981 271.568L528.617 270.336C510.583 253.597 490.869 238.763 469.789 226.072C456.589 218.944 435.029 219.824 435.029 219.824C434.753 217.798 433.983 215.871 432.785 214.214C431.588 212.556 430.001 211.219 428.165 210.32L426.889 209.836C412.149 205.788 385.133 208.692 381.745 210.76C378.908 212.955 376.918 216.064 376.113 219.56C376.113 219.56 340.165 224.84 329.605 233.508C329.605 233.508 297.573 277.288 281.557 311.652C275.661 324.28 277.905 332.024 288.641 338.052C295.109 341.748 316.009 346.852 337.613 350.46C363.089 354.86 392.6 358.332 397 356M394.945 329.5C376.509 324.176 355.961 320.804 342.101 317.592C335.677 316.14 330.485 314.908 327.141 313.94C336.249 303.38 339.901 298.1 345.841 290.576C345.841 290.576 344.653 298.76 342.145 317.504" stroke="black" stroke-width="3.784" stroke-linecap="round" stroke-linejoin="round"/>
<path d="M408.145 329.295C410.785 336.115 423.941 334.928 429.705 334.004C431.729 333.696 440.001 331.319 441.453 327.623C441.472 327.507 441.472 327.388 441.453 327.271" stroke="black" stroke-width="3.784" stroke-miterlimit="10"/>
<path d="M441.408 327.667C442.043 327.626 442.678 327.724 443.272 327.952C443.865 328.18 444.402 328.535 444.845 328.991C445.288 329.446 445.628 329.993 445.839 330.592C446.051 331.192 446.131 331.83 446.072 332.463C445.852 333.944 445.283 335.351 444.41 336.568C443.538 337.785 442.388 338.776 441.056 339.459C434.747 343.129 427.341 344.438 420.156 343.155" stroke="black" stroke-width="3.784" stroke-miterlimit="10" stroke-linecap="round"/>
<path d="M441.145 339.505C441.729 339.375 442.334 339.376 442.918 339.506C443.502 339.636 444.05 339.893 444.524 340.258C444.998 340.623 445.387 341.087 445.662 341.618C445.937 342.15 446.092 342.735 446.117 343.333C445.836 344.668 445.248 345.919 444.401 346.988C443.553 348.057 442.469 348.915 441.233 349.493C434.908 352.747 427.711 353.903 420.685 352.793" stroke="black" stroke-width="3.784" stroke-miterlimit="10" stroke-linecap="round"/>
<path d="M441.321 349.581C441.859 349.403 442.432 349.352 442.994 349.434C443.555 349.516 444.09 349.728 444.556 350.052C445.021 350.377 445.404 350.806 445.675 351.304C445.946 351.803 446.098 352.357 446.117 352.925C446.117 355.037 443.125 357.677 437.757 359.525C429.323 362.019 420.399 362.367 411.797 360.537C406.257 359.526 402.728 358.091 397.5 356" stroke="black" stroke-width="3.784" stroke-miterlimit="10" stroke-linecap="round"/>
<path d="M398.5 331C399.04 328.851 402.617 325.12 407.088 324.676" stroke="black" stroke-width="3.784" stroke-miterlimit="10" stroke-linecap="round"/>
<path d="M444.048 305.669L443.96 306.417L441.584 327.317L441.54 327.581" stroke="black" stroke-width="3.784" stroke-linecap="round" stroke-linejoin="round"/>
<path d="M405.416 305.669L405.46 305.801L407.66 324.633L408.188 329.341" stroke="black" stroke-width="3.784" stroke-linecap="round" stroke-linejoin="round"/>
<path d="M443.96 306.417C444.125 306.202 444.218 305.94 444.224 305.669C444.224 303.337 435.424 301.269 424.864 301.269C414.304 301.269 405.46 303.205 405.46 305.669C405.724 307.957 414.26 309.805 424.82 309.805C434.456 309.937 442.42 308.397 443.96 306.417Z" stroke="black" stroke-width="3.784" stroke-linecap="round" stroke-linejoin="round"/>
<path d="M411.664 361.241L412.896 372.417C416.941 373.442 421.089 374.003 425.26 374.089C429.088 374.054 432.894 373.491 436.568 372.417L437.888 360.581" stroke="black" stroke-width="3.784" stroke-linecap="round" stroke-linejoin="round"/>
<path d="M554.753 311.125C560.341 279.093 567.513 244.157 571.605 217.845L552.685 209.617C549.737 218.813 536.889 252.473 528.837 270.117" stroke="black" stroke-width="3.784" stroke-linecap="round" stroke-linejoin="round"/>
<path d="M419.715 295.547C418.597 294.386 417.737 293.002 417.191 291.486C416.645 289.969 416.426 288.354 416.547 286.747C417.616 284.246 418.881 281.833 420.331 279.531C423.103 273.195 420.331 268.575 415.931 264.219" stroke="white" stroke-width="3.784" stroke-miterlimit="10" stroke-linecap="round"/>
<path d="M430.849 295.547C429.73 294.386 428.87 293.002 428.324 291.486C427.778 289.969 427.559 288.354 427.681 286.747C428.767 284.254 430.031 281.842 431.465 279.531C434.281 273.195 431.465 268.575 427.065 264.219" stroke="white" stroke-width="3.784" stroke-miterlimit="10" stroke-linecap="round"/>
<path d="M368.5 763.5C374.616 765.876 394.284 775.501 411.884 777.569C421.124 778.625 428.176 779.172 428 794" stroke="white" stroke-width="3.784" stroke-linejoin="round"/>
<path d="M399.783 331.803C383.327 323.003 355.783 318.119 341.615 314.731" stroke="white" stroke-width="3.784" stroke-linecap="square" stroke-linejoin="round"/>
<path d="M334.399 353.583L337.831 354.199C363.791 358.599 392.567 358.599 399.431 355.211" stroke="white" stroke-width="3.784" stroke-linecap="round" stroke-linejoin="round"/>
</svg>
