<svg width="320" height="232" viewBox="0 0 320 232" fill="none" xmlns="http://www.w3.org/2000/svg">
<g clip-path="url(#clip0_352_6432)">
<path d="M109.994 162.166C106.755 161.434 104.136 160.813 102.45 160.324C107.043 154.999 108.885 152.336 111.88 148.542C111.88 148.542 111.281 152.669 110.016 162.122L109.994 162.166ZM107.775 178.719V178.918C104.513 201.684 100.697 226.846 100.431 231.749L187.543 231.594C187.255 215.929 180.887 172.062 177.225 149.496C179.156 150.295 213.127 162.81 217.165 158.705V158.594C219.983 142.44 223.6 124.823 225.663 111.554L216.122 107.405C214.635 112.042 208.156 129.016 204.096 137.914C194.993 129.534 185.052 122.114 174.43 115.77C167.773 112.175 156.901 112.619 156.901 112.619C156.762 111.597 156.373 110.626 155.769 109.79C155.166 108.954 154.365 108.28 153.439 107.826L152.796 107.582C145.363 105.541 131.739 107.005 130.03 108.048C128.6 109.155 127.596 110.723 127.19 112.486C127.19 112.486 109.062 115.148 103.737 119.52C103.737 119.52 87.5836 141.597 79.507 158.927C76.5337 165.295 77.6653 169.2 83.0793 172.24C86.1857 174.325 96.8362 176.81 107.731 178.719H107.775ZM137.841 169.843C137.441 168.778 139.904 165.783 142.811 165.539H143.099L141.99 156.042C141.99 154.866 146.428 153.823 151.775 153.823C157.123 153.823 161.538 154.799 161.538 156.042C161.535 156.179 161.488 156.311 161.405 156.419L160.207 166.959C160.217 167.018 160.217 167.078 160.207 167.136C160.527 167.116 160.847 167.165 161.147 167.28C161.446 167.395 161.717 167.574 161.94 167.804C162.164 168.033 162.335 168.309 162.441 168.611C162.548 168.914 162.588 169.236 162.559 169.555C162.448 170.302 162.161 171.011 161.721 171.625C161.281 172.238 160.701 172.738 160.029 173.083C160.324 173.018 160.629 173.018 160.924 173.084C161.218 173.149 161.495 173.279 161.734 173.463C161.973 173.647 162.168 173.881 162.307 174.149C162.446 174.417 162.524 174.712 162.537 175.013C162.395 175.686 162.099 176.318 161.671 176.857C161.244 177.396 160.697 177.828 160.074 178.12C160.345 178.03 160.634 178.005 160.917 178.046C161.201 178.087 161.47 178.194 161.705 178.358C161.94 178.521 162.133 178.737 162.27 178.989C162.406 179.24 162.483 179.52 162.492 179.806C162.492 180.871 160.983 182.202 158.276 183.134V183.667L157.611 189.635C155.758 190.177 153.839 190.461 151.908 190.479C149.805 190.435 147.713 190.152 145.673 189.635L145.052 184V183.645C142.259 183.135 139.523 182.347 136.887 181.293L136.509 180.982C138.484 179.007 139.904 172.617 137.796 169.843H137.841Z" fill="#332E6F"/>
<path d="M136.687 180.693C138.528 178.785 139.948 172.417 137.841 169.599" stroke="#332E6F" stroke-width="1.90822" stroke-linecap="round" stroke-linejoin="round"/>
<path d="M143.654 67.5977C143.411 67.6148 143.184 67.7266 143.022 67.9092C142.861 68.0917 142.777 68.3304 142.789 68.574C142.812 68.8192 142.928 69.0462 143.114 69.2075C143.3 69.3687 143.542 69.4518 143.787 69.4393C144.031 69.4168 144.256 69.2994 144.413 69.1127C144.571 68.9259 144.649 68.6846 144.631 68.4408C144.625 68.3202 144.595 68.2019 144.543 68.0933C144.49 67.9847 144.415 67.8879 144.324 67.809C144.233 67.73 144.126 67.6706 144.011 67.6343C143.896 67.5979 143.774 67.5855 143.654 67.5977Z" fill="black"/>
<path d="M155.834 67.2649C155.614 67.3116 155.418 67.4364 155.283 67.6164C155.147 67.7963 155.082 68.0192 155.098 68.2437C155.114 68.4683 155.211 68.6794 155.371 68.838C155.531 68.9966 155.743 69.092 155.967 69.1065C156.1 69.1151 156.233 69.0951 156.358 69.048C156.482 69.0008 156.595 68.9275 156.689 68.833C156.783 68.7385 156.855 68.625 156.901 68.5002C156.948 68.3754 156.967 68.2421 156.957 68.1094C156.947 67.9766 156.91 67.8474 156.846 67.7306C156.782 67.6137 156.694 67.5118 156.588 67.4318C156.481 67.3518 156.359 67.2955 156.229 67.2667C156.099 67.2379 155.965 67.2373 155.834 67.2649Z" fill="black"/>
<path d="M177.159 149.562C179.09 150.36 213.06 162.875 217.099 158.77" stroke="black" stroke-width="1.90822" stroke-miterlimit="10"/>
<path d="M131.561 60.1852C131.828 58.3214 132.116 56.1469 132.538 53.928C133.056 50.3 134.475 46.8597 136.665 43.921C141.746 38.2407 147.204 40.3708 151.842 45.1413C153.172 46.52 154.389 48.004 155.481 49.5791C158.798 54.3294 161.352 59.5703 163.047 65.1111C165 72.7883 154.172 90.0954 151.043 91.3379C150.668 91.4751 150.282 91.579 149.889 91.6486C145.318 92.5139 139.505 88.4312 137.552 84.4151" stroke="black" stroke-width="1.90822" stroke-miterlimit="10" stroke-linecap="round"/>
<path d="M129.985 108.114C129.985 94.9784 129.275 83.0409 130.362 69.9496" stroke="black" stroke-width="1.90822" stroke-miterlimit="10"/>
<path d="M149.778 91.072C149.788 91.2494 149.788 91.4272 149.778 91.6046C150.931 96.7745 151.242 103.165 153.372 107.758" stroke="black" stroke-width="1.90822" stroke-miterlimit="10"/>
<path d="M133.38 62.5167C132.832 61.7058 132.192 60.9612 131.472 60.2979C126.28 55.8602 122.841 65.7341 124.971 68.5298C125.643 69.2367 126.511 69.7279 127.463 69.9412C128.415 70.1545 129.409 70.0803 130.318 69.728C130.736 69.614 131.138 69.4501 131.517 69.2399" stroke="black" stroke-width="1.90822" stroke-miterlimit="10" stroke-linecap="round"/>
<path d="M155.436 49.5356C156.679 49.4025 173.919 45.9189 171.456 41.0818C170.036 38.3304 160.895 41.2593 151.797 45.0314C143.144 48.6259 134.49 52.9749 132.493 53.9068L132.183 54.0399" stroke="black" stroke-width="1.90822" stroke-miterlimit="10"/>
<path d="M145.406 63.4927C144.499 63.2137 143.539 63.1547 142.606 63.3206C141.672 63.4865 140.791 63.8726 140.036 64.4468" stroke="black" stroke-width="1.90822" stroke-miterlimit="10" stroke-linecap="round"/>
<path d="M130.562 64.3138C129.608 65.169 128.381 65.6567 127.1 65.6895" stroke="black" stroke-width="1.90822" stroke-miterlimit="10" stroke-linecap="round"/>
<path d="M157.456 63.8915C155.992 63.2259 152.685 63.4034 152.086 64.8456C151.132 67.1754 152.552 72.0126 153.151 74.7861C153.573 76.6722 154.239 80.3333 150.933 79.357" stroke="black" stroke-width="1.90822" stroke-miterlimit="10" stroke-linecap="round"/>
<path d="M146.384 84.0166C146.778 84.4423 147.263 84.7742 147.803 84.9877C148.343 85.2013 148.923 85.2912 149.502 85.2507C150.081 85.2103 150.644 85.0406 151.149 84.754C151.653 84.4675 152.087 84.0715 152.419 83.595" stroke="black" stroke-width="1.90822" stroke-miterlimit="10" stroke-linecap="round"/>
<path d="M107.686 178.917C104.424 201.682 100.608 226.844 100.342 231.748L187.454 231.593C187.166 215.927 180.798 172.061 177.136 149.495C177.136 148.851 176.937 148.252 176.848 147.653" stroke="black" stroke-width="1.90822" stroke-linecap="round" stroke-linejoin="round"/>
<path d="M216.009 107.049C212.237 101.568 215.41 92.3375 216.475 88.6764C217.096 86.4576 220.314 86.6351 219.981 89.7858C219.715 92.4929 219.337 95.3552 220.447 96.4424" stroke="black" stroke-width="1.90822" stroke-miterlimit="10" stroke-linecap="round"/>
<path d="M220.605 96.7971C220.595 96.7384 220.595 96.6784 220.605 96.6196V96.6196C222.757 90.5178 229.747 79.4235 233.363 81.6423C233.687 81.8133 233.934 82.101 234.053 82.4471C234.173 82.7933 234.156 83.1719 234.007 83.5062C233.593 84.4166 232.996 85.2323 232.254 85.9025C229.917 87.9603 228.093 90.5363 226.929 93.4245" stroke="black" stroke-width="1.90822" stroke-miterlimit="10" stroke-linecap="round"/>
<path d="M234.117 83.5729C234.512 83.0549 235.023 82.6366 235.609 82.3514C236.194 82.0663 236.838 81.9223 237.49 81.9309C237.928 81.9066 238.36 82.0414 238.707 82.3105C239.053 82.5796 239.291 82.9649 239.376 83.3954C239.731 84.5048 238.954 85.3924 238.178 86.1246C235.332 89.0023 232.864 92.2308 230.833 95.7322" stroke="black" stroke-width="1.90822" stroke-miterlimit="10" stroke-linecap="round"/>
<path d="M225.974 111.643C229.08 111.288 231.499 104.076 232.32 101.702C233.708 98.2413 235.724 95.0668 238.266 92.3386C239.198 91.2514 241.106 89.4541 240.995 87.9009C240.922 87.6052 240.788 87.3277 240.603 87.0859C240.418 86.844 240.185 86.6429 239.918 86.4951C239.652 86.3473 239.358 86.256 239.054 86.2268C238.751 86.1976 238.445 86.2312 238.155 86.3255" stroke="black" stroke-width="1.90822" stroke-miterlimit="10" stroke-linecap="round"/>
<path d="M224.953 100.858C225.84 97.9295 222.268 96.7091 220.515 96.7757" stroke="black" stroke-width="1.90822" stroke-miterlimit="10" stroke-linecap="round"/>
<path d="M204.784 138.713L204.096 138.091C195.001 129.65 185.06 122.17 174.43 115.77C167.773 112.175 156.901 112.619 156.901 112.619C156.762 111.597 156.373 110.626 155.769 109.79C155.166 108.954 154.365 108.28 153.439 107.826L152.796 107.582C145.363 105.541 131.739 107.005 130.03 108.048C128.6 109.155 127.596 110.723 127.19 112.486C127.19 112.486 109.062 115.148 103.737 119.52C103.737 119.52 87.5837 141.597 79.507 158.927C76.5338 165.295 77.6654 169.2 83.0794 172.24C86.3411 174.103 96.8807 176.677 107.775 178.497C120.622 180.716 135.504 182.467 137.723 181.291M136.687 167.927C127.39 165.242 117.028 163.542 110.038 161.922C106.799 161.19 104.181 160.568 102.494 160.08C107.087 154.755 108.929 152.092 111.925 148.298C111.925 148.298 111.325 152.425 110.061 161.878" stroke="black" stroke-width="1.90822" stroke-linecap="round" stroke-linejoin="round"/>
<path d="M143.343 167.823C144.674 171.262 151.308 170.663 154.215 170.197C155.236 170.042 159.407 168.844 160.14 166.98C160.149 166.921 160.149 166.861 160.14 166.802" stroke="black" stroke-width="1.90822" stroke-miterlimit="10"/>
<path d="M160.117 167.002C160.437 166.981 160.758 167.03 161.057 167.145C161.356 167.261 161.627 167.439 161.85 167.669C162.074 167.899 162.245 168.175 162.352 168.477C162.459 168.779 162.499 169.101 162.469 169.42C162.358 170.167 162.071 170.877 161.631 171.49C161.191 172.104 160.611 172.604 159.94 172.948C156.758 174.799 153.023 175.459 149.4 174.812" stroke="black" stroke-width="1.90822" stroke-miterlimit="10" stroke-linecap="round"/>
<path d="M159.984 172.972C160.278 172.907 160.584 172.907 160.878 172.973C161.173 173.038 161.449 173.168 161.688 173.352C161.927 173.536 162.123 173.77 162.262 174.038C162.401 174.306 162.479 174.601 162.491 174.902C162.35 175.576 162.053 176.207 161.626 176.746C161.198 177.285 160.652 177.717 160.028 178.009C156.839 179.65 153.209 180.233 149.666 179.673" stroke="black" stroke-width="1.90822" stroke-miterlimit="10" stroke-linecap="round"/>
<path d="M160.072 178.052C160.344 177.962 160.633 177.937 160.916 177.978C161.199 178.02 161.469 178.126 161.703 178.29C161.938 178.454 162.132 178.67 162.268 178.921C162.405 179.173 162.481 179.452 162.491 179.738C162.491 180.803 160.982 182.135 158.275 183.067C154.022 184.324 149.522 184.5 145.184 183.577C142.39 183.068 140.61 182.344 137.974 181.289" stroke="black" stroke-width="1.90822" stroke-miterlimit="10" stroke-linecap="round"/>
<path d="M138.479 168.682C138.751 167.598 140.555 165.717 142.81 165.493" stroke="black" stroke-width="1.90822" stroke-miterlimit="10" stroke-linecap="round"/>
<path d="M161.449 155.909L161.404 156.286L160.206 166.825L160.184 166.959" stroke="black" stroke-width="1.90822" stroke-linecap="round" stroke-linejoin="round"/>
<path d="M141.968 155.909L141.991 155.975L143.1 165.472L143.366 167.846" stroke="black" stroke-width="1.90822" stroke-linecap="round" stroke-linejoin="round"/>
<path d="M161.403 156.286C161.487 156.177 161.533 156.045 161.537 155.908C161.537 154.732 157.099 153.69 151.774 153.69C146.448 153.69 141.988 154.666 141.988 155.908C142.122 157.062 146.426 157.994 151.751 157.994C156.611 158.061 160.627 157.284 161.403 156.286Z" stroke="black" stroke-width="1.90822" stroke-linecap="round" stroke-linejoin="round"/>
<path d="M145.117 183.933L145.738 189.569C147.778 190.086 149.87 190.369 151.973 190.412C153.904 190.394 155.823 190.11 157.676 189.569L158.341 183.6" stroke="black" stroke-width="1.90822" stroke-linecap="round" stroke-linejoin="round"/>
<path d="M217.275 158.66C220.093 142.506 223.709 124.889 225.773 111.62L216.232 107.471C214.745 112.108 208.266 129.082 204.206 137.98" stroke="black" stroke-width="1.90822" stroke-linecap="round" stroke-linejoin="round"/>
<path d="M149.179 150.804C148.615 150.219 148.181 149.521 147.906 148.756C147.63 147.991 147.52 147.177 147.581 146.366C148.12 145.105 148.758 143.888 149.489 142.727C150.887 139.532 149.489 137.202 147.27 135.006" stroke="white" stroke-width="1.90822" stroke-miterlimit="10" stroke-linecap="round"/>
<path d="M154.793 150.804C154.23 150.219 153.796 149.521 153.52 148.756C153.245 147.991 153.135 147.177 153.196 146.366C153.744 145.109 154.381 143.893 155.104 142.727C156.524 139.532 155.104 137.202 152.885 135.006" stroke="white" stroke-width="1.90822" stroke-miterlimit="10" stroke-linecap="round"/>
<path d="M139.126 169.088C130.827 164.65 116.937 162.187 109.793 160.478" stroke="white" stroke-width="1.90822" stroke-linecap="square" stroke-linejoin="round"/>
<path d="M106.154 180.07L107.885 180.381C120.976 182.6 135.487 182.6 138.949 180.891" stroke="white" stroke-width="1.90822" stroke-linecap="round" stroke-linejoin="round"/>
</g>
<defs>
<clipPath id="clip0_352_6432">
<path d="M320 0H0V212C0 223.046 8.95432 232 20 232H300C311.046 232 320 223.046 320 212V0Z" fill="white"/>
</clipPath>
</defs>
</svg>
