<svg width="336" height="250" viewBox="0 0 336 250" fill="none" xmlns="http://www.w3.org/2000/svg">
<g filter="url(#filter0_d_128_293)">
<g clip-path="url(#clip0_128_293)">
<path d="M8 8H328V221.894C328 232.94 319.046 241.894 308 241.894H28C16.9543 241.894 8 232.94 8 221.894V8Z" fill="#FCFBFF"/>
<path d="M122.203 177.126C119.191 176.445 116.757 175.867 115.189 175.414C119.459 170.463 121.171 167.987 123.956 164.46C123.956 164.46 123.399 168.297 122.223 177.085L122.203 177.126ZM120.14 192.515V192.701C117.107 213.866 113.559 237.259 113.312 241.818L194.3 241.673C194.032 227.109 188.112 186.326 184.708 165.347C186.503 166.089 218.085 177.724 221.84 173.908V173.805C224.46 158.787 227.822 142.407 229.741 130.071L220.87 126.214C219.488 130.525 213.465 146.306 209.689 154.578C201.227 146.788 191.984 139.889 182.109 133.991C175.92 130.649 165.812 131.062 165.812 131.062C165.683 130.112 165.321 129.208 164.76 128.431C164.199 127.654 163.455 127.027 162.594 126.606L161.996 126.379C155.085 124.481 142.419 125.843 140.83 126.812C139.5 127.841 138.567 129.299 138.19 130.938C138.19 130.938 121.336 133.413 116.385 137.477C116.385 137.477 101.368 158.003 93.8586 174.114C91.0944 180.034 92.1464 183.665 97.1799 186.491C100.068 188.43 109.97 190.741 120.098 192.515H120.14ZM148.092 184.263C147.72 183.273 150.01 180.488 152.713 180.261H152.981L151.949 171.432C151.949 170.339 156.075 169.369 161.047 169.369C166.018 169.369 170.123 170.277 170.123 171.432C170.12 171.559 170.077 171.682 170 171.783L168.886 181.582C168.895 181.636 168.895 181.692 168.886 181.747C169.183 181.727 169.481 181.773 169.759 181.88C170.038 181.987 170.289 182.153 170.497 182.367C170.705 182.581 170.864 182.837 170.963 183.118C171.063 183.399 171.1 183.698 171.072 183.995C170.969 184.689 170.702 185.349 170.293 185.92C169.884 186.49 169.345 186.955 168.721 187.275C168.995 187.215 169.278 187.215 169.552 187.276C169.826 187.337 170.083 187.457 170.305 187.628C170.527 187.799 170.709 188.017 170.838 188.266C170.967 188.515 171.04 188.79 171.052 189.07C170.92 189.696 170.645 190.283 170.247 190.784C169.85 191.285 169.341 191.687 168.762 191.958C169.015 191.874 169.283 191.851 169.546 191.889C169.81 191.928 170.06 192.027 170.279 192.179C170.497 192.331 170.677 192.532 170.804 192.766C170.931 193 171.001 193.26 171.01 193.526C171.01 194.516 169.608 195.754 167.091 196.62V197.115L166.472 202.664C164.749 203.168 162.965 203.432 161.171 203.448C159.215 203.408 157.27 203.145 155.374 202.664L154.796 197.425V197.094C152.199 196.621 149.656 195.888 147.205 194.908L146.854 194.619C148.69 192.783 150.01 186.842 148.051 184.263H148.092Z" fill="#332E6F"/>
<path d="M153.496 89.2057C153.27 89.2216 153.059 89.3256 152.909 89.4953C152.758 89.665 152.68 89.8869 152.692 90.1134C152.713 90.3414 152.821 90.5524 152.994 90.7023C153.167 90.8523 153.391 90.9295 153.62 90.9179C153.846 90.8969 154.055 90.7879 154.202 90.6142C154.348 90.4406 154.421 90.2162 154.404 89.9896C154.399 89.8775 154.371 89.7675 154.322 89.6665C154.273 89.5655 154.204 89.4755 154.119 89.4022C154.034 89.3288 153.935 89.2735 153.828 89.2397C153.721 89.206 153.608 89.1944 153.496 89.2057Z" fill="#332E6F"/>
<path d="M164.821 88.8963C164.616 88.9397 164.434 89.0557 164.308 89.223C164.183 89.3903 164.122 89.5975 164.137 89.8063C164.152 90.0151 164.242 90.2114 164.39 90.3588C164.539 90.5063 164.736 90.595 164.945 90.6085C165.068 90.6164 165.192 90.5979 165.308 90.554C165.424 90.5101 165.529 90.442 165.616 90.3541C165.703 90.2663 165.77 90.1608 165.813 90.0448C165.856 89.9287 165.874 89.8048 165.865 89.6814C165.856 89.558 165.821 89.4379 165.762 89.3292C165.702 89.2205 165.62 89.1258 165.522 89.0514C165.423 88.9771 165.309 88.9247 165.188 88.898C165.067 88.8712 164.942 88.8706 164.821 88.8963Z" fill="#332E6F"/>
<path d="M184.645 165.409C186.44 166.151 218.023 177.786 221.777 173.97" stroke="#332E6F" stroke-width="1.65802" stroke-miterlimit="10"/>
<path d="M142.254 82.3157C142.502 80.5829 142.77 78.5612 143.162 76.4984C143.644 73.1254 144.963 69.9269 146.999 67.1948C151.723 61.9138 156.797 63.8942 161.109 68.3293C162.346 69.6111 163.477 70.9908 164.492 72.4551C167.576 76.8716 169.95 81.744 171.526 86.8953C173.342 94.0329 163.275 110.123 160.366 111.279C160.018 111.406 159.659 111.503 159.293 111.567C155.044 112.372 149.639 108.576 147.824 104.842" stroke="#332E6F" stroke-width="1.65802" stroke-miterlimit="10" stroke-linecap="round"/>
<path d="M140.789 126.874C140.789 114.662 140.129 103.563 141.14 91.3924" stroke="#332E6F" stroke-width="1.65802" stroke-miterlimit="10"/>
<path d="M159.19 111.031C159.2 111.196 159.2 111.361 159.19 111.526C160.263 116.333 160.552 122.274 162.532 126.544" stroke="#332E6F" stroke-width="1.65802" stroke-miterlimit="10"/>
<path d="M143.944 84.4817C143.435 83.7278 142.839 83.0355 142.17 82.4188C137.343 78.2931 134.146 87.4729 136.126 90.0721C136.751 90.7293 137.557 91.186 138.443 91.3843C139.328 91.5826 140.252 91.5136 141.098 91.1861C141.486 91.0801 141.86 90.9277 142.212 90.7323" stroke="#332E6F" stroke-width="1.65802" stroke-miterlimit="10" stroke-linecap="round"/>
<path d="M164.451 72.4139C165.606 72.2901 181.635 69.0514 179.345 64.5543C178.025 61.9963 169.525 64.7193 161.068 68.2262C153.022 71.5681 144.977 75.6113 143.121 76.4778L142.832 76.6015" stroke="#332E6F" stroke-width="1.65802" stroke-miterlimit="10"/>
<path d="M155.126 85.3894C154.284 85.13 153.391 85.0752 152.523 85.2294C151.655 85.3837 150.836 85.7426 150.134 86.2765" stroke="#332E6F" stroke-width="1.65802" stroke-miterlimit="10" stroke-linecap="round"/>
<path d="M141.325 86.1527C140.438 86.9478 139.297 87.4012 138.107 87.4317" stroke="#332E6F" stroke-width="1.65802" stroke-miterlimit="10" stroke-linecap="round"/>
<path d="M166.328 85.7607C164.966 85.1419 161.892 85.3069 161.335 86.6478C160.448 88.8138 161.769 93.3109 162.326 95.8895C162.718 97.6429 163.336 101.047 160.263 100.139" stroke="#332E6F" stroke-width="1.65802" stroke-miterlimit="10" stroke-linecap="round"/>
<path d="M156.033 104.471C156.4 104.867 156.851 105.175 157.353 105.374C157.855 105.573 158.395 105.656 158.933 105.618C159.471 105.581 159.994 105.423 160.463 105.157C160.933 104.89 161.336 104.522 161.645 104.079" stroke="#332E6F" stroke-width="1.65802" stroke-miterlimit="10" stroke-linecap="round"/>
<path d="M120.058 192.701C117.025 213.866 113.477 237.259 113.229 241.818L194.218 241.673C193.95 227.109 188.03 186.326 184.626 165.347C184.626 164.749 184.44 164.192 184.358 163.635" stroke="#332E6F" stroke-width="1.65802" stroke-linecap="round" stroke-linejoin="round"/>
<path d="M220.767 125.884C217.26 120.788 220.21 112.207 221.2 108.803C221.778 106.74 224.769 106.905 224.459 109.835C224.212 112.351 223.861 115.012 224.893 116.023" stroke="#332E6F" stroke-width="1.65802" stroke-miterlimit="10" stroke-linecap="round"/>
<path d="M225.037 116.353C225.028 116.299 225.028 116.243 225.037 116.188V116.188C227.038 110.515 233.536 100.201 236.898 102.264C237.199 102.423 237.429 102.69 237.54 103.012C237.651 103.334 237.636 103.686 237.497 103.997C237.112 104.843 236.557 105.601 235.867 106.225C233.694 108.138 231.998 110.533 230.916 113.218" stroke="#332E6F" stroke-width="1.65802" stroke-miterlimit="10" stroke-linecap="round"/>
<path d="M237.6 104.058C237.967 103.577 238.442 103.188 238.986 102.923C239.531 102.658 240.13 102.524 240.736 102.532C241.143 102.509 241.545 102.635 241.867 102.885C242.189 103.135 242.41 103.493 242.489 103.893C242.819 104.925 242.097 105.75 241.375 106.431C238.729 109.106 236.434 112.108 234.547 115.363" stroke="#332E6F" stroke-width="1.65802" stroke-miterlimit="10" stroke-linecap="round"/>
<path d="M230.03 130.154C232.918 129.824 235.167 123.12 235.93 120.912C237.221 117.695 239.095 114.743 241.458 112.207C242.325 111.196 244.099 109.525 243.996 108.081C243.927 107.806 243.803 107.548 243.631 107.323C243.459 107.099 243.242 106.912 242.994 106.774C242.746 106.637 242.473 106.552 242.191 106.525C241.909 106.498 241.625 106.529 241.355 106.616" stroke="#332E6F" stroke-width="1.65802" stroke-miterlimit="10" stroke-linecap="round"/>
<path d="M229.08 120.128C229.905 117.405 226.584 116.271 224.954 116.333" stroke="#332E6F" stroke-width="1.65802" stroke-miterlimit="10" stroke-linecap="round"/>
<path d="M210.328 155.321L209.689 154.744C201.234 146.895 191.991 139.941 182.108 133.991C175.919 130.649 165.811 131.062 165.811 131.062C165.682 130.112 165.321 129.208 164.759 128.431C164.198 127.654 163.454 127.027 162.593 126.606L161.995 126.379C155.084 124.481 142.418 125.843 140.83 126.812C139.499 127.841 138.566 129.299 138.189 130.938C138.189 130.938 121.335 133.413 116.384 137.477C116.384 137.477 101.367 158.003 93.8578 174.114C91.0935 180.034 92.1456 183.665 97.179 186.491C100.211 188.224 110.01 190.617 120.139 192.309C132.083 194.371 144.46 195.816 146.523 194.722C146.707 194.626 146.874 194.5 147.018 194.351C148.73 192.577 150.051 186.656 148.091 184.036C147.697 183.52 147.147 183.144 146.523 182.964C137.88 180.468 128.741 178.405 122.243 176.899C119.231 176.218 116.797 175.641 115.229 175.187C119.499 170.236 121.212 167.76 123.996 164.233C123.996 164.233 123.44 168.07 122.264 176.858" stroke="#332E6F" stroke-width="1.65802" stroke-linecap="round" stroke-linejoin="round"/>
<path d="M153.208 182.386C154.446 185.584 160.614 185.027 163.316 184.593C164.265 184.449 168.143 183.335 168.824 181.602C168.833 181.548 168.833 181.492 168.824 181.437" stroke="#332E6F" stroke-width="1.65802" stroke-miterlimit="10"/>
<path d="M168.803 181.623C169.1 181.604 169.398 181.649 169.676 181.756C169.955 181.864 170.206 182.03 170.414 182.243C170.622 182.457 170.781 182.713 170.88 182.994C170.98 183.275 171.017 183.575 170.989 183.871C170.886 184.566 170.619 185.225 170.21 185.796C169.801 186.366 169.262 186.831 168.638 187.151C165.68 188.872 162.207 189.486 158.839 188.884" stroke="#332E6F" stroke-width="1.65802" stroke-miterlimit="10" stroke-linecap="round"/>
<path d="M168.679 187.172C168.953 187.112 169.237 187.112 169.511 187.173C169.784 187.234 170.041 187.354 170.264 187.525C170.486 187.696 170.668 187.914 170.797 188.163C170.926 188.412 170.999 188.687 171.01 188.967C170.879 189.593 170.603 190.179 170.206 190.681C169.808 191.182 169.3 191.584 168.72 191.855C165.755 193.381 162.381 193.923 159.087 193.402" stroke="#332E6F" stroke-width="1.65802" stroke-miterlimit="10" stroke-linecap="round"/>
<path d="M168.762 191.896C169.014 191.813 169.283 191.789 169.546 191.827C169.809 191.866 170.06 191.965 170.278 192.117C170.497 192.269 170.676 192.47 170.803 192.704C170.93 192.938 171.001 193.198 171.01 193.464C171.01 194.454 169.607 195.692 167.091 196.558C163.137 197.727 158.953 197.891 154.92 197.033C152.323 196.559 149.78 195.826 147.328 194.846" stroke="#332E6F" stroke-width="1.65802" stroke-miterlimit="10" stroke-linecap="round"/>
<path d="M148.092 184.222C147.72 183.232 150.01 180.447 152.712 180.22" stroke="#332E6F" stroke-width="1.65802" stroke-miterlimit="10" stroke-linecap="round"/>
<path d="M170.041 171.308L169.999 171.659L168.885 181.458L168.865 181.582" stroke="#332E6F" stroke-width="1.65802" stroke-linecap="round" stroke-linejoin="round"/>
<path d="M151.928 171.308L151.949 171.37L152.98 180.199L153.228 182.407" stroke="#332E6F" stroke-width="1.65802" stroke-linecap="round" stroke-linejoin="round"/>
<path d="M169.999 171.659C170.077 171.558 170.12 171.436 170.123 171.308C170.123 170.215 165.997 169.246 161.046 169.246C156.095 169.246 151.949 170.153 151.949 171.308C152.073 172.381 156.075 173.248 161.026 173.248C165.543 173.309 169.277 172.587 169.999 171.659Z" stroke="#332E6F" stroke-width="1.65802" stroke-linecap="round" stroke-linejoin="round"/>
<path d="M154.858 197.363L155.436 202.602C157.332 203.083 159.277 203.346 161.232 203.386C163.027 203.37 164.811 203.106 166.534 202.602L167.153 197.053" stroke="#332E6F" stroke-width="1.65802" stroke-linecap="round" stroke-linejoin="round"/>
<path d="M221.944 173.866C224.564 158.849 227.926 142.469 229.845 130.133L220.974 126.276C219.592 130.587 213.569 146.368 209.794 154.64" stroke="#332E6F" stroke-width="1.65802" stroke-linecap="round" stroke-linejoin="round"/>
<path d="M158.633 166.564C158.109 166.02 157.705 165.371 157.449 164.66C157.193 163.949 157.091 163.192 157.148 162.438C157.649 161.265 158.242 160.134 158.922 159.055C160.221 156.084 158.922 153.918 156.859 151.876" stroke="white" stroke-width="1.65802" stroke-miterlimit="10" stroke-linecap="round"/>
<path d="M163.852 166.564C163.328 166.02 162.924 165.371 162.668 164.66C162.412 163.949 162.31 163.192 162.367 162.438C162.876 161.269 163.469 160.139 164.141 159.055C165.461 156.084 164.141 153.918 162.078 151.876" stroke="white" stroke-width="1.65802" stroke-miterlimit="10" stroke-linecap="round"/>
<path d="M149.288 183.562C141.573 179.436 128.659 177.146 122.017 175.558" stroke="white" stroke-width="1.65802" stroke-linecap="square" stroke-linejoin="round"/>
<path d="M118.634 193.773L120.243 194.062C132.414 196.125 145.905 196.125 149.124 194.537" stroke="white" stroke-width="1.65802" stroke-linecap="round" stroke-linejoin="round"/>
</g>
</g>
<defs>
<filter id="filter0_d_128_293" x="0" y="0" width="336" height="250" filterUnits="userSpaceOnUse" color-interpolation-filters="sRGB">
<feFlood flood-opacity="0" result="BackgroundImageFix"/>
<feColorMatrix in="SourceAlpha" type="matrix" values="0 0 0 0 0 0 0 0 0 0 0 0 0 0 0 0 0 0 127 0" result="hardAlpha"/>
<feOffset/>
<feGaussianBlur stdDeviation="4"/>
<feComposite in2="hardAlpha" operator="out"/>
<feColorMatrix type="matrix" values="0 0 0 0 0.439216 0 0 0 0 0.392157 0 0 0 0 1 0 0 0 0.25 0"/>
<feBlend mode="normal" in2="BackgroundImageFix" result="effect1_dropShadow_128_293"/>
<feBlend mode="normal" in="SourceGraphic" in2="effect1_dropShadow_128_293" result="shape"/>
</filter>
<clipPath id="clip0_128_293">
<path d="M8 8H328V222C328 233.046 319.046 242 308 242H28C16.9543 242 8 233.046 8 222V8Z" fill="white"/>
</clipPath>
</defs>
</svg>
