<svg width="18" height="18" viewBox="0 0 18 18" fill="none" xmlns="http://www.w3.org/2000/svg">
<path d="M13.125 12.825C12.975 12.675 12.9 12.4917 12.9 12.275C12.9 12.0583 12.975 11.8833 13.125 11.75L15.125 9.75H7.125C6.90833 9.75 6.72917 9.67917 6.5875 9.5375C6.44583 9.39583 6.375 9.21667 6.375 9C6.375 8.78333 6.44583 8.60417 6.5875 8.4625C6.72917 8.32083 6.90833 8.25 7.125 8.25H15.075L13.05 6.225C12.9167 6.09167 12.85 5.92083 12.85 5.7125C12.85 5.50417 12.925 5.325 13.075 5.175C13.225 5.025 13.4042 4.95 13.6125 4.95C13.8208 4.95 14 5.025 14.15 5.175L17.475 8.5C17.5583 8.58333 17.6167 8.66667 17.65 8.75C17.6833 8.83333 17.7 8.925 17.7 9.025C17.7 9.125 17.6833 9.21667 17.65 9.3C17.6167 9.38333 17.5583 9.46667 17.475 9.55L14.175 12.85C14.0417 12.9833 13.8708 13.05 13.6625 13.05C13.4542 13.05 13.275 12.975 13.125 12.825ZM1.5 18C1.1 18 0.75 17.85 0.45 17.55C0.15 17.25 0 16.9 0 16.5V1.5C0 1.1 0.15 0.75 0.45 0.45C0.75 0.15 1.1 0 1.5 0H8.025C8.24167 0 8.42083 0.0708334 8.5625 0.2125C8.70417 0.354167 8.775 0.533333 8.775 0.75C8.775 0.966667 8.70417 1.14583 8.5625 1.2875C8.42083 1.42917 8.24167 1.5 8.025 1.5H1.5V16.5H8.025C8.24167 16.5 8.42083 16.5708 8.5625 16.7125C8.70417 16.8542 8.775 17.0333 8.775 17.25C8.775 17.4667 8.70417 17.6458 8.5625 17.7875C8.42083 17.9292 8.24167 18 8.025 18H1.5Z" fill="#FF54B0"/>
</svg>
