<svg width="176" height="72" viewBox="0 0 176 72" fill="none" xmlns="http://www.w3.org/2000/svg">
<path d="M36.0414 70.6411C55.2676 70.6411 70.8534 55.103 70.8534 35.9359C70.8534 16.7688 55.2676 1.23077 36.0414 1.23077C16.8153 1.23077 1.22949 16.7688 1.22949 35.9359C1.22949 55.103 16.8153 70.6411 36.0414 70.6411Z" stroke="#7064FF" stroke-width="2.40082"/>
<path d="M18.6653 39.3546C18.8797 38.9195 18.6997 38.3936 18.2633 38.18C17.8269 37.9662 17.2995 38.1457 17.0851 38.5807C13.8612 45.1235 11.3914 48.0957 6.50937 52.1345C6.13524 52.4439 6.08354 52.9972 6.39405 53.3702C6.70448 53.7432 7.25947 53.7947 7.6336 53.4852C12.7079 49.2875 15.3326 46.1182 18.6653 39.3546Z" fill="#7064FF"/>
<path fill-rule="evenodd" clip-rule="evenodd" d="M58.6892 60.4935C57.675 59.365 56.3483 58.5878 54.9176 58.0013C53.2914 57.3347 51.4562 56.8857 49.6754 56.4661C49.5475 56.4359 49.4199 56.406 49.2926 56.3761L49.2921 56.3759L49.2914 56.3758L49.2909 56.3757L49.2696 56.3707C47.6064 55.9799 45.9998 55.6024 44.5476 55.0835C44.3917 55.0278 44.2314 54.9719 44.0683 54.9151L44.0676 54.9148C42.5916 54.4001 40.8918 53.8073 40.2476 52.5897C39.4981 50.4896 39.2392 47.1597 39.2505 44.0857C39.9824 44.3257 40.7078 44.5127 41.3934 44.6442C42.3861 44.8346 43.3355 44.9162 44.1288 44.8556C44.5255 44.8252 44.9114 44.7573 45.2547 44.6323C45.5935 44.5092 45.9469 44.3097 46.2026 43.9804C46.5422 43.5432 46.7862 42.9534 46.9637 42.3266C47.1455 41.6856 47.2757 40.9405 47.3528 40.1431C47.4878 38.7465 47.4642 37.1404 47.24 35.5708C47.7036 35.3203 48.0593 35.0562 48.3253 34.7698C48.7234 34.3413 48.8781 33.9089 48.9375 33.5241C48.9739 33.2883 48.9322 33.0754 48.8871 32.9233C48.8398 32.7633 48.77 32.6087 48.6943 32.4664C48.5428 32.182 48.3263 31.8712 48.0705 31.5489C47.6161 30.9761 46.9837 30.3001 46.218 29.5707C46.2253 29.4825 46.2322 29.3997 46.2387 29.3217L46.2397 29.3097C46.284 28.7801 46.3094 28.4758 46.3095 28.2013C46.3097 27.916 46.2825 27.6375 46.2365 27.1669V27.1667L46.2364 27.1658L46.2362 27.164C46.2206 27.0036 46.2028 26.8211 46.1831 26.6084C46.1384 26.1257 45.7098 25.7705 45.2257 25.815C44.7415 25.8595 44.3853 26.2868 44.4299 26.7695C44.4554 27.0454 44.4762 27.259 44.4929 27.4301V27.4303V27.4304L44.493 27.4306C44.5329 27.841 44.5491 28.0065 44.5489 28.2004C44.5488 28.3978 44.5319 28.6018 44.4927 29.0712V29.0714C44.4757 29.2746 44.4546 29.5274 44.4289 29.8509C44.4077 30.1179 44.51 30.3799 44.7067 30.5625C45.5749 31.368 46.2493 32.0827 46.6897 32.6378C46.9116 32.9176 47.0573 33.1356 47.1393 33.2896C47.1539 33.317 47.1652 33.34 47.1738 33.3587C47.1523 33.4222 47.1133 33.4913 47.0335 33.5772C46.8861 33.7359 46.5748 33.9752 45.9155 34.2613C45.5412 34.4238 45.328 34.8215 45.4006 35.222C45.6918 36.8299 45.7395 38.5341 45.6003 39.9747C45.5308 40.6944 45.4161 41.3322 45.2695 41.8494C45.1201 42.3765 44.954 42.7189 44.814 42.9012C44.8089 42.9056 44.7683 42.9409 44.6512 42.9835C44.5047 43.0368 44.288 43.083 43.9942 43.1055C43.4064 43.1505 42.6225 43.0925 41.726 42.9206C39.932 42.5767 37.8474 41.8075 36.2363 40.7216C35.8335 40.4501 35.2863 40.5555 35.014 40.957C34.7416 41.3586 34.8473 41.9041 35.2501 42.1756C35.9457 42.6445 36.709 43.057 37.4965 43.4093C37.4212 48.0676 37.935 52.8551 40.0612 56.1828C41.8661 59.0076 44.7808 61.5145 49.2673 64.1937C49.1491 64.1803 49.0276 64.1655 48.9028 64.1491C46.466 63.8287 42.7358 62.9022 37.69 60.4459C32.561 57.9493 27.2707 55.6698 22.4675 54.7337C21.7177 54.5875 20.9751 54.4733 20.243 54.3962C23.7777 50.3036 26.5442 44.3956 28.2194 40.0824C28.2226 40.074 28.2257 40.0656 28.2287 40.0572C28.9881 40.1147 29.709 40.0855 30.3484 40.0016C28.4979 45.9622 30.9496 50.6418 33.5606 54.7337C33.8215 55.1426 34.3657 55.2632 34.7758 55.0031C35.186 54.7429 35.307 54.2005 35.046 53.7915C32.7469 50.1883 30.2019 45.3623 32.1613 39.5458C32.1707 39.5418 32.1801 39.5379 32.1894 39.5338C33.1091 39.1373 34.2169 38.2702 34.8617 36.8076C35.5126 35.3312 35.6497 33.3455 34.7959 30.7917C34.0942 28.6933 34.0245 27.4161 34.177 26.5412C34.3217 25.7116 34.6734 25.1601 35.1172 24.4642L35.1485 24.4151C35.1603 24.3965 35.1723 24.3779 35.1842 24.359L33.6976 23.4187C33.6724 23.4583 33.6468 23.4983 33.6208 23.5388L33.6072 23.5601L33.6067 23.5609C33.1745 24.2354 32.6491 25.0555 32.4424 26.2406C32.2217 27.5063 32.3727 29.0951 33.1256 31.3467C33.8723 33.5799 33.6893 35.1046 33.2498 36.1014C32.8042 37.1121 32.0513 37.681 31.4906 37.9228C30.9074 38.1741 29.6207 38.4435 28.1093 38.2842C27.9752 38.2701 27.8398 38.2527 27.7035 38.2317C28.5961 38.0814 29.6656 37.7397 30.548 37.0731C31.2432 36.5479 31.8373 35.8076 32.1025 34.8025C32.366 33.804 32.2812 32.6346 31.7864 31.2863C31.4465 30.36 31.1262 28.8381 31.1398 27.3099C31.1537 25.756 31.5093 24.3901 32.3133 23.5692L31.0536 22.343C29.776 23.6475 29.3946 25.5751 29.3793 27.2944C29.3638 29.0396 29.7225 30.7708 30.133 31.8893C30.5385 32.9943 30.5494 33.7892 30.3998 34.3559C30.252 34.9162 29.9242 35.3421 29.4846 35.6742C28.5605 36.3724 27.2194 36.5901 26.5385 36.5744C25.2993 36.5459 24.4863 36.4037 24.0031 36.2801C23.7615 36.2184 23.6021 36.1612 23.5126 36.1251C23.4679 36.1071 23.4406 36.0942 23.4292 36.0886L23.4263 36.0872L23.4249 36.0865C23.0436 35.8749 22.5628 35.9738 22.297 36.3211C22.0276 36.6733 22.0636 37.1703 22.3809 37.4803C22.611 37.7051 22.8471 37.9121 23.0879 38.1027C22.8089 38.1507 22.5582 38.3319 22.4336 38.6089C19.5416 45.0452 16.8189 50.6942 9.18629 57.0842C8.814 57.3959 8.76559 57.9495 9.07825 58.3207C9.21646 58.4848 9.40212 58.5857 9.59843 58.6204C9.60403 58.6276 9.6098 58.6348 9.61564 58.6419C9.92518 59.0156 10.48 59.0685 10.8549 58.7599C14.5011 55.7587 19.0833 55.4446 22.3358 57.1405C23.9558 57.9852 25.2526 59.3289 25.9702 61.1087C26.6879 62.8886 26.8493 65.164 26.0916 67.9022C25.9623 68.3695 26.2374 68.8528 26.7061 68.9816C27.1748 69.1105 27.6595 68.8363 27.7888 68.369C28.6316 65.3231 28.488 62.647 27.6038 60.454C27.1124 59.2352 26.3993 58.1839 25.5253 57.3144C29.1615 58.4206 33.0391 60.1352 36.9175 62.0232C42.1152 64.5532 46.0276 65.5415 48.6726 65.8892C49.9947 66.063 50.9978 66.0765 51.6838 66.0434C52.0266 66.0269 52.2898 65.9987 52.4736 65.9732C52.5655 65.9605 52.6375 65.9484 52.6897 65.9388C52.7157 65.934 52.7368 65.9299 52.7529 65.9265C52.761 65.9249 52.7678 65.9234 52.7734 65.9221L52.7809 65.9205L52.7853 65.9195L52.7865 65.9193C53.1434 65.8373 53.4122 65.5437 53.4613 65.1818C53.4793 65.0494 53.5274 64.9562 53.5651 64.8828C53.6307 64.7557 53.6656 64.6878 53.4613 64.5777C47.809 61.5319 43.9852 58.653 41.9928 55.8963C42.6186 56.2197 43.2785 56.4945 43.9535 56.7358C45.5043 57.29 47.2065 57.6895 48.847 58.0747C48.9887 58.108 49.1298 58.1411 49.2705 58.1742C51.0658 58.5973 52.7694 59.0185 54.248 59.6246C55.722 60.2288 56.8972 60.988 57.6861 62.0394C57.9773 62.4275 58.5289 62.5068 58.9182 62.2165C59.132 62.0571 59.2524 61.8195 59.2692 61.5734L58.6892 60.4935ZM14.2561 54.7827C15.4297 54.4527 16.67 54.2967 17.9568 54.2828C21.6278 50.5767 24.6168 44.4288 26.4541 39.764C25.672 39.561 24.8735 39.2495 24.1003 38.7955C24.1351 38.9684 24.1182 39.1533 24.0404 39.3264C21.656 44.633 19.3211 49.553 14.2561 54.7827ZM47.1985 33.4199C47.1991 33.422 47.1993 33.4232 47.1993 33.4232L47.1993 33.4231C47.1991 33.4226 47.1987 33.4212 47.1982 33.4191L47.1985 33.4199Z" fill="#7064FF"/>
<path fill-rule="evenodd" clip-rule="evenodd" d="M47.1994 33.4234C47.1994 33.4234 47.1992 33.4222 47.1985 33.4199L47.1982 33.4192C47.1987 33.4214 47.1992 33.4228 47.1993 33.4233L47.1994 33.4234Z" fill="#7064FF"/>
<path d="M17.697 31.0769C8.92551 34.1277 6.33399 36.9966 2.70994 45.4699C1.73129 41.9081 0.881714 34.5568 1.6515 31.396M17.697 31.0769C16.4085 26.5649 17.6775 22.1012 19.3823 19.2293M17.697 31.0769L1.6515 31.396M29.8211 1.82892C32.449 1.35736 34.9672 1.26475 37.2236 1.55764C34.248 3.62373 32.369 7.22101 31.7873 12.5174M29.8211 1.82892L29.1809 12.7637M29.8211 1.82892C26.6452 2.39884 23.3091 3.52228 20.0814 5.18771M29.1809 12.7637C27.6753 13.0174 26.1754 13.5119 24.7794 14.2346M29.1809 12.7637C30.0415 12.6186 30.904 12.5523 31.75 12.567M20.0814 5.18771L24.7794 14.2346M20.0814 5.18771C16.8181 6.87155 13.6655 9.10944 10.9012 11.8894M24.7794 14.2346C22.604 15.361 20.681 17.0417 19.3823 19.2293M10.9012 11.8894L19.3823 19.2293M10.9012 11.8894C8.15157 14.6546 5.78604 17.9561 4.07769 21.7823M4.07769 21.7823L17.3368 24.6944M4.07769 21.7823C2.76636 24.7194 2.06476 27.846 1.6515 31.396M31.7873 12.5174C31.7854 12.5342 31.7836 12.5508 31.7818 12.5675C31.7712 12.5674 31.7606 12.5671 31.75 12.567M31.7873 12.5174L33.852 9.77514L43.9459 15.9184C43.9459 15.9184 41.4251 14.7216 40.1026 15.4738C38.7802 16.226 38.3568 17.9758 38.1927 19.6182C39.9001 19.9525 40.9251 19.3399 42.3598 18.0641L51.3885 24.6261C49.2278 26.7307 46.8669 26.7307 41.3729 26.7307C35.4084 26.7307 35.1029 22.9297 31.2445 23.0334C29.621 23.077 27.7558 24.602 27.7558 26.7307V32.7809C27.7558 36.8144 24.8299 39.0551 21.1161 39.0551C17.5149 39.0551 15.2831 37.2035 16.8394 36.4782C18.3956 35.7529 19.4238 34.9089 19.3152 34.2374C19.2067 33.5659 18.5354 32.9514 17.2896 31.7725L31.75 12.567M31.7873 12.5174L31.75 12.567" stroke="#7064FF" stroke-width="1.7606" stroke-linecap="round" stroke-linejoin="round"/>
<path d="M106.867 41.4369V45.4858H104.43C102.693 45.4858 101.339 45.0669 100.368 44.2292C99.3974 43.3732 98.912 41.9857 98.912 40.0686V33.8695H97.0073V29.9044H98.912V26.1068H103.702V29.9044H106.839V33.8695H103.702V40.1244C103.702 40.5896 103.814 40.9247 104.038 41.1297C104.262 41.3347 104.635 41.4369 105.158 41.4369H106.867ZM124.268 37.4438C124.268 37.8905 124.24 38.3557 124.184 38.8399H113.344C113.419 39.8077 113.727 40.5529 114.268 41.0738C114.828 41.5765 115.51 41.8278 116.313 41.8278C117.508 41.8278 118.339 41.3252 118.806 40.3199H123.904C123.642 41.3435 123.166 42.265 122.475 43.0844C121.803 43.9037 120.953 44.5459 119.926 45.0111C118.899 45.4762 117.751 45.7092 116.481 45.7092C114.95 45.7092 113.587 45.3837 112.392 44.7318C111.197 44.08 110.263 43.1498 109.591 41.9395C108.918 40.7292 108.582 39.3146 108.582 37.6951C108.582 36.0755 108.909 34.661 109.563 33.4507C110.235 32.2406 111.169 31.3099 112.364 30.6583C113.559 30.0067 114.931 29.681 116.481 29.681C117.993 29.681 119.338 29.9975 120.514 30.6304C121.691 31.2633 122.606 32.1662 123.259 33.339C123.932 34.5118 124.268 35.88 124.268 37.4438ZM119.366 36.1872C119.366 35.3678 119.086 34.7168 118.526 34.2325C117.965 33.7483 117.265 33.5065 116.425 33.5065C115.622 33.5065 114.94 33.7395 114.38 34.2046C113.839 34.6697 113.503 35.3311 113.372 36.1872H119.366ZM136.318 29.7368C138.148 29.7368 139.604 30.3326 140.687 31.5239C141.789 32.6967 142.34 34.3163 142.34 36.3827V45.4858H137.578V37.0249C137.578 35.9822 137.307 35.1724 136.766 34.5956C136.224 34.0187 135.496 33.7299 134.581 33.7299C133.666 33.7299 132.938 34.0187 132.396 34.5956C131.855 35.1724 131.584 35.9822 131.584 37.0249V45.4858H126.794V29.9044H131.584V31.9707C132.07 31.282 132.723 30.7421 133.545 30.3512C134.366 29.9416 135.291 29.7368 136.318 29.7368ZM151.69 45.765C149.449 45.765 147.759 45.3557 146.62 44.5364C145.481 43.717 144.912 42.628 144.912 41.2693C144.912 40.5249 145.052 39.9106 145.332 39.4263C145.612 38.9237 146.004 38.5328 146.508 38.2535C147.013 37.956 147.61 37.7413 148.301 37.6113V37.4717C147.405 37.2483 146.732 36.8574 146.284 36.2989C145.855 35.7404 145.64 35.0519 145.64 34.2325C145.64 33.3765 145.855 32.6316 146.284 31.9986C146.732 31.3471 147.405 30.8444 148.301 30.4908C149.197 30.1371 150.327 29.9602 151.69 29.9602C152.661 29.9602 153.641 30.0626 154.631 30.2674C155.621 30.4535 156.47 30.7607 157.18 31.1889L156.032 34.1208C155.266 33.7116 154.566 33.4323 153.931 33.2831C153.315 33.1156 152.671 33.0318 151.998 33.0318C151.158 33.0318 150.542 33.1808 150.15 33.4786C149.758 33.7578 149.561 34.1671 149.561 34.7072C149.561 35.2474 149.758 35.6383 150.15 35.88C150.56 36.1034 151.167 36.2151 151.97 36.2151H154.239V39.203H151.998C151.307 39.203 150.756 39.2684 150.346 39.3984C149.935 39.5101 149.636 39.696 149.449 39.9569C149.263 40.1986 149.169 40.5154 149.169 40.9063C149.169 41.5206 149.421 41.9674 149.926 42.2466C150.448 42.5259 151.205 42.6655 152.194 42.6655C153.053 42.6655 153.819 42.5721 154.491 42.3863C155.182 42.1812 155.92 41.8374 156.704 41.3531V44.6202C156.032 45.0111 155.313 45.2999 154.547 45.4858C153.782 45.6717 152.829 45.765 151.69 45.765ZM158.83 37.6672C158.83 36.0659 159.129 34.661 159.726 33.4507C160.343 32.2406 161.173 31.3099 162.219 30.6583C163.264 30.0067 164.432 29.681 165.721 29.681C166.822 29.681 167.784 29.9044 168.605 30.3512C169.446 30.7979 170.09 31.3843 170.538 32.1103V29.9044H175.328V45.4858H170.538V43.2798C170.071 44.0058 169.418 44.5922 168.577 45.039C167.756 45.4858 166.794 45.7092 165.693 45.7092C164.422 45.7092 163.264 45.3837 162.219 44.7318C161.173 44.0617 160.343 43.1218 159.726 41.9115C159.129 40.6829 158.83 39.2684 158.83 37.6672ZM170.538 37.6951C170.538 36.5039 170.202 35.5633 169.53 34.8748C168.876 34.1863 168.073 33.8416 167.121 33.8416C166.169 33.8416 165.356 34.1863 164.684 34.8748C164.03 35.545 163.704 36.476 163.704 37.6672C163.704 38.8583 164.03 39.8077 164.684 40.5154C165.356 41.2039 166.169 41.5485 167.121 41.5485C168.073 41.5485 168.876 41.2039 169.53 40.5154C170.202 39.8268 170.538 38.8862 170.538 37.6951Z" fill="#332E6F"/>
<path fill-rule="evenodd" clip-rule="evenodd" d="M77.0005 43.4593L79.8014 45.6533L90.165 38.3134L92.926 45.6533H97.0074L89.5648 26.1068H85.1633L77.0005 43.4593ZM89.2047 35.3216L82.6024 39.8691L87.164 30.415L89.2047 35.3216Z" fill="#332E6F"/>
</svg>
