<svg width="20" height="16" viewBox="0 0 20 16" fill="none" xmlns="http://www.w3.org/2000/svg">
<path d="M1.5 16C1.1 16 0.75 15.85 0.45 15.55C0.15 15.25 0 14.9 0 14.5V1.5C0 1.1 0.15 0.75 0.45 0.45C0.75 0.15 1.1 0 1.5 0H18.5C18.9 0 19.25 0.15 19.55 0.45C19.85 0.75 20 1.1 20 1.5V14.5C20 14.9 19.85 15.25 19.55 15.55C19.25 15.85 18.9 16 18.5 16H1.5ZM10 8.3C10.0833 8.3 10.1542 8.2875 10.2125 8.2625C10.2708 8.2375 10.3333 8.20833 10.4 8.175L17.25 4.05C17.3333 4 17.3958 3.93333 17.4375 3.85C17.4792 3.76667 17.5 3.675 17.5 3.575C17.5 3.35833 17.4042 3.1875 17.2125 3.0625C17.0208 2.9375 16.825 2.94167 16.625 3.075L10 6.95L3.4 3.075C3.2 2.94167 3 2.93333 2.8 3.05C2.6 3.16667 2.5 3.33333 2.5 3.55C2.5 3.65 2.525 3.74583 2.575 3.8375C2.625 3.92917 2.68333 4 2.75 4.05L9.6 8.175C9.66667 8.20833 9.72917 8.2375 9.7875 8.2625C9.84583 8.2875 9.91667 8.3 10 8.3Z" fill="#4D3483"/>
</svg>
