<svg width="18" height="13" viewBox="0 0 18 13" fill="none" xmlns="http://www.w3.org/2000/svg">
<path d="M1 12.5C0.716667 12.5 0.479333 12.404 0.288 12.212C0.0960001 12.0207 0 11.7833 0 11.5C0 11.2167 0.0960001 10.9793 0.288 10.788C0.479333 10.596 0.716667 10.5 1 10.5H17C17.2833 10.5 17.5207 10.596 17.712 10.788C17.904 10.9793 18 11.2167 18 11.5C18 11.7833 17.904 12.0207 17.712 12.212C17.5207 12.404 17.2833 12.5 17 12.5H1ZM1 7.5C0.716667 7.5 0.479333 7.404 0.288 7.212C0.0960001 7.02067 0 6.78333 0 6.5C0 6.21667 0.0960001 5.979 0.288 5.787C0.479333 5.59567 0.716667 5.5 1 5.5H17C17.2833 5.5 17.5207 5.59567 17.712 5.787C17.904 5.979 18 6.21667 18 6.5C18 6.78333 17.904 7.02067 17.712 7.212C17.5207 7.404 17.2833 7.5 17 7.5H1ZM1 2.5C0.716667 2.5 0.479333 2.40433 0.288 2.213C0.0960001 2.021 0 1.78333 0 1.5C0 1.21667 0.0960001 0.979 0.288 0.787C0.479333 0.595667 0.716667 0.5 1 0.5H17C17.2833 0.5 17.5207 0.595667 17.712 0.787C17.904 0.979 18 1.21667 18 1.5C18 1.78333 17.904 2.021 17.712 2.213C17.5207 2.40433 17.2833 2.5 17 2.5H1Z" fill="#7064FF"/>
</svg>
