<svg width="880" height="880" viewBox="0 0 880 880" fill="none" xmlns="http://www.w3.org/2000/svg">
<path d="M483.384 158.4C483.331 159.765 483.823 161.096 484.751 162.098C485.68 163.101 486.968 163.693 488.334 163.746C489.699 163.799 491.029 163.306 492.032 162.378C493.034 161.45 493.627 160.161 493.68 158.796C493.745 158.329 493.745 157.855 493.68 157.388C493.68 153.472 493.46 149.776 493.46 146.3C496.925 146.808 500.048 148.671 502.139 151.481C504.231 154.291 505.121 157.816 504.614 161.282C504.106 164.748 502.242 167.87 499.433 169.962C496.623 172.054 493.097 172.944 489.632 172.436C489.134 172.48 488.633 172.48 488.136 172.436C484.49 172.287 481.052 170.698 478.577 168.017C476.102 165.336 474.793 161.782 474.936 158.136C475.09 155.78 475.874 153.508 477.205 151.558C478.536 149.608 480.366 148.05 482.504 147.048C482.522 150.841 482.742 154.63 483.164 158.4H483.384Z" fill="#332E6F"/>
<path d="M532.62 234.344C534.966 236.169 536.85 238.521 538.12 241.208H567.864C571.671 241.17 575.458 240.637 579.128 239.624L610.632 230.824V230.428L563.64 185.68L563.948 185.328L577.148 170.852L577.412 170.544C577.412 170.544 670.252 220 669.416 238.612C668.492 258.896 588.544 298.716 588.544 298.716C588.544 298.716 590.612 471.856 590.832 475.728H589.248H421.212H420.904C421.476 448.14 427.592 355.52 432.476 297.528C407.168 307.624 381.365 316.435 355.168 323.928C350.856 325.6 321.2 293.92 299.2 260.084V259.6C300.722 259.184 302.065 258.277 303.02 257.02C303.974 255.763 304.487 254.226 304.48 252.648V237.336H304.832C306.143 236.836 307.385 236.171 308.528 235.356C318.912 247.544 356.4 281.6 360.8 280.06C374 275.088 401.148 260.04 431.2 245.388C440.484 240.988 463.54 241.428 480.964 241.736C481.625 238.798 483.271 236.174 485.628 234.3L486.464 233.948C500.973 230.72 515.986 230.465 530.596 233.2C531.324 233.477 532.007 233.863 532.62 234.344Z" fill="#332E6F"/>
<path d="M517.791 154.396C517.85 154.857 517.732 155.324 517.462 155.703C517.191 156.081 516.788 156.344 516.333 156.438C515.877 156.533 515.403 156.452 515.005 156.212C514.606 155.972 514.313 155.591 514.183 155.144C514.124 154.683 514.242 154.216 514.512 153.837C514.783 153.459 515.186 153.196 515.641 153.102C516.097 153.007 516.571 153.088 516.969 153.328C517.368 153.568 517.661 153.949 517.791 154.396Z" fill="black"/>
<path d="M518.143 798.6L518.979 798.336L518.143 798.6Z" fill="black"/>
<path d="M494.648 804.144L495.66 803.704L494.648 804.144Z" fill="black"/>
<path d="M583.969 788.48L585.597 787.996L583.969 788.48Z" fill="black"/>
<path d="M328.723 709.72L327.183 710.116L328.723 709.72Z" fill="black"/>
<path d="M490.381 806.872L491.217 806.168L490.381 806.872Z" fill="black"/>
<path d="M373.031 700.348L376.243 700.7L373.031 700.348Z" fill="black"/>
<path d="M365.552 698.808L366.608 699.072L365.552 698.808Z" fill="black"/>
<path d="M540.144 149.6C540.237 150.078 540.143 150.573 539.88 150.982C539.618 151.392 539.208 151.685 538.736 151.8C538.379 151.879 538.006 151.85 537.666 151.717C537.325 151.584 537.032 151.353 536.823 151.053C536.614 150.753 536.498 150.398 536.491 150.032C536.484 149.667 536.585 149.307 536.782 148.999C536.979 148.692 537.263 148.449 537.598 148.303C537.933 148.156 538.304 148.112 538.664 148.176C539.024 148.241 539.356 148.41 539.62 148.664C539.883 148.917 540.066 149.243 540.144 149.6Z" fill="black"/>
<path d="M491.217 806.168L492.097 805.552L491.217 806.168Z" fill="black"/>
<path d="M368.764 699.6L370.876 700.04L368.764 699.6Z" fill="black"/>
<path d="M581.769 789.096L583.133 788.744L581.769 789.096Z" fill="black"/>
<path d="M492.095 805.552C492.49 805.277 492.901 805.027 493.327 804.804C492.901 805.027 492.49 805.277 492.095 805.552Z" fill="black"/>
<path d="M366.607 699.071L368.763 699.555L366.607 699.071Z" fill="black"/>
<path d="M547.183 788.876V788.436V788.876C548.987 789.404 550.791 789.844 552.551 790.24C550.791 789.888 548.987 789.404 547.183 788.876Z" fill="black"/>
<path d="M363.44 698.192L365.552 698.808L363.44 698.192Z" fill="black"/>
<path d="M496.364 803.44L497.464 803.044L496.364 803.44Z" fill="black"/>
<path d="M392.128 699.6L390.852 699.82L392.128 699.6Z" fill="black"/>
<path d="M514.8 799.568L515.636 799.348L514.8 799.568Z" fill="black"/>
<path d="M399.695 697.884L401.279 697.4L399.695 697.884Z" fill="black"/>
<path d="M557.964 791.208L560.12 791.428L557.964 791.208Z" fill="black"/>
<path d="M581.327 789.229C574.796 791.095 568.002 791.868 561.219 791.517C568.002 791.868 574.796 791.095 581.327 789.229Z" fill="black"/>
<path d="M404.053 738.188H302.193V738.232H404.053V738.188Z" fill="white"/>
<path d="M585.595 787.996L586.431 787.688L585.595 787.996Z" fill="black"/>
<path d="M382.8 700.876C380.69 700.987 378.575 700.987 376.464 700.876C378.575 700.987 380.69 700.987 382.8 700.876Z" fill="black"/>
<path d="M387.904 700.436L385.264 700.7L387.904 700.436Z" fill="black"/>
<path d="M515.548 799.348L516.428 799.084L515.548 799.348Z" fill="black"/>
<path d="M512.028 800.271L509.564 800.843L512.028 800.271Z" fill="black"/>
<path d="M552.552 790.24C554.002 790.593 555.471 790.857 556.952 791.032C555.471 790.857 554.002 790.593 552.552 790.24Z" fill="black"/>
<path d="M322.256 770.308C322.009 770.15 321.796 769.944 321.63 769.702C321.464 769.46 321.348 769.188 321.288 768.9C321.171 768.3 321.295 767.677 321.632 767.167C321.969 766.657 322.494 766.299 323.092 766.172C323.387 766.101 323.694 766.091 323.993 766.142C324.292 766.193 324.578 766.304 324.833 766.469C325.088 766.633 325.307 766.848 325.477 767.099C325.646 767.351 325.763 767.634 325.82 767.932C325.926 768.386 325.89 768.86 325.719 769.293C325.548 769.726 325.248 770.096 324.861 770.354C324.474 770.612 324.017 770.746 323.552 770.738C323.086 770.73 322.634 770.58 322.256 770.308Z" fill="black"/>
<path d="M268.092 770.968C267.835 771.153 267.542 771.284 267.231 771.352C266.921 771.42 266.6 771.424 266.288 771.364C265.687 771.227 265.162 770.861 264.825 770.343C264.488 769.826 264.366 769.198 264.484 768.592C264.622 767.99 264.988 767.465 265.505 767.129C266.022 766.792 266.651 766.67 267.256 766.788C267.557 766.851 267.843 766.972 268.097 767.146C268.35 767.319 268.567 767.541 268.735 767.799C268.903 768.057 269.018 768.345 269.074 768.647C269.129 768.949 269.125 769.26 269.06 769.56C268.932 770.137 268.585 770.641 268.092 770.968Z" fill="black"/>
<path d="M383.548 780.164C383.232 779.828 382.85 779.56 382.426 779.379C382.002 779.197 381.545 779.105 381.084 779.108C380.508 779.109 379.943 779.256 379.44 779.536C378.937 779.816 378.514 780.219 378.21 780.708C377.906 781.196 377.732 781.754 377.704 782.329C377.675 782.904 377.794 783.476 378.048 783.992C378.312 784.574 378.739 785.067 379.278 785.411C379.817 785.755 380.445 785.934 381.084 785.928C381.721 785.924 382.343 785.739 382.88 785.397C383.417 785.055 383.847 784.568 384.12 783.992C384.35 783.527 384.471 783.015 384.472 782.496C384.469 781.63 384.139 780.797 383.548 780.164Z" fill="black"/>
<path d="M416.503 828.168V738.188H404.051H302.191H240.195V828.168H416.503Z" stroke="black" stroke-width="3" stroke-miterlimit="10" stroke-linecap="round"/>
<path d="M487.431 513.524C487.871 525.976 488.663 538.384 489.895 550.704C498.123 635.624 523.731 717.904 547.095 788.304V788.744" stroke="black" stroke-width="3" stroke-miterlimit="10" stroke-linecap="round"/>
<path d="M589.247 477.048C589.467 494.648 589.643 513.172 589.731 532.092C590.215 646.096 588.059 774.092 588.235 787.292V788.26" stroke="black" stroke-width="3" stroke-miterlimit="10"/>
<path d="M588.149 787.16L586.433 787.688L585.597 787.996L583.969 788.48L583.133 788.744L581.769 789.096H581.329C574.798 790.962 568.004 791.735 561.221 791.384H560.121L557.965 791.164H556.865C555.384 790.988 553.914 790.724 552.465 790.372C550.705 790.02 548.901 789.536 547.097 789.008H546.569" stroke="black" stroke-width="3" stroke-miterlimit="10"/>
<path d="M363.088 698.104H362.736" stroke="black" stroke-width="3" stroke-miterlimit="10"/>
<path d="M404.228 696.432H403.788L401.28 697.268L399.696 697.752L396.044 698.72H395.604H395.032L392.128 699.336L390.852 699.556H390.148H389.444L388.08 699.776L385.44 700.04H383.504H382.8C380.69 700.151 378.575 700.151 376.464 700.04L373.252 699.688H372.152H371.096L368.984 699.248L366.828 698.764L365.772 698.5L363.66 697.884H363.352" stroke="black" stroke-width="3" stroke-miterlimit="10"/>
<path d="M488.972 550.792C458.744 550.22 424.028 560.604 404.36 577.192C394.108 585.992 398.376 667.48 403.788 696.388C403.767 696.783 403.767 697.18 403.788 697.576" stroke="black" stroke-width="3" stroke-miterlimit="10" stroke-linecap="round"/>
<path d="M421.343 475.904H421.035C394.635 486.904 340.119 514.228 334.531 529.848C322.651 563.332 341.131 641.696 363.571 698.016C363.647 698.275 363.75 698.526 363.879 698.764" stroke="black" stroke-width="3" stroke-miterlimit="10"/>
<path d="M304.831 237.336C306.143 236.836 307.385 236.171 308.527 235.356C319.483 227.26 317.327 205.788 311.211 199.628C309.236 197.765 306.94 196.275 304.435 195.228C301.445 193.776 298.07 193.314 294.799 193.908C294.245 194.069 293.734 194.355 293.307 194.744C292.88 195.133 292.547 195.614 292.335 196.152C292.192 197.108 292.299 198.085 292.646 198.987C292.993 199.889 293.568 200.686 294.315 201.3C297.354 204.272 300.772 206.832 304.479 208.912L305.579 209.528" stroke="black" stroke-width="3" stroke-miterlimit="10"/>
<path d="M275 212.784C271.612 207.636 272.448 203.676 275.264 201.256C277.923 199.391 281.118 198.442 284.365 198.553C287.611 198.665 290.734 199.829 293.26 201.872C295.284 203.5 297.968 207.768 291.72 209.44" stroke="black" stroke-width="3" stroke-miterlimit="10"/>
<path d="M275.087 201.036C269.939 191.488 277.683 187.484 285.603 188.98C288.895 189.58 291.948 191.106 294.403 193.38" stroke="black" stroke-width="3" stroke-miterlimit="10"/>
<path d="M285.207 235.797C282.991 235.102 280.939 233.964 279.176 232.451C277.414 230.938 275.978 229.082 274.955 226.997C273.873 224.884 273.364 222.525 273.48 220.154C273.596 217.784 274.332 215.485 275.615 213.489C276.097 212.755 276.658 212.076 277.287 211.465C279.093 209.695 281.421 208.555 283.926 208.215C286.431 207.874 288.979 208.35 291.191 209.573C292.009 210.027 292.752 210.606 293.391 211.289C296.075 214.193 293.831 219.253 291.059 217.889C289.468 217.197 287.726 216.924 285.999 217.097C285.399 217.107 284.825 217.344 284.392 217.76C283.96 218.176 283.701 218.741 283.667 219.34C283.667 220 284.987 220.749 285.427 220.969" stroke="black" stroke-width="3" stroke-miterlimit="10"/>
<path d="M304.436 195.58V182.864C304.442 181.915 304.259 180.974 303.899 180.095C303.538 179.217 303.007 178.42 302.336 177.748C301.664 177.077 300.866 176.546 299.988 176.185C299.11 175.825 298.169 175.642 297.22 175.648H293.04C291.157 175.694 289.366 176.474 288.051 177.823C286.735 179.171 285.999 180.98 286 182.864V187.836" stroke="black" stroke-width="3" stroke-miterlimit="10"/>
<path d="M304.48 208.78V252.78C304.459 254.335 303.932 255.842 302.98 257.072C302.027 258.302 300.701 259.19 299.2 259.6C298.57 259.777 297.918 259.866 297.264 259.864H293.128C291.252 259.841 289.459 259.089 288.128 257.767C286.797 256.444 286.034 254.655 286 252.78V216.876" stroke="black" stroke-width="3" stroke-miterlimit="10"/>
<path d="M298.717 147.356V148.544L298.761 174.812" stroke="black" stroke-width="3" stroke-miterlimit="10"/>
<path d="M291.588 174.812V149.688" stroke="black" stroke-width="3" stroke-miterlimit="10"/>
<path d="M249.305 100.936V99.6161C249.305 99.0441 249.305 98.5161 249.305 97.9441C252.517 72.6881 273.989 54.6481 297.309 57.5961C320.629 60.5441 336.909 83.4241 333.696 108.636C332.709 118.123 328.788 127.066 322.479 134.219C316.169 141.373 307.786 146.38 298.496 148.544C294.307 149.354 290.016 149.502 285.781 148.984C275.866 147.418 266.799 142.47 260.118 134.979C253.437 127.488 249.554 117.916 249.129 107.888C249.129 107.536 249.129 107.184 249.129 106.876" stroke="black" stroke-width="3" stroke-miterlimit="10"/>
<path d="M249.305 100.936V99.6161C249.305 99.0441 249.305 98.5161 249.305 97.9441C252.517 72.6881 273.989 54.6481 297.309 57.5961C320.629 60.5441 336.909 83.4241 333.696 108.636C332.709 118.123 328.788 127.066 322.479 134.219C316.169 141.373 307.786 146.38 298.496 148.544C294.307 149.354 290.016 149.502 285.781 148.984C275.866 147.418 266.799 142.47 260.118 134.979C253.437 127.488 249.554 117.916 249.129 107.888C249.129 107.536 249.129 107.184 249.129 106.876" stroke="black" stroke-width="3" stroke-miterlimit="10"/>
<path d="M239.843 108.9C239.843 108.504 239.843 108.064 239.843 107.668" stroke="black" stroke-width="3" stroke-miterlimit="10"/>
<path d="M239.843 108.9C239.843 108.504 239.843 108.064 239.843 107.668" stroke="black" stroke-width="3" stroke-miterlimit="10"/>
<path d="M339.107 70.6202C345.876 82.4657 348.494 96.2332 346.543 109.736C345.837 115.008 344.461 120.168 342.451 125.092" stroke="black" stroke-width="3" stroke-miterlimit="10" stroke-linecap="round"/>
<path d="M348.876 60.6321C358.189 76.9114 361.783 95.8404 359.084 114.4C358.099 121.62 356.206 128.686 353.452 135.432" stroke="black" stroke-width="3" stroke-miterlimit="10" stroke-linecap="round"/>
<path d="M360.095 51.5679C371.645 71.8139 376.119 95.3311 372.811 118.404C371.586 127.389 369.235 136.185 365.815 144.584" stroke="black" stroke-width="3" stroke-miterlimit="10" stroke-linecap="round"/>
<path d="M237.248 99.1325C237.426 95.3777 237.971 91.6492 238.876 88.0005C240.072 82.824 241.935 77.8248 244.42 73.1285" stroke="black" stroke-width="3" stroke-miterlimit="10" stroke-linecap="round"/>
<path d="M242.484 127.6C239.779 121.421 238.128 114.833 237.6 108.108" stroke="black" stroke-width="3" stroke-miterlimit="10" stroke-linecap="round"/>
<path d="M224.4 99.3083C224.518 93.5641 225.285 87.8517 226.688 82.2803C228.354 75.1812 230.912 68.3214 234.3 61.8643" stroke="black" stroke-width="3" stroke-miterlimit="10" stroke-linecap="round"/>
<path d="M231.791 136.664C227.711 127.651 225.282 117.979 224.619 108.108" stroke="black" stroke-width="3" stroke-miterlimit="10" stroke-linecap="round"/>
<path d="M219.737 144.584C210.197 123.314 208.014 99.4723 213.533 76.8237C215.637 68.0001 218.83 59.4721 223.037 51.4357" stroke="black" stroke-width="3" stroke-miterlimit="10" stroke-linecap="round"/>
<path d="M254.892 99.6155H285.34C286.36 99.6943 287.308 100.174 287.975 100.948C288.643 101.723 288.977 102.731 288.904 103.752C288.915 104.815 288.54 105.847 287.848 106.656C287.546 107.032 287.164 107.337 286.731 107.55C286.298 107.763 285.823 107.878 285.34 107.888H226.996C225.976 107.809 225.029 107.33 224.361 106.555C223.693 105.78 223.359 104.772 223.432 103.752C223.422 102.688 223.797 101.656 224.488 100.848C224.791 100.471 225.172 100.166 225.605 99.953C226.039 99.7401 226.514 99.6249 226.996 99.6155H254.892Z" stroke="black" stroke-width="3" stroke-miterlimit="10"/>
<path d="M555.06 504.196C558.492 522.456 573.232 530.86 589.732 532.092C594.699 532.428 599.69 532.192 604.604 531.388" stroke="black" stroke-width="3" stroke-miterlimit="10" stroke-linecap="round"/>
<path d="M547.361 788.392H546.613H546.085H545.425L544.589 788.656C544.299 788.703 544.017 788.792 543.753 788.92H543.269L542.213 789.272L539.573 790.284L538.869 790.548L537.153 791.208C532.093 793.188 525.845 795.608 519.069 797.808L518.233 798.072L516.517 798.556L515.637 798.82L514.801 799.04L512.117 799.744L509.653 800.316L506.001 801.02H505.121L502.481 801.372C500.813 801.574 499.165 801.913 497.553 802.384L496.453 802.78L495.749 803.044L494.737 803.484L493.417 804.144C492.991 804.367 492.579 804.617 492.185 804.892L491.305 805.508L490.469 806.212C488.708 807.867 487.426 809.968 486.76 812.291C486.094 814.615 486.068 817.075 486.685 819.412H522.853L588.237 819.72" stroke="black" stroke-width="3" stroke-linecap="round" stroke-linejoin="round"/>
<path d="M588.192 820.204H588.236V828.564H486.376V820.204H522.764H588.192Z" stroke="black" stroke-width="3" stroke-linecap="round" stroke-linejoin="round"/>
<path d="M588.193 786.896V787.16V820.116" stroke="black" stroke-width="3" stroke-miterlimit="10"/>
<path d="M363.175 698.104H362.823H362.163H361.503L360.667 698.368L359.347 698.764L356.223 699.864L355.167 700.26L348.655 702.812L347.247 703.34L344.915 704.264L343.463 704.792C338.68 706.593 333.804 708.135 328.855 709.412L327.315 709.808L323.707 710.6L322.211 710.864L320.803 711.084H319.219H318.339C309.099 712.14 300.387 717.288 302.499 729.036H338.711L404.095 729.344" stroke="black" stroke-width="3" stroke-linecap="round" stroke-linejoin="round"/>
<path d="M404.053 738.187V738.231H302.193V738.187V729.871H338.581H404.009H404.053V738.187Z" stroke="black" stroke-width="3" stroke-linecap="round" stroke-linejoin="round"/>
<path d="M404.007 698.192V729.872V731.676" stroke="black" stroke-width="3" stroke-miterlimit="10"/>
<path d="M506.219 105.116C514.364 106.953 521.796 111.128 527.603 117.128C535.509 124.439 542.352 132.822 547.931 142.032C548.547 143.088 549.075 144.056 549.515 144.936L549.911 145.772C552.507 152.064 551.495 162.36 549.119 172.172C548.591 174.416 547.975 176.572 547.315 178.86C544.059 189.596 539.659 198.792 537.107 200.508C534.225 202.28 530.834 203.039 527.471 202.664C519.965 201.977 513.021 198.395 508.111 192.676" stroke="black" stroke-width="3" stroke-miterlimit="10" stroke-linecap="round"/>
<path d="M486.069 233.464C487.433 212.388 488.313 195.14 489.545 172.436" stroke="black" stroke-width="3" stroke-miterlimit="10"/>
<path d="M527.34 202.4V203.104C529.012 213.092 528.88 225.412 532.488 234.564" stroke="black" stroke-width="3" stroke-miterlimit="10"/>
<path d="M494.383 124.828C510.575 120.78 525.183 117.92 527.295 117.436" stroke="black" stroke-width="3" stroke-miterlimit="10"/>
<path d="M482.46 140.052C474.232 144.056 451.66 153.736 449.944 144.804C448.888 138.996 465.3 132.792 483.296 127.732" stroke="black" stroke-width="3" stroke-miterlimit="10"/>
<path d="M529.848 145.817C532.401 143.668 535.619 142.471 538.956 142.429" stroke="black" stroke-width="3" stroke-miterlimit="10" stroke-linecap="round"/>
<path d="M517.484 148.676C515.622 148.394 513.721 148.554 511.932 149.143C510.144 149.731 508.519 150.732 507.188 152.064" stroke="black" stroke-width="3" stroke-miterlimit="10" stroke-linecap="round"/>
<path d="M529.452 146.3C528.484 152.108 532.796 160.028 534.776 165.44C536.096 169.092 538.472 176.264 531.564 175.208" stroke="black" stroke-width="3" stroke-miterlimit="10" stroke-linecap="round"/>
<path d="M513.481 184.8C515.037 184.033 516.79 183.762 518.505 184.021C520.219 184.281 521.814 185.059 523.073 186.252" stroke="black" stroke-width="3" stroke-linecap="round" stroke-linejoin="round"/>
<path d="M482.415 147.048C480.278 148.05 478.448 149.608 477.117 151.558C475.786 153.508 475.002 155.78 474.847 158.136C474.705 161.782 476.014 165.336 478.489 168.017C480.964 170.698 484.402 172.287 488.047 172.436C488.545 172.48 489.046 172.48 489.544 172.436C493.009 172.944 496.535 172.054 499.345 169.962C502.154 167.87 504.018 164.748 504.526 161.282C505.033 157.816 504.143 154.291 502.051 151.481C499.96 148.671 496.837 146.808 493.371 146.3H493.108" stroke="black" stroke-width="3" stroke-miterlimit="10"/>
<path d="M548.943 172.392L550.439 172.128C554.004 171.406 557.139 169.303 559.159 166.277C561.178 163.252 561.919 159.55 561.219 155.98C560.601 153.335 559.2 150.937 557.198 149.101C555.197 147.264 552.688 146.073 549.999 145.684" stroke="black" stroke-width="3" stroke-miterlimit="10"/>
<path d="M483.253 158.401C482.831 154.631 482.611 150.842 482.593 147.049C482.593 144.805 482.593 142.429 482.593 140.097C482.593 136.005 483.077 131.825 483.605 127.777C484.925 117.261 487.521 107.713 491.569 103.753C492.918 102.465 494.517 101.467 496.266 100.82C498.015 100.172 499.878 99.8893 501.741 99.9882C503.603 100.087 505.426 100.566 507.097 101.395C508.768 102.224 510.251 103.385 511.457 104.809V104.809" stroke="black" stroke-width="3" stroke-linecap="round" stroke-linejoin="round"/>
<path d="M493.592 157.476C493.592 153.56 493.372 149.864 493.372 146.388C493.234 139.217 493.558 132.045 494.34 124.916C495.88 112.948 499.4 106.524 506.22 105.116C507.955 104.848 509.721 104.848 511.456 105.116" stroke="black" stroke-width="3" stroke-linecap="round" stroke-linejoin="round"/>
<path d="M493.593 157.388C493.362 156.138 492.676 155.018 491.668 154.243C490.66 153.468 489.4 153.094 488.133 153.193C486.865 153.291 485.679 153.855 484.802 154.776C483.926 155.697 483.421 156.909 483.385 158.18C483.359 158.856 483.466 159.531 483.701 160.165C483.936 160.8 484.293 161.382 484.753 161.878C485.213 162.375 485.765 162.776 486.38 163.059C486.995 163.341 487.659 163.5 488.335 163.526C489.011 163.552 489.686 163.445 490.32 163.21C490.955 162.975 491.537 162.618 492.033 162.158C492.53 161.699 492.931 161.146 493.213 160.531C493.496 159.917 493.655 159.252 493.681 158.576C493.699 158.178 493.669 157.779 493.593 157.388V157.388Z" stroke="black" stroke-width="3" stroke-miterlimit="10"/>
<path d="M420.904 476.124C421.476 448.536 427.592 355.916 432.476 297.924C407.168 308.02 381.365 316.832 355.168 324.324C350.856 325.6 321.2 293.92 299.2 260.084" stroke="black" stroke-width="3" stroke-linejoin="round"/>
<path d="M308.66 235.532C318.912 247.544 356.4 281.6 360.8 280.06C374 275.088 401.148 260.04 431.2 245.388C440.484 240.988 463.54 241.428 480.964 241.736C481.624 238.798 483.27 236.174 485.628 234.3L486.464 233.948C500.973 230.72 515.985 230.465 530.596 233.2C531.314 233.423 531.995 233.749 532.62 234.168C534.966 235.994 536.85 238.345 538.12 241.032H567.864C571.671 240.994 575.457 240.462 579.128 239.448L610.632 230.648L619.916 228.096" stroke="black" stroke-width="3" stroke-linecap="round" stroke-linejoin="round"/>
<path d="M421.212 475.948H589.248H590.832C590.612 472.076 588.544 298.936 588.544 298.936C588.544 298.936 668.492 259.336 669.416 238.832C670.252 220.176 577.544 170.764 577.544 170.764L577.28 171.072L564.08 185.548L563.772 185.9L610.632 230.604" stroke="black" stroke-width="3" stroke-linecap="round" stroke-linejoin="round"/>
<path d="M576.84 170.412C575.143 169.358 573.526 168.182 572 166.892C571.56 162.052 572.22 154.968 570.328 152.416C567.776 148.94 563.156 142.208 547.976 141.988" stroke="black" stroke-width="3" stroke-linecap="round" stroke-linejoin="round"/>
<path d="M563.2 184.8C562.384 183.78 561.281 183.029 560.032 182.644C557.216 182.644 550.88 182.336 547.976 179.212" stroke="black" stroke-width="3" stroke-linecap="round" stroke-linejoin="round"/>
<path d="M268.311 788.084C277.764 788.084 285.427 780.421 285.427 770.968C285.427 761.515 277.764 753.852 268.311 753.852C258.858 753.852 251.195 761.515 251.195 770.968C251.195 780.421 258.858 788.084 268.311 788.084Z" stroke="black" stroke-width="3" stroke-miterlimit="10" stroke-linecap="round"/>
<path d="M338.801 770.968C338.81 774.355 337.813 777.669 335.938 780.489C334.062 783.31 331.392 785.511 328.265 786.813C325.139 788.115 321.696 788.46 318.373 787.805C315.05 787.149 311.996 785.523 309.598 783.131C307.2 780.739 305.565 777.689 304.901 774.368C304.237 771.046 304.573 767.603 305.868 764.473C307.162 761.342 309.356 758.667 312.171 756.784C314.987 754.901 318.298 753.896 321.685 753.896C326.217 753.896 330.564 755.694 333.772 758.894C336.981 762.094 338.789 766.437 338.801 770.968V770.968Z" stroke="black" stroke-width="3" stroke-miterlimit="10" stroke-linecap="round"/>
<path d="M268.4 810.964C268.409 812.656 267.915 814.312 266.98 815.722C266.046 817.133 264.713 818.234 263.151 818.885C261.59 819.537 259.87 819.71 258.21 819.382C256.55 819.054 255.025 818.24 253.829 817.043C252.632 815.847 251.818 814.322 251.49 812.662C251.162 811.002 251.335 809.282 251.987 807.721C252.638 806.159 253.739 804.826 255.15 803.892C256.56 802.957 258.216 802.463 259.908 802.472C262.161 802.472 264.321 803.366 265.913 804.959C267.506 806.551 268.4 808.711 268.4 810.964V810.964Z" stroke="black" stroke-width="3" stroke-miterlimit="10" stroke-linecap="round"/>
<path d="M293.436 810.964C293.445 812.656 292.951 814.312 292.016 815.722C291.081 817.133 289.749 818.234 288.187 818.885C286.626 819.537 284.906 819.71 283.246 819.382C281.586 819.054 280.061 818.24 278.864 817.043C277.668 815.847 276.854 814.322 276.526 812.662C276.198 811.002 276.371 809.282 277.022 807.721C277.674 806.159 278.775 804.826 280.185 803.892C281.596 802.957 283.252 802.463 284.944 802.472C286.059 802.472 287.164 802.691 288.194 803.118C289.224 803.545 290.16 804.17 290.949 804.959C291.737 805.747 292.363 806.684 292.79 807.714C293.217 808.744 293.436 809.848 293.436 810.964V810.964Z" stroke="black" stroke-width="3" stroke-miterlimit="10" stroke-linecap="round"/>
<path d="M317.988 810.963C317.997 812.654 317.504 814.308 316.571 815.718C315.639 817.127 314.309 818.228 312.75 818.881C311.191 819.534 309.473 819.709 307.814 819.385C306.156 819.06 304.631 818.251 303.432 817.059C302.234 815.867 301.417 814.346 301.084 812.689C300.751 811.032 300.917 809.313 301.562 807.751C302.207 806.189 303.301 804.853 304.706 803.913C306.11 802.973 307.762 802.472 309.452 802.471C311.709 802.471 313.873 803.365 315.473 804.956C317.072 806.547 317.977 808.707 317.988 810.963V810.963Z" stroke="black" stroke-width="3" stroke-miterlimit="10" stroke-linecap="round"/>
<path d="M260.083 803.176V809.16" stroke="black" stroke-width="3" stroke-miterlimit="10" stroke-linecap="round"/>
<path d="M279.531 806.344L284.239 809.996" stroke="black" stroke-width="3" stroke-miterlimit="10" stroke-linecap="round"/>
<path d="M310.331 812.064L315.039 815.716" stroke="black" stroke-width="3" stroke-miterlimit="10" stroke-linecap="round"/>
<path d="M378.532 783.2H361.152H356.971V758.78H405.063V783.2H400.84H383.504" stroke="black" stroke-width="3" stroke-miterlimit="10"/>
<path d="M361.107 783.2C361.572 778.271 363.86 773.693 367.521 770.36C371.183 767.028 375.956 765.181 380.907 765.181C385.858 765.181 390.631 767.028 394.293 770.36C397.955 773.693 400.242 778.271 400.707 783.2" stroke="black" stroke-width="3" stroke-miterlimit="10"/>
<path d="M382.095 780.912L383.019 780.12L390.543 773.52" stroke="black" stroke-width="3" stroke-miterlimit="10" stroke-linecap="round"/>
<path d="M322.872 769.516L322.256 770.308L317.152 777.084" stroke="black" stroke-width="3" stroke-miterlimit="10" stroke-linecap="round"/>
<path d="M267.476 770.176L268.092 770.968L273.196 777.7" stroke="black" stroke-width="3" stroke-miterlimit="10" stroke-linecap="round"/>
<path d="M404.579 801.812H389.707V820.16H404.579V801.812Z" stroke="black" stroke-width="3" stroke-miterlimit="10"/>
<path d="M390.369 810.612H404.405" stroke="black" stroke-width="3" stroke-miterlimit="10"/>
<path d="M404.007 729.872H338.799H302.587C300.475 718.124 309.187 712.976 318.427 711.92H319.307H320.891L322.299 711.7L323.795 711.436L327.403 710.644L328.943 710.248C333.783 708.786 338.542 707.068 343.199 705.1L344.651 704.572L346.983 703.648L348.391 703.12L354.903 700.568L355.959 700.172L359.083 699.072L360.403 698.676L361.239 698.412H361.899H362.559H362.867H363.175L365.287 699.028L366.343 699.292L368.499 699.776L370.611 700.216H371.667H372.767L375.979 700.568C378.09 700.679 380.205 700.679 382.315 700.568H383.019H384.955L387.595 700.304L388.959 700.084H389.663H390.367L391.643 699.864L394.547 699.248H395.119H395.559L399.211 698.28L400.795 697.796L403.303 696.96C403.282 697.355 403.282 697.752 403.303 698.148V730.268L404.007 729.872Z" fill="#332E6F"/>
<path d="M588.192 820.204H522.764H486.596C485.98 817.867 486.006 815.407 486.672 813.084C487.338 810.76 488.62 808.66 490.38 807.004L491.217 806.3L492.096 805.684C492.491 805.409 492.903 805.16 493.329 804.936L494.648 804.276L495.661 803.836L496.364 803.572L497.464 803.176C499.077 802.705 500.725 802.367 502.393 802.164L505.032 801.812H505.913L509.564 801.108L512.029 800.536L514.713 799.832L515.548 799.612L516.429 799.348L518.145 798.864L518.98 798.6C525.756 796.488 532.18 793.98 537.064 792L538.78 791.34L539.485 791.076L542.125 790.064L543.18 789.712H543.664C543.929 789.585 544.211 789.496 544.501 789.448L545.337 789.184H545.996H546.525H546.964V789.624C548.768 790.152 550.573 790.636 552.333 790.988C553.782 791.341 555.251 791.605 556.732 791.78H557.832L559.988 792H561.088C567.871 792.351 574.666 791.578 581.196 789.712H581.637L583.001 789.36L583.837 789.096L585.464 788.612L586.301 788.304L588.017 787.776V820.82L588.192 820.204Z" fill="#332E6F"/>
</svg>
