<svg width="896" height="896" viewBox="0 0 896 896" fill="none" xmlns="http://www.w3.org/2000/svg">
<g filter="url(#filter0_d_507_1495)">
<g clip-path="url(#clip0_507_1495)">
<path d="M8 28C8 16.9543 16.9543 8 28 8H868C879.046 8 888 16.9543 888 28V868C888 879.046 879.046 888 868 888H28C16.9543 888 8 879.046 8 868V28Z" fill="#FCFBFF"/>
<path d="M491.383 166.4C491.331 167.765 491.823 169.095 492.751 170.098C493.679 171.101 494.968 171.693 496.333 171.746C497.699 171.798 499.029 171.306 500.032 170.378C501.034 169.45 501.627 168.161 501.679 166.796C501.745 166.329 501.745 165.855 501.679 165.388C501.679 161.472 501.459 157.776 501.459 154.3C504.925 154.807 508.047 156.671 510.139 159.481C512.231 162.29 513.121 165.816 512.613 169.282C512.106 172.748 510.242 175.87 507.432 177.962C504.623 180.053 501.097 180.943 497.631 180.436C497.134 180.48 496.633 180.48 496.135 180.436C492.49 180.287 489.052 178.698 486.577 176.017C484.102 173.335 482.792 169.782 482.935 166.136C483.09 163.78 483.873 161.508 485.205 159.558C486.536 157.608 488.366 156.05 490.503 155.048C490.522 158.841 490.742 162.63 491.163 166.4H491.383Z" fill="#332E6F"/>
<path d="M540.62 242.344C542.966 244.169 544.85 246.521 546.12 249.208H575.864C579.672 249.17 583.458 248.637 587.128 247.624L618.632 238.824V238.428L571.64 193.68L571.948 193.328L585.148 178.852L585.412 178.544C585.412 178.544 678.252 228 677.416 246.612C676.492 266.896 596.544 306.716 596.544 306.716C596.544 306.716 598.612 479.856 598.832 483.728H597.248H429.212H428.904C429.476 456.14 435.592 363.52 440.476 305.528C415.168 315.624 389.366 324.435 363.168 331.928C358.856 333.6 329.2 301.92 307.2 268.084V267.6C308.723 267.184 310.065 266.277 311.02 265.02C311.974 263.763 312.488 262.226 312.48 260.648V245.336H312.832C314.144 244.836 315.386 244.171 316.528 243.356V243.356C326.912 255.544 364.4 289.6 368.8 288.06C382 283.088 409.148 268.04 439.2 253.388C448.484 248.988 471.54 249.428 488.964 249.736C489.625 246.798 491.271 244.174 493.628 242.3L494.464 241.948C508.973 238.719 523.986 238.465 538.596 241.2C539.325 241.477 540.007 241.863 540.62 242.344V242.344Z" fill="#332E6F"/>
<path d="M525.791 162.396C525.85 162.858 525.732 163.324 525.462 163.703C525.192 164.081 524.788 164.344 524.333 164.438C523.878 164.533 523.403 164.452 523.005 164.212C522.606 163.972 522.313 163.591 522.183 163.144C522.125 162.683 522.242 162.216 522.512 161.838C522.783 161.459 523.186 161.196 523.641 161.102C524.097 161.008 524.571 161.088 524.97 161.328C525.368 161.568 525.661 161.95 525.791 162.396V162.396Z" fill="black"/>
<path d="M526.143 806.6L526.979 806.336L526.143 806.6Z" fill="black"/>
<path d="M502.647 812.144L503.659 811.704L502.647 812.144Z" fill="black"/>
<path d="M591.969 796.481L593.597 795.997L591.969 796.481Z" fill="black"/>
<path d="M336.724 717.72L335.184 718.116L336.724 717.72Z" fill="black"/>
<path d="M498.381 814.872L499.217 814.168L498.381 814.872Z" fill="black"/>
<path d="M381.031 708.348L384.243 708.7L381.031 708.348Z" fill="black"/>
<path d="M373.552 706.808L374.608 707.072L373.552 706.808Z" fill="black"/>
<path d="M548.144 157.6C548.237 158.078 548.143 158.573 547.881 158.982C547.618 159.392 547.208 159.685 546.736 159.8C546.379 159.879 546.007 159.85 545.666 159.717C545.326 159.584 545.032 159.353 544.823 159.053C544.614 158.753 544.498 158.398 544.491 158.032C544.484 157.667 544.585 157.307 544.782 156.999C544.979 156.691 545.263 156.449 545.598 156.302C545.933 156.156 546.304 156.112 546.664 156.176C547.024 156.241 547.357 156.41 547.62 156.664C547.883 156.917 548.066 157.243 548.144 157.6V157.6Z" fill="black"/>
<path d="M499.217 814.168L500.097 813.552L499.217 814.168Z" fill="black"/>
<path d="M376.764 707.6L378.876 708.04L376.764 707.6Z" fill="black"/>
<path d="M589.769 797.096L591.133 796.744L589.769 797.096Z" fill="black"/>
<path d="M500.095 813.552C500.49 813.277 500.901 813.027 501.327 812.804C500.901 813.027 500.49 813.277 500.095 813.552V813.552Z" fill="black"/>
<path d="M374.607 707.071L376.763 707.555L374.607 707.071Z" fill="black"/>
<path d="M555.184 796.876V796.436V796.876C556.988 797.404 558.792 797.844 560.552 798.24C558.792 797.888 556.988 797.404 555.184 796.876Z" fill="black"/>
<path d="M371.44 706.192L373.552 706.808L371.44 706.192Z" fill="black"/>
<path d="M504.364 811.44L505.464 811.044L504.364 811.44Z" fill="black"/>
<path d="M400.129 707.6L398.853 707.82L400.129 707.6Z" fill="black"/>
<path d="M522.8 807.568L523.636 807.348L522.8 807.568Z" fill="black"/>
<path d="M407.695 705.884L409.279 705.4L407.695 705.884Z" fill="black"/>
<path d="M565.964 799.208L568.12 799.428L565.964 799.208Z" fill="black"/>
<path d="M589.327 797.229C582.797 799.095 576.002 799.868 569.219 799.517C576.002 799.868 582.797 799.095 589.327 797.229V797.229Z" fill="black"/>
<path d="M412.053 746.188H310.193V746.232H412.053V746.188Z" fill="white"/>
<path d="M593.595 795.996L594.431 795.688L593.595 795.996Z" fill="black"/>
<path d="M390.8 708.876C388.69 708.987 386.575 708.987 384.464 708.876C386.575 708.987 388.69 708.987 390.8 708.876V708.876Z" fill="black"/>
<path d="M395.904 708.436L393.264 708.7L395.904 708.436Z" fill="black"/>
<path d="M523.548 807.348L524.428 807.084L523.548 807.348Z" fill="black"/>
<path d="M520.028 808.271L517.564 808.843L520.028 808.271Z" fill="black"/>
<path d="M560.552 798.24C562.002 798.593 563.471 798.857 564.952 799.032C563.471 798.857 562.002 798.593 560.552 798.24V798.24Z" fill="black"/>
<path d="M330.256 778.308C330.009 778.15 329.796 777.944 329.63 777.702C329.464 777.46 329.348 777.188 329.288 776.9C329.171 776.3 329.295 775.677 329.632 775.167C329.969 774.657 330.494 774.3 331.092 774.172C331.387 774.102 331.694 774.091 331.993 774.142C332.292 774.193 332.578 774.304 332.833 774.469C333.088 774.633 333.307 774.848 333.477 775.099C333.646 775.351 333.763 775.634 333.82 775.932C333.926 776.386 333.89 776.86 333.719 777.293C333.548 777.726 333.248 778.096 332.861 778.354C332.474 778.612 332.017 778.746 331.551 778.738C331.086 778.73 330.634 778.58 330.256 778.308V778.308Z" fill="black"/>
<path d="M276.092 778.968C275.835 779.154 275.542 779.284 275.231 779.352C274.921 779.421 274.6 779.424 274.288 779.364C273.687 779.227 273.162 778.861 272.825 778.344C272.488 777.826 272.366 777.198 272.484 776.592C272.622 775.99 272.988 775.465 273.505 775.129C274.022 774.792 274.651 774.67 275.256 774.788C275.557 774.851 275.843 774.973 276.097 775.146C276.35 775.32 276.567 775.541 276.735 775.799C276.903 776.057 277.018 776.345 277.074 776.647C277.129 776.949 277.125 777.26 277.06 777.56C276.932 778.137 276.585 778.641 276.092 778.968V778.968Z" fill="black"/>
<path d="M391.548 788.164C391.232 787.828 390.85 787.56 390.426 787.379C390.002 787.197 389.545 787.105 389.084 787.108C388.509 787.109 387.943 787.256 387.44 787.536C386.937 787.816 386.514 788.219 386.21 788.708C385.907 789.196 385.732 789.754 385.704 790.329C385.675 790.904 385.794 791.476 386.048 791.992C386.312 792.574 386.74 793.067 387.279 793.411C387.818 793.755 388.445 793.934 389.084 793.928C389.721 793.924 390.343 793.74 390.88 793.397C391.417 793.055 391.847 792.568 392.12 791.992C392.35 791.527 392.471 791.015 392.472 790.496C392.469 789.63 392.139 788.797 391.548 788.164Z" fill="black"/>
<path d="M424.503 836.168V746.188H412.051H310.191H248.195V836.168H424.503Z" stroke="black" stroke-width="1.376" stroke-miterlimit="10" stroke-linecap="round"/>
<path d="M495.431 521.524C495.871 533.976 496.663 546.384 497.895 558.704C506.123 643.624 531.731 725.904 555.095 796.304V796.744" stroke="black" stroke-width="1.376" stroke-miterlimit="10" stroke-linecap="round"/>
<path d="M597.247 485.048C597.467 502.648 597.643 521.172 597.731 540.092C598.215 654.096 596.059 782.092 596.235 795.292V796.26" stroke="black" stroke-width="1.376" stroke-miterlimit="10"/>
<path d="M596.149 795.16L594.433 795.688L593.597 795.996L591.969 796.48L591.133 796.744L589.769 797.096H589.329C582.798 798.962 576.004 799.735 569.221 799.384H568.121L565.965 799.164H564.865C563.384 798.988 561.914 798.724 560.465 798.372C558.705 798.02 556.901 797.536 555.097 797.008H554.569" stroke="black" stroke-width="1.376" stroke-miterlimit="10"/>
<path d="M371.088 706.104H370.736" stroke="black" stroke-width="1.376" stroke-miterlimit="10"/>
<path d="M412.229 704.432H411.789L409.281 705.268L407.697 705.752L404.045 706.72H403.605H403.033L400.129 707.336L398.853 707.556H398.149H397.445L396.081 707.776L393.441 708.04H391.505H390.801C388.69 708.151 386.575 708.151 384.465 708.04L381.253 707.688H380.153H379.097L376.985 707.248L374.829 706.764L373.773 706.5L371.661 705.884H371.353" stroke="black" stroke-width="1.376" stroke-miterlimit="10"/>
<path d="M496.972 558.792C466.744 558.22 432.028 568.603 412.36 585.191C402.108 593.991 406.376 675.479 411.788 704.387C411.767 704.783 411.767 705.18 411.788 705.575" stroke="black" stroke-width="1.376" stroke-miterlimit="10" stroke-linecap="round"/>
<path d="M429.343 483.904H429.035C402.635 494.904 348.119 522.228 342.531 537.848C330.651 571.332 349.131 649.696 371.571 706.016C371.647 706.275 371.75 706.526 371.879 706.764" stroke="black" stroke-width="1.376" stroke-miterlimit="10"/>
<path d="M312.831 245.336C314.143 244.836 315.385 244.17 316.527 243.356C327.483 235.26 325.327 213.788 319.211 207.628C317.236 205.765 314.94 204.275 312.435 203.228C309.445 201.776 306.07 201.314 302.799 201.908C302.245 202.069 301.734 202.355 301.307 202.744C300.88 203.133 300.547 203.614 300.335 204.152C300.192 205.108 300.299 206.085 300.646 206.987C300.993 207.889 301.568 208.686 302.315 209.3C305.354 212.272 308.772 214.832 312.479 216.912L313.579 217.528" stroke="black" stroke-width="1.376" stroke-miterlimit="10"/>
<path d="M283 220.784C279.612 215.636 280.448 211.676 283.264 209.256C285.923 207.391 289.118 206.442 292.365 206.553C295.611 206.664 298.734 207.829 301.26 209.872C303.284 211.5 305.968 215.768 299.72 217.44" stroke="black" stroke-width="1.376" stroke-miterlimit="10"/>
<path d="M283.087 209.036C277.939 199.488 285.683 195.484 293.603 196.98C296.895 197.58 299.948 199.106 302.403 201.38" stroke="black" stroke-width="1.376" stroke-miterlimit="10"/>
<path d="M293.207 243.797C290.991 243.102 288.939 241.964 287.176 240.451C285.414 238.938 283.978 237.082 282.955 234.997C281.873 232.884 281.364 230.525 281.48 228.154C281.596 225.784 282.332 223.485 283.615 221.489C284.097 220.755 284.658 220.076 285.287 219.465C287.093 217.695 289.421 216.556 291.926 216.215C294.431 215.874 296.979 216.35 299.191 217.573C300.009 218.027 300.752 218.606 301.391 219.289C304.075 222.193 301.831 227.253 299.059 225.889C297.468 225.197 295.726 224.924 293.999 225.097C293.399 225.107 292.825 225.344 292.392 225.76C291.96 226.177 291.701 226.741 291.667 227.341C291.667 228.001 292.987 228.749 293.427 228.969" stroke="black" stroke-width="1.376" stroke-miterlimit="10"/>
<path d="M312.436 203.58V190.864C312.442 189.914 312.259 188.973 311.899 188.095C311.538 187.217 311.007 186.419 310.336 185.748C309.664 185.077 308.866 184.546 307.988 184.185C307.11 183.824 306.169 183.642 305.22 183.648H301.04C299.157 183.694 297.366 184.474 296.051 185.822C294.735 187.171 293.999 188.98 294 190.864V195.836" stroke="black" stroke-width="1.376" stroke-miterlimit="10"/>
<path d="M312.48 216.78V260.78C312.459 262.335 311.932 263.842 310.98 265.072C310.027 266.302 308.701 267.19 307.2 267.6C306.57 267.777 305.918 267.866 305.264 267.864H301.128C299.252 267.841 297.459 267.089 296.128 265.767C294.797 264.444 294.034 262.655 294 260.78V224.876" stroke="black" stroke-width="1.376" stroke-miterlimit="10"/>
<path d="M306.717 155.356V156.544L306.761 182.812" stroke="black" stroke-width="1.376" stroke-miterlimit="10"/>
<path d="M299.588 182.812V157.688" stroke="black" stroke-width="1.376" stroke-miterlimit="10"/>
<path d="M257.304 108.936V107.616C257.304 107.044 257.304 106.516 257.304 105.944C260.516 80.6883 281.988 62.6483 305.308 65.5963C328.628 68.5443 344.908 91.4243 341.696 116.636C340.709 126.123 336.788 135.066 330.479 142.22C324.169 149.373 315.786 154.38 306.496 156.544C302.307 157.354 298.016 157.502 293.78 156.984C283.866 155.419 274.799 150.47 268.118 142.979C261.437 135.489 257.554 125.917 257.128 115.888C257.128 115.536 257.128 115.184 257.128 114.876" stroke="black" stroke-width="1.376" stroke-miterlimit="10"/>
<path d="M257.304 108.936V107.616C257.304 107.044 257.304 106.516 257.304 105.944C260.516 80.6883 281.988 62.6483 305.308 65.5963C328.628 68.5443 344.908 91.4243 341.696 116.636C340.709 126.123 336.788 135.066 330.479 142.22C324.169 149.373 315.786 154.38 306.496 156.544C302.307 157.354 298.016 157.502 293.78 156.984C283.866 155.419 274.799 150.47 268.118 142.979C261.437 135.489 257.554 125.917 257.128 115.888C257.128 115.536 257.128 115.184 257.128 114.876" stroke="black" stroke-width="1.376" stroke-miterlimit="10"/>
<path d="M247.843 116.9C247.843 116.504 247.843 116.064 247.843 115.668" stroke="black" stroke-width="1.376" stroke-miterlimit="10"/>
<path d="M247.843 116.9C247.843 116.504 247.843 116.064 247.843 115.668" stroke="black" stroke-width="1.376" stroke-miterlimit="10"/>
<path d="M347.107 78.6201C353.877 90.4656 356.494 104.233 354.543 117.736C353.837 123.008 352.462 128.168 350.451 133.092" stroke="black" stroke-width="1.376" stroke-miterlimit="10" stroke-linecap="round"/>
<path d="M356.876 68.6323C366.189 84.9116 369.783 103.841 367.084 122.4C366.099 129.62 364.206 136.686 361.452 143.432" stroke="black" stroke-width="1.376" stroke-miterlimit="10" stroke-linecap="round"/>
<path d="M368.095 59.5679C379.645 79.8139 384.119 103.331 380.811 126.404C379.586 135.389 377.235 144.185 373.815 152.584" stroke="black" stroke-width="1.376" stroke-miterlimit="10" stroke-linecap="round"/>
<path d="M245.248 107.132C245.426 103.378 245.971 99.6491 246.876 96.0004C248.072 90.8239 249.935 85.8247 252.42 81.1284" stroke="black" stroke-width="1.376" stroke-miterlimit="10" stroke-linecap="round"/>
<path d="M250.484 135.6C247.779 129.421 246.129 122.833 245.6 116.108" stroke="black" stroke-width="1.376" stroke-miterlimit="10" stroke-linecap="round"/>
<path d="M232.4 107.308C232.518 101.564 233.285 95.8517 234.688 90.2803C236.354 83.1812 238.912 76.3214 242.3 69.8643" stroke="black" stroke-width="1.376" stroke-miterlimit="10" stroke-linecap="round"/>
<path d="M239.791 144.664C235.711 135.652 233.282 125.98 232.619 116.108" stroke="black" stroke-width="1.376" stroke-miterlimit="10" stroke-linecap="round"/>
<path d="M227.737 152.584C218.197 131.314 216.015 107.472 221.533 84.8235C223.638 75.9999 226.83 67.472 231.037 59.4355" stroke="black" stroke-width="1.376" stroke-miterlimit="10" stroke-linecap="round"/>
<path d="M262.892 107.616H293.34C294.36 107.695 295.307 108.174 295.975 108.949C296.643 109.724 296.977 110.731 296.904 111.752C296.915 112.816 296.54 113.847 295.848 114.656C295.546 115.032 295.164 115.337 294.731 115.55C294.298 115.763 293.823 115.878 293.34 115.888H234.996C233.976 115.809 233.029 115.33 232.361 114.555C231.693 113.78 231.359 112.772 231.432 111.752C231.422 110.688 231.797 109.656 232.488 108.848C232.791 108.471 233.172 108.166 233.605 107.953C234.039 107.74 234.513 107.625 234.996 107.616H262.892Z" stroke="black" stroke-width="1.376" stroke-miterlimit="10"/>
<path d="M563.06 512.196C566.492 530.456 581.232 538.86 597.732 540.092C602.699 540.428 607.69 540.192 612.604 539.388" stroke="black" stroke-width="1.376" stroke-miterlimit="10" stroke-linecap="round"/>
<path d="M555.36 796.392H554.612H554.084H553.424L552.588 796.656C552.299 796.703 552.017 796.792 551.752 796.92H551.268L550.212 797.272L547.572 798.284L546.868 798.548L545.152 799.208C540.092 801.188 533.844 803.608 527.068 805.808L526.232 806.072L524.516 806.556L523.636 806.82L522.8 807.04L520.116 807.744L517.652 808.316L514 809.02H513.12L510.48 809.372C508.813 809.574 507.165 809.912 505.552 810.384L504.452 810.78L503.748 811.044L502.736 811.484L501.416 812.144C500.991 812.367 500.579 812.617 500.184 812.892L499.304 813.508L498.468 814.212C496.708 815.867 495.426 817.968 494.76 820.291C494.094 822.614 494.068 825.075 494.684 827.412H530.852L596.236 827.72" stroke="black" stroke-width="1.376" stroke-linecap="round" stroke-linejoin="round"/>
<path d="M596.192 828.204H596.236V836.564H494.376V828.204H530.764H596.192Z" stroke="black" stroke-width="1.376" stroke-linecap="round" stroke-linejoin="round"/>
<path d="M596.193 794.896V795.16V828.116" stroke="black" stroke-width="1.376" stroke-miterlimit="10"/>
<path d="M371.175 706.104H370.823H370.163H369.503L368.667 706.368L367.347 706.763L364.223 707.863L363.167 708.259L356.655 710.811L355.247 711.34L352.915 712.263L351.463 712.791C346.68 714.593 341.804 716.135 336.855 717.411L335.315 717.808L331.707 718.599L330.211 718.863L328.803 719.083H327.219H326.339C317.099 720.139 308.387 725.287 310.499 737.035H346.711L412.095 737.343" stroke="black" stroke-width="1.376" stroke-linecap="round" stroke-linejoin="round"/>
<path d="M412.053 746.188V746.232H310.193V746.188V737.872H346.581H412.009H412.053V746.188Z" stroke="black" stroke-width="1.376" stroke-linecap="round" stroke-linejoin="round"/>
<path d="M412.007 706.192V737.872V739.676" stroke="black" stroke-width="1.376" stroke-miterlimit="10"/>
<path d="M514.219 113.116C522.364 114.953 529.796 119.128 535.603 125.128C543.509 132.439 550.352 140.822 555.931 150.032C556.547 151.088 557.075 152.056 557.515 152.936L557.911 153.772C560.507 160.064 559.495 170.36 557.119 180.172C556.591 182.416 555.975 184.572 555.315 186.86C552.059 197.596 547.659 206.792 545.107 208.508C542.225 210.28 538.834 211.039 535.471 210.664C527.965 209.977 521.021 206.395 516.111 200.676" stroke="black" stroke-width="1.376" stroke-miterlimit="10" stroke-linecap="round"/>
<path d="M494.069 241.464C495.433 220.388 496.313 203.14 497.545 180.436" stroke="black" stroke-width="1.376" stroke-miterlimit="10"/>
<path d="M535.34 210.4V211.104C537.012 221.092 536.88 233.412 540.488 242.564" stroke="black" stroke-width="1.376" stroke-miterlimit="10"/>
<path d="M502.383 132.828C518.575 128.78 533.183 125.92 535.295 125.436" stroke="black" stroke-width="1.376" stroke-miterlimit="10"/>
<path d="M490.46 148.052C482.232 152.056 459.66 161.736 457.944 152.804C456.888 146.996 473.3 140.792 491.296 135.732" stroke="black" stroke-width="1.376" stroke-miterlimit="10"/>
<path d="M537.848 153.817C540.401 151.668 543.619 150.471 546.956 150.429" stroke="black" stroke-width="1.376" stroke-miterlimit="10" stroke-linecap="round"/>
<path d="M525.484 156.676C523.622 156.395 521.721 156.554 519.932 157.143C518.144 157.731 516.519 158.732 515.188 160.064" stroke="black" stroke-width="1.376" stroke-miterlimit="10" stroke-linecap="round"/>
<path d="M537.452 154.3C536.484 160.108 540.796 168.028 542.776 173.44C544.096 177.092 546.472 184.264 539.564 183.208" stroke="black" stroke-width="1.376" stroke-miterlimit="10" stroke-linecap="round"/>
<path d="M521.481 192.8C523.037 192.034 524.79 191.762 526.505 192.021C528.22 192.281 529.814 193.059 531.073 194.252" stroke="black" stroke-width="1.376" stroke-linecap="round" stroke-linejoin="round"/>
<path d="M490.415 155.048C488.278 156.05 486.448 157.608 485.117 159.558C483.786 161.508 483.002 163.78 482.847 166.136C482.705 169.782 484.014 173.335 486.489 176.017C488.964 178.698 492.402 180.287 496.047 180.436C496.545 180.48 497.046 180.48 497.544 180.436C501.009 180.943 504.535 180.053 507.345 177.962C510.154 175.87 512.018 172.748 512.526 169.282C513.033 165.816 512.143 162.29 510.051 159.481C507.96 156.671 504.837 154.807 501.371 154.3H501.107" stroke="black" stroke-width="1.376" stroke-miterlimit="10"/>
<path d="M556.943 180.393L558.439 180.129C562.004 179.406 565.139 177.303 567.158 174.277C569.178 171.252 569.919 167.55 569.219 163.981C568.601 161.335 567.2 158.938 565.198 157.101C563.196 155.264 560.688 154.073 557.999 153.685" stroke="black" stroke-width="1.376" stroke-miterlimit="10"/>
<path d="M491.253 166.4C490.831 162.631 490.611 158.841 490.593 155.048C490.593 152.804 490.593 150.428 490.593 148.096C490.593 144.004 491.077 139.824 491.605 135.776C492.925 125.26 495.521 115.712 499.569 111.752C500.918 110.465 502.517 109.467 504.266 108.819C506.015 108.172 507.878 107.889 509.741 107.988C511.603 108.087 513.426 108.566 515.097 109.394C516.768 110.223 518.251 111.385 519.457 112.808V112.808" stroke="black" stroke-width="1.376" stroke-linecap="round" stroke-linejoin="round"/>
<path d="M501.592 165.476C501.592 161.56 501.372 157.864 501.372 154.388C501.234 147.217 501.557 140.045 502.34 132.916C503.88 120.948 507.4 114.524 514.22 113.116C515.955 112.847 517.721 112.847 519.456 113.116" stroke="black" stroke-width="1.376" stroke-linecap="round" stroke-linejoin="round"/>
<path d="M501.593 165.388C501.362 164.138 500.676 163.018 499.668 162.243C498.66 161.469 497.401 161.094 496.133 161.193C494.865 161.291 493.679 161.855 492.802 162.776C491.926 163.697 491.421 164.91 491.385 166.18C491.359 166.856 491.467 167.531 491.701 168.166C491.936 168.8 492.293 169.382 492.753 169.879C493.213 170.375 493.766 170.776 494.38 171.059C494.995 171.342 495.659 171.5 496.335 171.526C497.011 171.552 497.686 171.445 498.32 171.21C498.955 170.976 499.537 170.618 500.033 170.159C500.53 169.699 500.931 169.146 501.214 168.531C501.496 167.917 501.655 167.252 501.681 166.576C501.699 166.178 501.669 165.78 501.593 165.388V165.388Z" stroke="black" stroke-width="1.376" stroke-miterlimit="10"/>
<path d="M428.904 484.124C429.476 456.536 435.592 363.916 440.476 305.924C415.168 316.02 389.366 324.832 363.168 332.324C358.856 333.6 329.2 301.92 307.2 268.084" stroke="black" stroke-width="1.376" stroke-linejoin="round"/>
<path d="M316.66 243.532C326.912 255.544 364.4 289.6 368.8 288.06C382 283.088 409.148 268.04 439.2 253.388C448.484 248.988 471.54 249.428 488.964 249.736C489.625 246.798 491.27 244.174 493.628 242.3L494.464 241.948C508.973 238.72 523.986 238.465 538.596 241.2C539.314 241.423 539.996 241.749 540.62 242.168C542.966 243.994 544.85 246.345 546.12 249.032H575.864C579.671 248.994 583.457 248.461 587.128 247.448L618.632 238.648L627.916 236.096" stroke="black" stroke-width="1.376" stroke-linecap="round" stroke-linejoin="round"/>
<path d="M429.212 483.948H597.248H598.832C598.612 480.076 596.544 306.936 596.544 306.936C596.544 306.936 676.492 267.336 677.416 246.832C678.252 228.176 585.544 178.764 585.544 178.764L585.28 179.072L572.08 193.548L571.772 193.9L618.632 238.604" stroke="black" stroke-width="1.376" stroke-linecap="round" stroke-linejoin="round"/>
<path d="M584.84 178.412C583.143 177.358 581.526 176.182 580 174.892C579.56 170.052 580.22 162.968 578.328 160.416C575.776 156.94 571.156 150.208 555.976 149.988" stroke="black" stroke-width="1.376" stroke-linecap="round" stroke-linejoin="round"/>
<path d="M571.2 192.8C570.384 191.78 569.28 191.029 568.032 190.644C565.216 190.644 558.88 190.336 555.976 187.212" stroke="black" stroke-width="1.376" stroke-linecap="round" stroke-linejoin="round"/>
<path d="M276.311 796.085C285.764 796.085 293.427 788.421 293.427 778.969C293.427 769.516 285.764 761.853 276.311 761.853C266.858 761.853 259.195 769.516 259.195 778.969C259.195 788.421 266.858 796.085 276.311 796.085Z" stroke="black" stroke-width="1.376" stroke-miterlimit="10" stroke-linecap="round"/>
<path d="M346.801 778.969C346.81 782.356 345.813 785.669 343.938 788.49C342.062 791.31 339.392 793.511 336.265 794.813C333.139 796.115 329.696 796.46 326.373 795.805C323.05 795.149 319.996 793.523 317.598 791.131C315.199 788.739 313.565 785.689 312.901 782.368C312.237 779.046 312.573 775.603 313.868 772.473C315.162 769.343 317.355 766.667 320.171 764.784C322.987 762.901 326.298 761.896 329.685 761.896C334.217 761.896 338.564 763.694 341.772 766.894C344.981 770.094 346.789 774.437 346.801 778.969V778.969Z" stroke="black" stroke-width="1.376" stroke-miterlimit="10" stroke-linecap="round"/>
<path d="M276.401 818.964C276.409 820.656 275.915 822.312 274.98 823.723C274.046 825.133 272.713 826.234 271.151 826.885C269.59 827.537 267.87 827.71 266.21 827.382C264.55 827.054 263.025 826.24 261.829 825.044C260.632 823.847 259.818 822.322 259.491 820.662C259.163 819.002 259.335 817.282 259.987 815.721C260.638 814.159 261.739 812.827 263.15 811.892C264.56 810.957 266.217 810.463 267.909 810.472C270.161 810.472 272.321 811.366 273.913 812.959C275.506 814.552 276.401 816.712 276.401 818.964V818.964Z" stroke="black" stroke-width="1.376" stroke-miterlimit="10" stroke-linecap="round"/>
<path d="M301.436 818.964C301.445 820.656 300.951 822.312 300.016 823.723C299.081 825.133 297.749 826.234 296.187 826.885C294.626 827.537 292.906 827.71 291.246 827.382C289.586 827.054 288.061 826.24 286.864 825.044C285.668 823.847 284.854 822.322 284.526 820.662C284.198 819.002 284.371 817.282 285.022 815.721C285.674 814.159 286.775 812.827 288.185 811.892C289.596 810.957 291.252 810.463 292.944 810.472C294.059 810.472 295.164 810.691 296.194 811.118C297.224 811.545 298.16 812.17 298.949 812.959C299.737 813.748 300.363 814.684 300.79 815.714C301.217 816.744 301.436 817.849 301.436 818.964V818.964Z" stroke="black" stroke-width="1.376" stroke-miterlimit="10" stroke-linecap="round"/>
<path d="M325.988 818.964C325.997 820.654 325.504 822.308 324.571 823.718C323.639 825.127 322.309 826.228 320.75 826.881C319.191 827.534 317.473 827.709 315.814 827.385C314.156 827.061 312.63 826.251 311.432 825.059C310.234 823.867 309.417 822.346 309.084 820.689C308.751 819.032 308.917 817.314 309.562 815.751C310.207 814.189 311.301 812.853 312.706 811.913C314.11 810.973 315.762 810.472 317.452 810.472C319.709 810.472 321.873 811.365 323.473 812.956C325.072 814.548 325.977 816.707 325.988 818.964V818.964Z" stroke="black" stroke-width="1.376" stroke-miterlimit="10" stroke-linecap="round"/>
<path d="M268.083 811.176V817.16" stroke="black" stroke-width="1.376" stroke-miterlimit="10" stroke-linecap="round"/>
<path d="M287.531 814.344L292.239 817.996" stroke="black" stroke-width="1.376" stroke-miterlimit="10" stroke-linecap="round"/>
<path d="M318.331 820.064L323.039 823.716" stroke="black" stroke-width="1.376" stroke-miterlimit="10" stroke-linecap="round"/>
<path d="M386.532 791.2H369.152H364.972V766.78H413.064V791.2H408.84H391.504" stroke="black" stroke-width="1.376" stroke-miterlimit="10"/>
<path d="M369.107 791.2C369.573 786.271 371.86 781.693 375.522 778.36C379.183 775.028 383.956 773.181 388.907 773.181C393.859 773.181 398.632 775.028 402.293 778.36C405.955 781.693 408.242 786.271 408.707 791.2" stroke="black" stroke-width="1.376" stroke-miterlimit="10"/>
<path d="M390.095 788.912L391.019 788.12L398.543 781.52" stroke="black" stroke-width="1.376" stroke-miterlimit="10" stroke-linecap="round"/>
<path d="M330.872 777.516L330.256 778.308L325.152 785.084" stroke="black" stroke-width="1.376" stroke-miterlimit="10" stroke-linecap="round"/>
<path d="M275.476 778.176L276.092 778.968L281.196 785.7" stroke="black" stroke-width="1.376" stroke-miterlimit="10" stroke-linecap="round"/>
<path d="M412.579 809.812H397.707V828.16H412.579V809.812Z" stroke="black" stroke-width="1.376" stroke-miterlimit="10"/>
<path d="M398.369 818.612H412.405" stroke="black" stroke-width="1.376" stroke-miterlimit="10"/>
<path d="M412.007 737.872H346.799H310.587C308.475 726.124 317.187 720.976 326.427 719.92H327.307H328.891L330.299 719.7L331.795 719.436L335.403 718.643L336.943 718.247C341.784 716.786 346.542 715.068 351.199 713.1L352.651 712.572L354.983 711.647L356.391 711.12L362.903 708.568L363.959 708.172L367.083 707.072L368.403 706.675L369.239 706.411H369.899H370.559H370.867H371.175L373.287 707.027L374.343 707.291L376.499 707.775L378.611 708.215H379.667H380.767L383.979 708.568C386.09 708.679 388.205 708.679 390.315 708.568H391.019H392.955L395.595 708.304L396.959 708.084H397.663H398.367L399.643 707.863L402.547 707.247H403.119H403.559L407.211 706.279L408.795 705.795L411.303 704.959C411.283 705.355 411.283 705.752 411.303 706.147V738.268L412.007 737.872Z" fill="#332E6F"/>
<path d="M596.193 828.204H530.765H494.597C493.98 825.867 494.006 823.407 494.672 821.084C495.338 818.76 496.62 816.66 498.381 815.004L499.217 814.3L500.097 813.684C500.491 813.41 500.903 813.16 501.329 812.936L502.649 812.276L503.661 811.836L504.365 811.572L505.465 811.176C507.077 810.705 508.725 810.367 510.393 810.164L513.033 809.812H513.913L517.565 809.108L520.029 808.536L522.713 807.832L523.549 807.612L524.429 807.348L526.145 806.864L526.981 806.6C533.757 804.488 540.181 801.98 545.065 800L546.781 799.34L547.485 799.076L550.125 798.064L551.181 797.712H551.665C551.929 797.585 552.211 797.496 552.501 797.448L553.337 797.184H553.997H554.525H554.965V797.624C556.769 798.152 558.573 798.636 560.333 798.988C561.782 799.341 563.251 799.605 564.733 799.78H565.833L567.989 800H569.089C575.872 800.352 582.666 799.578 589.197 797.712H589.637L591.001 797.36L591.837 797.096L593.465 796.612L594.301 796.304L596.017 795.776V828.82L596.193 828.204Z" fill="#332E6F"/>
</g>
</g>
<defs>
<filter id="filter0_d_507_1495" x="0" y="0" width="896" height="896" filterUnits="userSpaceOnUse" color-interpolation-filters="sRGB">
<feFlood flood-opacity="0" result="BackgroundImageFix"/>
<feColorMatrix in="SourceAlpha" type="matrix" values="0 0 0 0 0 0 0 0 0 0 0 0 0 0 0 0 0 0 127 0" result="hardAlpha"/>
<feOffset/>
<feGaussianBlur stdDeviation="4"/>
<feComposite in2="hardAlpha" operator="out"/>
<feColorMatrix type="matrix" values="0 0 0 0 0.439216 0 0 0 0 0.392157 0 0 0 0 1 0 0 0 0.25 0"/>
<feBlend mode="normal" in2="BackgroundImageFix" result="effect1_dropShadow_507_1495"/>
<feBlend mode="normal" in="SourceGraphic" in2="effect1_dropShadow_507_1495" result="shape"/>
</filter>
<clipPath id="clip0_507_1495">
<path d="M8 28C8 16.9543 16.9543 8 28 8H868C879.046 8 888 16.9543 888 28V868C888 879.046 879.046 888 868 888H28C16.9543 888 8 879.046 8 868V28Z" fill="white"/>
</clipPath>
</defs>
</svg>
