<svg width="880" height="880" viewBox="0 0 880 880" fill="none" xmlns="http://www.w3.org/2000/svg">
<path d="M375.188 663.124H197.208V698.852H375.188V663.124Z" fill="#332E6F"/>
<path d="M384.109 177.005C383.627 177.039 383.177 177.261 382.856 177.623C382.535 177.985 382.369 178.458 382.393 178.941C382.438 179.428 382.669 179.878 383.038 180.197C383.407 180.517 383.885 180.682 384.373 180.657C384.856 180.613 385.301 180.38 385.614 180.009C385.927 179.639 386.082 179.161 386.045 178.677C386.034 178.438 385.975 178.204 385.87 177.988C385.766 177.773 385.618 177.581 385.437 177.424C385.256 177.268 385.045 177.15 384.816 177.078C384.588 177.006 384.347 176.981 384.109 177.005Z" fill="black"/>
<path d="M408.264 176.345C407.827 176.438 407.439 176.685 407.17 177.042C406.902 177.399 406.772 177.841 406.804 178.286C406.836 178.732 407.029 179.15 407.345 179.465C407.662 179.779 408.082 179.968 408.528 179.997C408.791 180.014 409.055 179.975 409.302 179.881C409.549 179.787 409.773 179.642 409.959 179.455C410.145 179.267 410.289 179.042 410.38 178.795C410.472 178.547 410.509 178.283 410.49 178.02C410.471 177.756 410.396 177.5 410.27 177.269C410.144 177.037 409.969 176.835 409.758 176.676C409.547 176.517 409.305 176.406 409.047 176.349C408.789 176.292 408.522 176.29 408.264 176.345Z" fill="black"/>
<path d="M360.129 162.309C360.657 158.613 361.23 154.301 362.066 149.901C363.094 142.707 365.907 135.885 370.25 130.057C380.326 118.793 391.149 123.017 400.345 132.477C402.984 135.211 405.398 138.154 407.562 141.277C414.141 150.697 419.203 161.09 422.566 172.077C426.438 187.301 404.966 221.621 398.762 224.085C398.018 224.357 397.253 224.563 396.474 224.701C387.41 226.417 375.882 218.321 372.01 210.357" stroke="black" stroke-width="3" stroke-miterlimit="10" stroke-linecap="round"/>
<path d="M357.005 257.349C357.005 231.301 355.597 207.629 357.753 181.669" stroke="black" stroke-width="3" stroke-miterlimit="10"/>
<path d="M396.252 223.557C396.273 223.909 396.273 224.262 396.252 224.613C398.54 234.865 399.156 247.537 403.38 256.645" stroke="black" stroke-width="3" stroke-miterlimit="10"/>
<path d="M363.737 166.929C362.65 165.321 361.38 163.844 359.953 162.529C349.657 153.729 342.837 173.309 347.061 178.853C348.394 180.255 350.114 181.229 352.002 181.652C353.89 182.075 355.86 181.928 357.665 181.229C358.493 181.003 359.29 180.678 360.041 180.261" stroke="black" stroke-width="3" stroke-miterlimit="10" stroke-linecap="round"/>
<path d="M407.473 141.189C409.937 140.925 444.125 134.017 439.241 124.425C436.425 118.969 418.297 124.777 400.257 132.257C383.097 139.385 365.937 148.009 361.977 149.857L361.361 150.121" stroke="black" stroke-width="3" stroke-miterlimit="10"/>
<path d="M387.584 168.865C385.787 168.312 383.883 168.195 382.031 168.524C380.18 168.853 378.433 169.619 376.936 170.757" stroke="black" stroke-width="3" stroke-miterlimit="10" stroke-linecap="round"/>
<path d="M358.149 170.493C356.257 172.189 353.824 173.156 351.285 173.221" stroke="black" stroke-width="3" stroke-miterlimit="10" stroke-linecap="round"/>
<path d="M411.477 169.657C408.573 168.337 402.017 168.689 400.829 171.549C398.937 176.169 401.753 185.761 402.941 191.261C403.777 195.001 405.097 202.261 398.541 200.325" stroke="black" stroke-width="3" stroke-miterlimit="10" stroke-linecap="round"/>
<path d="M389.521 209.565C390.303 210.409 391.265 211.067 392.335 211.491C393.405 211.915 394.557 212.093 395.705 212.013C396.853 211.932 397.969 211.596 398.97 211.028C399.971 210.459 400.832 209.674 401.489 208.729" stroke="black" stroke-width="3" stroke-miterlimit="10" stroke-linecap="round"/>
<path d="M683.056 639.188L593.604 687.588L577.808 658.372L578.072 657.932L613.272 639.584H613.932C615.252 639.188 619.652 638.968 625.592 638.44C637.587 637.706 649.428 635.352 660.792 631.444C667.568 628.76 675.224 628.408 680.02 633.864C681.37 635.407 682.401 637.201 683.056 639.144V639.188Z" fill="#332E6F"/>
<path d="M517.088 579.216L516.78 570.944C516.912 573.584 517 576.4 517.088 579.216Z" fill="black"/>
<path d="M399.432 383.724C400.927 382.638 402.177 381.251 403.102 379.652C404.026 378.052 404.605 376.277 404.8 374.44C404.845 373.746 404.742 373.051 404.497 372.401C404.252 371.75 403.872 371.16 403.38 370.668C402.889 370.177 402.298 369.796 401.647 369.551C400.997 369.306 400.302 369.203 399.608 369.248C399.397 369.768 399.116 370.256 398.772 370.7L399.168 362.736L400.048 346.632C400.123 346.172 400.104 345.701 399.993 345.248C399.882 344.795 399.681 344.369 399.401 343.995C399.122 343.622 398.771 343.308 398.368 343.073C397.965 342.838 397.519 342.687 397.056 342.628H396L398.728 323.928H419.056L419.54 318.12H393.712L390.06 342.716H377.74C377.583 340.573 376.813 338.52 375.523 336.801C374.232 335.083 372.475 333.771 370.461 333.022C368.447 332.273 366.26 332.118 364.16 332.576C362.06 333.034 360.136 334.085 358.617 335.604C357.097 337.124 356.046 339.048 355.588 341.148C355.13 343.248 355.285 345.435 356.034 347.449C356.783 349.463 358.095 351.22 359.813 352.51C361.532 353.801 363.585 354.571 365.728 354.728L366.08 361.504L366.432 368.236H365.772C362.779 368.535 359.987 369.875 357.88 372.022C355.773 374.168 354.487 376.986 354.244 379.984L354.684 402.248L353.54 402.644C335.209 409.026 316.347 413.767 297.176 416.812C282.04 418.88 271.216 418.088 266.376 413.996C246.532 397.496 281.336 297.264 297.748 281.116C307.252 271.7 326.7 267.652 350.548 263.032C351.364 259.977 353.316 257.349 356.004 255.684H356.268C370.867 252.521 385.956 252.357 400.62 255.2L402.248 255.772C403.828 256.302 405.225 257.27 406.277 258.563C407.329 259.856 407.991 261.421 408.188 263.076C408.188 263.076 443.784 267.036 450.12 274.428C466.312 293.392 482.812 312.708 495.22 325.996C496.1 326.92 519.332 305.184 527.428 283.932H527.692C527.692 283.932 536.492 297.132 551.496 294.668C550.308 297.044 510.532 376.376 491.656 369.468C475.684 363.572 458.348 350.548 439.912 335.06C432.74 328.768 461.516 457.6 462 460.24H443.256L379.236 460.592H369.6L292.732 460.988C293.042 447.189 294.306 433.428 296.516 419.804C315.882 415.133 334.977 409.404 353.716 402.644L354.86 402.996C359.478 405.047 364.281 406.653 369.204 407.792L369.732 416.592C369.694 417.455 369.987 418.3 370.551 418.955C371.116 419.609 371.909 420.023 372.768 420.112H394.064C394.924 420.023 395.717 419.609 396.281 418.955C396.845 418.3 397.138 417.455 397.1 416.592L397.628 406.824C402.16 405.064 404.8 402.424 404.8 400.4C404.85 399.771 404.755 399.138 404.523 398.551C404.29 397.964 403.926 397.438 403.459 397.013C402.992 396.588 402.434 396.276 401.827 396.101C401.221 395.925 400.582 395.891 399.96 396H399.74H400.092C401.38 395.23 402.474 394.176 403.29 392.917C404.106 391.658 404.623 390.229 404.8 388.74C404.853 388.081 404.757 387.419 404.519 386.802C404.281 386.186 403.908 385.631 403.426 385.178C402.944 384.726 402.366 384.388 401.736 384.19C401.105 383.991 400.438 383.937 399.784 384.032L399.432 383.724Z" fill="#332E6F"/>
<path d="M519.64 663.124H581.108" stroke="black" stroke-width="3" stroke-miterlimit="10"/>
<path d="M656.436 663.124H683.1V698.852H197.208V663.124H472.78" stroke="black" stroke-width="3" stroke-miterlimit="10"/>
<path d="M584.848 563.508H711.876V757.768H168.256V563.508H449.108" stroke="black" stroke-width="3" stroke-miterlimit="10"/>
<path d="M237.468 589.556C241.38 589.556 244.552 586.384 244.552 582.472C244.552 578.56 241.38 575.388 237.468 575.388C233.556 575.388 230.384 578.56 230.384 582.472C230.384 586.384 233.556 589.556 237.468 589.556Z" stroke="black" stroke-width="3" stroke-miterlimit="10"/>
<path d="M212.432 589.556C216.344 589.556 219.516 586.384 219.516 582.472C219.516 578.56 216.344 575.388 212.432 575.388C208.52 575.388 205.348 578.56 205.348 582.472C205.348 586.384 208.52 589.556 212.432 589.556Z" stroke="black" stroke-width="3" stroke-miterlimit="10"/>
<path d="M187.396 589.556C191.308 589.556 194.48 586.384 194.48 582.472C194.48 578.56 191.308 575.388 187.396 575.388C183.484 575.388 180.312 578.56 180.312 582.472C180.312 586.384 183.484 589.556 187.396 589.556Z" stroke="black" stroke-width="3" stroke-miterlimit="10"/>
<path d="M607.2 208.824C605.616 215.6 594.44 270.424 592.02 282.656" stroke="black" stroke-width="3" stroke-linecap="round" stroke-linejoin="round"/>
<path d="M591.844 282.612C588.079 280.037 583.812 278.287 579.323 277.475C574.834 276.664 570.224 276.81 565.796 277.904" stroke="black" stroke-width="3" stroke-linecap="round" stroke-linejoin="round"/>
<path d="M533.984 276.32C511.016 268.752 488.4 282.612 488.4 282.612C490.292 260.612 492.052 204.468 492.052 204.468C528.968 187.704 550.132 210.76 552.508 213.576V213.84C562.188 197.956 593.516 197.076 606.892 208.78" stroke="black" stroke-width="3" stroke-linecap="round" stroke-linejoin="round"/>
<path d="M390.72 342.628H368.324C367.86 342.687 367.412 342.839 367.007 343.073C366.602 343.307 366.248 343.62 365.966 343.993C365.683 344.366 365.477 344.791 365.361 345.244C365.245 345.697 365.22 346.169 365.288 346.632L365.728 354.64L366.08 361.416L366.432 368.148V372.108V372.46" stroke="black" stroke-width="3" stroke-miterlimit="10"/>
<path d="M398.684 370.7L399.08 362.736L399.96 346.632C400.035 346.172 400.016 345.701 399.905 345.248C399.794 344.795 399.592 344.369 399.313 343.995C399.034 343.622 398.683 343.308 398.28 343.073C397.877 342.838 397.431 342.687 396.968 342.628H395.208" stroke="black" stroke-width="3" stroke-miterlimit="10"/>
<path d="M369.116 407.792L369.644 416.592C369.606 417.455 369.899 418.301 370.463 418.955C371.028 419.609 371.821 420.023 372.68 420.112H393.976C394.836 420.023 395.629 419.609 396.193 418.955C396.757 418.301 397.05 417.455 397.012 416.592L397.54 406.824V406.516" stroke="black" stroke-width="3" stroke-miterlimit="10"/>
<path d="M366.52 371.756V372.108C370.304 381.964 393.272 377.212 398.552 370.7C398.896 370.257 399.177 369.768 399.388 369.248C399.388 369.248 399.388 369.248 399.388 369.248" stroke="black" stroke-width="3" stroke-miterlimit="10"/>
<path d="M399.476 369.248C400.18 369.183 400.89 369.271 401.557 369.507C402.223 369.743 402.831 370.121 403.337 370.615C403.843 371.108 404.236 371.706 404.489 372.367C404.741 373.027 404.847 373.735 404.8 374.44C404.615 376.27 404.05 378.041 403.141 379.64C402.231 381.239 400.998 382.63 399.52 383.724C396.618 385.956 393.265 387.53 389.694 388.335C386.123 389.141 382.419 389.159 378.84 388.388" stroke="black" stroke-width="3" stroke-miterlimit="10" stroke-linecap="round"/>
<path d="M399.696 384.032C400.357 383.923 401.034 383.966 401.675 384.157C402.317 384.349 402.906 384.685 403.399 385.139C403.891 385.593 404.273 386.153 404.516 386.777C404.759 387.402 404.856 388.073 404.8 388.74C404.603 390.246 404.06 391.685 403.212 392.945C402.365 394.205 401.236 395.25 399.916 396H399.564C393.445 399.614 386.231 400.91 379.236 399.652" stroke="black" stroke-width="3" stroke-miterlimit="10" stroke-linecap="round"/>
<path d="M366.388 361.416C375.188 357.94 377.52 365.816 386.232 367.84C388.069 368.225 389.955 368.314 391.82 368.104H392.436C393.858 367.765 395.187 367.116 396.328 366.204C397.469 365.291 398.394 364.136 399.036 362.824" stroke="black" stroke-width="3" stroke-miterlimit="10" stroke-linecap="round"/>
<path d="M392.436 367.664L396.088 342.628L398.816 323.928L419.144 323.84L419.628 318.032H393.712L390.06 342.628L386.408 367.136" stroke="black" stroke-width="3" stroke-linecap="round" stroke-linejoin="round"/>
<path d="M366.564 354.684H365.728C363.585 354.526 361.532 353.757 359.813 352.466C358.095 351.176 356.783 349.419 356.034 347.405C355.285 345.391 355.13 343.204 355.588 341.104C356.045 339.004 357.097 337.08 358.616 335.56C360.136 334.041 362.06 332.99 364.16 332.532C366.26 332.074 368.447 332.229 370.461 332.978C372.475 333.727 374.232 335.039 375.522 336.757C376.813 338.476 377.582 340.529 377.74 342.672C377.74 342.936 377.74 343.2 377.74 343.464" stroke="black" stroke-width="3" stroke-linejoin="round"/>
<path d="M378.752 460.768H368.808" stroke="black" stroke-width="3" stroke-miterlimit="10"/>
<path d="M516.34 556.6C515.944 547.008 515.46 539.66 514.8 533.808C509.652 488.136 471.636 461.208 379.016 460.768" stroke="black" stroke-width="3" stroke-miterlimit="10"/>
<path d="M520.344 697.576V696.08C519.42 667.568 518.804 643.852 518.276 624.008C518.276 623.04 518.276 622.028 518.276 621.06C517.88 604.516 517.528 590.744 517.22 579.216C517.22 576.312 517.22 573.584 516.956 570.944C516.956 565.708 516.648 560.956 516.472 556.644" stroke="black" stroke-width="3" stroke-miterlimit="10"/>
<path d="M452.276 578.952C452.276 578.688 452.276 578.336 452.012 577.984L451.22 575.124C450.032 571.032 448.492 565.532 447.92 563.552H356.4C328.328 562.628 312.4 547.184 303.204 526.592C294.404 506.748 292.556 482.108 292.952 461.208C293.239 447.408 294.504 433.645 296.736 420.024C297.044 418.22 297.264 417.12 297.308 416.768" stroke="black" stroke-width="3" stroke-miterlimit="10"/>
<path d="M520 697H479.858C475.13 669.519 469.644 645.146 464.425 624.324C459.965 605.944 455.505 590.317 451.803 577.886L451 575" stroke="black" stroke-width="3" stroke-miterlimit="10"/>
<path d="M604.516 616.748L584.276 563.596C576.664 543.708 570.24 526.9 569.008 523.996C549.296 474.98 547.404 460.636 448.844 460.592H443.036L379.016 460.944H369.6L292.732 461.34" stroke="black" stroke-width="3" stroke-miterlimit="10"/>
<path d="M516.296 556.556C519.2 562.584 525.536 573.54 533.324 586.432C540.408 598.136 548.636 611.424 556.512 623.92C564.388 636.416 572.704 649.088 578.512 657.844L613.272 639.32L607.2 623.964C606.364 621.764 605.396 619.256 604.428 616.66" stroke="black" stroke-width="3" stroke-miterlimit="10"/>
<path d="M553.212 283.14L554.136 281.776C560.384 271.7 554.928 261.8 555.324 258.896C556.336 251.988 563.2 254.144 564.96 263.912C565.86 268.505 566.052 273.209 565.532 277.86C565.418 281.805 564.007 285.602 561.517 288.664C559.028 291.726 555.599 293.883 551.76 294.8C550.572 297.176 510.796 376.508 491.92 369.6C475.948 363.704 458.612 350.68 440.176 335.192C432.784 328.988 462.176 458.04 462.66 460.856H448.888" stroke="black" stroke-width="3" stroke-miterlimit="10" stroke-linecap="round"/>
<path d="M543.708 278.08C543.418 278.627 543.094 279.156 542.74 279.664" stroke="black" stroke-width="3" stroke-miterlimit="10" stroke-linecap="round"/>
<path d="M553.08 283.008C553.451 282.626 553.79 282.214 554.092 281.776C558.932 274.164 555.72 253.616 549.252 252.648C548.638 252.567 548.013 252.658 547.448 252.912C539.88 255.904 551.408 264.88 543.752 278.036" stroke="black" stroke-width="3" stroke-miterlimit="10" stroke-linecap="round"/>
<path d="M354.5 377.5C344.424 379.304 310.948 384.384 299.464 385.748C302.487 365.896 308.2 346.549 316.448 328.24" stroke="white" stroke-width="3" stroke-miterlimit="10" stroke-linecap="round"/>
<path d="M542.74 279.708C543.095 279.185 543.418 278.642 543.708 278.08C545.638 274.709 546.234 270.737 545.38 266.948C544.984 264.572 542.608 257.62 540.012 256.564C539.386 256.286 538.692 256.199 538.016 256.315C537.341 256.43 536.715 256.743 536.217 257.213C535.718 257.683 535.37 258.29 535.215 258.957C535.061 259.625 535.107 260.323 535.348 260.964C539.044 271.172 537.108 274.648 534.292 276.628C531.476 278.608 529.056 278.916 528.176 281.468C527.951 282.229 527.687 282.978 527.384 283.712C519.288 304.964 496.056 326.7 495.176 325.776C482.768 312.576 466.268 293.172 450.076 274.208C443.74 266.816 408.144 262.856 408.144 262.856C407.947 261.201 407.285 259.636 406.233 258.343C405.181 257.05 403.784 256.082 402.204 255.552L400.62 255.2C385.945 252.336 370.84 252.486 356.224 255.64H355.96C353.272 257.305 351.32 259.933 350.504 262.988C326.744 267.388 307.296 271.788 297.704 281.072C281.248 297.22 246.4 397.452 266.288 413.952C271.216 418.044 282.04 418.836 297.088 416.768C316.288 413.728 335.18 408.987 353.54 402.6" stroke="black" stroke-width="3" stroke-miterlimit="10" stroke-linecap="round"/>
<path d="M552.508 212.916L552.464 213.576L549.296 252.384" stroke="black" stroke-width="3" stroke-linecap="round" stroke-linejoin="round"/>
<path d="M527.692 283.888C527.692 283.888 536.492 297.088 551.496 294.624" stroke="black" stroke-width="3" stroke-miterlimit="10" stroke-linecap="round"/>
<path d="M479.644 730.004V737.704H581.504V729.344H581.328H479.688H479.644V730.004Z" stroke="black" stroke-width="3" stroke-linecap="round" stroke-linejoin="round"/>
<path d="M594.352 687.192L647.944 658.328" stroke="white" stroke-width="3" stroke-miterlimit="10"/>
<path d="M593.912 688.116L597.564 694.848L687.148 646.492L683.188 639.1L683.056 639.188L593.604 687.5H593.56L593.912 688.116Z" stroke="black" stroke-width="3" stroke-linecap="round" stroke-linejoin="round"/>
<path d="M328.196 492.8C328.68 510.4 317.548 521.356 303.072 526.548C297.403 528.535 291.473 529.677 285.472 529.936" stroke="black" stroke-width="3" stroke-miterlimit="10" stroke-linecap="round"/>
<path d="M613.756 639.232C615.076 638.836 619.476 638.616 625.416 638.088C637.411 637.354 649.252 635 660.616 631.092C667.392 628.408 675.048 628.056 679.844 633.512C681.194 635.055 682.225 636.85 682.88 638.792V639.188L594.88 686.928L578.644 658.46L613.756 639.232Z" stroke="black" stroke-width="3" stroke-linecap="round" stroke-linejoin="round"/>
<path d="M598.796 600.776H710.952" stroke="black" stroke-width="3" stroke-miterlimit="10"/>
<path d="M517.836 600.776H541.64" stroke="black" stroke-width="3" stroke-miterlimit="10"/>
<path d="M168.124 600.776H458.348" stroke="black" stroke-width="3" stroke-miterlimit="10"/>
<path d="M520.744 696.528C522.108 696.836 526.068 698.728 531.568 700.928C542.469 706.017 554.017 709.585 565.888 711.532C573.104 712.368 580.056 715.712 581.684 722.796C582.065 724.802 582.065 726.862 581.684 728.868C581.701 729.014 581.701 729.162 581.684 729.308H480V696H519.6H520.392L520.744 696.528Z" fill="#332E6F" stroke="black" stroke-width="3" stroke-miterlimit="10"/>
<path d="M399.74 396.22H399.96C400.563 396.116 401.181 396.146 401.771 396.31C402.36 396.473 402.906 396.766 403.369 397.165C403.832 397.565 404.2 398.063 404.448 398.622C404.695 399.181 404.816 399.789 404.8 400.4C404.8 402.556 402.248 405.196 397.628 407.132C388.486 410.4 378.556 410.754 369.204 408.144C364.281 407.005 359.478 405.399 354.86 403.348" stroke="black" stroke-width="3" stroke-miterlimit="10" stroke-linecap="round" stroke-linejoin="round"/>
<path d="M292.292 420.728C293.656 420.728 295.064 420.332 296.692 420.024C316.058 415.353 335.153 409.624 353.892 402.864L359.216 401.06" stroke="white" stroke-width="3" stroke-linejoin="round"/>
</svg>
