<svg width="10" height="16" viewBox="0 0 10 16" fill="none" xmlns="http://www.w3.org/2000/svg">
<path d="M7.5665 15.3166L0.966503 8.71663C0.855392 8.60552 0.777615 8.49441 0.733171 8.3833C0.688726 8.27219 0.666504 8.14997 0.666504 8.01663C0.666504 7.8833 0.688726 7.76108 0.733171 7.64997C0.777615 7.53886 0.855392 7.42775 0.966503 7.31663L7.59984 0.683301C7.79984 0.483301 8.03873 0.383301 8.3165 0.383301C8.59428 0.383301 8.83317 0.483301 9.03317 0.683301C9.23317 0.883301 9.32762 1.12775 9.3165 1.41663C9.30539 1.70552 9.19984 1.94997 8.99984 2.14997L3.13317 8.01663L9.03317 13.9166C9.23317 14.1166 9.33317 14.35 9.33317 14.6166C9.33317 14.8833 9.23317 15.1166 9.03317 15.3166C8.83317 15.5166 8.58873 15.6166 8.29984 15.6166C8.01095 15.6166 7.7665 15.5166 7.5665 15.3166Z" fill="#7064FF"/>
</svg>
