<svg width="896" height="896" viewBox="0 0 896 896" fill="none" xmlns="http://www.w3.org/2000/svg">
<g filter="url(#filter0_d_706_2555)">
<g clip-path="url(#clip0_706_2555)">
<path d="M8 28C8 16.9543 16.9543 8 28 8H868C879.046 8 888 16.9543 888 28V868C888 879.046 879.046 888 868 888H28C16.9543 888 8 879.046 8 868V28Z" fill="#FCFBFF"/>
<path d="M538.675 800.041C547.915 801.097 556.627 806.245 554.471 817.993V817.905H483.323C485.303 806.333 476.635 801.229 467.439 800.305C462.803 799.71 458.225 798.724 453.755 797.357V796.785C453.755 795.993 453.755 791.857 453.755 785.037H493.003C496.567 785.609 519.491 797.753 538.675 800.041Z" fill="#332E6F"/>
<path d="M467.438 800.042C476.634 801.098 485.302 806.202 483.322 817.642V817.906H382.122C382.122 814.826 382.122 802.946 381.858 784.906H422.206C424.89 785.478 439.058 792.782 454.15 797.138C458.493 798.468 462.937 799.439 467.438 800.042V800.042Z" fill="#332E6F"/>
<path d="M452.653 678.161C453.093 725.109 453.665 765.589 453.841 784.773C453.841 791.593 453.841 795.729 453.841 796.521" stroke="black" stroke-width="1.376" stroke-miterlimit="10"/>
<path d="M408.918 491.777C409.446 510.785 396.29 522.181 379.966 526.713C375.5 527.944 370.91 528.667 366.282 528.869" stroke="black" stroke-width="1.376" stroke-miterlimit="10" stroke-linecap="round"/>
<path d="M483.058 817.905L381.858 818.389C381.858 818.389 381.858 818.037 381.858 817.685C381.858 814.605 381.858 802.725 381.594 784.685C381.022 729.949 379.702 618.629 380.098 526.625C380.098 509.465 380.098 492.965 380.494 477.653" stroke="black" stroke-width="1.376" stroke-linecap="round" stroke-linejoin="round"/>
<path d="M477.206 513.997C474.791 569.424 466.502 624.439 452.478 678.117C443.194 715.561 432.414 751.289 422.03 784.333V784.773C424.714 785.345 438.882 792.649 453.974 797.005C458.444 798.372 463.022 799.358 467.658 799.953C476.854 801.009 485.522 806.113 483.542 817.553C483.525 817.625 483.525 817.701 483.542 817.773" stroke="black" stroke-width="1.376" stroke-linecap="round" stroke-linejoin="round"/>
<path d="M547.827 478.27C545.099 599.666 518.523 703.99 493.091 784.774C496.655 785.522 519.491 797.666 538.763 799.954C548.003 801.01 556.715 806.158 554.559 817.906H482.619" stroke="black" stroke-width="1.376" stroke-linecap="round" stroke-linejoin="round"/>
<path d="M494.719 784.773H493.091H454.503" stroke="black" stroke-width="1.376" stroke-miterlimit="10"/>
<path d="M421.855 784.773H421.811H381.639" stroke="black" stroke-width="1.376" stroke-miterlimit="10"/>
<path d="M381.727 817.773H381.507V826.133H483.059V818.037V817.773H381.727Z" stroke="black" stroke-width="1.376" stroke-linecap="round" stroke-linejoin="round"/>
<path d="M483.234 818.037V826.133H554.294V818.037V817.773H483.322H483.234V818.037Z" stroke="black" stroke-width="1.376" stroke-linecap="round" stroke-linejoin="round"/>
<path d="M423.13 785.126C429.29 787.458 449.53 797.798 467.13 799.866C476.37 800.922 483.102 804.266 482.97 819.05" stroke="white" stroke-width="1.376" stroke-linejoin="round"/>
<path d="M533.633 353.112C540.937 400.324 549.209 458.184 549.605 480.712L377.521 481.02C378.401 464.3 394.285 313.82 394.285 313.82C394.285 313.82 347.953 385.848 323.885 367.016C308.133 354.696 288.289 227.756 288.289 227.756L306.373 222.344C312.753 247.908 338.977 313.82 340.341 313.82C341.705 313.82 371.141 272.812 385.089 254.684C393.405 243.948 430.585 245.576 430.585 245.576C432.037 241.968 432.785 238.712 436.305 236.776C439.825 234.84 466.577 231.848 481.273 235.896C483.399 236.647 485.279 237.967 486.706 239.713C488.134 241.458 489.055 243.562 489.369 245.796C489.369 245.796 511.017 244.916 523.997 252.044C538.737 260.052 629.597 442.08 629.597 442.08L614.373 456.204L533.633 353.112Z" fill="#332E6F"/>
<path d="M483.781 141.385C482.813 131.397 481.625 116.613 474.981 108.605C453.817 82.9089 426.009 132.365 421.169 148.425C416.769 163.429 436.745 198.497 442.729 201.225C451.837 205.317 465.345 197.133 469.921 188.685" stroke="black" stroke-width="1.376" stroke-miterlimit="10" stroke-linecap="round"/>
<path d="M482.988 236.072C484 210.112 486.42 186.66 485.32 160.656" stroke="black" stroke-width="1.376" stroke-miterlimit="10"/>
<path d="M445.282 200.872C443.522 212.796 441.498 226.832 436.746 236.732" stroke="black" stroke-width="1.376" stroke-miterlimit="10"/>
<path d="M479.998 146.047C493.198 128.447 501.074 152.603 496.102 158.587C494.32 160.194 492.049 161.154 489.655 161.314C487.26 161.473 484.882 160.823 482.902 159.467" stroke="black" stroke-width="1.376" stroke-miterlimit="10" stroke-linecap="round"/>
<path d="M437.493 118.373C435.997 118.373 401.149 109.837 406.693 100.377C412.765 89.6409 479.029 127.217 483.165 129.241" stroke="black" stroke-width="1.376" stroke-miterlimit="10"/>
<path d="M455.141 142.617C458.352 144.656 461.945 146.018 465.701 146.621" stroke="black" stroke-width="1.376" stroke-miterlimit="10" stroke-linecap="round"/>
<path d="M485.541 149.567C487.353 151.347 489.74 152.423 492.273 152.603" stroke="black" stroke-width="1.376" stroke-miterlimit="10" stroke-linecap="round"/>
<path d="M457.293 154.187C458.314 154.187 459.141 153.36 459.141 152.339C459.141 151.319 458.314 150.491 457.293 150.491C456.273 150.491 455.445 151.319 455.445 152.339C455.445 153.36 456.273 154.187 457.293 154.187Z" fill="black"/>
<path d="M433.579 149.875C434.6 149.875 435.427 149.048 435.427 148.027C435.427 147.007 434.6 146.179 433.579 146.179C432.559 146.179 431.731 147.007 431.731 148.027C431.731 149.048 432.559 149.875 433.579 149.875Z" fill="black"/>
<path d="M431.289 139.755C432.159 139.154 433.149 138.747 434.191 138.563C435.232 138.379 436.302 138.423 437.325 138.69C438.349 138.957 439.302 139.443 440.121 140.112C440.94 140.782 441.604 141.621 442.069 142.571C443.213 147.367 438.989 156.387 436.965 161.623C435.601 165.187 433.181 172.183 440.045 171.259" stroke="black" stroke-width="1.376" stroke-miterlimit="10" stroke-linecap="round"/>
<path d="M452.544 187.187C451.728 187.991 450.744 188.603 449.662 188.978C448.58 189.353 447.428 189.481 446.29 189.355C445.152 189.229 444.056 188.85 443.083 188.247C442.11 187.643 441.283 186.83 440.664 185.867" stroke="black" stroke-width="1.376" stroke-miterlimit="10" stroke-linecap="round"/>
<path d="M297.971 164.661H234.699C231.841 164.817 229.039 163.836 226.903 161.931C224.767 160.026 223.473 157.353 223.303 154.497V80.0489C223.484 77.1966 224.782 74.5306 226.915 72.6282C229.048 70.7259 231.844 69.7403 234.699 69.8849H318.035C320.897 69.7283 323.704 70.7085 325.847 72.6121C327.989 74.5157 329.293 77.1886 329.475 80.0489V154.497C329.305 157.361 328.004 160.041 325.859 161.947C323.714 163.853 320.899 164.829 318.035 164.661H308.135" stroke="black" stroke-width="1.376" stroke-linecap="round" stroke-linejoin="round"/>
<path d="M307.784 192.513C308.638 183.259 308.564 173.944 307.564 164.705C306.816 158.809 305.452 154.277 303.164 154.189C299.82 154.189 298.764 158.149 298.28 164.661C297.796 171.173 298.06 181.469 297.136 191.633" stroke="black" stroke-width="1.376" stroke-miterlimit="10" stroke-linecap="round"/>
<path d="M306.153 222.388C314.337 219.792 321.729 193.04 301.753 192.204C297.793 192.204 289.785 191.412 288.553 196.604C288.286 197.485 288.371 198.435 288.789 199.255C289.208 200.076 289.927 200.702 290.797 201.004C292.713 201.474 294.677 201.725 296.649 201.752C299.069 201.752 301.621 203.16 300.785 203.468C297.045 204.832 295.505 209.98 295.285 213.456" stroke="black" stroke-width="1.376" stroke-miterlimit="10" stroke-linecap="round"/>
<path d="M297.531 182.26C296.871 176.496 287.807 177.86 286.883 182.26C284.155 195.46 287.631 212.576 295.243 210.552" stroke="black" stroke-width="1.376" stroke-miterlimit="10" stroke-linecap="round"/>
<path d="M286.091 187.189C286.155 185.963 285.73 184.763 284.909 183.851C284.088 182.939 282.938 182.391 281.713 182.327C280.488 182.263 279.287 182.688 278.375 183.509C277.463 184.33 276.915 185.479 276.851 186.705C274.211 199.333 279.315 209.365 282.747 211.213C283.345 211.474 283.988 211.614 284.64 211.624C285.292 211.635 285.939 211.516 286.545 211.275C287.151 211.033 287.703 210.674 288.168 210.218C288.634 209.762 289.005 209.217 289.259 208.617" stroke="black" stroke-width="1.376" stroke-miterlimit="10" stroke-linecap="round"/>
<path d="M287.983 227.668C281.339 224.456 278.215 211.828 279.447 208.132" stroke="black" stroke-width="1.376" stroke-miterlimit="10" stroke-linecap="round"/>
<path d="M533.417 352.717L533.725 353.113L614.289 455.897" stroke="black" stroke-width="1.376" stroke-miterlimit="10" stroke-linecap="round"/>
<path d="M614.286 456.028L629.51 441.904C629.51 441.904 538.694 259.832 523.954 251.648C510.754 244.52 489.326 245.4 489.326 245.4C489.012 243.166 488.091 241.062 486.663 239.317C485.236 237.571 483.356 236.251 481.23 235.5C466.534 231.452 439.606 234.356 436.262 236.38C432.918 238.404 431.862 241.792 430.542 245.18C430.542 245.18 393.362 243.552 385.046 254.288C370.834 272.812 341.662 313.82 340.298 313.82C338.934 313.82 312.71 247.82 306.33 222.344L288.246 227.756C288.246 227.756 308.09 354.696 323.842 367.016C348.042 385.848 394.242 313.82 394.242 313.82C394.242 313.82 378.358 464.256 377.478 481.02L549.562 480.712C549.166 458.228 540.762 400.368 533.59 353.112C530.554 333.532 527.694 315.756 525.67 303.084" stroke="black" stroke-width="1.376" stroke-linecap="round" stroke-linejoin="round"/>
<path d="M630.82 441.649C643.863 439.662 657.586 453.312 663.196 458.381C666.617 461.41 663.516 466.997 658.182 463.676C653.583 460.858 648.803 457.708 645.903 458.746" stroke="black" stroke-width="1.376" stroke-miterlimit="10" stroke-linecap="round"/>
<path d="M645.136 458.717C645.249 458.75 645.356 458.802 645.453 458.87V458.87C654.477 467.991 668.221 490.063 661.132 494.596C660.547 495.026 659.82 495.217 659.099 495.13C658.378 495.044 657.717 494.687 657.25 494.131C655.984 492.604 655.045 490.834 654.492 488.929C652.843 482.978 649.826 477.495 645.68 472.918" stroke="black" stroke-width="1.376" stroke-miterlimit="10" stroke-linecap="round"/>
<path d="M657.038 494.27C657.621 495.423 657.925 496.696 657.927 497.988C657.928 499.28 657.628 500.554 657.049 501.708C656.713 502.511 656.098 503.165 655.318 503.551C654.538 503.936 653.645 504.027 652.804 503.806C650.517 503.479 649.605 501.325 648.971 499.306C646.3 491.737 642.676 484.54 638.186 477.887" stroke="black" stroke-width="1.376" stroke-miterlimit="10" stroke-linecap="round"/>
<path d="M614.005 455.449C611.95 461.298 622.723 471.855 626.248 475.374C631.221 480.847 635.14 487.191 637.808 494.088C638.941 496.691 640.496 501.651 643.363 502.798C643.954 502.923 644.565 502.925 645.157 502.803C645.749 502.682 646.309 502.44 646.804 502.093C647.298 501.745 647.715 501.299 648.03 500.784C648.345 500.268 648.55 499.693 648.632 499.094" stroke="black" stroke-width="1.376" stroke-miterlimit="10" stroke-linecap="round"/>
<path d="M634.131 462.961C638.588 467.079 643.857 461.762 645.256 458.577" stroke="black" stroke-width="1.376" stroke-miterlimit="10" stroke-linecap="round"/>
<path d="M291.928 91.6356C291.551 91.2584 291.103 90.9593 290.611 90.7552C290.118 90.5512 289.59 90.4462 289.056 90.4463H255.538C254.768 90.4461 254.005 90.5977 253.293 90.8925C252.581 91.1873 251.935 91.6194 251.39 92.1641C250.845 92.7089 250.413 93.3557 250.118 94.0675C249.823 94.7793 249.672 95.5422 249.672 96.3127V137.38C249.672 138.15 249.823 138.913 250.118 139.625C250.413 140.337 250.845 140.984 251.39 141.528C251.935 142.073 252.581 142.505 253.293 142.8C254.005 143.095 254.768 143.246 255.538 143.246H296.606C298.16 143.242 299.649 142.622 300.748 141.523C301.848 140.424 302.467 138.934 302.472 137.38V103.862C302.472 103.329 302.367 102.8 302.163 102.308C301.959 101.815 301.66 101.367 301.283 100.99L291.928 91.6356ZM276.072 137.154C274.465 137.154 272.895 136.678 271.559 135.785C270.223 134.892 269.182 133.624 268.567 132.139C267.952 130.655 267.791 129.022 268.105 127.446C268.418 125.87 269.192 124.423 270.328 123.287C271.464 122.151 272.911 121.377 274.487 121.064C276.063 120.75 277.696 120.911 279.18 121.526C280.665 122.141 281.933 123.182 282.826 124.518C283.719 125.854 284.195 127.424 284.195 129.031C284.196 130.098 283.987 131.155 283.579 132.141C283.172 133.127 282.573 134.023 281.819 134.778C281.064 135.532 280.168 136.131 279.182 136.538C278.196 136.946 277.139 137.155 276.072 137.154V137.154ZM282.164 108.723H257.795C257.256 108.723 256.74 108.509 256.359 108.128C255.978 107.748 255.764 107.231 255.764 106.692V98.5694C255.764 98.0308 255.978 97.5142 256.359 97.1334C256.74 96.7526 257.256 96.5386 257.795 96.5386H282.164C282.703 96.5386 283.219 96.7526 283.6 97.1334C283.981 97.5142 284.195 98.0308 284.195 98.5694V106.692C284.195 107.231 283.981 107.748 283.6 108.128C283.219 108.509 282.703 108.723 282.164 108.723Z" fill="#5FA9FF" stroke="black" stroke-width="1.18154" stroke-linecap="round" stroke-linejoin="round"/>
</g>
</g>
<defs>
<filter id="filter0_d_706_2555" x="0" y="0" width="896" height="896" filterUnits="userSpaceOnUse" color-interpolation-filters="sRGB">
<feFlood flood-opacity="0" result="BackgroundImageFix"/>
<feColorMatrix in="SourceAlpha" type="matrix" values="0 0 0 0 0 0 0 0 0 0 0 0 0 0 0 0 0 0 127 0" result="hardAlpha"/>
<feOffset/>
<feGaussianBlur stdDeviation="4"/>
<feComposite in2="hardAlpha" operator="out"/>
<feColorMatrix type="matrix" values="0 0 0 0 0.439216 0 0 0 0 0.392157 0 0 0 0 1 0 0 0 0.25 0"/>
<feBlend mode="normal" in2="BackgroundImageFix" result="effect1_dropShadow_706_2555"/>
<feBlend mode="normal" in="SourceGraphic" in2="effect1_dropShadow_706_2555" result="shape"/>
</filter>
<clipPath id="clip0_706_2555">
<path d="M8 28C8 16.9543 16.9543 8 28 8H868C879.046 8 888 16.9543 888 28V868C888 879.046 879.046 888 868 888H28C16.9543 888 8 879.046 8 868V28Z" fill="white"/>
</clipPath>
</defs>
</svg>
