<svg width="18" height="18" viewBox="0 0 18 18" fill="none" xmlns="http://www.w3.org/2000/svg">
<path d="M16.2614 17.7183L10.5341 11.9829C10.0227 12.3926 9.43466 12.7169 8.76989 12.9559C8.10511 13.1949 7.39773 13.3144 6.64773 13.3144C4.78977 13.3144 3.2175 12.6702 1.93091 11.3817C0.643636 10.0926 0 8.51778 0 6.65718C0 4.79659 0.643636 3.22174 1.93091 1.93263C3.2175 0.644211 4.78977 0 6.64773 0C8.50568 0 10.0783 0.644211 11.3656 1.93263C12.6522 3.22174 13.2955 4.79659 13.2955 6.65718C13.2955 7.40825 13.1761 8.11664 12.9375 8.78236C12.6989 9.44808 12.375 10.037 11.9659 10.5491L17.7188 16.3101C17.9062 16.4979 18 16.7283 18 17.0014C18 17.2745 17.8977 17.5135 17.6932 17.7183C17.5057 17.9061 17.267 18 16.9773 18C16.6875 18 16.4489 17.9061 16.2614 17.7183ZM6.64773 11.266C7.92614 11.266 9.01295 10.8181 9.90818 9.92228C10.8027 9.02577 11.25 7.93741 11.25 6.65718C11.25 5.37696 10.8027 4.28859 9.90818 3.39209C9.01295 2.49627 7.92614 2.04836 6.64773 2.04836C5.36932 2.04836 4.2825 2.49627 3.38727 3.39209C2.49273 4.28859 2.04545 5.37696 2.04545 6.65718C2.04545 7.93741 2.49273 9.02577 3.38727 9.92228C4.2825 10.8181 5.36932 11.266 6.64773 11.266Z" fill="#776694"/>
</svg>
