<svg width="30" height="21" viewBox="0 0 30 21" fill="none" xmlns="http://www.w3.org/2000/svg">
<path d="M15 15.9999C16.5778 15.9999 17.9167 15.4499 19.0167 14.3499C20.1166 13.2499 20.6667 11.911 20.6667 10.3333C20.6667 8.75547 20.1166 7.41659 19.0167 6.31659C17.9167 5.21659 16.5778 4.66659 15 4.66659C13.4222 4.66659 12.0833 5.21659 10.9833 6.31659C9.88332 7.41659 9.33332 8.75547 9.33332 10.3333C9.33332 11.911 9.88332 13.2499 10.9833 14.3499C12.0833 15.4499 13.4222 15.9999 15 15.9999ZM15 14.0666C13.9555 14.0666 13.0722 13.7055 12.35 12.9833C11.6278 12.261 11.2667 11.3777 11.2667 10.3333C11.2667 9.28881 11.6278 8.40547 12.35 7.68325C13.0722 6.96103 13.9555 6.59992 15 6.59992C16.0444 6.59992 16.9278 6.96103 17.65 7.68325C18.3722 8.40547 18.7333 9.28881 18.7333 10.3333C18.7333 11.3777 18.3722 12.261 17.65 12.9833C16.9278 13.7055 16.0444 14.0666 15 14.0666ZM15 20.3333C11.9333 20.3333 9.13887 19.4999 6.61665 17.8333C4.09443 16.1666 2.14443 13.9666 0.766651 11.2333C0.699984 11.1221 0.649984 10.9888 0.61665 10.8333C0.583317 10.6777 0.56665 10.511 0.56665 10.3333C0.56665 10.1555 0.583317 9.98881 0.61665 9.83325C0.649984 9.6777 0.699984 9.54436 0.766651 9.43325C2.14443 6.69992 4.09443 4.49992 6.61665 2.83325C9.13887 1.16659 11.9333 0.333252 15 0.333252C18.0667 0.333252 20.8611 1.16659 23.3833 2.83325C25.9055 4.49992 27.8555 6.69992 29.2333 9.43325C29.3 9.54436 29.35 9.6777 29.3833 9.83325C29.4167 9.98881 29.4333 10.1555 29.4333 10.3333C29.4333 10.511 29.4167 10.6777 29.3833 10.8333C29.35 10.9888 29.3 11.1221 29.2333 11.2333C27.8555 13.9666 25.9055 16.1666 23.3833 17.8333C20.8611 19.4999 18.0667 20.3333 15 20.3333ZM15 18.3333C17.6889 18.3333 20.1611 17.6055 22.4167 16.1499C24.6722 14.6944 26.3889 12.7555 27.5667 10.3333C26.3889 7.91103 24.6722 5.97214 22.4167 4.51659C20.1611 3.06103 17.6889 2.33325 15 2.33325C12.3111 2.33325 9.83887 3.06103 7.58332 4.51659C5.32776 5.97214 3.59998 7.91103 2.39998 10.3333C3.59998 12.7555 5.32776 14.6944 7.58332 16.1499C9.83887 17.6055 12.3111 18.3333 15 18.3333Z" fill="#776694"/>
</svg>
