<svg width="22" height="96" viewBox="0 0 22 96" fill="none" xmlns="http://www.w3.org/2000/svg">
<path d="M11 96C8.1125 96 5.6415 94.9565 3.587 92.8693C1.529 90.7787 0.5 88.2667 0.5 85.3333C0.5 82.4 1.529 79.888 3.587 77.7973C5.6415 75.7102 8.1125 74.6667 11 74.6667C13.8875 74.6667 16.3603 75.7102 18.4183 77.7973C20.4727 79.888 21.5 82.4 21.5 85.3333C21.5 88.2667 20.4727 90.7787 18.4183 92.8693C16.3603 94.9565 13.8875 96 11 96ZM11 64C8.1125 64 5.6415 62.9547 3.587 60.864C1.529 58.7769 0.5 56.2667 0.5 53.3333V10.6667C0.5 7.73333 1.529 5.22133 3.587 3.13067C5.6415 1.04356 8.1125 0 11 0C13.8875 0 16.3603 1.04356 18.4183 3.13067C20.4727 5.22133 21.5 7.73333 21.5 10.6667V53.3333C21.5 56.2667 20.4727 58.7769 18.4183 60.864C16.3603 62.9547 13.8875 64 11 64Z" fill="#FFB55F"/>
</svg>
