<svg width="20" height="21" viewBox="0 0 20 21" fill="#776694" xmlns="http://www.w3.org/2000/svg">
<path d="M6.85 12.925C6.46667 12.925 6.14583 12.7958 5.8875 12.5375C5.62917 12.2792 5.5 11.9583 5.5 11.575C5.5 11.1917 5.62917 10.8708 5.8875 10.6125C6.14583 10.3542 6.46667 10.225 6.85 10.225C7.23333 10.225 7.55417 10.3542 7.8125 10.6125C8.07083 10.8708 8.2 11.1917 8.2 11.575C8.2 11.9583 8.07083 12.2792 7.8125 12.5375C7.55417 12.7958 7.23333 12.925 6.85 12.925ZM13.175 12.925C12.7917 12.925 12.4708 12.7958 12.2125 12.5375C11.9542 12.2792 11.825 11.9583 11.825 11.575C11.825 11.1917 11.9542 10.8708 12.2125 10.6125C12.4708 10.3542 12.7917 10.225 13.175 10.225C13.5583 10.225 13.8792 10.3542 14.1375 10.6125C14.3958 10.8708 14.525 11.1917 14.525 11.575C14.525 11.9583 14.3958 12.2792 14.1375 12.5375C13.8792 12.7958 13.5583 12.925 13.175 12.925ZM10 19C12.3667 19 14.375 18.175 16.025 16.525C17.675 14.875 18.5 12.8667 18.5 10.5C18.5 10.0667 18.4667 9.64167 18.4 9.225C18.3333 8.80833 18.25 8.425 18.15 8.075C17.8167 8.15833 17.4542 8.21667 17.0625 8.25C16.6708 8.28333 16.2667 8.3 15.85 8.3C14.2333 8.3 12.7042 7.96667 11.2625 7.3C9.82083 6.63333 8.59167 5.68333 7.575 4.45C7.00833 5.8 6.19583 6.97917 5.1375 7.9875C4.07917 8.99583 2.86667 9.775 1.5 10.325V10.5C1.5 12.8667 2.325 14.875 3.975 16.525C5.625 18.175 7.63333 19 10 19ZM10 20.5C8.61667 20.5 7.31667 20.2375 6.1 19.7125C4.88333 19.1875 3.825 18.475 2.925 17.575C2.025 16.675 1.3125 15.6167 0.7875 14.4C0.2625 13.1833 0 11.8833 0 10.5C0 9.11667 0.2625 7.81667 0.7875 6.6C1.3125 5.38333 2.025 4.325 2.925 3.425C3.825 2.525 4.88333 1.8125 6.1 1.2875C7.31667 0.7625 8.61667 0.5 10 0.5C11.3833 0.5 12.6833 0.7625 13.9 1.2875C15.1167 1.8125 16.175 2.525 17.075 3.425C17.975 4.325 18.6875 5.38333 19.2125 6.6C19.7375 7.81667 20 9.11667 20 10.5C20 11.8833 19.7375 13.1833 19.2125 14.4C18.6875 15.6167 17.975 16.675 17.075 17.575C16.175 18.475 15.1167 19.1875 13.9 19.7125C12.6833 20.2375 11.3833 20.5 10 20.5ZM7.7 2.325C9.16667 4.04167 10.5208 5.21667 11.7625 5.85C13.0042 6.48333 14.3667 6.8 15.85 6.8C16.25 6.8 16.5667 6.79167 16.8 6.775C17.0333 6.75833 17.2917 6.70833 17.575 6.625C16.825 5.275 15.8042 4.16667 14.5125 3.3C13.2208 2.43333 11.7167 2 10 2C9.55 2 9.125 2.03333 8.725 2.1C8.325 2.16667 7.98333 2.24167 7.7 2.325ZM1.725 8.55C2.525 8.25 3.4375 7.57083 4.4625 6.5125C5.4875 5.45417 6.21667 4.175 6.65 2.675C5.2 3.325 4.10417 4.15417 3.3625 5.1625C2.62083 6.17083 2.075 7.3 1.725 8.55Z" fill="current"/>
</svg>
