<svg width="20" height="20" viewBox="0 0 20 20" fill="none" xmlns="http://www.w3.org/2000/svg">
<path d="M6.85 12.425C6.46667 12.425 6.14583 12.2958 5.8875 12.0375C5.62917 11.7792 5.5 11.4583 5.5 11.075C5.5 10.6917 5.62917 10.3708 5.8875 10.1125C6.14583 9.85417 6.46667 9.725 6.85 9.725C7.23333 9.725 7.55417 9.85417 7.8125 10.1125C8.07083 10.3708 8.2 10.6917 8.2 11.075C8.2 11.4583 8.07083 11.7792 7.8125 12.0375C7.55417 12.2958 7.23333 12.425 6.85 12.425ZM13.175 12.425C12.7917 12.425 12.4708 12.2958 12.2125 12.0375C11.9542 11.7792 11.825 11.4583 11.825 11.075C11.825 10.6917 11.9542 10.3708 12.2125 10.1125C12.4708 9.85417 12.7917 9.725 13.175 9.725C13.5583 9.725 13.8792 9.85417 14.1375 10.1125C14.3958 10.3708 14.525 10.6917 14.525 11.075C14.525 11.4583 14.3958 11.7792 14.1375 12.0375C13.8792 12.2958 13.5583 12.425 13.175 12.425ZM10 18.5C12.3667 18.5 14.375 17.675 16.025 16.025C17.675 14.375 18.5 12.3667 18.5 10C18.5 9.56667 18.4667 9.14167 18.4 8.725C18.3333 8.30833 18.25 7.925 18.15 7.575C17.8167 7.65833 17.4542 7.71667 17.0625 7.75C16.6708 7.78333 16.2667 7.8 15.85 7.8C14.2333 7.8 12.7042 7.46667 11.2625 6.8C9.82083 6.13333 8.59167 5.18333 7.575 3.95C7.00833 5.3 6.19583 6.47917 5.1375 7.4875C4.07917 8.49583 2.86667 9.275 1.5 9.825V10C1.5 12.3667 2.325 14.375 3.975 16.025C5.625 17.675 7.63333 18.5 10 18.5ZM10 20C8.61667 20 7.31667 19.7375 6.1 19.2125C4.88333 18.6875 3.825 17.975 2.925 17.075C2.025 16.175 1.3125 15.1167 0.7875 13.9C0.2625 12.6833 0 11.3833 0 10C0 8.61667 0.2625 7.31667 0.7875 6.1C1.3125 4.88333 2.025 3.825 2.925 2.925C3.825 2.025 4.88333 1.3125 6.1 0.7875C7.31667 0.2625 8.61667 0 10 0C11.3833 0 12.6833 0.2625 13.9 0.7875C15.1167 1.3125 16.175 2.025 17.075 2.925C17.975 3.825 18.6875 4.88333 19.2125 6.1C19.7375 7.31667 20 8.61667 20 10C20 11.3833 19.7375 12.6833 19.2125 13.9C18.6875 15.1167 17.975 16.175 17.075 17.075C16.175 17.975 15.1167 18.6875 13.9 19.2125C12.6833 19.7375 11.3833 20 10 20Z" fill="#4D3483"/>
</svg>
