<svg width="94" height="68" viewBox="0 0 94 68" fill="none" xmlns="http://www.w3.org/2000/svg">
<path d="M32.3 67.45C31.5 67.45 30.75 67.324 30.05 67.072C29.35 66.824 28.7 66.4 28.1 65.8L2.3 40C1.2 38.9 0.674005 37.474 0.722005 35.722C0.774005 33.974 1.35 32.55 2.45 31.45C3.55 30.35 4.95 29.8 6.65 29.8C8.35 29.8 9.75 30.35 10.85 31.45L32.3 52.9L83.15 2.05001C84.25 0.95001 85.676 0.400009 87.428 0.400009C89.176 0.400009 90.6 0.95001 91.7 2.05001C92.8 3.15001 93.35 4.57401 93.35 6.32201C93.35 8.07401 92.8 9.50001 91.7 10.6L36.5 65.8C35.9 66.4 35.25 66.824 34.55 67.072C33.85 67.324 33.1 67.45 32.3 67.45Z" fill="#85ED61"/>
</svg>
