<svg width="20" height="20" viewBox="0 0 20 20" fill="none" xmlns="http://www.w3.org/2000/svg">
<path d="M7.325 11.5C6.375 11.5 5.5625 11.1625 4.8875 10.4875C4.2125 9.8125 3.875 9 3.875 8.05C3.875 7.1 4.2125 6.2875 4.8875 5.6125C5.5625 4.9375 6.375 4.6 7.325 4.6C8.275 4.6 9.0875 4.9375 9.7625 5.6125C10.4375 6.2875 10.775 7.1 10.775 8.05C10.775 9 10.4375 9.8125 9.7625 10.4875C9.0875 11.1625 8.275 11.5 7.325 11.5ZM7.325 10C7.875 10 8.3375 9.80833 8.7125 9.425C9.0875 9.04167 9.275 8.58333 9.275 8.05C9.275 7.5 9.0875 7.0375 8.7125 6.6625C8.3375 6.2875 7.875 6.1 7.325 6.1C6.79167 6.1 6.33333 6.2875 5.95 6.6625C5.56667 7.0375 5.375 7.5 5.375 8.05C5.375 8.58333 5.56667 9.04167 5.95 9.425C6.33333 9.80833 6.79167 10 7.325 10ZM14.85 12.65C14.1167 12.65 13.4917 12.3917 12.975 11.875C12.4583 11.3583 12.2 10.7333 12.2 10C12.2 9.26667 12.4583 8.64167 12.975 8.125C13.4917 7.60833 14.1167 7.35 14.85 7.35C15.5833 7.35 16.2083 7.60833 16.725 8.125C17.2417 8.64167 17.5 9.26667 17.5 10C17.5 10.7333 17.2417 11.3583 16.725 11.875C16.2083 12.3917 15.5833 12.65 14.85 12.65ZM8.55 18.4C9.35 16.9167 10.3708 15.9042 11.6125 15.3625C12.8542 14.8208 13.9333 14.55 14.85 14.55C15.2333 14.55 15.5875 14.5792 15.9125 14.6375C16.2375 14.6958 16.575 14.775 16.925 14.875C17.3583 14.2583 17.7292 13.525 18.0375 12.675C18.3458 11.825 18.5 10.9333 18.5 10C18.5 7.63333 17.675 5.625 16.025 3.975C14.375 2.325 12.3667 1.5 10 1.5C7.63333 1.5 5.625 2.325 3.975 3.975C2.325 5.625 1.5 7.63333 1.5 10C1.5 10.85 1.625 11.6708 1.875 12.4625C2.125 13.2542 2.46667 13.9667 2.9 14.6C3.53333 14.2667 4.24167 14 5.025 13.8C5.80833 13.6 6.575 13.5 7.325 13.5C7.775 13.5 8.2125 13.5292 8.6375 13.5875C9.0625 13.6458 9.45833 13.7417 9.825 13.875C9.50833 14.0417 9.21667 14.2208 8.95 14.4125C8.68333 14.6042 8.44167 14.8083 8.225 15.025C8.05833 15.0083 7.9 15 7.75 15H7.325C6.75833 15 6.14583 15.0792 5.4875 15.2375C4.82917 15.3958 4.25833 15.5917 3.775 15.825C4.40833 16.4917 5.1375 17.0542 5.9625 17.5125C6.7875 17.9708 7.65 18.2667 8.55 18.4ZM10 20C8.63333 20 7.34167 19.7375 6.125 19.2125C4.90833 18.6875 3.84583 17.9708 2.9375 17.0625C2.02917 16.1542 1.3125 15.0917 0.7875 13.875C0.2625 12.6583 0 11.3667 0 10C0 8.61667 0.2625 7.32083 0.7875 6.1125C1.3125 4.90417 2.02917 3.84583 2.9375 2.9375C3.84583 2.02917 4.90833 1.3125 6.125 0.7875C7.34167 0.2625 8.63333 0 10 0C11.3833 0 12.6792 0.2625 13.8875 0.7875C15.0958 1.3125 16.1542 2.02917 17.0625 2.9375C17.9708 3.84583 18.6875 4.90417 19.2125 6.1125C19.7375 7.32083 20 8.61667 20 10C20 11.3667 19.7375 12.6583 19.2125 13.875C18.6875 15.0917 17.9708 16.1542 17.0625 17.0625C16.1542 17.9708 15.0958 18.6875 13.8875 19.2125C12.6792 19.7375 11.3833 20 10 20Z" fill="#4D3483"/>
<path d="M7.325 10C7.875 10 8.3375 9.80833 8.7125 9.425C9.0875 9.04167 9.275 8.58333 9.275 8.05C9.275 7.5 9.0875 7.0375 8.7125 6.6625C8.3375 6.2875 7.875 6.1 7.325 6.1C6.79167 6.1 6.33333 6.2875 5.95 6.6625C5.56667 7.0375 5.375 7.5 5.375 8.05C5.375 8.58333 5.56667 9.04167 5.95 9.425C6.33333 9.80833 6.79167 10 7.325 10Z" fill="#4D3483"/>
<path d="M8.225 15.025C8.05833 15.0083 7.9 15 7.75 15H7.325C6.75833 15 6.14583 15.0792 5.4875 15.2375C4.82917 15.3958 4.25833 15.5917 3.775 15.825C4.40833 16.4917 5.1375 17.0542 5.9625 17.5125C6.64575 16.6558 7.48653 15.7221 8.225 15.025Z" fill="#4D3483"/>
</svg>
