<svg width="20" height="21" viewBox="0 0 20 21" fill="#776694" xmlns="http://www.w3.org/2000/svg">
<path d="M7.325 12C6.375 12 5.5625 11.6625 4.8875 10.9875C4.2125 10.3125 3.875 9.5 3.875 8.55C3.875 7.6 4.2125 6.7875 4.8875 6.1125C5.5625 5.4375 6.375 5.1 7.325 5.1C8.275 5.1 9.0875 5.4375 9.7625 6.1125C10.4375 6.7875 10.775 7.6 10.775 8.55C10.775 9.5 10.4375 10.3125 9.7625 10.9875C9.0875 11.6625 8.275 12 7.325 12ZM7.325 10.5C7.875 10.5 8.3375 10.3083 8.7125 9.925C9.0875 9.54167 9.275 9.08333 9.275 8.55C9.275 8 9.0875 7.5375 8.7125 7.1625C8.3375 6.7875 7.875 6.6 7.325 6.6C6.79167 6.6 6.33333 6.7875 5.95 7.1625C5.56667 7.5375 5.375 8 5.375 8.55C5.375 9.08333 5.56667 9.54167 5.95 9.925C6.33333 10.3083 6.79167 10.5 7.325 10.5ZM14.85 13.15C14.1167 13.15 13.4917 12.8917 12.975 12.375C12.4583 11.8583 12.2 11.2333 12.2 10.5C12.2 9.76667 12.4583 9.14167 12.975 8.625C13.4917 8.10833 14.1167 7.85 14.85 7.85C15.5833 7.85 16.2083 8.10833 16.725 8.625C17.2417 9.14167 17.5 9.76667 17.5 10.5C17.5 11.2333 17.2417 11.8583 16.725 12.375C16.2083 12.8917 15.5833 13.15 14.85 13.15ZM8.55 18.9C9.35 17.4167 10.3708 16.4042 11.6125 15.8625C12.8542 15.3208 13.9333 15.05 14.85 15.05C15.2333 15.05 15.5875 15.0792 15.9125 15.1375C16.2375 15.1958 16.575 15.275 16.925 15.375C17.3583 14.7583 17.7292 14.025 18.0375 13.175C18.3458 12.325 18.5 11.4333 18.5 10.5C18.5 8.13333 17.675 6.125 16.025 4.475C14.375 2.825 12.3667 2 10 2C7.63333 2 5.625 2.825 3.975 4.475C2.325 6.125 1.5 8.13333 1.5 10.5C1.5 11.35 1.625 12.1708 1.875 12.9625C2.125 13.7542 2.46667 14.4667 2.9 15.1C3.53333 14.7667 4.24167 14.5 5.025 14.3C5.80833 14.1 6.575 14 7.325 14C7.775 14 8.2125 14.0292 8.6375 14.0875C9.0625 14.1458 9.45833 14.2417 9.825 14.375C9.50833 14.5417 9.21667 14.7208 8.95 14.9125C8.68333 15.1042 8.44167 15.3083 8.225 15.525C8.05833 15.5083 7.9 15.5 7.75 15.5H7.325C6.75833 15.5 6.14583 15.5792 5.4875 15.7375C4.82917 15.8958 4.25833 16.0917 3.775 16.325C4.40833 16.9917 5.1375 17.5542 5.9625 18.0125C6.7875 18.4708 7.65 18.7667 8.55 18.9ZM10 20.5C8.63333 20.5 7.34167 20.2375 6.125 19.7125C4.90833 19.1875 3.84583 18.4708 2.9375 17.5625C2.02917 16.6542 1.3125 15.5917 0.7875 14.375C0.2625 13.1583 0 11.8667 0 10.5C0 9.11667 0.2625 7.82083 0.7875 6.6125C1.3125 5.40417 2.02917 4.34583 2.9375 3.4375C3.84583 2.52917 4.90833 1.8125 6.125 1.2875C7.34167 0.7625 8.63333 0.5 10 0.5C11.3833 0.5 12.6792 0.7625 13.8875 1.2875C15.0958 1.8125 16.1542 2.52917 17.0625 3.4375C17.9708 4.34583 18.6875 5.40417 19.2125 6.6125C19.7375 7.82083 20 9.11667 20 10.5C20 11.8667 19.7375 13.1583 19.2125 14.375C18.6875 15.5917 17.9708 16.6542 17.0625 17.5625C16.1542 18.4708 15.0958 19.1875 13.8875 19.7125C12.6792 20.2375 11.3833 20.5 10 20.5Z" fill="current"/>
</svg>
